<svg id="avatar-default" xmlns="http://www.w3.org/2000/svg" width="114" height="114" viewBox="0 0 114 114">
  <circle id="Ellipse_8078" data-name="Ellipse 8078" cx="57" cy="57" r="57" fill="#fafcff"/>
  <g id="avatar" transform="translate(-3.986 28.034)">
    <g id="Group_41405" data-name="Group 41405" transform="translate(36.073)">
      <path id="Path_115038" data-name="Path 115038" d="M149.341,31.085h.382a11.024,11.024,0,0,0,8.422-3.644c4.6-5.185,3.835-14.073,3.751-14.921-.3-6.368-3.309-9.414-5.794-10.836A13.283,13.283,0,0,0,149.676,0h-.2a13.3,13.3,0,0,0-6.427,1.637c-2.509,1.422-5.567,4.468-5.866,10.883-.084.848-.848,9.736,3.751,14.921A10.98,10.98,0,0,0,149.341,31.085Zm-8.972-18.266c0-.036.012-.072.012-.1.394-8.566,6.475-9.486,9.079-9.486h.143c3.226.072,8.709,1.386,9.079,9.486a.233.233,0,0,0,.012.1c.012.084.848,8.207-2.951,12.484a7.83,7.83,0,0,1-6.152,2.557h-.119a7.8,7.8,0,0,1-6.141-2.557C139.545,21.05,140.357,12.89,140.369,12.819Z" transform="translate(-125.014)" fill="#b8c6dc"/>
      <path id="Path_115039" data-name="Path 115039" d="M85.141,274.1v-.036c0-.1-.012-.191-.012-.3-.072-2.365-.227-7.9-5.412-9.665-.036-.012-.084-.024-.119-.036a34.472,34.472,0,0,1-9.916-4.516,1.612,1.612,0,1,0-1.852,2.64,37.209,37.209,0,0,0,10.907,4.982c2.784.992,3.094,3.966,3.178,6.69a2.4,2.4,0,0,0,.012.3,21.684,21.684,0,0,1-.251,3.692c-1.935,1.1-9.521,4.9-21.062,4.9-11.493,0-19.127-3.811-21.074-4.91a20.528,20.528,0,0,1-.251-3.691c0-.1.012-.191.012-.3.084-2.724.394-5.7,3.178-6.69a37.555,37.555,0,0,0,10.907-4.982,1.612,1.612,0,0,0-1.852-2.64,34.093,34.093,0,0,1-9.916,4.516c-.048.012-.084.024-.119.036-5.185,1.78-5.34,7.311-5.412,9.665a2.4,2.4,0,0,1-.012.3v.036a18.32,18.32,0,0,0,.609,5.412,1.533,1.533,0,0,0,.621.753c.358.239,8.948,5.711,23.32,5.711s22.961-5.484,23.32-5.711a1.6,1.6,0,0,0,.621-.753A19.221,19.221,0,0,0,85.141,274.1Z" transform="translate(-36.073 -228.273)" fill="#b8c6dc"/>
    </g>
  </g>
</svg>
