<svg xmlns="http://www.w3.org/2000/svg" width="975.432" height="279.957" viewBox="0 0 975.432 279.957">
  <g id="chart" transform="translate(-166 -346.043)">
    <path id="Path_49729" data-name="Path 49729" d="M4209.252,3538.408h953.722" transform="translate(-4021.545 -3177.088)" fill="none" stroke="#d5d5d9" stroke-width="1"/>
    <path id="Path_49730" data-name="Path 49730" d="M4209.252,3538.408h953.722" transform="translate(-4021.545 -3137.355)" fill="none" stroke="#d5d5d9" stroke-width="1"/>
    <path id="Path_49731" data-name="Path 49731" d="M4209.252,3538.408h953.722" transform="translate(-4021.545 -3096.485)" fill="none" stroke="#d5d5d9" stroke-width="1"/>
    <path id="Path_49732" data-name="Path 49732" d="M4209.252,3538.408h953.722" transform="translate(-4021.545 -3056.752)" fill="none" stroke="#d5d5d9" stroke-width="1"/>
    <path id="Path_49733" data-name="Path 49733" d="M4209.252,3538.408h953.722" transform="translate(-4021.545 -3015.884)" fill="none" stroke="rgba(100,98,113,0.15)" stroke-width="1"/>
    <path id="Path_49752" data-name="Path 49752" d="M4209.252,3538.408h953.722" transform="translate(-4021.545 -2976.151)" fill="none" stroke="#d5d5d9" stroke-width="1"/>
    <path id="Path_49734" data-name="Path 49734" d="M4209.252,3538.408H5157.3" transform="translate(-4015.868 -2935.282)" fill="none" stroke="rgba(100,98,113,0.15)" stroke-width="1"/>
    <path id="Path_49736" data-name="Path 49736" d="M5154.774,3554.864H4209.252V3298.043" transform="translate(-4015.867 -2952)" fill="none" stroke="#d5d5d9" stroke-width="1"/>
    <text id="_18" data-name="18" transform="translate(178 364)" fill="#646271" font-size="11" font-family="SegoeUI, Segoe UI"><tspan x="-11.859" y="0">18</tspan></text>
    <text id="_15" data-name="15" transform="translate(178 405)" fill="#646271" font-size="11" font-family="SegoeUI, Segoe UI"><tspan x="-11.859" y="0">15</tspan></text>
    <text id="_12" data-name="12" transform="translate(178 446)" fill="#646271" font-size="11" font-family="SegoeUI, Segoe UI"><tspan x="-11.859" y="0">12</tspan></text>
    <text id="_9" data-name="9" transform="translate(179 486)" fill="#646271" font-size="11" font-family="SegoeUI, Segoe UI"><tspan x="-5.93" y="0">9</tspan></text>
    <text id="_6" data-name="6" transform="translate(179 527)" fill="#646271" font-size="11" font-family="SegoeUI, Segoe UI"><tspan x="-5.93" y="0">6</tspan></text>
    <text id="_3" data-name="3" transform="translate(179 568)" fill="#646271" font-size="11" font-family="SegoeUI, Segoe UI"><tspan x="-5.93" y="0">3</tspan></text>
    <text id="_0" data-name="0" transform="translate(179 606)" fill="#646271" font-size="11" font-family="SegoeUI, Segoe UI"><tspan x="-5.93" y="0">0</tspan></text>
    <text id="_03_Oct" data-name="03 Oct" transform="translate(255 623)" fill="#646271" font-size="11" font-family="SegoeUI, Segoe UI"><tspan x="-31.974" y="0">03 Oct</tspan></text>
    <text id="_04_Oct" data-name="04 Oct" transform="translate(378 623)" fill="#646271" font-size="11" font-family="SegoeUI, Segoe UI"><tspan x="-15.987" y="0">04 Oct</tspan></text>
    <text id="_05_Oct" data-name="05 Oct" transform="translate(516 623)" fill="#646271" font-size="11" font-family="SegoeUI, Segoe UI"><tspan x="-15.987" y="0">05 Oct</tspan></text>
    <text id="_06_Oct" data-name="06 Oct" transform="translate(654 623)" fill="#646271" font-size="11" font-family="SegoeUI, Segoe UI"><tspan x="-15.987" y="0">06 Oct</tspan></text>
    <text id="_07_Oct" data-name="07 Oct" transform="translate(792 623)" fill="#646271" font-size="11" font-family="SegoeUI, Segoe UI"><tspan x="-15.987" y="0">07 Oct</tspan></text>
    <text id="_08_Oct" data-name="08 Oct" transform="translate(930 623)" fill="#646271" font-size="11" font-family="SegoeUI, Segoe UI"><tspan x="-15.987" y="0">08 Oct</tspan></text>
    <text id="_09_Oct" data-name="09 Oct" transform="translate(1068 623)" fill="#646271" font-size="11" font-family="SegoeUI, Segoe UI"><tspan x="-15.987" y="0">09 Oct</tspan></text>
    <path id="Path_49739" data-name="Path 49739" d="M280.5,1693.391v4.246" transform="translate(-40.758 -1090.389)" fill="none" stroke="rgba(100,98,113,0.15)" stroke-width="1"/>
    <path id="Path_49740" data-name="Path 49740" d="M280.5,1693.391v4.246" transform="translate(34.167 -1090.389)" fill="none" stroke="rgba(100,98,113,0.15)" stroke-width="1"/>
    <path id="Path_49741" data-name="Path 49741" d="M280.5,1693.391v4.246" transform="translate(110.698 -1090.389)" fill="none" stroke="rgba(100,98,113,0.15)" stroke-width="1"/>
    <path id="Path_49742" data-name="Path 49742" d="M280.5,1693.391v4.246" transform="translate(185.134 -1090.389)" fill="none" stroke="rgba(100,98,113,0.15)" stroke-width="1"/>
    <path id="Path_49743" data-name="Path 49743" d="M280.5,1693.391v4.246" transform="translate(259.571 -1090.389)" fill="none" stroke="rgba(100,98,113,0.15)" stroke-width="1"/>
    <path id="Path_49744" data-name="Path 49744" d="M280.5,1693.391v4.246" transform="translate(334.008 -1090.389)" fill="none" stroke="rgba(100,98,113,0.15)" stroke-width="1"/>
    <path id="Path_49746" data-name="Path 49746" d="M280.5,1693.391v4.246" transform="translate(411.683 -1090.389)" fill="none" stroke="rgba(100,98,113,0.15)" stroke-width="1"/>
    <path id="Rectangle_25246" data-name="Rectangle 25246" d="M6.471,0h0a6.471,6.471,0,0,1,6.471,6.471V87.413a0,0,0,0,1,0,0H0a0,0,0,0,1,0,0V6.471A6.471,6.471,0,0,1,6.471,0Z" transform="translate(232 516.28)" fill="#fca311"/>
    <path id="Rectangle_25247" data-name="Rectangle 25247" d="M6.471,0h0a6.471,6.471,0,0,1,6.471,6.471V132.823a0,0,0,0,1,0,0H0a0,0,0,0,1,0,0V6.471A6.471,6.471,0,0,1,6.471,0Z" transform="translate(370 470.87)" fill="#fca311"/>
    <path id="Rectangle_25248" data-name="Rectangle 25248" d="M6.471,0h0a6.471,6.471,0,0,1,6.471,6.471V87.413a0,0,0,0,1,0,0H0a0,0,0,0,1,0,0V6.471A6.471,6.471,0,0,1,6.471,0Z" transform="translate(508 516.28)" fill="#fca311"/>
    <path id="Rectangle_25249" data-name="Rectangle 25249" d="M6.471,0h0a6.471,6.471,0,0,1,6.471,6.471V196.4a0,0,0,0,1,0,0H0a0,0,0,0,1,0,0V6.471A6.471,6.471,0,0,1,6.471,0Z" transform="translate(647 407.297)" fill="#fca311"/>
    <path id="Rectangle_25250" data-name="Rectangle 25250" d="M6.471,0h0a6.471,6.471,0,0,1,6.471,6.471V145.31a0,0,0,0,1,0,0H0a0,0,0,0,1,0,0V6.471A6.471,6.471,0,0,1,6.471,0Z" transform="translate(785 458.383)" fill="#fca311"/>
    <path id="Rectangle_25251" data-name="Rectangle 25251" d="M6.471,0h0a6.471,6.471,0,0,1,6.471,6.471V223.642a0,0,0,0,1,0,0H0a0,0,0,0,1,0,0V6.471A6.471,6.471,0,0,1,6.471,0Z" transform="translate(923 380.051)" fill="#fca311"/>
    <path id="Rectangle_25252" data-name="Rectangle 25252" d="M6.471,0h0a6.471,6.471,0,0,1,6.471,6.471v134.3a0,0,0,0,1,0,0H0a0,0,0,0,1,0,0V6.471A6.471,6.471,0,0,1,6.471,0Z" transform="translate(1062 462.924)" fill="#fca311"/>
  </g>
</svg>
