<svg id="document" xmlns="http://www.w3.org/2000/svg" width="39.219" height="51.155" viewBox="0 0 39.219 51.155">
  <path id="Path_115463" data-name="Path 115463" d="M.109,57.755v44.334a.853.853,0,0,0,.853.853h32.4a.853.853,0,0,0,.852-.853V66.281c0-.019-.009-.035-.011-.054a.8.8,0,0,0-.044-.219c-.009-.027-.016-.054-.028-.08a.844.844,0,0,0-.171-.25l-8.526-8.526a.827.827,0,0,0-.251-.171.78.78,0,0,0-.078-.028.846.846,0,0,0-.221-.044c-.014,0-.031-.007-.049-.007H.962A.852.852,0,0,0,.109,57.755ZM31.3,65.428H25.687V59.813ZM1.814,58.607H23.982v7.673a.852.852,0,0,0,.852.852h7.673v34.1H1.814Zm0,0" transform="translate(-0.109 -51.787)" fill="#195190"/>
  <path id="Path_115464" data-name="Path 115464" d="M87.7,44.334v1.7h2.558a.852.852,0,0,0,.853-.852V.853A.853.853,0,0,0,90.259,0H57.86a.853.853,0,0,0-.853.853V3.41h1.705V1.705H89.406V44.334Zm0,0" transform="translate(-51.892 0)" fill="#195190"/>
  <path id="Path_115465" data-name="Path 115465" d="M75.977,189.668H96.438v1.705H75.977Zm0,0" transform="translate(-69.156 -172.616)" fill="#195190"/>
  <path id="Path_115466" data-name="Path 115466" d="M75.977,132.766H82.8v1.705H75.977Zm0,0" transform="translate(-69.156 -120.83)" fill="#195190"/>
  <path id="Path_115467" data-name="Path 115467" d="M75.977,246.566H89.618v1.705H75.977Zm0,0" transform="translate(-69.156 -224.399)" fill="#195190"/>
  <path id="Path_115468" data-name="Path 115468" d="M246.676,246.566h5.115v1.705h-5.115Zm0,0" transform="translate(-224.509 -224.399)" fill="#195190"/>
  <path id="Path_115469" data-name="Path 115469" d="M75.977,303.465H96.438v1.705H75.977Zm0,0" transform="translate(-69.156 -276.182)" fill="#195190"/>
  <path id="Path_115470" data-name="Path 115470" d="M75.977,417.266H96.438v1.705H75.977Zm0,0" transform="translate(-69.156 -379.752)" fill="#195190"/>
  <path id="Path_115471" data-name="Path 115471" d="M161.324,360.367h12.789v1.705H161.324Zm0,0" transform="translate(-146.83 -327.969)" fill="#195190"/>
  <path id="Path_115472" data-name="Path 115472" d="M75.977,360.367h5.968v1.705H75.977Zm0,0" transform="translate(-69.156 -327.969)" fill="#195190"/>
  <path id="Path_115473" data-name="Path 115473" d="M75.977,474.168h3.41v1.7h-3.41Zm0,0" transform="translate(-69.156 -431.539)" fill="#195190"/>
  <path id="Path_115474" data-name="Path 115474" d="M132.875,474.168h15.346v1.7H132.875Zm0,0" transform="translate(-120.939 -431.539)" fill="#195190"/>
</svg>
