<svg xmlns="http://www.w3.org/2000/svg" width="1128.983" height="577.06" viewBox="0 0 1128.983 577.06">
  <g id="museum-ticket-outline" transform="translate(0.085 -17.701)">
    <g id="Group_40666" data-name="Group 40666" transform="translate(-0.085 17.701)">
      <path id="Path_114330" data-name="Path 114330" d="M1116.44,67.828a12.558,12.558,0,0,0,12.543-12.543V30.2a12.553,12.553,0,0,0-12.543-12.543H12.543A12.54,12.54,0,0,0,0,30.2V55.263A12.553,12.553,0,0,0,12.543,67.806a58.542,58.542,0,1,1,0,117.084A12.55,12.55,0,0,0,0,197.441V235.1a12.553,12.553,0,0,0,12.543,12.543,58.531,58.531,0,1,1,0,117.063A12.54,12.54,0,0,0,0,377.249v37.658a12.553,12.553,0,0,0,12.543,12.543,58.546,58.546,0,1,1,0,117.092A12.533,12.533,0,0,0,0,557.078v25.094a12.549,12.549,0,0,0,12.543,12.543H1116.411a12.54,12.54,0,0,0,12.543-12.543V557.078a12.535,12.535,0,0,0-12.543-12.543,58.532,58.532,0,0,1,0-117.063,12.544,12.544,0,0,0,12.543-12.543V377.27a12.54,12.54,0,0,0-12.543-12.543,58.542,58.542,0,0,1,0-117.084,12.544,12.544,0,0,0,12.543-12.543V197.463a12.54,12.54,0,0,0-12.543-12.543,58.546,58.546,0,0,1,.029-117.092ZM1103.9,209.075v14.419a83.636,83.636,0,0,0,0,165.367V403.3a83.619,83.619,0,0,0,0,165.339v.959H25.086v-.959a83.627,83.627,0,0,0,0-165.367v-14.44a83.611,83.611,0,0,0,0-165.339v-14.44a83.627,83.627,0,0,0,0-165.367V42.77H1103.9v.945a83.632,83.632,0,0,0,0,165.36Z" transform="translate(0 -17.655)"/>
      <g id="Group_40670" data-name="Group 40670" transform="translate(182.217 113.886)">
        <path id="Path_114340" data-name="Path 114340" d="M37.368,64.352H777.483a12.543,12.543,0,1,0,0-25.086H37.368a12.543,12.543,0,1,0,0,25.086Z" transform="translate(-24.825 -39.266)"/>
        <path id="Path_114341" data-name="Path 114341" d="M37.368,98.519H777.483a12.543,12.543,0,1,0,0-25.086H37.368a12.543,12.543,0,1,0,0,25.086Z" transform="translate(-24.825 253.179)"/>
      </g>
    </g>
    <g id="Group_40669" data-name="Group 40669" transform="translate(150.244 233.186)">
      <path id="Path_114307" data-name="Path 114307" d="M200.913,222.827H118.728c-5.441,0-7.966,5.83-7.966,11.269,0,6.217,2.914,11.463,7.966,11.463h28.562V356.887c0,5.247,6.219,7.966,12.628,7.966,6.219,0,12.63-2.72,12.63-7.966V245.56h28.366c5.052,0,7.966-5.441,7.966-11.463C208.879,228.657,206.354,222.827,200.913,222.827Z" transform="translate(-110.762 -222.823)"/>
      <path id="Path_114308" data-name="Path 114308" d="M180.383,222.827c-6.411,0-12.628,2.331-12.628,7.77v126.29c0,5.247,6.217,7.966,12.628,7.966,6.219,0,12.628-2.72,12.628-7.966V230.6C193.011,225.158,186.6,222.827,180.383,222.827Z" transform="translate(-55.844 -222.823)"/>
      <path id="Path_114309" data-name="Path 114309" d="M270.1,315.116c-6.606,0-12.047,1.944-12.435,7.966-.583,8.161-2.136,20.789-19.817,20.789-13.405,0-20.789-7.189-20.789-22.344V267.32c0-15.155,7.381-22.346,20.4-22.346,18.456,0,19.817,13.213,20.207,19.235.192,5.83,5.441,7.966,12.628,7.966,8.547,0,12.63-2.331,12.63-12.435,0-22.54-19.237-36.916-46.245-36.916-24.48,0-44.88,12.045-44.88,44.493v54.207c0,32.446,20.207,44.493,44.688,44.493,27.2,0,46.437-14.961,46.437-38.471C282.924,317.639,278.841,315.116,270.1,315.116Z" transform="translate(-32.675 -222.825)"/>
      <path id="Union_1" data-name="Union 1" d="M44.761,143.193h-.073C20.3,143.193.158,131.241,0,99.08q0-.189,0-.379V44.492q0-.19,0-.379C.158,11.952,20.3,0,44.689,0h.193C71.888,0,91.124,14.374,91.124,36.915c0,10.106-4.084,12.435-12.628,12.435-7.187,0-12.439-2.136-12.628-7.966-.392-6-1.743-19.129-19.983-19.236-12.05.053-19.194,5.957-20.433,18.287v0c0,.038-.007.076-.011.114q-.182,1.873-.183,3.943V98.7q0,2.072.183,3.945c0,.038.007.075.011.113v.009c1.24,12.327,8.383,18.229,20.431,18.282,17.672-.1,20.373-12.4,20.355-24.736l-17.783-.777c-5.367,0-7.671-6.215-7.671-12.628,0-6.215,2.3-12.628,7.671-12.628H91.362V96.439q.012.419.012.885c.693,33.119-19.487,45.87-46.493,45.87Z" transform="translate(739.268 0)"/>
      <path id="Path_114310" data-name="Path 114310" d="M341.723,348.729l-42.357-64.5L334.144,240.7a7.5,7.5,0,0,0,1.553-4.856c0-6.413-8.161-13.019-14.572-13.019a8.026,8.026,0,0,0-6.992,3.692l-41.968,57.121V230.6c0-5.439-6.409-7.77-12.628-7.77-6.411,0-12.628,2.331-12.628,7.77h0V356.888c0,5.247,6.217,7.966,12.628,7.966,6.219,0,12.628-2.719,12.628-7.966v-38.08L282.66,305.6l36.527,55.373a9.862,9.862,0,0,0,8.742,4.856c7.383,0,15.153-6.409,15.153-12.628A7.575,7.575,0,0,0,341.723,348.729Z" transform="translate(20.429 -222.823)"/>
      <path id="Path_114310-2" data-name="Path 114310" d="M341.723,348.729,271.261,226.95l.905,27.645V230.238c0-5.439-6.411-7.411-12.63-7.411-6.411,0-12.628,2.331-12.628,7.77h0V356.888c0,5.247,6.217,7.966,12.628,7.966,6.219,0,12.628-2.719,12.628-7.966V278.713L318.714,360a9.862,9.862,0,0,0,8.742,4.856c7.383,0,15.626-5.437,15.626-11.656A7.575,7.575,0,0,0,341.723,348.729Z" transform="translate(374.697 -222.823)"/>
      <path id="Path_114310-3" data-name="Path 114310" d="M276.737,283.639V230.6c0-5.439,6.409-7.77,12.628-7.77,6.411,0,12.628,2.331,12.628,7.77h0V356.888c0,5.247-6.217,7.966-12.628,7.966-6.219,0-12.628-2.719-12.628-7.966v-38.08Z" transform="translate(415.786 -222.823)"/>
      <path id="Path_114311" data-name="Path 114311" d="M381.767,342.707H326.781V303.653h29.534c5.441,0,7.966-5.247,7.966-9.716,0-5.247-2.914-10.1-7.966-10.1H326.781V244.975h54.987c5.052,0,7.966-5.247,7.966-11.269,0-5.245-2.527-10.88-7.966-10.88H312.6c-5.636,0-11.075,2.72-11.075,7.966v126.1c0,5.247,5.439,7.966,11.075,7.966h69.168c5.441,0,7.966-5.634,7.966-10.88C389.734,347.954,386.82,342.707,381.767,342.707Z" transform="translate(73.056 -222.824)"/>
      <path id="Path_114312" data-name="Path 114312" d="M439.367,222.827H357.182c-5.441,0-7.966,5.83-7.966,11.269,0,6.217,2.914,11.463,7.966,11.463h28.562V356.887c0,5.247,6.219,7.966,12.628,7.966,6.219,0,12.63-2.72,12.63-7.966V245.56h28.366c5.052,0,7.966-5.441,7.966-11.463C447.333,228.657,444.808,222.827,439.367,222.827Z" transform="translate(119.011 -222.823)"/>
      <path id="Path_114308-2" data-name="Path 114308" d="M180.383,222.827c-6.411,0-12.628,2.331-12.628,7.77v126.29c0,5.247,6.217,7.966,12.628,7.966,6.219,0,12.628-2.72,12.628-7.966V230.6C193.011,225.158,186.6,222.827,180.383,222.827Z" transform="translate(412.551 -222.823)"/>
    </g>
  </g>
</svg>
