<svg xmlns="http://www.w3.org/2000/svg" width="90.564" height="46.29" viewBox="0 0 90.564 46.29">
  <g id="Group_42780" data-name="Group 42780" transform="translate(0.085 -17.703)">
    <g id="Group_40666" data-name="Group 40666" transform="translate(-0.085 17.703)">
      <path id="Path_114330" data-name="Path 114330" d="M89.558,21.682a1.007,1.007,0,0,0,1.006-1.006V18.663a1.007,1.007,0,0,0-1.006-1.006H1.006A1.006,1.006,0,0,0,0,18.663v2.01A1.007,1.007,0,0,0,1.006,21.68a4.7,4.7,0,1,1,0,9.392A1.007,1.007,0,0,0,0,32.079V35.1a1.007,1.007,0,0,0,1.006,1.006,4.7,4.7,0,1,1,0,9.391A1.006,1.006,0,0,0,0,46.5v3.021A1.007,1.007,0,0,0,1.006,50.53a4.7,4.7,0,0,1,0,9.393A1.005,1.005,0,0,0,0,60.928v2.013a1.007,1.007,0,0,0,1.006,1.006h88.55a1.006,1.006,0,0,0,1.006-1.006V60.928a1.006,1.006,0,0,0-1.006-1.006,4.7,4.7,0,1,1,0-9.391,1.006,1.006,0,0,0,1.006-1.006V46.5A1.006,1.006,0,0,0,89.556,45.5a4.7,4.7,0,0,1,0-9.392A1.006,1.006,0,0,0,90.562,35.1V32.081a1.006,1.006,0,0,0-1.006-1.006,4.7,4.7,0,1,1,0-9.393Zm-1.006,11.33v1.157a6.709,6.709,0,0,0,0,13.265v1.158a6.708,6.708,0,0,0,0,13.263v.077H2.012v-.077a6.708,6.708,0,0,0,0-13.265V47.432a6.707,6.707,0,0,0,0-13.263V33.01a6.708,6.708,0,0,0,0-13.265v-.073h86.54v.076a6.709,6.709,0,0,0,0,13.265Z" transform="translate(0 -17.657)" fill="#195190"/>
      <g id="Group_40670" data-name="Group 40670" transform="translate(14.617 9.135)">
        <path id="Path_114340" data-name="Path 114340" d="M25.831,41.278H85.2a1.006,1.006,0,1,0,0-2.012H25.831a1.006,1.006,0,0,0,0,2.012Z" transform="translate(-24.825 -39.266)" fill="#195190"/>
        <path id="Path_114341" data-name="Path 114341" d="M25.831,75.445H85.2a1.006,1.006,0,0,0,0-2.012H25.831a1.006,1.006,0,0,0,0,2.012Z" transform="translate(-24.825 -47.233)" fill="#195190"/>
      </g>
    </g>
    <g id="Group_40669" data-name="Group 40669" transform="translate(11.974 34.988)">
      <path id="Path_114307" data-name="Path 114307" d="M117.994,222.827H111.4c-.436,0-.639.468-.639.9,0,.5.234.92.639.92h2.291v8.93c0,.421.5.639,1.013.639.5,0,1.013-.218,1.013-.639v-8.93h2.275c.405,0,.639-.436.639-.92C118.633,223.295,118.43,222.827,117.994,222.827Z" transform="translate(-110.762 -222.827)" fill="#195190"/>
      <path id="Path_114308" data-name="Path 114308" d="M168.768,222.827c-.514,0-1.013.187-1.013.623v10.131c0,.421.5.639,1.013.639.5,0,1.013-.218,1.013-.639v-10.13C169.781,223.014,169.267,222.827,168.768,222.827Z" transform="translate(-158.778 -222.827)" fill="#195190"/>
      <path id="Path_114309" data-name="Path 114309" d="M198.08,230.227c-.53,0-.966.156-1,.639-.047.655-.171,1.668-1.59,1.668-1.075,0-1.668-.577-1.668-1.792v-4.348c0-1.216.592-1.793,1.636-1.793a1.444,1.444,0,0,1,1.621,1.543c.015.468.436.639,1.013.639.686,0,1.013-.187,1.013-1,0-1.808-1.543-2.961-3.71-2.961-1.964,0-3.6.966-3.6,3.569v4.348a3.239,3.239,0,0,0,3.585,3.569c2.182,0,3.725-1.2,3.725-3.086C199.109,230.43,198.781,230.227,198.08,230.227Z" transform="translate(-179.034 -222.824)" fill="#195190"/>
      <path id="Union_1" data-name="Union 1" d="M3.591,11.487H3.585A3.235,3.235,0,0,1,0,7.948V3.539A3.235,3.235,0,0,1,3.585,0H3.6C5.767,0,7.31,1.153,7.31,2.961c0,.811-.328,1-1.013,1-.577,0-1-.171-1.013-.639a1.442,1.442,0,0,0-1.6-1.543A1.475,1.475,0,0,0,2.042,3.244h0a.088.088,0,0,1,0,.009q-.015.15-.015.316V7.917q0,.166.015.316a.087.087,0,0,0,0,.009h0A1.475,1.475,0,0,0,3.681,9.71C5.1,9.7,5.315,8.716,5.313,7.726L3.887,7.664c-.431,0-.615-.5-.615-1.013,0-.5.185-1.013.615-1.013H7.329v2.1q0,.034,0,.071c.056,2.657-1.563,3.68-3.73,3.68Z" transform="translate(59.302 0)" fill="#195190"/>
      <path id="Path_114310" data-name="Path 114310" d="M254.515,232.922l-3.4-5.174,2.79-3.492a.6.6,0,0,0,.125-.39,1.264,1.264,0,0,0-1.169-1.044.644.644,0,0,0-.561.3l-3.367,4.582v-4.255c0-.436-.514-.623-1.013-.623-.514,0-1.013.187-1.013.623h0v10.13c0,.421.5.639,1.013.639.5,0,1.013-.218,1.013-.639v-3.055l.842-1.059,2.93,4.442a.791.791,0,0,0,.7.39,1.234,1.234,0,0,0,1.216-1.013A.608.608,0,0,0,254.515,232.922Z" transform="translate(-225.464 -222.822)" fill="#195190"/>
      <path id="Path_114310-2" data-name="Path 114310" d="M254.514,232.927l-5.652-9.769.073,2.218v-1.954c0-.436-.514-.594-1.013-.594-.514,0-1.013.187-1.013.623h0v10.131c0,.421.5.639,1.013.639.5,0,1.013-.218,1.013-.639V227.31l3.734,6.521a.791.791,0,0,0,.7.39c.592,0,1.253-.436,1.253-.935A.608.608,0,0,0,254.514,232.927Z" transform="translate(-197.044 -222.827)" fill="#195190"/>
      <path id="Path_114310-3" data-name="Path 114310" d="M276.737,227.708v-4.255c0-.436.514-.623,1.013-.623.514,0,1.013.187,1.013.623h0v10.131c0,.421-.5.639-1.013.639-.5,0-1.013-.218-1.013-.639v-5.876Z" transform="translate(-221.184 -222.829)" fill="#195190"/>
      <path id="Path_114311" data-name="Path 114311" d="M307.962,232.443h-4.411V229.31h2.369a.705.705,0,0,0,.639-.779c0-.421-.234-.81-.639-.81h-2.369V224.6h4.411c.405,0,.639-.421.639-.9,0-.421-.2-.873-.639-.873h-5.548c-.452,0-.888.218-.888.639V233.58c0,.421.436.639.888.639h5.548c.436,0,.639-.452.639-.873C308.6,232.863,308.367,232.443,307.962,232.443Z" transform="translate(-271.477 -222.826)" fill="#195190"/>
      <path id="Path_114312" data-name="Path 114312" d="M356.448,222.827h-6.593c-.436,0-.639.468-.639.9,0,.5.234.92.639.92h2.291v8.93c0,.421.5.639,1.013.639.5,0,1.013-.218,1.013-.639v-8.93h2.275c.405,0,.639-.436.639-.92C357.087,223.295,356.884,222.827,356.448,222.827Z" transform="translate(-311.656 -222.827)" fill="#195190"/>
      <path id="Path_114308-2" data-name="Path 114308" d="M168.768,222.827c-.514,0-1.013.187-1.013.623v10.131c0,.421.5.639,1.013.639.5,0,1.013-.218,1.013-.639v-10.13C169.781,223.014,169.267,222.827,168.768,222.827Z" transform="translate(-121.204 -222.827)" fill="#195190"/>
    </g>
  </g>
</svg>
