<svg xmlns="http://www.w3.org/2000/svg" width="133" height="73.806" viewBox="0 0 133 73.806">
  <g id="logo-ticketing" transform="translate(0 -138.031)">
    <g id="Group_40627" data-name="Group 40627" transform="translate(0 138.031)">
      <g id="Group_40626" data-name="Group 40626">
        <path id="Path_114286" data-name="Path 114286" d="M105.57,205.459H14.479v-2.343a9.184,9.184,0,0,0-9.173-9.173H4.629v-9.258h.676a9.173,9.173,0,0,0,0-18.347H4.629v-9.258h.676a9.184,9.184,0,0,0,9.173-9.173V142.66H40.9a2.315,2.315,0,0,0,0-4.629H12.165a2.314,2.314,0,0,0-2.315,2.315v7.562a4.549,4.549,0,0,1-4.544,4.544H2.315A2.314,2.314,0,0,0,0,154.767v13.887a2.314,2.314,0,0,0,2.315,2.315H5.306a4.544,4.544,0,0,1,0,9.088H2.315A2.314,2.314,0,0,0,0,182.371v13.887a2.314,2.314,0,0,0,2.315,2.315H5.306a4.549,4.549,0,0,1,4.544,4.544v1.252l-3.27,2.594a2.315,2.315,0,0,0-.866,1.591,4.244,4.244,0,0,0,.547,1.728s85.22-.172,99.309-.191a2.315,2.315,0,0,0,0-4.63Zm-93.379,4.629Z" transform="translate(0 -138.031)"/>
      </g>
    </g>
    <g id="Group_40629" data-name="Group 40629" transform="translate(23.371 148.883)">
      <g id="Group_40628" data-name="Group 40628" transform="translate(0 0)">
        <path id="Path_114287" data-name="Path 114287" d="M183.837,173.562H117.9a2.315,2.315,0,1,0,0,4.629h63.621v41.1H81.152v-41.1h19.058a2.315,2.315,0,1,0,0-4.629H78.838a2.314,2.314,0,0,0-2.315,2.315V221.6a2.314,2.314,0,0,0,2.315,2.315h105a2.314,2.314,0,0,0,2.315-2.315V175.877A2.315,2.315,0,0,0,183.837,173.562Z" transform="translate(-76.523 -173.562)"/>
      </g>
    </g>
    <path id="Path_114288" data-name="Path 114288" d="M-227.967-40.1v-3.6h-8.957v3.6h2.814v16.42h3.329V-40.1Zm5.557,16.42V-43.7h-3.329v20.019Zm12.169-5.708h-3.329a4.451,4.451,0,0,1-.258,1.546,1.139,1.139,0,0,1-1.149.787,1.113,1.113,0,0,1-1.1-.787c-.4-.928-.445-3.43-.445-5.848s.047-4.92.445-5.848a1.113,1.113,0,0,1,1.1-.787,1.089,1.089,0,0,1,1.125.759,4.451,4.451,0,0,1,.258,1.546h3.329a7.18,7.18,0,0,0-1.477-4.471,4.025,4.025,0,0,0-3.236-1.434,4.1,4.1,0,0,0-3.634,2c-1.336,1.912-1.243,5.567-1.243,8.266s-.094,6.3,1.243,8.21a4.1,4.1,0,0,0,3.634,2,4.025,4.025,0,0,0,3.236-1.434A7.271,7.271,0,0,0-210.242-29.384Zm12.825,5.708-3.869-11.7,3.329-8.323h-3.329l-3.165,8.6v-8.6h-3.329v20.019h3.329v-4.611l1.079-2.7,2.392,7.31Zm9.59,0v-3.6h-4.361v-4.7h3.751v-3.6h-3.751V-40.1h4.361v-3.6h-7.691v20.019Zm10.645-16.42v-3.6h-8.957v3.6h2.814v16.42H-180V-40.1Zm5.557,16.42V-43.7h-3.329v20.019Zm12.755,0V-43.7H-162.2v9.785l-3.47-9.785h-2.907v20.019h3.329v-9.785l3.54,9.785Zm12.169-5.933V-34.7h-4.713v3.233h1.383v2.081c0,1.1-.3,2.334-1.407,2.334a1.113,1.113,0,0,1-1.1-.787c-.4-.928-.446-3.43-.446-5.848s.047-4.92.446-5.848a1.113,1.113,0,0,1,1.1-.787c1.266,0,1.383,1.518,1.407,2.362h3.329a7.4,7.4,0,0,0-1.43-4.471,4.2,4.2,0,0,0-3.306-1.49,4.1,4.1,0,0,0-3.634,2c-1.336,1.912-1.243,5.539-1.243,8.238s-.094,6.326,1.243,8.238a4.1,4.1,0,0,0,3.634,2C-148.576-23.451-146.7-25.616-146.7-29.609Z" transform="translate(269.874 208.524)" stroke="#000" stroke-linecap="round" stroke-linejoin="round" stroke-width="0.2"/>
  </g>
</svg>
