<svg id="spaced-background-1" xmlns="http://www.w3.org/2000/svg" xmlns:xlink="http://www.w3.org/1999/xlink" width="368" height="280" viewBox="0 0 368 280">
  <defs>
    <filter id="Path_113697" x="-37.5" y="-37.5" width="443" height="355" filterUnits="userSpaceOnUse">
      <feOffset input="SourceAlpha"/>
      <feGaussianBlur stdDeviation="12.5" result="blur"/>
      <feFlood flood-opacity="0.161"/>
      <feComposite operator="in" in2="blur"/>
      <feComposite in="SourceGraphic"/>
    </filter>
    <clipPath id="clip-path">
      <g transform="matrix(1, 0, 0, 1, 0, 0)" filter="url(#Path_113697)">
        <path id="Path_113697-2" data-name="Path 113697" d="M20,0H348a20,20,0,0,1,20,20V260a20,20,0,0,1-20,20H20A20,20,0,0,1,0,260V20A20,20,0,0,1,20,0Z" transform="translate(-7627 -480)" fill="#505050"/>
      </g>
    </clipPath>
  </defs>
  <g id="spaced-background-1-2" data-name="spaced-background-1" transform="translate(7627 480)" opacity="0.15" clip-path="url(#clip-path)">
    <g id="Group_40570" data-name="Group 40570" transform="translate(14.995 0.095)">
      <g id="Group_40563" data-name="Group 40563" transform="translate(-7641.995 -480.095)">
        <path id="Path_113910" data-name="Path 113910" d="M286.295,178.046a3.9,3.9,0,0,0-2.664-3.179,4.279,4.279,0,0,0,2.664,4.366Z" transform="translate(82 44.6)" fill="#505050" fill-rule="evenodd"/>
        <path id="Path_113911" data-name="Path 113911" d="M227.815,174.958c.313,2-.629,3.194-2.223,4.252C225.242,176.72,225.435,176.364,227.815,174.958Z" transform="translate(68.16 44.622)" fill="#505050" fill-rule="evenodd"/>
        <path id="Path_113912" data-name="Path 113912" d="M212.6,179.181c-2.518-1.427-2.518-1.427-2.67-4.31C211.762,175.678,212.4,177.027,212.6,179.181Z" transform="translate(64.466 44.601)" fill="#505050" fill-rule="evenodd"/>
        <path id="Path_113913" data-name="Path 113913" d="M154,174.718c.275,2.314-.618,3.529-2.458,4.669C151.2,177.021,152.243,175.89,154,174.718Z" transform="translate(50.559 44.565)" fill="#505050" fill-rule="evenodd"/>
        <path id="Path_113914" data-name="Path 113914" d="M138.7,179.011c-2.442-1.1-2.648-1.448-2.5-4.107A4.235,4.235,0,0,1,138.7,179.011Z" transform="translate(46.916 44.609)" fill="#505050" fill-rule="evenodd"/>
        <path id="Path_113915" data-name="Path 113915" d="M77.5,179.181a4.784,4.784,0,0,1,2.359-4.305C80.271,177.336,80.094,177.679,77.5,179.181Z" transform="translate(32.96 44.602)" fill="#505050" fill-rule="evenodd"/>
        <path id="Path_113916" data-name="Path 113916" d="M62.245,174.827a4.475,4.475,0,0,1,2.636,4.008C62.61,178.216,62.395,177.9,62.245,174.827Z" transform="translate(29.33 44.59)" fill="#505050" fill-rule="evenodd"/>
        <path id="Path_113917" data-name="Path 113917" d="M3.629,179.38c.188-2.3.78-3.711,2.71-4.5C6.6,176.921,5.872,178.238,3.629,179.38Z" transform="translate(15.385 44.603)" fill="#505050" fill-rule="evenodd"/>
        <path id="Path_113918" data-name="Path 113918" d="M-11.529,174.917c1.811.76,2.415,2.15,2.553,4.043C-11.387,177.983-11.591,177.645-11.529,174.917Z" transform="translate(11.777 44.612)" fill="#505050" fill-rule="evenodd"/>
        <path id="Path_113919" data-name="Path 113919" d="M3.638,263.845c.265-1.658.823-3.06,2.551-3.764C6.321,262.9,5.832,263.624,3.638,263.845Z" transform="translate(15.387 64.873)" fill="#505050" fill-rule="evenodd"/>
        <path id="Path_113920" data-name="Path 113920" d="M-9.2,264.213c-1.944-.672-2.478-2.086-2.517-3.935C-9.45,261.169-9.285,261.423-9.2,264.213Z" transform="translate(11.735 64.92)" fill="#505050" fill-rule="evenodd"/>
        <path id="Path_113921" data-name="Path 113921" d="M286.29,244.145c-1.958.878-2.654,2.2-2.637,4.572,1.627-.978,2.483-2.005,2.637-3.549Z" transform="translate(82.005 61.082)" fill="#505050" fill-rule="evenodd"/>
        <path id="Path_113922" data-name="Path 113922" d="M227.794,248.374c-1.868-.727-2.444-2.113-2.59-3.938C227.481,245.184,227.707,245.53,227.794,248.374Z" transform="translate(68.1 61.151)" fill="#505050" fill-rule="evenodd"/>
        <path id="Path_113923" data-name="Path 113923" d="M212.584,244.19c-.2,2.119-.836,3.449-2.461,4.267C209.817,245.975,209.985,245.663,212.584,244.19Z" transform="translate(64.485 61.092)" fill="#505050" fill-rule="evenodd"/>
        <path id="Path_113924" data-name="Path 113924" d="M151.342,243.9c2.1,1.357,2.915,2.611,2.757,4.708C152.095,247.731,151.47,246.363,151.342,243.9Z" transform="translate(50.527 61.024)" fill="#505050" fill-rule="evenodd"/>
        <path id="Path_113925" data-name="Path 113925" d="M138.416,244.385A3.553,3.553,0,0,1,136,248.47,3.682,3.682,0,0,1,138.416,244.385Z" transform="translate(46.872 61.139)" fill="#505050" fill-rule="evenodd"/>
        <path id="Path_113926" data-name="Path 113926" d="M80.09,248.4c-1.84-.758-2.439-2.135-2.574-3.985C79.826,245.239,80.045,245.582,80.09,248.4Z" transform="translate(32.964 61.145)" fill="#505050" fill-rule="evenodd"/>
        <path id="Path_113927" data-name="Path 113927" d="M64.946,243.92c-.194,2.455-.786,3.84-2.794,4.66C62.006,246.458,62.838,245.21,64.946,243.92Z" transform="translate(29.305 61.028)" fill="#505050" fill-rule="evenodd"/>
        <path id="Path_113928" data-name="Path 113928" d="M3.915,244.082c1.773,1.146,2.587,2.357,2.455,4.185C4.081,247.279,3.869,246.937,3.915,244.082Z" transform="translate(15.452 61.067)" fill="#505050" fill-rule="evenodd"/>
        <path id="Path_113929" data-name="Path 113929" d="M27.969,30.414c-2.107-1.3-2.988-2.523-2.627-4.6C27.241,26.668,27.874,28.04,27.969,30.414Z" transform="translate(20.532 9.139)" fill="#505050" fill-rule="evenodd"/>
        <path id="Path_113930" data-name="Path 113930" d="M40.607,30.418c.036-2.4.821-3.69,2.608-4.7C43.552,27.91,42.687,29.151,40.607,30.418Z" transform="translate(24.183 9.116)" fill="#505050" fill-rule="evenodd"/>
        <path id="Path_113931" data-name="Path 113931" d="M99.231,25.863c1.835.755,2.426,2.147,2.538,4.019C99.4,28.926,99.2,28.6,99.231,25.863Z" transform="translate(38.129 9.151)" fill="#505050" fill-rule="evenodd"/>
        <path id="Path_113932" data-name="Path 113932" d="M114.707,29.9a3.556,3.556,0,0,1,2.309-4.094C117.427,27.931,116.364,29.071,114.707,29.9Z" transform="translate(41.802 9.138)" fill="#505050" fill-rule="evenodd"/>
        <path id="Path_113933" data-name="Path 113933" d="M175.665,30.4c-2.14-1.259-2.92-2.533-2.715-4.614C174.937,26.676,175.568,28.047,175.665,30.4Z" transform="translate(55.661 9.131)" fill="#505050" fill-rule="evenodd"/>
        <path id="Path_113934" data-name="Path 113934" d="M188.293,30.418c.036-2.4.822-3.69,2.608-4.7C191.24,27.91,190.374,29.151,188.293,30.418Z" transform="translate(59.318 9.116)" fill="#505050" fill-rule="evenodd"/>
        <path id="Path_113935" data-name="Path 113935" d="M246.874,25.764a4.443,4.443,0,0,1,2.587,4.05C247.195,29.091,246.971,28.757,246.874,25.764Z" transform="translate(73.255 9.127)" fill="#505050" fill-rule="evenodd"/>
        <path id="Path_113936" data-name="Path 113936" d="M264.707,25.865c.345,2-.544,3.233-2.14,4.229C262.1,27.769,262.267,27.441,264.707,25.865Z" transform="translate(76.939 9.151)" fill="#505050" fill-rule="evenodd"/>
        <path id="Path_113937" data-name="Path 113937" d="M-8.91,31.074c-.179,2.345-.789,3.738-2.689,4.547C-11.891,33.571-11.12,32.283-8.91,31.074Z" transform="translate(11.748 10.39)" fill="#505050" fill-rule="evenodd"/>
        <path id="Path_113938" data-name="Path 113938" d="M3.74,31.1c2.072,1.2,2.778,2.463,2.636,4.458C4.318,34.775,3.752,33.383,3.74,31.1Z" transform="translate(15.412 10.398)" fill="#505050" fill-rule="evenodd"/>
        <path id="Path_113939" data-name="Path 113939" d="M64.889,31.654c-.255,1.66-.823,3.053-2.534,3.784C62.2,32.642,62.708,31.89,64.889,31.654Z" transform="translate(29.351 10.528)" fill="#505050" fill-rule="evenodd"/>
        <path id="Path_113940" data-name="Path 113940" d="M80.218,35.52c-1.95-.816-2.431-2.251-2.78-3.89C79.615,31.936,79.925,32.35,80.218,35.52Z" transform="translate(32.945 10.523)" fill="#505050" fill-rule="evenodd"/>
        <path id="Path_113941" data-name="Path 113941" d="M138.739,31.212c-.177,2.116-.791,3.444-2.359,4.3C135.91,33.208,136.084,32.855,138.739,31.212Z" transform="translate(46.919 10.423)" fill="#505050" fill-rule="evenodd"/>
        <path id="Path_113942" data-name="Path 113942" d="M151.526,31.533c1.955.537,2.6,1.88,2.528,3.955C152,34.775,151.593,33.273,151.526,31.533Z" transform="translate(50.571 10.5)" fill="#505050" fill-rule="evenodd"/>
        <path id="Path_113943" data-name="Path 113943" d="M212.6,31.279c-.229,2.092-.847,3.435-2.478,4.256C209.83,33.033,210.036,32.656,212.6,31.279Z" transform="translate(64.488 10.439)" fill="#505050" fill-rule="evenodd"/>
        <path id="Path_113944" data-name="Path 113944" d="M227.867,35.566a4.5,4.5,0,0,1-2.683-3.955C227.347,32.022,227.631,32.419,227.867,35.566Z" transform="translate(68.095 10.518)" fill="#505050" fill-rule="evenodd"/>
        <path id="Path_113945" data-name="Path 113945" d="M286.24,31.426c-2.3,1.105-2.515,1.544-2.329,4.086a4.134,4.134,0,0,0,2.329-2.971Z" transform="translate(82.054 10.474)" fill="#505050" fill-rule="evenodd"/>
        <path id="Path_113946" data-name="Path 113946" d="M-11.721,248.842c-.017-2.5.682-3.824,2.655-4.7C-8.886,246.3-9.813,247.5-11.721,248.842Z" transform="translate(11.733 61.08)" fill="#505050" fill-rule="evenodd"/>
        <path id="Path_113947" data-name="Path 113947" d="M264.822,238.553c.1,2.4-.625,3.705-2.64,4.607C262.072,241.035,262.895,239.786,264.822,238.553Z" transform="translate(76.895 59.751)" fill="#505050" fill-rule="evenodd"/>
        <path id="Path_113948" data-name="Path 113948" d="M188.226,243.061c.213-2.095.812-3.44,2.413-4.282C191.039,241.181,190.873,241.5,188.226,243.061Z" transform="translate(59.302 59.805)" fill="#505050" fill-rule="evenodd"/>
        <path id="Path_113949" data-name="Path 113949" d="M116.916,238.761c.163,2.643-.035,2.985-2.5,4.121A4.317,4.317,0,0,1,116.916,238.761Z" transform="translate(41.743 59.801)" fill="#505050" fill-rule="evenodd"/>
        <path id="Path_113950" data-name="Path 113950" d="M40.58,242.9a4.617,4.617,0,0,1,2.483-4.2C43.242,241.411,43.041,241.756,40.58,242.9Z" transform="translate(24.176 59.786)" fill="#505050" fill-rule="evenodd"/>
        <path id="Path_113951" data-name="Path 113951" d="M227.931,217.266c.053,2.389-.639,3.71-2.608,4.572C225.112,219.687,226.014,218.473,227.931,217.266Z" transform="translate(68.121 54.687)" fill="#505050" fill-rule="evenodd"/>
        <path id="Path_113952" data-name="Path 113952" d="M151.454,221.682c-.177-2,.768-3.19,2.255-4.313C154.091,219.946,153.924,220.259,151.454,221.682Z" transform="translate(50.549 54.712)" fill="#505050" fill-rule="evenodd"/>
        <path id="Path_113953" data-name="Path 113953" d="M27.96,95.115c-.156,2.121-.772,3.449-2.355,4.294C25.137,97.1,25.3,96.785,27.96,95.115Z" transform="translate(20.565 25.626)" fill="#505050" fill-rule="evenodd"/>
        <path id="Path_113954" data-name="Path 113954" d="M43.08,99.408A4.208,4.208,0,0,1,40.6,95.3C43.044,96.427,43.243,96.77,43.08,99.408Z" transform="translate(24.181 25.669)" fill="#505050" fill-rule="evenodd"/>
        <path id="Path_113955" data-name="Path 113955" d="M99.064,99.431a4.056,4.056,0,0,1,2.289-4.223C101.745,97.554,101.547,97.925,99.064,99.431Z" transform="translate(38.089 25.648)" fill="#505050" fill-rule="evenodd"/>
        <path id="Path_113956" data-name="Path 113956" d="M117.011,99.361c-1.857-.727-2.423-2.128-2.577-3.959C116.766,96.205,116.977,96.532,117.011,99.361Z" transform="translate(41.747 25.695)" fill="#505050" fill-rule="evenodd"/>
        <path id="Path_113957" data-name="Path 113957" d="M172.908,99.4c.379-2.767.379-2.767,2.306-4.086C175.586,97.528,175.389,97.9,172.908,99.4Z" transform="translate(55.658 25.674)" fill="#505050" fill-rule="evenodd"/>
        <path id="Path_113958" data-name="Path 113958" d="M188.5,95.212c1.879.738,2.494,2.1,2.476,3.995C188.694,98.225,188.519,97.939,188.5,95.212Z" transform="translate(59.369 25.649)" fill="#505050" fill-rule="evenodd"/>
        <path id="Path_113959" data-name="Path 113959" d="M246.787,99.511a4.124,4.124,0,0,1,2.524-4.433A3.876,3.876,0,0,1,246.787,99.511Z" transform="translate(73.23 25.618)" fill="#505050" fill-rule="evenodd"/>
        <path id="Path_113960" data-name="Path 113960" d="M264.7,99.361c-1.856-.727-2.421-2.128-2.577-3.959C264.455,96.205,264.665,96.532,264.7,99.361Z" transform="translate(76.882 25.695)" fill="#505050" fill-rule="evenodd"/>
        <path id="Path_113961" data-name="Path 113961" d="M3.65,51.783c.131-2.478.875-3.764,2.723-4.8C6.595,49.233,5.752,50.467,3.65,51.783Z" transform="translate(15.39 14.176)" fill="#505050" fill-rule="evenodd"/>
        <path id="Path_113962" data-name="Path 113962" d="M77.557,51.269a4.546,4.546,0,0,1,2.436-4.229C80.16,49.787,79.955,50.141,77.557,51.269Z" transform="translate(32.973 14.189)" fill="#505050" fill-rule="evenodd"/>
        <path id="Path_113963" data-name="Path 113963" d="M151.4,51.269a4.536,4.536,0,0,1,2.431-4.229C154,49.792,153.8,50.134,151.4,51.269Z" transform="translate(50.541 14.189)" fill="#505050" fill-rule="evenodd"/>
        <path id="Path_113964" data-name="Path 113964" d="M227.881,46.746c.172,2.575-.624,3.833-2.5,4.892C225.041,49.409,226.092,48.287,227.881,46.746Z" transform="translate(68.126 14.119)" fill="#505050" fill-rule="evenodd"/>
        <path id="Path_113965" data-name="Path 113965" d="M262.113,157.749a4.626,4.626,0,0,1,2.46-4.211C264.787,156.213,264.586,156.56,262.113,157.749Z" transform="translate(76.881 39.526)" fill="#505050" fill-rule="evenodd"/>
        <path id="Path_113966" data-name="Path 113966" d="M190.986,153.382c.087,2.4-.629,3.711-2.648,4.614C188.228,155.87,189.053,154.621,190.986,153.382Z" transform="translate(59.327 39.489)" fill="#505050" fill-rule="evenodd"/>
        <path id="Path_113967" data-name="Path 113967" d="M114.377,158.163c.212-2.382.782-3.792,2.707-4.585C117.4,155.671,116.526,156.9,114.377,158.163Z" transform="translate(41.733 39.535)" fill="#505050" fill-rule="evenodd"/>
        <path id="Path_113968" data-name="Path 113968" d="M40.576,157.715a4.331,4.331,0,0,1,2.5-4.125C43.237,156.24,43.033,156.586,40.576,157.715Z" transform="translate(24.175 39.538)" fill="#505050" fill-rule="evenodd"/>
        <path id="Path_113969" data-name="Path 113969" d="M225.33,136.467c-.241-1.991.678-3.185,2.236-4.178C227.926,134.765,227.748,135.1,225.33,136.467Z" transform="translate(68.121 34.47)" fill="#505050" fill-rule="evenodd"/>
        <path id="Path_113970" data-name="Path 113970" d="M80.207,217.115c.139,2.55-.631,3.821-2.52,4.813C77.356,219.72,78.4,218.592,80.207,217.115Z" transform="translate(32.99 54.651)" fill="#505050" fill-rule="evenodd"/>
        <path id="Path_113971" data-name="Path 113971" d="M6.374,217.25c.128,2.378-.641,3.653-2.522,4.64C3.514,219.687,4.493,218.524,6.374,217.25Z" transform="translate(15.423 54.683)" fill="#505050" fill-rule="evenodd"/>
        <path id="Path_113972" data-name="Path 113972" d="M286.248,201.827c-2.212.879-2.449,1.311-2.415,3.984a3.832,3.832,0,0,0,2.415-2.985Z" transform="translate(82.047 51.014)" fill="#505050" fill-rule="evenodd"/>
        <path id="Path_113973" data-name="Path 113973" d="M225.172,201.713c2.462,1.119,2.7,1.524,2.51,4.132C225.948,205,225.318,203.64,225.172,201.713Z" transform="translate(68.092 50.987)" fill="#505050" fill-rule="evenodd"/>
        <path id="Path_113974" data-name="Path 113974" d="M212.589,201.589c-.208,2.086-.806,3.431-2.421,4.255C209.8,203.437,210,203.058,212.589,201.589Z" transform="translate(64.488 50.957)" fill="#505050" fill-rule="evenodd"/>
        <path id="Path_113975" data-name="Path 113975" d="M153.906,205.807c-1.816-.75-2.408-2.144-2.557-4.019C153.715,202.7,153.954,203.087,153.906,205.807Z" transform="translate(50.529 51.005)" fill="#505050" fill-rule="evenodd"/>
        <path id="Path_113976" data-name="Path 113976" d="M138.789,201.421c-.207,2.331-.789,3.738-2.728,4.516C135.835,203.889,136.561,202.577,138.789,201.421Z" transform="translate(46.882 50.917)" fill="#505050" fill-rule="evenodd"/>
        <path id="Path_113977" data-name="Path 113977" d="M80.212,205.865a4.437,4.437,0,0,1-2.726-3.892C79.6,202.261,79.911,202.68,80.212,205.865Z" transform="translate(32.956 51.049)" fill="#505050" fill-rule="evenodd"/>
        <path id="Path_113978" data-name="Path 113978" d="M62.2,205.934a4.019,4.019,0,0,1,2.488-4.411A3.864,3.864,0,0,1,62.2,205.934Z" transform="translate(29.314 50.942)" fill="#505050" fill-rule="evenodd"/>
        <path id="Path_113979" data-name="Path 113979" d="M3.739,201.439c2.076,1.2,2.779,2.461,2.637,4.454C4.311,205.109,3.754,203.712,3.739,201.439Z" transform="translate(15.411 50.922)" fill="#505050" fill-rule="evenodd"/>
        <path id="Path_113980" data-name="Path 113980" d="M-11.648,206.136c-.157-2.3.548-3.62,2.508-4.614C-8.83,203.7-9.776,204.868-11.648,206.136Z" transform="translate(11.746 50.941)" fill="#505050" fill-rule="evenodd"/>
        <path id="Path_113981" data-name="Path 113981" d="M154.049,132.071a4.327,4.327,0,0,1-2.477,4.669C151.159,134.517,152.2,133.387,154.049,132.071Z" transform="translate(50.561 34.418)" fill="#505050" fill-rule="evenodd"/>
        <path id="Path_113982" data-name="Path 113982" d="M77.488,136.948c.147-2.483.879-3.773,2.747-4.8C80.423,134.409,79.592,135.65,77.488,136.948Z" transform="translate(32.957 34.438)" fill="#505050" fill-rule="evenodd"/>
        <path id="Path_113983" data-name="Path 113983" d="M3.7,136.425a4.243,4.243,0,0,1,2.452-4.136C6.323,134.926,6.121,135.279,3.7,136.425Z" transform="translate(15.402 34.47)" fill="#505050" fill-rule="evenodd"/>
        <path id="Path_113984" data-name="Path 113984" d="M27.841,115.506c-1.948-1.234-2.77-2.444-2.588-4.495C27.3,111.843,27.948,113.2,27.841,115.506Z" transform="translate(20.524 29.408)" fill="#505050" fill-rule="evenodd"/>
        <path id="Path_113985" data-name="Path 113985" d="M40.545,115.68c.2-2.5.782-3.9,2.756-4.7C43.563,113.128,42.59,114.308,40.545,115.68Z" transform="translate(24.168 29.4)" fill="#505050" fill-rule="evenodd"/>
        <path id="Path_113986" data-name="Path 113986" d="M286.244,159.053c-2.522,1.629-2.661,1.957-2.174,4.193a4.2,4.2,0,0,0,2.174-3.1Z" transform="translate(82.051 40.838)" fill="#505050" fill-rule="evenodd"/>
        <path id="Path_113987" data-name="Path 113987" d="M225.428,159.033a3.859,3.859,0,0,1,2.48,4.017C225.632,162.114,225.426,161.785,225.428,159.033Z" transform="translate(68.153 40.833)" fill="#505050" fill-rule="evenodd"/>
        <path id="Path_113988" data-name="Path 113988" d="M212.549,158.975c-.115,2.124-.774,3.42-2.324,4.288C209.73,160.98,209.871,160.7,212.549,158.975Z" transform="translate(64.483 40.819)" fill="#505050" fill-rule="evenodd"/>
        <path id="Path_113989" data-name="Path 113989" d="M153.925,163.248c-1.848-.756-2.336-2.207-2.648-4.07C153.742,160.163,153.947,160.5,153.925,163.248Z" transform="translate(50.512 40.867)" fill="#505050" fill-rule="evenodd"/>
        <path id="Path_113990" data-name="Path 113990" d="M138.712,158.973c-.125,2.134-.791,3.431-2.34,4.3C135.891,160.971,136.033,160.689,138.712,158.973Z" transform="translate(46.915 40.819)" fill="#505050" fill-rule="evenodd"/>
        <path id="Path_113991" data-name="Path 113991" d="M80.252,163.547c-1.956-1.206-2.832-2.425-2.612-4.572C79.58,159.869,80.3,161.171,80.252,163.547Z" transform="translate(32.985 40.819)" fill="#505050" fill-rule="evenodd"/>
        <path id="Path_113992" data-name="Path 113992" d="M62.128,163.3a4.333,4.333,0,0,1,2.274-4.274C64.842,161.4,64.66,161.748,62.128,163.3Z" transform="translate(29.302 40.832)" fill="#505050" fill-rule="evenodd"/>
        <path id="Path_113993" data-name="Path 113993" d="M3.648,158.81c2.093,1.191,2.9,2.444,2.769,4.584C4.414,162.584,3.821,161.212,3.648,158.81Z" transform="translate(15.39 40.78)" fill="#505050" fill-rule="evenodd"/>
        <path id="Path_113994" data-name="Path 113994" d="M-11.723,163.517c0-2.351.673-3.683,2.689-4.536C-8.932,161.121-9.735,162.393-11.723,163.517Z" transform="translate(11.733 40.821)" fill="#505050" fill-rule="evenodd"/>
        <path id="Path_113995" data-name="Path 113995" d="M262.106,200.493c.137-2.114.769-3.434,2.348-4.282C264.907,198.533,264.758,198.827,262.106,200.493Z" transform="translate(76.879 49.678)" fill="#505050" fill-rule="evenodd"/>
        <path id="Path_113996" data-name="Path 113996" d="M246.919,196.193c1.828.76,2.428,2.147,2.535,4.022C247.086,199.256,246.885,198.931,246.919,196.193Z" transform="translate(73.265 49.674)" fill="#505050" fill-rule="evenodd"/>
        <path id="Path_113997" data-name="Path 113997" d="M188.33,200.357a4.477,4.477,0,0,1,2.381-4.262C190.952,198.755,190.779,199.067,188.33,200.357Z" transform="translate(59.326 49.65)" fill="#505050" fill-rule="evenodd"/>
        <path id="Path_113998" data-name="Path 113998" d="M173.107,196.092a4.5,4.5,0,0,1,2.471,4.188C173.186,199.2,173,198.875,173.107,196.092Z" transform="translate(55.7 49.65)" fill="#505050" fill-rule="evenodd"/>
        <path id="Path_113999" data-name="Path 113999" d="M117.122,196.178a4.2,4.2,0,0,1-2.274,4.257C114.448,198.041,114.624,197.706,117.122,196.178Z" transform="translate(41.806 49.67)" fill="#505050" fill-rule="evenodd"/>
        <path id="Path_114000" data-name="Path 114000" d="M101.542,200.4a3.834,3.834,0,0,1-2.473-4.027C101.351,197.329,101.53,197.616,101.542,200.4Z" transform="translate(38.09 49.716)" fill="#505050" fill-rule="evenodd"/>
        <path id="Path_114001" data-name="Path 114001" d="M43.181,196.2c.332,2-.54,3.238-2.158,4.229C40.586,198.073,40.755,197.743,43.181,196.2Z" transform="translate(24.237 49.675)" fill="#505050" fill-rule="evenodd"/>
        <path id="Path_114002" data-name="Path 114002" d="M28.011,200.342c-2.534-1.208-2.723-1.53-2.572-4.151C27.262,196.972,27.746,198.43,28.011,200.342Z" transform="translate(20.565 49.673)" fill="#505050" fill-rule="evenodd"/>
        <path id="Path_114003" data-name="Path 114003" d="M99.189,110.932a4.437,4.437,0,0,1,2.585,4.049C99.5,114.256,99.284,113.922,99.189,110.932Z" transform="translate(38.12 29.389)" fill="#505050" fill-rule="evenodd"/>
        <path id="Path_114004" data-name="Path 114004" d="M117.1,110.8a4.317,4.317,0,0,1-2.475,4.663C114.251,113.257,115.226,112.09,117.1,110.8Z" transform="translate(41.774 29.359)" fill="#505050" fill-rule="evenodd"/>
        <path id="Path_114005" data-name="Path 114005" d="M175.613,115.138c-2.45-1.17-2.638-1.49-2.489-4.121A4.2,4.2,0,0,1,175.613,115.138Z" transform="translate(55.7 29.41)" fill="#505050" fill-rule="evenodd"/>
        <path id="Path_114006" data-name="Path 114006" d="M188.373,115.221A4.121,4.121,0,0,1,190.652,111C190.993,113.483,190.835,113.78,188.373,115.221Z" transform="translate(59.331 29.405)" fill="#505050" fill-rule="evenodd"/>
        <path id="Path_114007" data-name="Path 114007" d="M40.615,72.2c.574-2.432.574-2.432,2.447-3.656C43.247,71.174,42.733,71.943,40.615,72.2Z" transform="translate(24.185 19.304)" fill="#505050" fill-rule="evenodd"/>
        <path id="Path_114008" data-name="Path 114008" d="M246.9,111.033c1.89.716,2.328,2.2,2.68,4.018C247.135,114.157,246.926,113.829,246.9,111.033Z" transform="translate(73.262 29.413)" fill="#505050" fill-rule="evenodd"/>
        <path id="Path_114009" data-name="Path 114009" d="M117.011,68.491c.337,1.983-.553,3.2-2.177,4.173C114.449,70.295,114.644,69.928,117.011,68.491Z" transform="translate(41.805 19.292)" fill="#505050" fill-rule="evenodd"/>
        <path id="Path_114010" data-name="Path 114010" d="M264.622,110.922c.124,2.765-.062,3.085-2.468,4.211A4.477,4.477,0,0,1,264.622,110.922Z" transform="translate(76.89 29.387)" fill="#505050" fill-rule="evenodd"/>
        <path id="Path_114011" data-name="Path 114011" d="M190.961,68.432a4.148,4.148,0,0,1-2.285,4.241C188.289,70.316,188.484,69.951,190.961,68.432Z" transform="translate(59.373 19.278)" fill="#505050" fill-rule="evenodd"/>
        <path id="Path_114012" data-name="Path 114012" d="M264.8,68.432a4.143,4.143,0,0,1-2.283,4.241C262.133,70.317,262.327,69.952,264.8,68.432Z" transform="translate(76.941 19.278)" fill="#505050" fill-rule="evenodd"/>
        <path id="Path_114013" data-name="Path 114013" d="M-8.984,73.809C-9.1,75.933-9.759,77.226-11.3,78.1-11.8,75.819-11.659,75.531-8.984,73.809Z" transform="translate(11.779 20.557)" fill="#505050" fill-rule="evenodd"/>
        <path id="Path_114014" data-name="Path 114014" d="M3.882,73.876a3.841,3.841,0,0,1,2.512,3.982C4.127,76.987,3.933,76.685,3.882,73.876Z" transform="translate(15.445 20.573)" fill="#505050" fill-rule="evenodd"/>
        <path id="Path_114015" data-name="Path 114015" d="M64.944,73.589c-.192,2.455-.78,3.841-2.79,4.658C62,76.124,62.838,74.879,64.944,73.589Z" transform="translate(29.305 20.505)" fill="#505050" fill-rule="evenodd"/>
        <path id="Path_114016" data-name="Path 114016" d="M77.477,73.668a4.566,4.566,0,0,1,2.851,4.573C78.264,77.426,77.682,76.046,77.477,73.668Z" transform="translate(32.954 20.524)" fill="#505050" fill-rule="evenodd"/>
        <path id="Path_114017" data-name="Path 114017" d="M138.6,73.957c.136,1.984-.784,3.19-2.345,4.274C136,75.566,136.186,75.239,138.6,73.957Z" transform="translate(46.918 20.593)" fill="#505050" fill-rule="evenodd"/>
        <path id="Path_114018" data-name="Path 114018" d="M153.849,78.222A4.588,4.588,0,0,1,151.4,74C153.781,75.1,153.976,75.438,153.849,78.222Z" transform="translate(50.54 20.604)" fill="#505050" fill-rule="evenodd"/>
        <path id="Path_114019" data-name="Path 114019" d="M212.546,73.809c-.113,2.124-.771,3.42-2.319,4.289C209.729,75.817,209.871,75.528,212.546,73.809Z" transform="translate(64.483 20.557)" fill="#505050" fill-rule="evenodd"/>
        <path id="Path_114020" data-name="Path 114020" d="M227.943,78.381c-1.96-1.2-2.836-2.424-2.617-4.572C227.269,74.7,227.988,76.006,227.943,78.381Z" transform="translate(68.121 20.557)" fill="#505050" fill-rule="evenodd"/>
        <path id="Path_114021" data-name="Path 114021" d="M286.241,73.978c-2.367,1.26-2.549,1.6-2.3,4.242a4.7,4.7,0,0,0,2.3-3.215Z" transform="translate(82.054 20.598)" fill="#505050" fill-rule="evenodd"/>
        <path id="Path_114022" data-name="Path 114022" d="M-9.048,116.458c-.446,2.707-.446,2.707-2.317,4.106C-11.743,118.286-11.557,117.927-9.048,116.458Z" transform="translate(11.782 30.704)" fill="#505050" fill-rule="evenodd"/>
        <path id="Path_114023" data-name="Path 114023" d="M3.662,116.605c2.378.959,2.621,1.36,2.539,4.049C4.415,119.867,3.792,118.5,3.662,116.605Z" transform="translate(15.393 30.739)" fill="#505050" fill-rule="evenodd"/>
        <path id="Path_114024" data-name="Path 114024" d="M262.085,180.17c2.226,1.136,2.893,2.47,2.794,4.53C262.846,183.89,262.277,182.486,262.085,180.17Z" transform="translate(76.874 45.862)" fill="#505050" fill-rule="evenodd"/>
        <path id="Path_114025" data-name="Path 114025" d="M249.487,180.279c-.152,2.123-.772,3.451-2.351,4.3C246.668,182.272,246.827,181.953,249.487,180.279Z" transform="translate(73.269 45.888)" fill="#505050" fill-rule="evenodd"/>
        <path id="Path_114026" data-name="Path 114026" d="M188.24,180.159c2.207,1.16,2.947,2.455,2.721,4.513C189,183.891,188.436,182.486,188.24,180.159Z" transform="translate(59.306 45.859)" fill="#505050" fill-rule="evenodd"/>
        <path id="Path_114027" data-name="Path 114027" d="M172.943,184.676a4.119,4.119,0,0,1,2.527-4.43A3.877,3.877,0,0,1,172.943,184.676Z" transform="translate(55.662 45.88)" fill="#505050" fill-rule="evenodd"/>
        <path id="Path_114028" data-name="Path 114028" d="M114.529,180.184c2.029,1.193,2.767,2.44,2.611,4.464C115.083,183.827,114.463,182.462,114.529,180.184Z" transform="translate(41.768 45.865)" fill="#505050" fill-rule="evenodd"/>
        <path id="Path_114029" data-name="Path 114029" d="M101.8,180.279c-.152,2.123-.771,3.451-2.351,4.3C98.981,182.272,99.14,181.953,101.8,180.279Z" transform="translate(38.133 45.888)" fill="#505050" fill-rule="evenodd"/>
        <path id="Path_114030" data-name="Path 114030" d="M40.554,180.159c2.207,1.16,2.946,2.455,2.718,4.513C41.319,183.891,40.75,182.486,40.554,180.159Z" transform="translate(24.17 45.859)" fill="#505050" fill-rule="evenodd"/>
        <path id="Path_114031" data-name="Path 114031" d="M27.932,180.331a4.75,4.75,0,0,1-2.363,4.323C25.175,182.173,25.345,181.846,27.932,180.331Z" transform="translate(20.567 45.9)" fill="#505050" fill-rule="evenodd"/>
        <path id="Path_114032" data-name="Path 114032" d="M64.9,116.412c-.2,2.1-.816,3.441-2.423,4.276C62.106,118.279,62.3,117.915,64.9,116.412Z" transform="translate(29.352 30.693)" fill="#505050" fill-rule="evenodd"/>
        <path id="Path_114033" data-name="Path 114033" d="M77.464,116.261c2.236,1.17,2.966,2.467,2.715,4.5C78.256,119.987,77.678,118.588,77.464,116.261Z" transform="translate(32.951 30.657)" fill="#505050" fill-rule="evenodd"/>
        <path id="Path_114034" data-name="Path 114034" d="M138.735,116.819c-.259,1.66-.829,3.05-2.538,3.784C136.045,117.808,136.551,117.06,138.735,116.819Z" transform="translate(46.918 30.79)" fill="#505050" fill-rule="evenodd"/>
        <path id="Path_114035" data-name="Path 114035" d="M153.845,120.673a4.285,4.285,0,0,1-2.492-4.1C153.766,117.632,154,118.037,153.845,120.673Z" transform="translate(50.53 30.732)" fill="#505050" fill-rule="evenodd"/>
        <path id="Path_114036" data-name="Path 114036" d="M212.58,116.378c-.172,2.118-.791,3.441-2.357,4.3C209.752,118.371,209.924,118.023,212.58,116.378Z" transform="translate(64.487 30.685)" fill="#505050" fill-rule="evenodd"/>
        <path id="Path_114037" data-name="Path 114037" d="M225.2,116.625c2.359.9,2.6,1.3,2.555,4.022C225.945,119.887,225.334,118.5,225.2,116.625Z" transform="translate(68.098 30.744)" fill="#505050" fill-rule="evenodd"/>
        <path id="Path_114038" data-name="Path 114038" d="M283.734,120.769a4.027,4.027,0,0,1,2.493-4.414A3.885,3.885,0,0,1,283.734,120.769Z" transform="translate(82.017 30.679)" fill="#505050" fill-rule="evenodd"/>
        <path id="Path_114039" data-name="Path 114039" d="M-11.731,89.636c2.113.943,2.6,2.388,2.9,4.423C-11.141,93.3-11.648,91.877-11.731,89.636Z" transform="translate(11.731 24.323)" fill="#505050" fill-rule="evenodd"/>
        <path id="Path_114040" data-name="Path 114040" d="M3.633,94.022c.191-2.093.795-3.433,2.405-4.256C6.432,92.158,6.255,92.5,3.633,94.022Z" transform="translate(15.386 24.354)" fill="#505050" fill-rule="evenodd"/>
        <path id="Path_114041" data-name="Path 114041" d="M62.225,89.661a4.715,4.715,0,0,1,2.735,3.984C62.656,93.111,62.428,92.788,62.225,89.661Z" transform="translate(29.326 24.329)" fill="#505050" fill-rule="evenodd"/>
        <path id="Path_114042" data-name="Path 114042" d="M80.222,89.732c.021,2.139-.655,3.422-2.31,4.21C77.533,91.607,77.726,91.245,80.222,89.732Z" transform="translate(33.022 24.346)" fill="#505050" fill-rule="evenodd"/>
        <path id="Path_114043" data-name="Path 114043" d="M138.451,93.71c-2.208-1.367-2.208-1.367-2.377-3.974A3.591,3.591,0,0,1,138.451,93.71Z" transform="translate(46.895 24.347)" fill="#505050" fill-rule="evenodd"/>
        <path id="Path_114044" data-name="Path 114044" d="M151.338,93.893a4.391,4.391,0,0,1,2.5-4.162C154.022,92.369,153.827,92.709,151.338,93.893Z" transform="translate(50.526 24.345)" fill="#505050" fill-rule="evenodd"/>
        <path id="Path_114045" data-name="Path 114045" d="M209.914,89.7c2.118,1.519,2.118,1.519,2.551,3.889C210.342,93.1,210.115,92.778,209.914,89.7Z" transform="translate(64.462 24.339)" fill="#505050" fill-rule="evenodd"/>
        <path id="Path_114046" data-name="Path 114046" d="M227.935,89.539c.038,2.322-.6,3.688-2.638,4.577C225.122,91.983,225.982,90.748,227.935,89.539Z" transform="translate(68.117 24.3)" fill="#505050" fill-rule="evenodd"/>
        <path id="Path_114047" data-name="Path 114047" d="M286.251,92.647a3.762,3.762,0,0,0-2.435-2.883c.017,2.69.233,3.108,2.435,3.906Z" transform="translate(82.044 24.353)" fill="#505050" fill-rule="evenodd"/>
        <path id="Path_114048" data-name="Path 114048" d="M-11.53,4.582c1.811.764,2.418,2.153,2.555,4.047C-11.382,7.653-11.591,7.307-11.53,4.582Z" transform="translate(11.777 4.088)" fill="#505050" fill-rule="evenodd"/>
        <path id="Path_114049" data-name="Path 114049" d="M6.178,4.561c.136,2.68-.066,3.023-2.512,4.128A4.279,4.279,0,0,1,6.178,4.561Z" transform="translate(15.394 4.083)" fill="#505050" fill-rule="evenodd"/>
        <path id="Path_114050" data-name="Path 114050" d="M64.961,9.018a4.173,4.173,0,0,1-2.81-4.466C64.161,5.308,64.716,6.715,64.961,9.018Z" transform="translate(29.307 4.081)" fill="#505050" fill-rule="evenodd"/>
        <path id="Path_114051" data-name="Path 114051" d="M80.248,4.376c.036,2.317-.593,3.685-2.638,4.573C77.438,6.818,78.295,5.582,80.248,4.376Z" transform="translate(32.981 4.039)" fill="#505050" fill-rule="evenodd"/>
        <path id="Path_114052" data-name="Path 114052" d="M135.976,4.422a4.533,4.533,0,0,1,2.736,4.473C136.553,8.116,136,6.713,135.976,4.422Z" transform="translate(46.872 4.05)" fill="#505050" fill-rule="evenodd"/>
        <path id="Path_114053" data-name="Path 114053" d="M151.349,8.664c.119-1.911.745-3.3,2.538-4.094C153.98,7.28,153.778,7.618,151.349,8.664Z" transform="translate(50.529 4.085)" fill="#505050" fill-rule="evenodd"/>
        <path id="Path_114054" data-name="Path 114054" d="M212.336,8.711c-1.948-.664-2.48-2.08-2.52-3.928C212.08,5.668,212.237,5.913,212.336,8.711Z" transform="translate(64.439 4.136)" fill="#505050" fill-rule="evenodd"/>
        <path id="Path_114055" data-name="Path 114055" d="M225.162,8.877c.182-2.111.8-3.444,2.4-4.279C227.971,6.977,227.8,7.308,225.162,8.877Z" transform="translate(68.09 4.092)" fill="#505050" fill-rule="evenodd"/>
        <path id="Path_114056" data-name="Path 114056" d="M286.283,7.694A3.922,3.922,0,0,0,283.7,4.551c-.136,1.963.532,3.2,2.586,4.443Z" transform="translate(82.012 4.08)" fill="#505050" fill-rule="evenodd"/>
        <path id="Path_114057" data-name="Path 114057" d="M25.33,14.233a3.7,3.7,0,0,1,2.113-4.178C27.949,12.281,27.762,12.652,25.33,14.233Z" transform="translate(20.531 5.39)" fill="#505050" fill-rule="evenodd"/>
        <path id="Path_114058" data-name="Path 114058" d="M43.355,14.449c-2.072-1.027-2.606-2.437-2.813-4.521C42.758,10.818,43.383,12.177,43.355,14.449Z" transform="translate(24.167 5.36)" fill="#505050" fill-rule="evenodd"/>
        <path id="Path_114059" data-name="Path 114059" d="M99.069,14.512c-.056-2.324.605-3.675,2.638-4.558C101.864,12.081,101.031,13.335,99.069,14.512Z" transform="translate(38.09 5.366)" fill="#505050" fill-rule="evenodd"/>
        <path id="Path_114060" data-name="Path 114060" d="M117.212,14.443a4.551,4.551,0,0,1-2.778-4.459C116.609,10.765,117.172,12.155,117.212,14.443Z" transform="translate(41.747 5.373)" fill="#505050" fill-rule="evenodd"/>
        <path id="Path_114061" data-name="Path 114061" d="M175.614,10.086a4.338,4.338,0,0,1-2.454,4.175C172.936,11.668,173.127,11.33,175.614,10.086Z" transform="translate(55.701 5.397)" fill="#505050" fill-rule="evenodd"/>
        <path id="Path_114062" data-name="Path 114062" d="M190.9,14.3a4.433,4.433,0,0,1-2.627-4C190.529,10.9,190.755,11.233,190.9,14.3Z" transform="translate(59.314 5.449)" fill="#505050" fill-rule="evenodd"/>
        <path id="Path_114063" data-name="Path 114063" d="M246.808,14.2a3.822,3.822,0,0,1,2.255-4.175C249.393,12.456,249.2,12.81,246.808,14.2Z" transform="translate(73.231 5.383)" fill="#505050" fill-rule="evenodd"/>
        <path id="Path_114064" data-name="Path 114064" d="M264.644,14.228c-1.79-.786-2.418-2.16-2.518-4.069C264.54,11.2,264.747,11.541,264.644,14.228Z" transform="translate(76.884 5.415)" fill="#505050" fill-rule="evenodd"/>
        <path id="Path_114065" data-name="Path 114065" d="M62.271,260.1c1.874.7,2.42,2.117,2.607,3.929C62.553,263.285,62.342,262.963,62.271,260.1Z" transform="translate(29.337 64.876)" fill="#505050" fill-rule="evenodd"/>
        <path id="Path_114066" data-name="Path 114066" d="M77.582,264.287c.389-2.684.389-2.684,2.263-4.111C80.277,262.419,80.109,262.752,77.582,264.287Z" transform="translate(32.979 64.896)" fill="#505050" fill-rule="evenodd"/>
        <path id="Path_114067" data-name="Path 114067" d="M138.708,264.177c-2.45-1.094-2.655-1.447-2.512-4.1C137.968,260.887,138.587,262.261,138.708,264.177Z" transform="translate(46.916 64.872)" fill="#505050" fill-rule="evenodd"/>
        <path id="Path_114068" data-name="Path 114068" d="M151.357,264.239a4.362,4.362,0,0,1,2.456-4.178C154.038,262.662,153.846,263,151.357,264.239Z" transform="translate(50.531 64.868)" fill="#505050" fill-rule="evenodd"/>
        <path id="Path_114069" data-name="Path 114069" d="M212.372,264.026c-2.013-.584-2.6-1.962-2.553-3.986C211.918,260.791,212.326,262.3,212.372,264.026Z" transform="translate(64.439 64.863)" fill="#505050" fill-rule="evenodd"/>
        <path id="Path_114070" data-name="Path 114070" d="M225.226,263.818c.589-2.441.589-2.441,2.484-3.654C227.837,262.886,227.345,263.605,225.226,263.818Z" transform="translate(68.105 64.893)" fill="#505050" fill-rule="evenodd"/>
        <path id="Path_114071" data-name="Path 114071" d="M286.284,263.21a3.844,3.844,0,0,0-2.6-3.16,4.108,4.108,0,0,0,2.6,4.35Z" transform="translate(82.011 64.866)" fill="#505050" fill-rule="evenodd"/>
        <path id="Path_114072" data-name="Path 114072" d="M27.965,265.484c-.177,2.109-.8,3.446-2.411,4.271C25.178,267.341,25.348,267.014,27.965,265.484Z" transform="translate(20.566 66.158)" fill="#505050" fill-rule="evenodd"/>
        <path id="Path_114073" data-name="Path 114073" d="M40.792,265.547c1.916.707,2.5,2.087,2.518,3.946C41.054,268.624,40.89,268.373,40.792,265.547Z" transform="translate(24.227 66.173)" fill="#505050" fill-rule="evenodd"/>
        <path id="Path_114074" data-name="Path 114074" d="M99.071,270.1c-.05-2.41.6-3.766,2.663-4.653C101.846,267.571,101,268.814,99.071,270.1Z" transform="translate(38.091 66.149)" fill="#505050" fill-rule="evenodd"/>
        <path id="Path_114075" data-name="Path 114075" d="M114.412,265.4c2.609,1.75,2.609,1.75,2.582,4.376C115.162,269.031,114.575,267.634,114.412,265.4Z" transform="translate(41.741 66.139)" fill="#505050" fill-rule="evenodd"/>
        <path id="Path_114076" data-name="Path 114076" d="M172.944,269.844a4.125,4.125,0,0,1,2.52-4.434A3.872,3.872,0,0,1,172.944,269.844Z" transform="translate(55.662 66.141)" fill="#505050" fill-rule="evenodd"/>
        <path id="Path_114077" data-name="Path 114077" d="M188.228,265.349a4.374,4.374,0,0,1,2.856,4.52C189.029,269.068,188.463,267.673,188.228,265.349Z" transform="translate(59.303 66.126)" fill="#505050" fill-rule="evenodd"/>
        <path id="Path_114078" data-name="Path 114078" d="M249.458,265.585A4.347,4.347,0,0,1,247,269.76C246.782,267.165,246.97,266.829,249.458,265.585Z" transform="translate(73.269 66.182)" fill="#505050" fill-rule="evenodd"/>
        <path id="Path_114079" data-name="Path 114079" d="M262.123,265.618c2.456,1.151,2.658,1.5,2.482,4.124A4.247,4.247,0,0,1,262.123,265.618Z" transform="translate(76.883 66.19)" fill="#505050" fill-rule="evenodd"/>
        <path id="Path_114080" data-name="Path 114080" d="M25.344,281.269a4.429,4.429,0,0,1,2.587,4.044C25.667,284.589,25.446,284.255,25.344,281.269Z" transform="translate(20.551 69.914)" fill="#505050" fill-rule="evenodd"/>
        <path id="Path_114081" data-name="Path 114081" d="M43.259,281.14c.243,2.359-.7,3.554-2.478,4.712C40.419,283.591,41.378,282.413,43.259,281.14Z" transform="translate(24.206 69.883)" fill="#505050" fill-rule="evenodd"/>
        <path id="Path_114082" data-name="Path 114082" d="M101.813,285.691c-2.549-1.649-2.549-1.649-2.611-4.327C101.072,282.1,101.632,283.494,101.813,285.691Z" transform="translate(38.123 69.936)" fill="#505050" fill-rule="evenodd"/>
        <path id="Path_114083" data-name="Path 114083" d="M116.911,281.425c.082,2.446.082,2.446-2.069,4.01C114.431,283.225,114.6,282.9,116.911,281.425Z" transform="translate(41.802 69.951)" fill="#505050" fill-rule="evenodd"/>
        <path id="Path_114084" data-name="Path 114084" d="M175.372,285.579a3.889,3.889,0,0,1-2.46-4.059C175.21,282.526,175.4,282.833,175.372,285.579Z" transform="translate(55.658 69.974)" fill="#505050" fill-rule="evenodd"/>
        <path id="Path_114085" data-name="Path 114085" d="M188.392,285.557a4.072,4.072,0,0,1,2.233-4.223C191.015,283.767,190.861,284.057,188.392,285.557Z" transform="translate(59.334 69.93)" fill="#505050" fill-rule="evenodd"/>
        <path id="Path_114086" data-name="Path 114086" d="M246.9,281.365c1.856.738,2.424,2.138,2.565,3.976C247.134,284.488,246.925,284.16,246.9,281.365Z" transform="translate(73.262 69.937)" fill="#505050" fill-rule="evenodd"/>
        <path id="Path_114087" data-name="Path 114087" d="M262.2,285.577a4.455,4.455,0,0,1,2.286-4.309C264.838,283.828,264.678,284.128,262.2,285.577Z" transform="translate(76.898 69.914)" fill="#505050" fill-rule="evenodd"/>
        <path id="Path_114088" data-name="Path 114088" d="M-8.994,286.866a4.588,4.588,0,0,1-2.463,4.216C-11.654,288.408-11.436,288.027-8.994,286.866Z" transform="translate(11.783 71.245)" fill="#505050" fill-rule="evenodd"/>
        <path id="Path_114089" data-name="Path 114089" d="M3.662,286.936c2.382.962,2.621,1.359,2.536,4.052C4.408,290.2,3.8,288.825,3.662,286.936Z" transform="translate(15.393 71.262)" fill="#505050" fill-rule="evenodd"/>
        <path id="Path_114090" data-name="Path 114090" d="M62.151,291.307c-.059-2.317.583-3.677,2.617-4.6C64.966,288.847,64.088,290.065,62.151,291.307Z" transform="translate(29.307 71.208)" fill="#505050" fill-rule="evenodd"/>
        <path id="Path_114091" data-name="Path 114091" d="M80.1,290.96c-1.885-.689-2.317-2.184-2.694-4.014C79.862,287.817,80.107,288.209,80.1,290.96Z" transform="translate(32.938 71.264)" fill="#505050" fill-rule="evenodd"/>
        <path id="Path_114092" data-name="Path 114092" d="M138.638,286.79c-.442,2.706-.442,2.706-2.316,4.106C135.943,288.617,136.131,288.254,138.638,286.79Z" transform="translate(46.918 71.227)" fill="#505050" fill-rule="evenodd"/>
        <path id="Path_114093" data-name="Path 114093" d="M151.351,286.955c2.361.909,2.6,1.3,2.554,4.028C152.1,290.222,151.492,288.833,151.351,286.955Z" transform="translate(50.529 71.267)" fill="#505050" fill-rule="evenodd"/>
        <path id="Path_114094" data-name="Path 114094" d="M209.848,291.277a4.361,4.361,0,0,1,2.7-4.664A4.686,4.686,0,0,1,209.848,291.277Z" transform="translate(64.444 71.185)" fill="#505050" fill-rule="evenodd"/>
        <path id="Path_114095" data-name="Path 114095" d="M227.8,291.076a4.552,4.552,0,0,1-2.6-4.052C227.473,287.722,227.725,288.107,227.8,291.076Z" transform="translate(68.097 71.283)" fill="#505050" fill-rule="evenodd"/>
        <path id="Path_114096" data-name="Path 114096" d="M286.238,286.847c-2.392,1.374-2.59,1.8-2.228,4.141a4.112,4.112,0,0,0,2.228-3.047Z" transform="translate(82.057 71.241)" fill="#505050" fill-rule="evenodd"/>
        <path id="Path_114097" data-name="Path 114097" d="M243.015,126.183c-1.7,1.437-3.17,1.261-4.931.162C239.771,125.027,241.242,125.147,243.015,126.183Z" transform="translate(71.164 32.827)" fill="#505050" fill-rule="evenodd"/>
        <path id="Path_114098" data-name="Path 114098" d="M274,126.127c-1.738,1.485-3.2,1.318-4.958.245C270.69,124.95,272.158,125.241,274,126.127Z" transform="translate(78.529 32.827)" fill="#505050" fill-rule="evenodd"/>
        <path id="Path_114099" data-name="Path 114099" d="M-11.638,132.354c1.994.8,2.637,2.124,2.582,4.235A3.739,3.739,0,0,1-11.638,132.354Z" transform="translate(11.749 34.486)" fill="#505050" fill-rule="evenodd"/>
        <path id="Path_114100" data-name="Path 114100" d="M62.177,132.186a4.487,4.487,0,0,1,2.654,4.417C62.726,135.818,62.126,134.481,62.177,132.186Z" transform="translate(29.313 34.446)" fill="#505050" fill-rule="evenodd"/>
        <path id="Path_114101" data-name="Path 114101" d="M138.636,136.59a3.748,3.748,0,0,1-2.591-4.229C138.049,133.153,138.684,134.477,138.636,136.59Z" transform="translate(46.885 34.487)" fill="#505050" fill-rule="evenodd"/>
        <path id="Path_114102" data-name="Path 114102" d="M212.476,136.588a3.745,3.745,0,0,1-2.586-4.227C211.89,133.154,212.528,134.475,212.476,136.588Z" transform="translate(64.453 34.487)" fill="#505050" fill-rule="evenodd"/>
        <path id="Path_114103" data-name="Path 114103" d="M286.276,135.523a3.6,3.6,0,0,0-2.56-3.163c-.085,2.055.541,3.366,2.56,4.18Z" transform="translate(82.018 34.487)" fill="#505050" fill-rule="evenodd"/>
        <path id="Path_114104" data-name="Path 114104" d="M25.265,142.131c-.089-2.221.508-3.571,2.437-4.293C27.6,140.324,27.6,140.324,25.265,142.131Z" transform="translate(20.531 35.79)" fill="#505050" fill-rule="evenodd"/>
        <path id="Path_114105" data-name="Path 114105" d="M43.023,141.91a4.132,4.132,0,0,1-2.416-3.865C42.926,138.759,43.249,139.282,43.023,141.91Z" transform="translate(24.183 35.84)" fill="#505050" fill-rule="evenodd"/>
        <path id="Path_114106" data-name="Path 114106" d="M101.423,137.981a3.547,3.547,0,0,1-2.177,4.032C98.743,139.832,99.861,138.782,101.423,137.981Z" transform="translate(38.104 35.824)" fill="#505050" fill-rule="evenodd"/>
        <path id="Path_114107" data-name="Path 114107" d="M114.707,138c1.755.785,2.668,1.94,2.275,3.929C115,141.171,114.572,139.713,114.707,138Z" transform="translate(41.806 35.828)" fill="#505050" fill-rule="evenodd"/>
        <path id="Path_114108" data-name="Path 114108" d="M173.072,142.1c-.409-2.17.522-3.326,2.327-4.426C175.745,139.935,174.833,141.1,173.072,142.1Z" transform="translate(55.675 35.75)" fill="#505050" fill-rule="evenodd"/>
        <path id="Path_114109" data-name="Path 114109" d="M191.043,142.2c-2.43-1.851-2.43-1.851-2.56-4.351C190.455,138.529,190.945,139.938,191.043,142.2Z" transform="translate(59.363 35.792)" fill="#505050" fill-rule="evenodd"/>
        <path id="Path_114110" data-name="Path 114110" d="M249.4,137.561c-.412,3.054-.412,3.054-2.5,4.417C246.486,139.946,247.459,138.816,249.4,137.561Z" transform="translate(73.239 35.725)" fill="#505050" fill-rule="evenodd"/>
        <path id="Path_114111" data-name="Path 114111" d="M262.184,137.594c2.022,1.159,2.8,2.4,2.623,4.423C262.628,140.637,262.628,140.637,262.184,137.594Z" transform="translate(76.898 35.732)" fill="#505050" fill-rule="evenodd"/>
        <path id="Path_114112" data-name="Path 114112" d="M25.287,153.524a4.455,4.455,0,0,1,2.691,3.674C26.053,157.395,25.579,156.793,25.287,153.524Z" transform="translate(20.538 39.522)" fill="#505050" fill-rule="evenodd"/>
        <path id="Path_114113" data-name="Path 114113" d="M99.08,153.376c2.455,2.067,2.455,2.067,2.379,4.453C99.6,157,99,155.639,99.08,153.376Z" transform="translate(38.092 39.487)" fill="#505050" fill-rule="evenodd"/>
        <path id="Path_114114" data-name="Path 114114" d="M175.566,157.979c-2.023-1.124-2.883-2.32-2.532-4.322C175.1,154.972,175.1,154.972,175.566,157.979Z" transform="translate(55.67 39.554)" fill="#505050" fill-rule="evenodd"/>
        <path id="Path_114115" data-name="Path 114115" d="M246.743,153.436A4.668,4.668,0,0,1,249.5,157.8C247.259,157.1,246.771,155.7,246.743,153.436Z" transform="translate(73.224 39.501)" fill="#505050" fill-rule="evenodd"/>
        <path id="Path_114116" data-name="Path 114116" d="M16.453,168.89c1.885-1.2,3.346-1.388,4.913-.048C19.215,169.971,19.215,169.971,16.453,168.89Z" transform="translate(18.436 42.945)" fill="#505050" fill-rule="evenodd"/>
        <path id="Path_114117" data-name="Path 114117" d="M52.554,168.922c-1.888,1.034-3.316,1.1-4.877.213C49.533,167.54,49.533,167.54,52.554,168.922Z" transform="translate(25.865 42.945)" fill="#505050" fill-rule="evenodd"/>
        <path id="Path_114118" data-name="Path 114118" d="M90.224,168.942c1.974-1.256,3.436-1.445,5.14.014C93.686,170.035,92.253,169.936,90.224,168.942Z" transform="translate(35.987 42.949)" fill="#505050" fill-rule="evenodd"/>
        <path id="Path_114119" data-name="Path 114119" d="M121.229,168.961c1.873-1.368,3.339-1.38,5.092-.027A4.517,4.517,0,0,1,121.229,168.961Z" transform="translate(43.363 42.949)" fill="#505050" fill-rule="evenodd"/>
        <path id="Path_114120" data-name="Path 114120" d="M164.067,168.942c1.977-1.258,3.438-1.443,5.139.012C167.531,170.038,166.1,169.934,164.067,168.942Z" transform="translate(53.555 42.949)" fill="#505050" fill-rule="evenodd"/>
        <path id="Path_114121" data-name="Path 114121" d="M195.028,168.9c1.984-1.24,3.435-1.359,5.163.092A4.681,4.681,0,0,1,195.028,168.9Z" transform="translate(60.921 42.951)" fill="#505050" fill-rule="evenodd"/>
        <path id="Path_114122" data-name="Path 114122" d="M243.322,168.844a4.742,4.742,0,0,1-5.271.136C239.787,167.481,241.242,167.746,243.322,168.844Z" transform="translate(71.156 42.951)" fill="#505050" fill-rule="evenodd"/>
        <path id="Path_114123" data-name="Path 114123" d="M273.834,169.029a4.7,4.7,0,0,1-4.643.228C270.979,167.506,271.45,167.483,273.834,169.029Z" transform="translate(78.565 42.944)" fill="#505050" fill-rule="evenodd"/>
        <path id="Path_114124" data-name="Path 114124" d="M16.467,211.348c2.879-1.027,2.879-1.027,4.916.154C19.788,212.718,18.308,212.668,16.467,211.348Z" transform="translate(18.44 53.1)" fill="#505050" fill-rule="evenodd"/>
        <path id="Path_114125" data-name="Path 114125" d="M47.713,211.384c2.023-1.057,2.023-1.057,4.318-.147C50.351,212.763,49.786,212.78,47.713,211.384Z" transform="translate(25.873 53.094)" fill="#505050" fill-rule="evenodd"/>
        <path id="Path_114126" data-name="Path 114126" d="M90.1,211.5c2.135-1.17,3.575-1.219,5.324-.167C93.733,212.831,92.264,212.482,90.1,211.5Z" transform="translate(35.958 53.096)" fill="#505050" fill-rule="evenodd"/>
        <path id="Path_114127" data-name="Path 114127" d="M121.223,211.308c2.012-.961,3.457-1.062,5.072.121C124.574,212.686,123.091,212.715,121.223,211.308Z" transform="translate(43.362 53.093)" fill="#505050" fill-rule="evenodd"/>
        <path id="Path_114128" data-name="Path 114128" d="M164.238,211.444a3.825,3.825,0,0,1,4.924-.017A3.657,3.657,0,0,1,164.238,211.444Z" transform="translate(53.595 53.086)" fill="#505050" fill-rule="evenodd"/>
        <path id="Path_114129" data-name="Path 114129" d="M200.113,211.472c-1.731,1.181-3.216,1.287-4.926-.072A3.826,3.826,0,0,1,200.113,211.472Z" transform="translate(60.958 53.086)" fill="#505050" fill-rule="evenodd"/>
        <path id="Path_114130" data-name="Path 114130" d="M237.969,211.5c2.647-1.177,2.647-1.177,4.973-.1C241.378,212.794,239.913,212.544,237.969,211.5Z" transform="translate(71.137 53.102)" fill="#505050" fill-rule="evenodd"/>
        <path id="Path_114131" data-name="Path 114131" d="M268.85,211.455a4.535,4.535,0,0,1,5.162-.149C272.331,212.784,270.868,212.57,268.85,211.455Z" transform="translate(78.483 53.094)" fill="#505050" fill-rule="evenodd"/>
        <path id="Path_114132" data-name="Path 114132" d="M-11.43,217.541A4.072,4.072,0,0,1-9.015,221.4C-11.335,220.675-11.647,220.172-11.43,217.541Z" transform="translate(11.789 54.752)" fill="#505050" fill-rule="evenodd"/>
        <path id="Path_114133" data-name="Path 114133" d="M64.758,221.9c-1.872-1.138-2.713-2.3-2.59-4.142C64.372,218.585,64.4,218.624,64.758,221.9Z" transform="translate(29.309 54.803)" fill="#505050" fill-rule="evenodd"/>
        <path id="Path_114134" data-name="Path 114134" d="M135.9,217.365c2.441,1.745,2.441,1.745,2.662,4.318C136.562,221.037,136.1,219.616,135.9,217.365Z" transform="translate(46.853 54.711)" fill="#505050" fill-rule="evenodd"/>
        <path id="Path_114135" data-name="Path 114135" d="M212.5,221.98c-1.942-1.235-2.915-2.363-2.524-4.386C212.06,218.9,212.06,218.9,212.5,221.98Z" transform="translate(64.457 54.765)" fill="#505050" fill-rule="evenodd"/>
        <path id="Path_114136" data-name="Path 114136" d="M286.282,220.606a3.764,3.764,0,0,0-2.589-3.106,4.107,4.107,0,0,0,2.589,4.314Z" transform="translate(82.013 54.743)" fill="#505050" fill-rule="evenodd"/>
        <path id="Path_114137" data-name="Path 114137" d="M25.3,227.4c-.254-2.337.661-3.49,2.584-4.663A4.618,4.618,0,0,1,25.3,227.4Z" transform="translate(20.532 55.988)" fill="#505050" fill-rule="evenodd"/>
        <path id="Path_114138" data-name="Path 114138" d="M40.666,222.936c2.086.819,2.72,2.147,2.592,4.222C41.274,226.365,40.64,225.039,40.666,222.936Z" transform="translate(24.197 56.036)" fill="#505050" fill-rule="evenodd"/>
        <path id="Path_114139" data-name="Path 114139" d="M101.433,223.147a3.551,3.551,0,0,1-2.195,4.024C98.751,224.993,99.865,223.937,101.433,223.147Z" transform="translate(38.104 56.086)" fill="#505050" fill-rule="evenodd"/>
        <path id="Path_114140" data-name="Path 114140" d="M114.712,223.168a3.408,3.408,0,0,1,2.363,3.9A3.307,3.307,0,0,1,114.712,223.168Z" transform="translate(41.805 56.091)" fill="#505050" fill-rule="evenodd"/>
        <path id="Path_114141" data-name="Path 114141" d="M175.479,222.744a4.342,4.342,0,0,1-2.425,4.631C172.653,225.069,173.665,223.947,175.479,222.744Z" transform="translate(55.672 55.99)" fill="#505050" fill-rule="evenodd"/>
        <path id="Path_114142" data-name="Path 114142" d="M188.252,222.685c2.088,1.255,2.891,2.444,2.747,4.5C188.98,226.475,188.453,225.1,188.252,222.685Z" transform="translate(59.309 55.976)" fill="#505050" fill-rule="evenodd"/>
        <path id="Path_114143" data-name="Path 114143" d="M246.8,227.242a4.093,4.093,0,0,1,2.177-4.289C249.408,225.246,249.335,225.4,246.8,227.242Z" transform="translate(73.232 56.04)" fill="#505050" fill-rule="evenodd"/>
        <path id="Path_114144" data-name="Path 114144" d="M264.594,227.056c-1.731-.733-2.291-2.08-2.462-3.813C264.407,223.845,264.738,224.361,264.594,227.056Z" transform="translate(76.885 56.109)" fill="#505050" fill-rule="evenodd"/>
        <path id="Path_114145" data-name="Path 114145" d="M27.88,243.139c-2.028-1.123-2.887-2.315-2.53-4.318C27.421,240.142,27.421,240.142,27.88,243.139Z" transform="translate(20.534 59.815)" fill="#505050" fill-rule="evenodd"/>
        <path id="Path_114146" data-name="Path 114146" d="M101.73,242.965c-2.135-.784-2.722-2.134-2.628-4.209C101.076,239.557,101.72,240.875,101.73,242.965Z" transform="translate(38.097 59.8)" fill="#505050" fill-rule="evenodd"/>
        <path id="Path_114147" data-name="Path 114147" d="M175.566,243.139c-2.026-1.123-2.888-2.315-2.53-4.318C175.107,240.142,175.107,240.142,175.566,243.139Z" transform="translate(55.67 59.815)" fill="#505050" fill-rule="evenodd"/>
        <path id="Path_114148" data-name="Path 114148" d="M249.538,243.232c-2.155-1.2-3.021-2.388-2.643-4.491C248.71,239.533,249.3,240.868,249.538,243.232Z" transform="translate(73.24 59.796)" fill="#505050" fill-rule="evenodd"/>
        <path id="Path_114149" data-name="Path 114149" d="M16.381,254.107c1.974-1.256,3.435-1.443,5.137.012C19.843,255.208,18.41,255.1,16.381,254.107Z" transform="translate(18.419 63.211)" fill="#505050" fill-rule="evenodd"/>
        <path id="Path_114150" data-name="Path 114150" d="M52.255,254.256a4.313,4.313,0,0,1-4.575.047C49.575,252.669,50.06,252.661,52.255,254.256Z" transform="translate(25.865 63.205)" fill="#505050" fill-rule="evenodd"/>
        <path id="Path_114151" data-name="Path 114151" d="M90.34,254.2c1.775-1.493,3.228-1.385,4.973-.254C93.671,255.379,92.208,255.045,90.34,254.2Z" transform="translate(36.014 63.21)" fill="#505050" fill-rule="evenodd"/>
        <path id="Path_114152" data-name="Path 114152" d="M126.387,254.05c-2.773,1.084-2.773,1.084-4.938-.047C123.022,252.668,124.482,252.863,126.387,254.05Z" transform="translate(43.416 63.207)" fill="#505050" fill-rule="evenodd"/>
        <path id="Path_114153" data-name="Path 114153" d="M169.4,254.029c-2.886,1.109-2.886,1.109-5.046-.053C165.944,252.659,167.41,252.9,169.4,254.029Z" transform="translate(53.622 63.208)" fill="#505050" fill-rule="evenodd"/>
        <path id="Path_114154" data-name="Path 114154" d="M200.348,254.095a4.961,4.961,0,0,1-5.229.084C196.907,252.666,198.366,252.852,200.348,254.095Z" transform="translate(60.942 63.213)" fill="#505050" fill-rule="evenodd"/>
        <path id="Path_114155" data-name="Path 114155" d="M237.934,254.137c1.927-1.318,3.394-1.446,5.113-.048C241.4,255.22,239.962,255.095,237.934,254.137Z" transform="translate(71.128 63.211)" fill="#505050" fill-rule="evenodd"/>
        <path id="Path_114156" data-name="Path 114156" d="M273.787,254.256a4.315,4.315,0,0,1-4.578.047C271.1,252.669,271.591,252.661,273.787,254.256Z" transform="translate(78.569 63.205)" fill="#505050" fill-rule="evenodd"/>
        <path id="Path_114157" data-name="Path 114157" d="M21.658-1.367a5.015,5.015,0,0,1-5.205.041C18.31-2.754,19.773-2.74,21.658-1.367Z" transform="translate(18.436 2.428)" fill="#505050" fill-rule="evenodd"/>
        <path id="Path_114158" data-name="Path 114158" d="M47.5-1.431c1.729-1.348,3.2-1.273,4.957-.011A3.958,3.958,0,0,1,47.5-1.431Z" transform="translate(25.822 2.423)" fill="#505050" fill-rule="evenodd"/>
        <path id="Path_114159" data-name="Path 114159" d="M95.462-1.348c-1.983,1-3.415,1.015-5.085-.072C92.137-2.727,93.6-2.758,95.462-1.348Z" transform="translate(36.023 2.426)" fill="#505050" fill-rule="evenodd"/>
        <path id="Path_114160" data-name="Path 114160" d="M121.326-1.353c1.731-1.481,3.191-1.291,4.958-.166C124.583-.211,123.123-.344,121.326-1.353Z" transform="translate(43.386 2.424)" fill="#505050" fill-rule="evenodd"/>
        <path id="Path_114161" data-name="Path 114161" d="M169.378-1.433a4.662,4.662,0,0,1-5.162.085C165.944-2.8,167.4-2.669,169.378-1.433Z" transform="translate(53.59 2.427)" fill="#505050" fill-rule="evenodd"/>
        <path id="Path_114162" data-name="Path 114162" d="M200.246-1.525c-2.68,1.16-2.68,1.16-4.97.074C196.836-2.849,198.29-2.591,200.246-1.525Z" transform="translate(60.98 2.424)" fill="#505050" fill-rule="evenodd"/>
        <path id="Path_114163" data-name="Path 114163" d="M237.988-1.4c1.861-1.273,3.326-1.4,4.908-.115C240.81-.359,240.81-.359,237.988-1.4Z" transform="translate(71.141 2.422)" fill="#505050" fill-rule="evenodd"/>
        <path id="Path_114164" data-name="Path 114164" d="M274.311-1.416c-2.211,1-3.653,1.149-5.275-.007C270.753-2.877,272.219-2.576,274.311-1.416Z" transform="translate(78.528 2.426)" fill="#505050" fill-rule="evenodd"/>
        <path id="Path_114165" data-name="Path 114165" d="M21.471,41.1a3.648,3.648,0,0,1-4.921,0A3.822,3.822,0,0,1,21.471,41.1Z" transform="translate(18.459 12.563)" fill="#505050" fill-rule="evenodd"/>
        <path id="Path_114166" data-name="Path 114166" d="M47.337,41.081c1.979-1.18,3.415-.954,5.278-.194C50.778,42.432,49.314,42.265,47.337,41.081Z" transform="translate(25.784 12.575)" fill="#505050" fill-rule="evenodd"/>
        <path id="Path_114167" data-name="Path 114167" d="M90.489,40.977a4.121,4.121,0,0,1,4.564-.162C93.313,42.45,92.8,42.469,90.489,40.977Z" transform="translate(36.05 12.563)" fill="#505050" fill-rule="evenodd"/>
        <path id="Path_114168" data-name="Path 114168" d="M126.281,41.049a3.653,3.653,0,0,1-4.924.1C123.023,39.828,124.5,39.988,126.281,41.049Z" transform="translate(43.394 12.563)" fill="#505050" fill-rule="evenodd"/>
        <path id="Path_114169" data-name="Path 114169" d="M169.243,41.051c-1.832,1.284-3.308,1.331-4.9.089C166.513,39.988,166.513,39.988,169.243,41.051Z" transform="translate(53.62 12.577)" fill="#505050" fill-rule="evenodd"/>
        <path id="Path_114170" data-name="Path 114170" d="M200.2,41.07a3.939,3.939,0,0,1-5.03.118C197.49,39.988,197.49,39.988,200.2,41.07Z" transform="translate(60.956 12.579)" fill="#505050" fill-rule="evenodd"/>
        <path id="Path_114171" data-name="Path 114171" d="M243.4,40.937c-2.919,1.353-2.919,1.353-5.219.2C239.732,39.721,241.208,40.182,243.4,40.937Z" transform="translate(71.187 12.566)" fill="#505050" fill-rule="evenodd"/>
        <path id="Path_114172" data-name="Path 114172" d="M268.844,41.11a4.544,4.544,0,0,1,5.172-.123C272.339,42.44,270.879,42.247,268.844,41.11Z" transform="translate(78.482 12.571)" fill="#505050" fill-rule="evenodd"/>
        <path id="Path_114173" data-name="Path 114173" d="M-11.547,47.035c1.852,1.213,2.645,2.409,2.4,4.491C-11.043,50.527-11.892,49.316-11.547,47.035Z" transform="translate(11.757 14.188)" fill="#505050" fill-rule="evenodd"/>
        <path id="Path_114174" data-name="Path 114174" d="M62.217,47.1a4.269,4.269,0,0,1,2.645,4.021C62.593,50.345,62.51,50.224,62.217,47.1Z" transform="translate(29.324 14.204)" fill="#505050" fill-rule="evenodd"/>
        <path id="Path_114175" data-name="Path 114175" d="M135.937,46.973c2.1,1.2,2.762,2.473,2.756,4.479C136.561,50.679,136.041,49.292,135.937,46.973Z" transform="translate(46.862 14.173)" fill="#505050" fill-rule="evenodd"/>
        <path id="Path_114176" data-name="Path 114176" d="M209.861,47.012a4.49,4.49,0,0,1,2.652,4.423C210.413,50.653,209.812,49.312,209.861,47.012Z" transform="translate(64.449 14.182)" fill="#505050" fill-rule="evenodd"/>
        <path id="Path_114177" data-name="Path 114177" d="M286.106,51.119a3.424,3.424,0,0,1-2.388-3.891C285.763,47.929,286.256,49.33,286.106,51.119Z" transform="translate(82.016 14.234)" fill="#505050" fill-rule="evenodd"/>
        <path id="Path_114178" data-name="Path 114178" d="M27.8,52.572a3.8,3.8,0,0,1-2.477,4.284A3.7,3.7,0,0,1,27.8,52.572Z" transform="translate(20.535 15.505)" fill="#505050" fill-rule="evenodd"/>
        <path id="Path_114179" data-name="Path 114179" d="M40.507,52.539c2.3.889,2.855,2.264,2.878,4.315C41.218,56.107,40.847,54.621,40.507,52.539Z" transform="translate(24.159 15.497)" fill="#505050" fill-rule="evenodd"/>
        <path id="Path_114180" data-name="Path 114180" d="M101.425,52.815a3.554,3.554,0,0,1-2.18,4.032C98.743,54.664,99.862,53.615,101.425,52.815Z" transform="translate(38.104 15.563)" fill="#505050" fill-rule="evenodd"/>
        <path id="Path_114181" data-name="Path 114181" d="M117.092,56.835c-1.965-.811-2.616-2.128-2.58-4.231A3.68,3.68,0,0,1,117.092,56.835Z" transform="translate(41.765 15.513)" fill="#505050" fill-rule="evenodd"/>
        <path id="Path_114182" data-name="Path 114182" d="M175.577,52.282c-.432,3.193-.432,3.193-2.53,4.565C172.6,54.785,173.7,53.718,175.577,52.282Z" transform="translate(55.668 15.436)" fill="#505050" fill-rule="evenodd"/>
        <path id="Path_114183" data-name="Path 114183" d="M190.935,56.834c-1.965-.811-2.618-2.124-2.579-4.229C190.441,53.431,191.08,54.755,190.935,56.834Z" transform="translate(59.333 15.513)" fill="#505050" fill-rule="evenodd"/>
        <path id="Path_114184" data-name="Path 114184" d="M249.525,52.327c-.194,2.441-.792,3.768-2.6,4.607C246.484,54.8,247.459,53.665,249.525,52.327Z" transform="translate(73.242 15.447)" fill="#505050" fill-rule="evenodd"/>
        <path id="Path_114185" data-name="Path 114185" d="M262.167,52.612c2.138.795,2.736,2.14,2.644,4.213C262.8,56.043,262.209,54.7,262.167,52.612Z" transform="translate(76.893 15.515)" fill="#505050" fill-rule="evenodd"/>
        <path id="Path_114186" data-name="Path 114186" d="M25.294,68.412a3.874,3.874,0,0,1,2.539,4.23C25.752,71.829,25.122,70.5,25.294,68.412Z" transform="translate(20.533 19.273)" fill="#505050" fill-rule="evenodd"/>
        <path id="Path_114187" data-name="Path 114187" d="M99.058,68.311c2.329,1.733,2.329,1.733,2.522,4.241C99.571,71.923,99.083,70.519,99.058,68.311Z" transform="translate(38.089 19.249)" fill="#505050" fill-rule="evenodd"/>
        <path id="Path_114188" data-name="Path 114188" d="M175.4,72.281c-2.232-1.229-2.232-1.229-2.383-3.825C174.971,69.154,175.368,70.614,175.4,72.281Z" transform="translate(55.685 19.284)" fill="#505050" fill-rule="evenodd"/>
        <path id="Path_114189" data-name="Path 114189" d="M249.366,72.766c-1.942-1.074-2.7-2.283-2.6-4.1C248.96,69.5,248.96,69.5,249.366,72.766Z" transform="translate(73.228 19.333)" fill="#505050" fill-rule="evenodd"/>
        <path id="Path_114190" data-name="Path 114190" d="M16.426,83.942c1.861-1.646,3.321-1.352,5.142-.394C19.845,85.067,18.378,84.62,16.426,83.942Z" transform="translate(18.43 22.689)" fill="#505050" fill-rule="evenodd"/>
        <path id="Path_114191" data-name="Path 114191" d="M47.761,83.782c1.43-1.327,2.861-1.3,4.57-.2C50.694,85.071,49.232,84.627,47.761,83.782Z" transform="translate(25.885 22.69)" fill="#505050" fill-rule="evenodd"/>
        <path id="Path_114192" data-name="Path 114192" d="M90.277,83.688c1.939-1.14,3.391-1.357,4.952,0C93.026,84.8,93.026,84.8,90.277,83.688Z" transform="translate(36 22.685)" fill="#505050" fill-rule="evenodd"/>
        <path id="Path_114193" data-name="Path 114193" d="M126.393,83.751a4.828,4.828,0,0,1-4.929.279C123.388,82.37,123.388,82.37,126.393,83.751Z" transform="translate(43.419 22.684)" fill="#505050" fill-rule="evenodd"/>
        <path id="Path_114194" data-name="Path 114194" d="M164.09,83.806c1.929-1.323,3.4-1.445,5.117-.051C167.56,84.892,166.118,84.76,164.09,83.806Z" transform="translate(53.56 22.687)" fill="#505050" fill-rule="evenodd"/>
        <path id="Path_114195" data-name="Path 114195" d="M195.114,83.76c1.823-1.33,3.288-1.341,4.884-.109C197.836,84.809,197.836,84.809,195.114,83.76Z" transform="translate(60.941 22.683)" fill="#505050" fill-rule="evenodd"/>
        <path id="Path_114196" data-name="Path 114196" d="M237.945,83.937c1.874-1.63,3.334-1.364,5.148-.383C241.378,85.064,239.911,84.62,237.945,83.937Z" transform="translate(71.131 22.688)" fill="#505050" fill-rule="evenodd"/>
        <path id="Path_114197" data-name="Path 114197" d="M269.02,83.771c1.732-1.411,3.2-1.282,4.948-.085A3.937,3.937,0,0,1,269.02,83.771Z" transform="translate(78.524 22.685)" fill="#505050" fill-rule="evenodd"/>
        <path id="Path_114198" data-name="Path 114198" d="M16.557,126.3a3.832,3.832,0,0,1,4.926-.059C19.771,127.588,18.289,127.494,16.557,126.3Z" transform="translate(18.461 32.825)" fill="#505050" fill-rule="evenodd"/>
        <path id="Path_114199" data-name="Path 114199" d="M52.615,126c-1.869,1.682-3.341,1.338-5.162.451C49.169,124.85,50.649,125.391,52.615,126Z" transform="translate(25.811 32.831)" fill="#505050" fill-rule="evenodd"/>
        <path id="Path_114200" data-name="Path 114200" d="M90.485,126.143a4.151,4.151,0,0,1,4.568-.17C93.316,127.614,92.8,127.635,90.485,126.143Z" transform="translate(36.049 32.825)" fill="#505050" fill-rule="evenodd"/>
        <path id="Path_114201" data-name="Path 114201" d="M121.209,126.187c1.988-1.035,3.431-1.072,5.1.028C124.587,127.56,123.109,127.5,121.209,126.187Z" transform="translate(43.358 32.832)" fill="#505050" fill-rule="evenodd"/>
        <path id="Path_114202" data-name="Path 114202" d="M169.317,126.17c-1.849,1.458-3.321,1.243-5.188.14A4.439,4.439,0,0,1,169.317,126.17Z" transform="translate(53.569 32.832)" fill="#505050" fill-rule="evenodd"/>
        <path id="Path_114203" data-name="Path 114203" d="M195.184,126.238a3.835,3.835,0,0,1,4.931.063C198.38,127.49,196.9,127.588,195.184,126.238Z" transform="translate(60.958 32.825)" fill="#505050" fill-rule="evenodd"/>
        <path id="Path_114204" data-name="Path 114204" d="M15.508,190.111a3.975,3.975,0,0,1-4.979.089C12.265,188.943,13.651,189.034,15.508,190.111Z" transform="translate(17.027 48.029)" fill="#505050" fill-rule="evenodd"/>
        <path id="Path_114205" data-name="Path 114205" d="M53.809,189.87a3.732,3.732,0,0,1,4.229.045C56.141,191.547,55.556,191.539,53.809,189.87Z" transform="translate(27.323 48.018)" fill="#505050" fill-rule="evenodd"/>
        <path id="Path_114206" data-name="Path 114206" d="M89.187,190.147a3.692,3.692,0,0,1-4.456.34C86.061,188.9,86.251,188.873,89.187,190.147Z" transform="translate(34.68 48.019)" fill="#505050" fill-rule="evenodd"/>
        <path id="Path_114207" data-name="Path 114207" d="M132.341,190.127c-1.837,1.244-3.217,1.127-5.033.063A4.051,4.051,0,0,1,132.341,190.127Z" transform="translate(44.809 48.029)" fill="#505050" fill-rule="evenodd"/>
        <path id="Path_114208" data-name="Path 114208" d="M162.724,190.374a3.446,3.446,0,0,1-4.183.071C160.159,188.812,160.853,188.8,162.724,190.374Z" transform="translate(52.24 48.011)" fill="#505050" fill-rule="evenodd"/>
        <path id="Path_114209" data-name="Path 114209" d="M201.161,190.115c1.878-1.084,3.266-1.16,4.934.043C204.406,191.351,203.017,191.327,201.161,190.115Z" transform="translate(62.38 48.029)" fill="#505050" fill-rule="evenodd"/>
        <path id="Path_114210" data-name="Path 114210" d="M237.083,190.048c-1.853,1.281-3.233,1.292-4.95.176C233.677,188.915,235.076,189.064,237.083,190.048Z" transform="translate(69.748 48.028)" fill="#505050" fill-rule="evenodd"/>
        <path id="Path_114211" data-name="Path 114211" d="M275.188,190.046a3.729,3.729,0,0,1,4.46-.119C277.677,191.48,277.677,191.48,275.188,190.046Z" transform="translate(79.991 48.02)" fill="#505050" fill-rule="evenodd"/>
        <path id="Path_114212" data-name="Path 114212" d="M15.608,275.22c-1.971,1.277-3.357,1.284-5.022.116C12.25,274.063,13.637,274.272,15.608,275.22Z" transform="translate(17.04 68.29)" fill="#505050" fill-rule="evenodd"/>
        <path id="Path_114213" data-name="Path 114213" d="M53.809,275.036a3.719,3.719,0,0,1,4.227.048C56.14,276.715,55.556,276.707,53.809,275.036Z" transform="translate(27.323 68.28)" fill="#505050" fill-rule="evenodd"/>
        <path id="Path_114214" data-name="Path 114214" d="M89.358,275.259a3.968,3.968,0,0,1-4.98.121C86.073,274.117,87.464,274.195,89.358,275.259Z" transform="translate(34.596 68.291)" fill="#505050" fill-rule="evenodd"/>
        <path id="Path_114215" data-name="Path 114215" d="M132.343,275.286a3.857,3.857,0,0,1-4.958.026C129.074,274.164,130.454,274.152,132.343,275.286Z" transform="translate(44.828 68.29)" fill="#505050" fill-rule="evenodd"/>
        <path id="Path_114216" data-name="Path 114216" d="M163.216,275.238c-1.84,1.26-3.225,1.269-4.943.12C159.876,274.1,161.276,274.219,163.216,275.238Z" transform="translate(52.176 68.29)" fill="#505050" fill-rule="evenodd"/>
        <path id="Path_114217" data-name="Path 114217" d="M205.883,275.438a3.574,3.574,0,0,1-4.422.1C203.354,274.033,203.474,274.028,205.883,275.438Z" transform="translate(62.451 68.279)" fill="#505050" fill-rule="evenodd"/>
        <path id="Path_114218" data-name="Path 114218" d="M236.8,275.4a3.593,3.593,0,0,1-4.44.173C234.045,274.04,234.166,274.033,236.8,275.4Z" transform="translate(69.801 68.279)" fill="#505050" fill-rule="evenodd"/>
        <path id="Path_114219" data-name="Path 114219" d="M279.7,275.461a3.531,3.531,0,0,1-4.4.058C277.307,274.025,277.384,274.022,279.7,275.461Z" transform="translate(80.016 68.277)" fill="#505050" fill-rule="evenodd"/>
        <path id="Path_114220" data-name="Path 114220" d="M132.039,105.107a3.573,3.573,0,0,1-4.421.1C129.508,103.7,129.636,103.7,132.039,105.107Z" transform="translate(44.883 27.756)" fill="#505050" fill-rule="evenodd"/>
        <path id="Path_114221" data-name="Path 114221" d="M84.443,104.891a4.023,4.023,0,0,1,4.538-.191C87.144,106.3,87.1,106.3,84.443,104.891Z" transform="translate(34.612 27.762)" fill="#505050" fill-rule="evenodd"/>
        <path id="Path_114222" data-name="Path 114222" d="M58.267,105.075c-1.664,1.1-3.039,1.119-4.437.152C55.458,103.721,55.666,103.708,58.267,105.075Z" transform="translate(27.328 27.757)" fill="#505050" fill-rule="evenodd"/>
        <path id="Path_114223" data-name="Path 114223" d="M10.594,104.94c2.335-1,2.335-1,4.439-.228C13.478,106.257,13.341,106.268,10.594,104.94Z" transform="translate(17.042 27.777)" fill="#505050" fill-rule="evenodd"/>
        <path id="Path_114224" data-name="Path 114224" d="M279.7,105.129a3.722,3.722,0,0,1-4.456.1C277.337,103.692,277.411,103.69,279.7,105.129Z" transform="translate(80.004 27.755)" fill="#505050" fill-rule="evenodd"/>
        <path id="Path_114225" data-name="Path 114225" d="M232.1,105.062c2.429-1.227,2.429-1.227,4.734-.006A3.821,3.821,0,0,1,232.1,105.062Z" transform="translate(69.742 27.774)" fill="#505050" fill-rule="evenodd"/>
        <path id="Path_114226" data-name="Path 114226" d="M205.954,105.075c-1.665,1.1-3.039,1.119-4.437.152C203.145,103.721,203.353,103.708,205.954,105.075Z" transform="translate(62.464 27.757)" fill="#505050" fill-rule="evenodd"/>
        <path id="Path_114227" data-name="Path 114227" d="M162.984,105.081c-2.382.969-2.382.969-4.447.135C160.2,103.708,160.313,103.7,162.984,105.081Z" transform="translate(52.239 27.756)" fill="#505050" fill-rule="evenodd"/>
        <path id="Path_114228" data-name="Path 114228" d="M280.226,62.43c-2.175,1.053-3.621,1.2-5.15-.026C276.72,61.066,278.209,61.337,280.226,62.43Z" transform="translate(79.965 17.63)" fill="#505050" fill-rule="evenodd"/>
        <path id="Path_114229" data-name="Path 114229" d="M237,62.382a3.776,3.776,0,0,1-4.869.042A3.731,3.731,0,0,1,237,62.382Z" transform="translate(69.747 17.629)" fill="#505050" fill-rule="evenodd"/>
        <path id="Path_114230" data-name="Path 114230" d="M206.149,62.391c-2.593,1.117-2.593,1.117-4.879.017C202.845,61.137,204.313,61.272,206.149,62.391Z" transform="translate(62.406 17.63)" fill="#505050" fill-rule="evenodd"/>
        <path id="Path_114231" data-name="Path 114231" d="M158.281,62.454c1.661-1.317,3.128-1.181,4.881-.106A3.81,3.81,0,0,1,158.281,62.454Z" transform="translate(52.178 17.63)" fill="#505050" fill-rule="evenodd"/>
        <path id="Path_114232" data-name="Path 114232" d="M132.213,62.355c-1.64,1.308-3.121,1.151-4.869.105A3.725,3.725,0,0,1,132.213,62.355Z" transform="translate(44.818 17.629)" fill="#505050" fill-rule="evenodd"/>
        <path id="Path_114233" data-name="Path 114233" d="M89.664,62.355c-2.163,1.133-3.6,1.255-5.205.089C86.093,61.03,87.569,61.407,89.664,62.355Z" transform="translate(34.615 17.632)" fill="#505050" fill-rule="evenodd"/>
        <path id="Path_114234" data-name="Path 114234" d="M53.434,62.387a3.957,3.957,0,0,1,4.741-.2C56.43,63.6,56.266,63.61,53.434,62.387Z" transform="translate(27.234 17.627)" fill="#505050" fill-rule="evenodd"/>
        <path id="Path_114235" data-name="Path 114235" d="M15.472,62.46c-1.748,1.044-3.227,1.2-4.866-.1A3.722,3.722,0,0,1,15.472,62.46Z" transform="translate(17.045 17.63)" fill="#505050" fill-rule="evenodd"/>
        <path id="Path_114236" data-name="Path 114236" d="M10.539,147.551a3.917,3.917,0,0,1,4.718-.2C13.446,148.765,13.265,148.776,10.539,147.551Z" transform="translate(17.029 37.888)" fill="#505050" fill-rule="evenodd"/>
        <path id="Path_114237" data-name="Path 114237" d="M53.4,147.62c2.631-1.19,2.631-1.19,4.921-.092C56.777,148.843,55.316,148.605,53.4,147.62Z" transform="translate(27.225 37.903)" fill="#505050" fill-rule="evenodd"/>
        <path id="Path_114238" data-name="Path 114238" d="M84.453,147.547a3.7,3.7,0,0,1,4.858.052C87.582,148.7,86.092,148.819,84.453,147.547Z" transform="translate(34.614 37.89)" fill="#505050" fill-rule="evenodd"/>
        <path id="Path_114239" data-name="Path 114239" d="M132.377,147.62c-1.945,1.072-3.387,1.122-5.016-.012C129.03,146.322,130.5,146.41,132.377,147.62Z" transform="translate(44.822 37.893)" fill="#505050" fill-rule="evenodd"/>
        <path id="Path_114240" data-name="Path 114240" d="M163.156,147.524a3.794,3.794,0,0,1-4.872.092C159.954,146.307,161.432,146.426,163.156,147.524Z" transform="translate(52.179 37.891)" fill="#505050" fill-rule="evenodd"/>
        <path id="Path_114241" data-name="Path 114241" d="M201.038,147.574c1.96-1.155,3.4-1.214,5.03-.068C204.447,148.847,202.982,148.627,201.038,147.574Z" transform="translate(62.35 37.893)" fill="#505050" fill-rule="evenodd"/>
        <path id="Path_114242" data-name="Path 114242" d="M10.609,232.714a3.7,3.7,0,0,1,4.858.051C13.74,233.867,12.249,233.985,10.609,232.714Z" transform="translate(17.046 58.152)" fill="#505050" fill-rule="evenodd"/>
        <path id="Path_114243" data-name="Path 114243" d="M58.431,232.757a4.082,4.082,0,0,1-4.765.192C55.541,231.508,55.642,231.5,58.431,232.757Z" transform="translate(27.289 58.154)" fill="#505050" fill-rule="evenodd"/>
        <path id="Path_114244" data-name="Path 114244" d="M89.309,232.74a3.764,3.764,0,0,1-4.86,0A3.7,3.7,0,0,1,89.309,232.74Z" transform="translate(34.613 58.152)" fill="#505050" fill-rule="evenodd"/>
        <path id="Path_114245" data-name="Path 114245" d="M132.34,232.679c-1.817,1.339-3.285,1.086-5.1.135A4.039,4.039,0,0,1,132.34,232.679Z" transform="translate(44.794 58.154)" fill="#505050" fill-rule="evenodd"/>
        <path id="Path_114246" data-name="Path 114246" d="M163.266,232.573c-1.759,1.516-3.242,1.126-5.09.349C159.976,231.344,161.46,231.739,163.266,232.573Z" transform="translate(52.153 58.155)" fill="#505050" fill-rule="evenodd"/>
        <path id="Path_114247" data-name="Path 114247" d="M201.043,232.769c1.92-1.148,3.386-1.323,5.023.015C204.453,233.94,203.015,233.822,201.043,232.769Z" transform="translate(62.352 58.155)" fill="#505050" fill-rule="evenodd"/>
        <path id="Path_114248" data-name="Path 114248" d="M237.194,232.719c-1.946,1.138-3.383,1.182-5.067.094C233.772,231.442,235.237,231.647,237.194,232.719Z" transform="translate(69.747 58.156)" fill="#505050" fill-rule="evenodd"/>
        <path id="Path_114249" data-name="Path 114249" d="M274.932,232.837c1.842-1.4,3.319-1.2,5.083-.18C278.225,234.046,276.749,233.744,274.932,232.837Z" transform="translate(79.93 58.154)" fill="#505050" fill-rule="evenodd"/>
        <path id="Path_114250" data-name="Path 114250" d="M237.177,147.588a4.758,4.758,0,0,1-5.15.123C233.811,146.293,235.28,146.439,237.177,147.588Z" transform="translate(69.723 37.896)" fill="#505050" fill-rule="evenodd"/>
        <path id="Path_114251" data-name="Path 114251" d="M279.907,147.59a3.78,3.78,0,0,1-4.872-.042A3.737,3.737,0,0,1,279.907,147.59Z" transform="translate(79.955 37.891)" fill="#505050" fill-rule="evenodd"/>
        <path id="Path_114252" data-name="Path 114252" d="M275.037,19.837c1.807-1.235,3.185-1.124,4.994-.063A3.935,3.935,0,0,1,275.037,19.837Z" transform="translate(79.955 7.505)" fill="#505050" fill-rule="evenodd"/>
        <path id="Path_114253" data-name="Path 114253" d="M236.8,19.888a3.569,3.569,0,0,1-4.435.187C234.038,18.545,234.154,18.536,236.8,19.888Z" transform="translate(69.802 7.494)" fill="#505050" fill-rule="evenodd"/>
        <path id="Path_114254" data-name="Path 114254" d="M201.161,19.776c1.888-1.075,3.273-1.155,4.929.051C204.407,21.023,203.022,20.995,201.161,19.776Z" transform="translate(62.38 7.505)" fill="#505050" fill-rule="evenodd"/>
        <path id="Path_114255" data-name="Path 114255" d="M158.2,19.864a3.961,3.961,0,0,1,4.958-.09C161.467,20.978,160.086,21.007,158.2,19.864Z" transform="translate(52.16 7.505)" fill="#505050" fill-rule="evenodd"/>
        <path id="Path_114256" data-name="Path 114256" d="M132.1,19.908c-1.661,1.1-3.033,1.114-4.429.154C129.306,18.557,129.515,18.542,132.1,19.908Z" transform="translate(44.896 7.496)" fill="#505050" fill-rule="evenodd"/>
        <path id="Path_114257" data-name="Path 114257" d="M89.065,19.931a3.6,3.6,0,0,1-4.432.126C86.532,18.528,86.575,18.526,89.065,19.931Z" transform="translate(34.657 7.493)" fill="#505050" fill-rule="evenodd"/>
        <path id="Path_114258" data-name="Path 114258" d="M58.2,19.941a3.567,3.567,0,0,1-4.421.1C55.666,18.534,55.787,18.532,58.2,19.941Z" transform="translate(27.316 7.494)" fill="#505050" fill-rule="evenodd"/>
        <path id="Path_114259" data-name="Path 114259" d="M10.51,19.832a4,4,0,0,1,4.959-.045A3.888,3.888,0,0,1,10.51,19.832Z" transform="translate(17.022 7.506)" fill="#505050" fill-rule="evenodd"/>
      </g>
    </g>
  </g>
</svg>
