<svg id="action-icon-printer" xmlns="http://www.w3.org/2000/svg" width="17.282" height="15.94" viewBox="0 0 17.282 15.94">
  <path id="Path_121895" data-name="Path 121895" d="M16.063,13.316H14.127V10.156a.522.522,0,0,0-.523-.523H3.678a.522.522,0,0,0-.523.523v3.161H1.219A1.221,1.221,0,0,0,0,14.535v6.7a1.221,1.221,0,0,0,1.219,1.219H3.155v2.592a.522.522,0,0,0,.523.523H13.6a.522.522,0,0,0,.523-.523V22.459h1.936a1.221,1.221,0,0,0,1.219-1.219v-6.7A1.221,1.221,0,0,0,16.063,13.316ZM4.2,10.678h8.882v2.638H4.2Zm8.882,13.85H4.2V19.344h8.882Zm3.155-3.289a.177.177,0,0,1-.174.174H14.127V18.822A.522.522,0,0,0,13.6,18.3H3.678a.522.522,0,0,0-.523.523v2.592H1.219a.177.177,0,0,1-.174-.174v-6.7a.176.176,0,0,1,.174-.174H16.063a.176.176,0,0,1,.174.174v6.7Z" transform="translate(0 -9.633)" fill="#666d7b"/>
  <ellipse id="Ellipse_8974" data-name="Ellipse 8974" cx="0.743" cy="0.743" rx="0.743" ry="0.743" transform="translate(12.861 5.954)" fill="#666d7b"/>
  <path id="Path_121896" data-name="Path 121896" d="M87.684,163.822H82.93a.523.523,0,1,0,0,1.045h4.755a.523.523,0,0,0,0-1.045Z" transform="translate(-76.666 -153.08)" fill="#666d7b"/>
  <path id="Path_121897" data-name="Path 121897" d="M87.684,193.623H82.93a.523.523,0,1,0,0,1.045h4.755a.523.523,0,1,0,0-1.045Z" transform="translate(-76.666 -180.804)" fill="#666d7b"/>
</svg>
