<svg id="action-icon-bin" xmlns="http://www.w3.org/2000/svg" width="14.995" height="18.544" viewBox="0 0 14.995 18.544">
  <g id="Group_40865" data-name="Group 40865">
    <path id="Path_114997" data-name="Path 114997" d="M59.032,2.222H56.146a2.509,2.509,0,0,0-4.986,0H48.273A2.121,2.121,0,0,0,46.155,4.34v.109a2.121,2.121,0,0,0,1.339,1.968V16.425a2.121,2.121,0,0,0,2.118,2.119h8.081a2.121,2.121,0,0,0,2.118-2.119V6.417A2.121,2.121,0,0,0,61.15,4.449V4.34A2.121,2.121,0,0,0,59.032,2.222ZM53.653,1A1.508,1.508,0,0,1,55.13,2.222H52.175A1.508,1.508,0,0,1,53.653,1Zm5.154,15.42a1.115,1.115,0,0,1-1.114,1.114H49.612A1.115,1.115,0,0,1,48.5,16.425V6.568H58.807ZM60.146,4.449a1.115,1.115,0,0,1-1.114,1.114H48.273A1.115,1.115,0,0,1,47.16,4.449V4.34a1.115,1.115,0,0,1,1.114-1.114H59.032A1.115,1.115,0,0,1,60.146,4.34v.109Z" transform="translate(-46.155)" fill="#ed3348"/>
    <path id="Path_114998" data-name="Path 114998" d="M158.577,256.232a.5.5,0,0,0,.5-.5v-5.656a.5.5,0,1,0-1,0v5.656A.5.5,0,0,0,158.577,256.232Z" transform="translate(-153.773 -239.978)" fill="#ed3348"/>
    <path id="Path_114999" data-name="Path 114999" d="M228.647,256.232a.5.5,0,0,0,.5-.5v-5.656a.5.5,0,1,0-1,0v5.656A.5.5,0,0,0,228.647,256.232Z" transform="translate(-221.15 -239.978)" fill="#ed3348"/>
    <path id="Path_115000" data-name="Path 115000" d="M298.716,256.232a.5.5,0,0,0,.5-.5v-5.656a.5.5,0,1,0-1,0v5.656A.5.5,0,0,0,298.716,256.232Z" transform="translate(-288.525 -239.978)" fill="#ed3348"/>
  </g>
</svg>
