<svg id="action-icon-export" xmlns="http://www.w3.org/2000/svg" width="16.282" height="16.282" viewBox="0 0 16.282 16.282">
  <g id="Share" transform="translate(0)">
    <path id="Path_121893" data-name="Path 121893" d="M103.751,10.856h1.025a8.625,8.625,0,0,1,8.489-7.123c.178,0,.348,0,.518,0L111.919,5.6a.509.509,0,1,0,.719.719l3.006-3.085L112.639.149a.509.509,0,0,0-.719.719l1.847,1.847-.481,0A9.662,9.662,0,0,0,103.751,10.856Z" transform="translate(-99.363)" fill="#195190"/>
    <path id="Path_121894" data-name="Path 121894" d="M14.756,99.808a.509.509,0,0,0-.509.509v7.123H1.019V97.264H5.6a.509.509,0,0,0,0-1.018H1.019A1.018,1.018,0,0,0,0,97.264V107.44a1.018,1.018,0,0,0,1.018,1.018H14.248a1.018,1.018,0,0,0,1.018-1.018v-7.123A.509.509,0,0,0,14.756,99.808Z" transform="translate(-0.001 -92.175)" fill="#195190"/>
  </g>
</svg>
