<svg xmlns="http://www.w3.org/2000/svg" width="21.75" height="18.154" viewBox="0 0 21.75 18.154">
  <g id="alert" transform="translate(0 -42.104)">
    <g id="Group_43490" data-name="Group 43490" transform="translate(0 42.104)">
      <g id="Group_43489" data-name="Group 43489" transform="translate(0 0)">
        <path id="Path_121903" data-name="Path 121903" d="M21.222,56.61,15.1,46.841l-1.968-3.28A2.608,2.608,0,0,0,10.875,42.1a2.851,2.851,0,0,0-2.257,1.457L.528,56.61a2.4,2.4,0,0,0-.289,2.552,2.577,2.577,0,0,0,2.407,1.1H19.265c1.168,0,1.968-.367,2.257-1.1A2.451,2.451,0,0,0,21.222,56.61Zm-.878,1.824c-.072.217-.512.367-1.1.367H2.63a1.388,1.388,0,0,1-1.1-.367c-.15-.222-.072-.584.217-1.023l8.09-13.049a1.365,1.365,0,0,1,1.023-.728,1.411,1.411,0,0,1,1.1.8l1.457,2.335,6.705,10.642C20.344,57.85,20.489,58.217,20.344,58.434Z" transform="translate(0 -42.104)" fill="#ed3348"/>
      </g>
    </g>
    <g id="Group_43492" data-name="Group 43492" transform="translate(10.214 56.393)">
      <g id="Group_43491" data-name="Group 43491" transform="translate(0 0)">
        <path id="Path_121904" data-name="Path 121904" d="M240.382,376.885a.712.712,0,0,0-1.023,0,.712.712,0,0,0,0,1.023.728.728,0,0,0,1.24-.512A.668.668,0,0,0,240.382,376.885Z" transform="translate(-239.142 -376.669)" fill="#ed3348"/>
      </g>
    </g>
    <g id="Group_43494" data-name="Group 43494" transform="translate(10.214 46.257)">
      <g id="Group_43493" data-name="Group 43493" transform="translate(0 0)">
        <path id="Path_121905" data-name="Path 121905" d="M239.869,139.349a.783.783,0,0,0-.728.728v8.385a.686.686,0,0,0,.728.728.727.727,0,0,0,.728-.728v-8.385A.73.73,0,0,0,239.869,139.349Z" transform="translate(-239.141 -139.349)" fill="#ed3348"/>
      </g>
    </g>
  </g>
</svg>
