<svg id="arrow-return" xmlns="http://www.w3.org/2000/svg" width="30" height="30" viewBox="0 0 30 30">
  <path id="Path_121840" data-name="Path 121840" d="M33.755,13.256a.943.943,0,0,1,1.329.038.933.933,0,0,1-.038,1.323L27.309,21.89l7.736,7.274a.938.938,0,0,1-1.291,1.361l-8.46-7.954a.933.933,0,0,1,0-1.361Z" transform="translate(-17.043 -6.89)" fill="#666d7b"/>
  <path id="Path_121841" data-name="Path 121841" d="M15,0A15,15,0,0,1,25.606,25.606,15,15,0,1,1,4.394,4.394,14.9,14.9,0,0,1,15,0ZM5.72,24.28A13.124,13.124,0,1,0,24.28,5.72,13.124,13.124,0,1,0,5.72,24.28Z" transform="translate(0 0)" fill="#666d7b"/>
</svg>
