<svg xmlns="http://www.w3.org/2000/svg" width="41.752" height="34.133" viewBox="0 0 41.752 34.133">
  <g id="back" transform="translate(-11 -17.821)">
    <g id="sign-in" transform="translate(11 17.82)">
      <g id="Group_40596" data-name="Group 40596" transform="translate(0 0)">
        <path id="Path_114263" data-name="Path 114263" d="M41.694,37.224l-32.59.17L20.978,49.484a2.443,2.443,0,0,1,0,3.373,2.361,2.361,0,0,1-1.633.732,2.27,2.27,0,0,1-1.632-.649L2.926,38.169a2.294,2.294,0,0,1,0-3.253l.7-.7a2.283,2.283,0,0,1,.592-.59L17.713,20.132a2.307,2.307,0,0,1,3.263,0,2.052,2.052,0,0,1,0,3.044l-9.823,9.6,30.54-.17a2.308,2.308,0,1,1,0,4.616Z" transform="translate(-2.25 -19.456)" fill="#fff"/>
      </g>
    </g>
  </g>
</svg>
