<svg id="bin-lg" xmlns="http://www.w3.org/2000/svg" width="33.374" height="41.271" viewBox="0 0 33.374 41.271">
  <g id="Group_40865" data-name="Group 40865">
    <path id="Path_114997" data-name="Path 114997" d="M74.814,4.945H68.39a5.585,5.585,0,0,0-11.1,0H50.87A4.72,4.72,0,0,0,46.155,9.66V9.9a4.72,4.72,0,0,0,2.98,4.38V36.556a4.72,4.72,0,0,0,4.715,4.715H71.835a4.72,4.72,0,0,0,4.715-4.715V14.282a4.72,4.72,0,0,0,2.98-4.38V9.66A4.72,4.72,0,0,0,74.814,4.945ZM62.842,2.236a3.356,3.356,0,0,1,3.289,2.708H59.554A3.356,3.356,0,0,1,62.842,2.236Zm11.471,34.32a2.482,2.482,0,0,1-2.479,2.479H53.849a2.482,2.482,0,0,1-2.479-2.479V14.617H74.313ZM77.293,9.9a2.482,2.482,0,0,1-2.479,2.479H50.87A2.482,2.482,0,0,1,48.391,9.9V9.66A2.482,2.482,0,0,1,50.87,7.181H74.814A2.482,2.482,0,0,1,77.293,9.66V9.9Z" transform="translate(-46.155)" fill="#ed3333"/>
    <path id="Path_114998" data-name="Path 114998" d="M159.193,264.4a1.118,1.118,0,0,0,1.118-1.118V250.689a1.118,1.118,0,1,0-2.236,0v12.589A1.118,1.118,0,0,0,159.193,264.4Z" transform="translate(-148.5 -228.221)" fill="#ed3333"/>
    <path id="Path_114999" data-name="Path 114999" d="M229.263,264.4a1.118,1.118,0,0,0,1.118-1.118V250.689a1.118,1.118,0,1,0-2.236,0v12.589A1.118,1.118,0,0,0,229.263,264.4Z" transform="translate(-212.576 -228.221)" fill="#ed3333"/>
    <path id="Path_115000" data-name="Path 115000" d="M299.332,264.4a1.118,1.118,0,0,0,1.118-1.118V250.689a1.118,1.118,0,1,0-2.236,0v12.589A1.118,1.118,0,0,0,299.332,264.4Z" transform="translate(-276.651 -228.221)" fill="#ed3333"/>
  </g>
</svg>
