<svg id="bin-gray" xmlns="http://www.w3.org/2000/svg" width="12.938" height="16" viewBox="0 0 12.938 16">
  <g id="Group_40865" data-name="Group 40865">
    <path id="Path_114997" data-name="Path 114997" d="M57.266,1.917H54.775a2.165,2.165,0,0,0-4.3,0H47.983a1.83,1.83,0,0,0-1.828,1.828v.094a1.83,1.83,0,0,0,1.155,1.7v8.635A1.83,1.83,0,0,0,49.138,16h6.973a1.83,1.83,0,0,0,1.828-1.828V5.537a1.83,1.83,0,0,0,1.155-1.7V3.745A1.83,1.83,0,0,0,57.266,1.917ZM52.624.867A1.3,1.3,0,0,1,53.9,1.917h-2.55A1.3,1.3,0,0,1,52.624.867Zm4.447,13.305a.962.962,0,0,1-.961.961H49.138a.962.962,0,0,1-.961-.961V5.667h8.894ZM58.227,3.839a.962.962,0,0,1-.961.961H47.983a.962.962,0,0,1-.961-.961V3.745a.962.962,0,0,1,.961-.961h9.283a.962.962,0,0,1,.961.961v.094Z" transform="translate(-46.155)" fill="#666d7b"/>
    <path id="Path_114998" data-name="Path 114998" d="M158.508,255.318a.433.433,0,0,0,.433-.433V250a.433.433,0,1,0-.867,0v4.88A.433.433,0,0,0,158.508,255.318Z" transform="translate(-154.363 -241.294)" fill="#666d7b"/>
    <path id="Path_114999" data-name="Path 114999" d="M228.578,255.318a.434.434,0,0,0,.433-.433V250a.433.433,0,1,0-.867,0v4.88A.433.433,0,0,0,228.578,255.318Z" transform="translate(-222.109 -241.294)" fill="#666d7b"/>
    <path id="Path_115000" data-name="Path 115000" d="M298.647,255.318a.433.433,0,0,0,.433-.433V250a.433.433,0,1,0-.867,0v4.88A.433.433,0,0,0,298.647,255.318Z" transform="translate(-289.854 -241.294)" fill="#666d7b"/>
  </g>
</svg>
