<svg id="cloud-computing" xmlns="http://www.w3.org/2000/svg" width="40.146" height="31.698" viewBox="0 0 40.146 31.698">
  <g id="Group_41618" data-name="Group 41618">
    <g id="Group_41617" data-name="Group 41617" transform="translate(0 0)">
      <path id="Path_115044" data-name="Path 115044" d="M31.832,64.948A11.225,11.225,0,0,0,9.622,62.8H9.514a9.514,9.514,0,1,0,0,19.028h6.645a.856.856,0,0,0,0-1.712H9.514a7.8,7.8,0,1,1,0-15.6c.229,0,.471.012.741.038a.857.857,0,0,0,.929-.737,9.512,9.512,0,0,1,18.937,1.3c0,.189-.014.384-.029.59l-.006.088a.856.856,0,0,0,.94.912,6.83,6.83,0,0,1,.683-.035,6.726,6.726,0,1,1,0,13.452H24.721a.856.856,0,1,0,0,1.712h6.987a8.438,8.438,0,0,0,.124-16.875Z" transform="translate(0 -53.873)" fill="#e6eaff"/>
    </g>
  </g>
  <g id="Group_41620" data-name="Group 41620" transform="translate(13.466 4.024)">
    <g id="Group_41619" data-name="Group 41619">
      <path id="Path_115045" data-name="Path 115045" d="M178.876,105.192a7.222,7.222,0,0,0-7.129,6.223.856.856,0,0,0,.733.964.869.869,0,0,0,.117.008.856.856,0,0,0,.847-.741,5.5,5.5,0,0,1,5.432-4.742.856.856,0,0,0,0-1.712Z" transform="translate(-171.74 -105.192)" fill="#e6eaff"/>
    </g>
  </g>
  <g id="Group_41622" data-name="Group 41622" transform="translate(16.098 17.729)">
    <g id="Group_41621" data-name="Group 41621">
      <path id="Path_115046" data-name="Path 115046" d="M213.7,283.124l-3.114-2.782a1.413,1.413,0,0,0-1.884,0l-3.114,2.782a.856.856,0,1,0,1.141,1.277l2.059-1.84v10.533a.856.856,0,1,0,1.712,0V282.561l2.059,1.84a.856.856,0,1,0,1.141-1.277Z" transform="translate(-205.302 -279.982)" fill="#e6eaff"/>
    </g>
  </g>
</svg>
