<svg id="computer-screen" xmlns="http://www.w3.org/2000/svg" width="23.504" height="23.504" viewBox="0 0 23.504 23.504">
  <g id="_029---Computer-Star" data-name="029---Computer-Star">
    <path id="Rectangle-path" d="M32,44h2.742v4.7H32Z" transform="translate(-19.465 -26.764)" fill="#b8c6dc"/>
    <path id="Shape" d="M49,1h2.35a1.567,1.567,0,0,1,1.567,1.567v14.1a1.567,1.567,0,0,1-1.567,1.567H49Z" transform="translate(-29.805 -0.608)" fill="#b8c6dc"/>
    <path id="Shape-2" data-name="Shape" d="M46,1h2.35a1.567,1.567,0,0,1,1.567,1.567v14.1a1.567,1.567,0,0,1-1.567,1.567H46Z" transform="translate(-27.98 -0.608)" fill="#e8edfc"/>
    <rect id="Rectangle-path-2" data-name="Rectangle-path" width="15" height="17" rx="4" transform="translate(6 0.504)" fill="#b8c6dc"/>
    <path id="Rectangle-path-3" data-name="Rectangle-path" d="M1.483,0h15.2a1.527,1.527,0,0,1,1.483,1.567v14.1a1.527,1.527,0,0,1-1.483,1.567H1.483A1.527,1.527,0,0,1,0,15.669V1.567A1.527,1.527,0,0,1,1.483,0Z" transform="translate(1.425 0.392)" fill="#e8edfc"/>
    <path id="Shape-3" data-name="Shape" d="M37,55h2.35a.783.783,0,0,1,.783.783v.783h-2.35" transform="translate(-22.506 -33.455)" fill="#b8c6dc"/>
    <path id="Shape-4" data-name="Shape" d="M21.37,39v.783A1.566,1.566,0,0,1,19.8,41.35H2.567A1.566,1.566,0,0,1,1,39.783V39Z" transform="translate(-0.608 -23.722)" fill="#cad9fc"/>
    <path id="Shape-5" data-name="Shape" d="M20.195,39v.783a1.566,1.566,0,0,1-1.567,1.567H2.567A1.566,1.566,0,0,1,1,39.783V39Z" transform="translate(-0.608 -23.722)" fill="#e8edfc"/>
    <path id="Rectangle-path-4" data-name="Rectangle-path" d="M21,45h1.175v3.917H21Z" transform="translate(-12.774 -27.372)" fill="#fff"/>
    <path id="Shape-6" data-name="Shape" d="M16.175,55.783A.783.783,0,0,1,16.959,55H15.783a.783.783,0,0,0-.783.783v.783h1.175Z" transform="translate(-9.124 -33.455)" fill="#fff"/>
    <path id="Shape-7" data-name="Shape" d="M2.567,18.236H3.742a1.566,1.566,0,0,1-1.567-1.567V2.567A1.566,1.566,0,0,1,3.742,1H2.567A1.566,1.566,0,0,0,1,2.567v14.1a1.566,1.566,0,0,0,1.567,1.567Z" transform="translate(-0.608 -0.608)" fill="#fff"/>
    <path id="Shape-8" data-name="Shape" d="M.783,5V19.1H0V5Z" transform="translate(0 -3.041)" fill="#fff"/>
    <g id="Group_42343" data-name="Group 42343">
      <path id="Shape-9" data-name="Shape" d="M.392,6.959a.393.393,0,0,0,.392-.392V5H0V6.567A.393.393,0,0,0,.392,6.959Z" transform="translate(0 -3.041)" fill="#666d7b"/>
      <path id="Shape-10" data-name="Shape" d="M0,25.793H.783v-9.4a.392.392,0,0,0-.783,0Z" transform="translate(0 -9.732)" fill="#666d7b"/>
      <path id="Shape-11" data-name="Shape" d="M.788,12.392a.412.412,0,0,0-.114-.278l-.059-.047a.3.3,0,0,0-.071-.035.249.249,0,0,0-.071-.024A.573.573,0,0,0,.4,12a.411.411,0,0,0-.278.114.4.4,0,0,0,0,.556.406.406,0,0,0,.129.082.392.392,0,0,0,.149.031.413.413,0,0,0,.278-.114A.413.413,0,0,0,.788,12.392Z" transform="translate(-0.004 -7.299)" fill="#666d7b"/>
      <path id="Shape-12" data-name="Shape" d="M19.195,18.02H1.959A1.961,1.961,0,0,1,0,16.061a.392.392,0,1,1,.783,0,1.176,1.176,0,0,0,1.175,1.175H19.195a1.176,1.176,0,0,0,1.175-1.175V1.959A1.176,1.176,0,0,0,19.195.783H1.959A1.176,1.176,0,0,0,.783,1.959a.392.392,0,1,1-.783,0A1.961,1.961,0,0,1,1.959,0H19.195a1.961,1.961,0,0,1,1.959,1.959v14.1A1.961,1.961,0,0,1,19.195,18.02Z" fill="#666d7b"/>
      <path id="Shape-13" data-name="Shape" d="M50.742,18.02h-2.35a.392.392,0,1,1,0-.783h2.35a1.176,1.176,0,0,0,1.175-1.175V1.959A1.176,1.176,0,0,0,50.742.783h-2.35a.392.392,0,1,1,0-.783h2.35A1.961,1.961,0,0,1,52.7,1.959v14.1A1.961,1.961,0,0,1,50.742,18.02Z" transform="translate(-29.197 0)" fill="#666d7b"/>
      <path id="Shape-14" data-name="Shape" d="M25.093,48.7h-4.7A.392.392,0,0,1,20,48.309V44.392A.392.392,0,0,1,20.392,44h4.7a.392.392,0,0,1,.392.392v3.917A.392.392,0,0,1,25.093,48.7Zm-4.309-.783H24.7V44.783H20.783Z" transform="translate(-12.165 -26.764)" fill="#666d7b"/>
      <path id="Shape-15" data-name="Shape" d="M23.793,56.35h-9.4A.392.392,0,0,1,14,55.959v-.783A1.176,1.176,0,0,1,15.175,54H23.01a1.176,1.176,0,0,1,1.175,1.175v.783A.392.392,0,0,1,23.793,56.35Zm-9.01-.783H23.4v-.392a.392.392,0,0,0-.392-.392H15.175a.392.392,0,0,0-.392.392Z" transform="translate(-8.516 -32.846)" fill="#666d7b"/>
      <path id="Shape-16" data-name="Shape" d="M39.526,56.35h-2.35a.392.392,0,1,1,0-.783h1.959v-.392a.392.392,0,0,0-.392-.392h-2.35a.392.392,0,0,1,0-.783h2.35a1.176,1.176,0,0,1,1.175,1.175v.783A.392.392,0,0,1,39.526,56.35Z" transform="translate(-21.898 -32.846)" fill="#666d7b"/>
      <path id="Shape-17" data-name="Shape" d="M34.742,48.7h-2.35A.392.392,0,0,1,32,48.309V44.392A.392.392,0,0,1,32.392,44h2.35a.392.392,0,0,1,.392.392v3.917A.392.392,0,0,1,34.742,48.7Zm-1.959-.783H34.35V44.783H32.783Z" transform="translate(-19.465 -26.764)" fill="#666d7b"/>
      <path id="Shape-18" data-name="Shape" d="M20.762,38.783H.392a.392.392,0,1,1,0-.783h20.37a.392.392,0,1,1,0,.783Z" transform="translate(0 -23.114)" fill="#666d7b"/>
    </g>
  </g>
</svg>
