<svg xmlns="http://www.w3.org/2000/svg" width="70" height="70" viewBox="0 0 70 70">
  <g id="configuration-empty-icon" transform="translate(10482 2115)">
    <g id="checklist" transform="translate(-10482 -2115)">
      <g id="Group_42257" data-name="Group 42257" transform="translate(0 2.052)">
        <path id="Path_115159" data-name="Path 115159" d="M76.243,79.461v53.607c0,1.735-1.05,3.15-2.333,3.15H10.866c-1.283,0-2.333-1.419-2.333-3.15V79.461Z" transform="translate(-7.366 -70.513)" fill="#d4e1f4"/>
        <path id="Path_115160" data-name="Path 115160" d="M72.741,79.461v53.607c0,1.735-1.05,3.15-2.333,3.15H10.866c-1.283,0-2.333-1.419-2.333-3.15V79.461Z" transform="translate(-7.366 -70.513)" fill="#f4f4f4"/>
        <path id="Path_115161" data-name="Path 115161" d="M68.877,16.126V22.46H0V16.126a2.261,2.261,0,0,1,2.375-2.111H66.5A2.261,2.261,0,0,1,68.877,16.126Z" transform="translate(0 -14.012)" fill="#b8c6dc"/>
        <path id="Path_115162" data-name="Path 115162" d="M65.315,16.126V22.46H0V16.126a2.261,2.261,0,0,1,2.375-2.111H62.939A2.262,2.262,0,0,1,65.315,16.126Z" transform="translate(0 -14.013)" fill="#e8edfc"/>
        <g id="Group_42254" data-name="Group 42254" transform="translate(6.884 14.689)">
          <path id="Path_115163" data-name="Path 115163" d="M97.65,123.751v6.883a2.3,2.3,0,0,1-2.3,2.287H83.883V121.453H95.351A2.31,2.31,0,0,1,97.65,123.751Z" transform="translate(-79.298 -121.453)" fill="#b8c6dc"/>
          <path id="Path_115164" data-name="Path 115164" d="M56.081,121.455v11.468H52.639a2.3,2.3,0,0,1-2.291-2.294v-6.883a2.3,2.3,0,0,1,2.294-2.294Z" transform="translate(-50.348 -121.453)" fill="#b8c6dc"/>
          <path id="Path_115165" data-name="Path 115165" d="M97.65,249.607v6.883a2.31,2.31,0,0,1-2.3,2.3H83.883V247.32H95.351A2.3,2.3,0,0,1,97.65,249.607Z" transform="translate(-79.298 -230.112)" fill="#b8c6dc"/>
          <path id="Path_115166" data-name="Path 115166" d="M56.081,247.32v11.469H52.639a2.3,2.3,0,0,1-2.291-2.3v-6.883a2.3,2.3,0,0,1,2.291-2.289Z" transform="translate(-50.348 -230.112)" fill="#b8c6dc"/>
          <path id="Path_115167" data-name="Path 115167" d="M97.65,375.4v6.883a2.3,2.3,0,0,1-2.3,2.287H83.883V373.1H95.351A2.31,2.31,0,0,1,97.65,375.4Z" transform="translate(-79.298 -338.696)" fill="#b8c6dc"/>
        </g>
        <g id="Group_42255" data-name="Group 42255" transform="translate(11.468 14.689)">
          <path id="Path_115168" data-name="Path 115168" d="M94.15,123.751v6.883a2.3,2.3,0,0,1-2.3,2.287H83.883V121.453h7.968A2.31,2.31,0,0,1,94.15,123.751Z" transform="translate(-83.883 -121.453)" fill="#e3e7f2"/>
          <path id="Path_115169" data-name="Path 115169" d="M94.15,249.607v6.883a2.31,2.31,0,0,1-2.3,2.3H83.883V247.32h7.968A2.3,2.3,0,0,1,94.15,249.607Z" transform="translate(-83.883 -230.112)" fill="#e3e7f2"/>
          <path id="Path_115170" data-name="Path 115170" d="M94.15,375.4v6.883a2.3,2.3,0,0,1-2.3,2.287H83.883V373.1h7.968A2.31,2.31,0,0,1,94.15,375.4Z" transform="translate(-83.883 -338.696)" fill="#e3e7f2"/>
        </g>
        <path id="Path_115171" data-name="Path 115171" d="M56.081,373.111v11.469H52.639a2.3,2.3,0,0,1-2.291-2.294V375.4a2.3,2.3,0,0,1,2.294-2.295Z" transform="translate(-43.464 -324.014)" fill="#b8c6dc"/>
        <g id="Group_42256" data-name="Group 42256" transform="translate(0 0)">
          <path id="Path_115172" data-name="Path 115172" d="M8.534,79.461v53.607c0,1.735,1.05,3.15,2.333,3.15h3.5c-1.283,0-2.333-1.419-2.333-3.15V79.461Z" transform="translate(-7.367 -70.513)" fill="#fff"/>
          <path id="Path_115173" data-name="Path 115173" d="M3.5,16.126a2.261,2.261,0,0,1,2.375-2.111h-3.5A2.261,2.261,0,0,0,0,16.126V22.46H3.5Z" transform="translate(0 -14.013)" fill="#fff"/>
        </g>
      </g>
      <g id="Group_42259" data-name="Group 42259">
        <path id="Path_115174" data-name="Path 115174" d="M0,88.6v-63H2.333v63Z" transform="translate(0 -22.1)" fill="#fff"/>
        <g id="Group_42258" data-name="Group 42258">
          <path id="Path_115175" data-name="Path 115175" d="M.723,411.84a.741.741,0,0,0,.21.07,1.76,1.76,0,0,0,.233.023A1.228,1.228,0,0,0,2,411.595a1.205,1.205,0,0,0,.245-.385A1.191,1.191,0,0,0,2,409.938a1.2,1.2,0,0,0-.385-.245,1.169,1.169,0,0,0-.443-.093,1.228,1.228,0,0,0-.828.338,1.183,1.183,0,0,0,0,1.657l.175.14A.885.885,0,0,0,.723,411.84Z" transform="translate(0 -353.6)" fill="#666d7b"/>
          <path id="Path_115176" data-name="Path 115176" d="M66.5,0H3.5A3.5,3.5,0,0,0,0,3.5v49a1.167,1.167,0,1,0,2.333,0V11.667H67.667V66.5A1.167,1.167,0,0,1,66.5,67.667H3.5A1.167,1.167,0,0,1,2.333,66.5V61.833a1.167,1.167,0,0,0-2.333,0V66.5A3.5,3.5,0,0,0,3.5,70h63A3.5,3.5,0,0,0,70,66.5V3.5A3.5,3.5,0,0,0,66.5,0ZM2.333,9.333V3.5A1.167,1.167,0,0,1,3.5,2.333h63A1.167,1.167,0,0,1,67.667,3.5V9.333Z" fill="#666d7b"/>
          <path id="Path_115177" data-name="Path 115177" d="M45,34.134H43.834a1.167,1.167,0,1,0,0,2.333H45a1.167,1.167,0,0,0,0-2.333Z" transform="translate(-36.834 -29.467)" fill="#666d7b"/>
          <path id="Path_115178" data-name="Path 115178" d="M87.667,34.134H86.5a1.167,1.167,0,0,0,0,2.333h1.167a1.167,1.167,0,1,0,0-2.333Z" transform="translate(-73.667 -29.467)" fill="#666d7b"/>
          <path id="Path_115179" data-name="Path 115179" d="M130.334,34.134h-1.167a1.167,1.167,0,1,0,0,2.333h1.167a1.167,1.167,0,0,0,0-2.333Z" transform="translate(-110.501 -29.467)" fill="#666d7b"/>
          <path id="Path_115180" data-name="Path 115180" d="M446.068,34.134H444.9a1.167,1.167,0,1,0,0,2.333h1.167a1.167,1.167,0,1,0,0-2.333Z" transform="translate(-383.068 -29.467)" fill="#666d7b"/>
          <path id="Path_115181" data-name="Path 115181" d="M46.167,124.934h14a3.5,3.5,0,0,0,3.5-3.5v-7a3.5,3.5,0,0,0-3.5-3.5h-14a3.5,3.5,0,0,0-3.5,3.5v7A3.5,3.5,0,0,0,46.167,124.934Zm15.167-10.5v7a1.167,1.167,0,0,1-1.167,1.167H50.834v-9.333h9.333A1.167,1.167,0,0,1,61.334,114.434Zm-16.333,0a1.167,1.167,0,0,1,1.167-1.167H48.5V122.6H46.167A1.167,1.167,0,0,1,45,121.434Z" transform="translate(-36.834 -95.758)" fill="#666d7b"/>
          <path id="Path_115183" data-name="Path 115183" d="M42.667,249.434a3.5,3.5,0,0,0,3.5,3.5h14a3.5,3.5,0,0,0,3.5-3.5v-7a3.5,3.5,0,0,0-3.5-3.5h-14a3.5,3.5,0,0,0-3.5,3.5Zm18.667-7v7a1.167,1.167,0,0,1-1.167,1.167H50.834v-9.333h9.333A1.167,1.167,0,0,1,61.334,242.434Zm-16.333,0a1.167,1.167,0,0,1,1.167-1.167H48.5V250.6H46.167A1.167,1.167,0,0,1,45,249.434Z" transform="translate(-36.834 -206.258)" fill="#666d7b"/>
          <path id="Path_115185" data-name="Path 115185" d="M42.667,377.434a3.5,3.5,0,0,0,3.5,3.5h14a3.5,3.5,0,0,0,3.5-3.5v-7a3.5,3.5,0,0,0-3.5-3.5h-14a3.5,3.5,0,0,0-3.5,3.5Zm18.667-7v7a1.167,1.167,0,0,1-1.167,1.167H50.834v-9.333h9.333A1.167,1.167,0,0,1,61.334,370.434Zm-16.333,0a1.167,1.167,0,0,1,1.167-1.167H48.5V378.6H46.167A1.167,1.167,0,0,1,45,377.434Z" transform="translate(-36.834 -316.758)" fill="#666d7b"/>
          <path id="Path_115187" data-name="Path 115187" d="M223.034,155.934H238.2a1.167,1.167,0,0,0,0-2.333H223.034a1.167,1.167,0,0,0,0,2.333Z" transform="translate(-191.534 -132.546)" fill="#666d7b"/>
          <path id="Path_115190" data-name="Path 115190" d="M284.135,155.934h6.813a1.167,1.167,0,0,0,0-2.333h-6.813a1.167,1.167,0,0,0,0,2.333Z" transform="translate(-227.875 -132.546)" fill="#666d7b"/>
          <path id="Path_115191" data-name="Path 115191" d="M284.135,155.934h6.813a1.167,1.167,0,0,0,0-2.333h-6.813a1.167,1.167,0,0,0,0,2.333Z" transform="translate(-227.875 -115.046)" fill="#666d7b"/>
          <path id="Path_115192" data-name="Path 115192" d="M284.135,155.934h6.813a1.167,1.167,0,0,0,0-2.333h-6.813a1.167,1.167,0,0,0,0,2.333Z" transform="translate(-227.875 -97.546)" fill="#666d7b"/>
          <path id="Path_115188" data-name="Path 115188" d="M223.034,283.934H238.2a1.167,1.167,0,0,0,0-2.333H223.034a1.167,1.167,0,0,0,0,2.333Z" transform="translate(-191.534 -243.046)" fill="#666d7b"/>
          <path id="Path_115189" data-name="Path 115189" d="M223.034,411.934H238.2a1.167,1.167,0,0,0,0-2.333H223.034a1.167,1.167,0,1,0,0,2.333Z" transform="translate(-191.534 -353.546)" fill="#666d7b"/>
        </g>
      </g>
    </g>
  </g>
</svg>
