<svg xmlns="http://www.w3.org/2000/svg" width="48.961" height="48.961" viewBox="0 0 48.961 48.961">
  <g id="consulting" transform="translate(0 0)">
    <path id="Path_113673" data-name="Path 113673" d="M44.581,252.959l-1.976-.686a4.773,4.773,0,0,0,1.818-3.748v-1.449a4.78,4.78,0,0,0-9.561,0v1.449a4.773,4.773,0,0,0,1.818,3.748l-1.977.686a6.51,6.51,0,0,0-3.1,2.278H26.267v-2.107a6.523,6.523,0,0,0-4.381-6.158l-1.977-.686a4.773,4.773,0,0,0,1.818-3.748v-1.449a4.78,4.78,0,1,0-9.561,0v1.449a4.774,4.774,0,0,0,1.818,3.748l-1.976.686a6.523,6.523,0,0,0-4.381,6.158v2.107H.724a.724.724,0,0,0-.724.724v5.987a.724.724,0,0,0,.724.724h30.13a.656.656,0,0,1,.193,0H48.237a.724.724,0,0,0,.724-.724v-2.831A6.523,6.523,0,0,0,44.581,252.959Zm-8.27-5.883a3.332,3.332,0,0,1,6.663,0v1.449a3.332,3.332,0,0,1-6.663,0Zm-22.694-5.987a3.332,3.332,0,1,1,6.663,0v1.449a3.332,3.332,0,0,1-6.663,0Zm4.851,6.229.7.244-2.223,3.858-2.223-3.858.7-.244Zm-9.39,5.812a5.074,5.074,0,0,1,3.407-4.79l.847-.294,2.989,5.186a.724.724,0,0,0,1.255,0l2.989-5.186.847.294a5.074,5.074,0,0,1,3.407,4.79v2.107H9.078Zm-7.629,3.556H30.8a6.5,6.5,0,0,0-.472,2.431v2.107H1.449Zm46.064,4.539H31.772v-2.107a5.074,5.074,0,0,1,3.407-4.79l2.944-1.022h3.039l2.944,1.022a5.074,5.074,0,0,1,3.407,4.79Zm0,0" transform="translate(0 -213.711)" fill="#fff"/>
    <path id="Path_113674" data-name="Path 113674" d="M44.374,5.215H37.017a.724.724,0,0,0,0,1.449h7.357A3.142,3.142,0,0,1,47.513,9.8V19.845a3.142,3.142,0,0,1-3.139,3.139H34.427a.724.724,0,0,0-.724.724v3.08L30.111,23.2a.724.724,0,0,0-.512-.212H23.708a3.142,3.142,0,0,1-3.139-3.139V9.8a3.142,3.142,0,0,1,3.139-3.139h9.922a.724.724,0,0,0,0-1.449H29.84V4.587A4.592,4.592,0,0,0,25.253,0H4.587A4.592,4.592,0,0,0,0,4.587v1.6a.724.724,0,0,0,1.449,0v-1.6A3.142,3.142,0,0,1,4.587,1.449H25.253a3.142,3.142,0,0,1,3.139,3.139v.628H23.708A4.592,4.592,0,0,0,19.121,9.8v7.967H11.54a.724.724,0,0,0-.724.724v3.08L7.224,17.981a.724.724,0,0,0-.512-.212H4.587A3.142,3.142,0,0,1,1.449,14.63V9.556A.724.724,0,1,0,0,9.556V14.63a4.592,4.592,0,0,0,4.587,4.587H6.412l4.617,4.617a.724.724,0,0,0,1.236-.512v-4.1h6.856v.628a4.592,4.592,0,0,0,4.587,4.587H29.3l4.616,4.617a.724.724,0,0,0,1.236-.512v-4.1h9.222a4.592,4.592,0,0,0,4.587-4.587V9.8A4.592,4.592,0,0,0,44.374,5.215Zm0,0" transform="translate(0 0)" fill="#fff"/>
  </g>
</svg>
