<svg xmlns="http://www.w3.org/2000/svg" width="54.947" height="54.947" viewBox="0 0 54.947 54.947">
  <g id="consulting-green" transform="translate(-29.955 -28.744)">
    <g id="consulting" transform="translate(29.955 28.744)">
      <path id="Path_113673" data-name="Path 113673" d="M50.031,254.994l-2.218-.77a5.356,5.356,0,0,0,2.04-4.206v-1.626a5.365,5.365,0,1,0-10.729,0v1.626a5.356,5.356,0,0,0,2.041,4.206l-2.218.77a7.305,7.305,0,0,0-3.475,2.556H29.479v-2.365a7.321,7.321,0,0,0-4.916-6.911l-2.218-.77a5.356,5.356,0,0,0,2.041-4.206v-1.626a5.365,5.365,0,1,0-10.729,0V243.3A5.357,5.357,0,0,0,15.7,247.5l-2.218.77a7.321,7.321,0,0,0-4.916,6.911v2.365H.813a.813.813,0,0,0-.813.813v6.719a.813.813,0,0,0,.813.813H34.626a.733.733,0,0,1,.217,0H54.134a.813.813,0,0,0,.813-.813V261.9A7.321,7.321,0,0,0,50.031,254.994Zm-9.281-6.6a3.739,3.739,0,1,1,7.478,0v1.626a3.739,3.739,0,1,1-7.478,0Zm-25.468-6.719a3.739,3.739,0,0,1,7.478,0V243.3a3.739,3.739,0,1,1-7.478,0Zm5.444,6.99.79.274-2.5,4.329-2.5-4.329.79-.274Zm-10.538,6.522a5.694,5.694,0,0,1,3.824-5.375l.951-.33,3.354,5.82a.813.813,0,0,0,1.409,0l3.354-5.82.951.33a5.694,5.694,0,0,1,3.823,5.375v2.365H10.187Zm-8.562,3.991H34.56a7.289,7.289,0,0,0-.529,2.729v2.365H1.626Zm51.7,5.093H35.656V261.9a5.694,5.694,0,0,1,3.823-5.375l3.3-1.147h3.411l3.3,1.147a5.694,5.694,0,0,1,3.824,5.375Zm0,0" transform="translate(0 -210.948)" fill="#02787c"/>
      <path id="Path_113674" data-name="Path 113674" d="M49.8,5.852H41.542a.813.813,0,1,0,0,1.626H49.8A3.526,3.526,0,0,1,53.321,11V22.271A3.526,3.526,0,0,1,49.8,25.794H38.636a.813.813,0,0,0-.813.813v3.457l-4.031-4.032a.813.813,0,0,0-.575-.238H26.607a3.526,3.526,0,0,1-3.523-3.522V11a3.526,3.526,0,0,1,3.523-3.522H37.742a.813.813,0,1,0,0-1.626H33.488v-.7A5.154,5.154,0,0,0,28.34,0H5.148A5.154,5.154,0,0,0,0,5.148v1.8a.813.813,0,0,0,1.626,0v-1.8A3.526,3.526,0,0,1,5.148,1.626H28.34a3.526,3.526,0,0,1,3.522,3.522v.7H26.607A5.154,5.154,0,0,0,21.459,11v8.941H12.951a.813.813,0,0,0-.813.813v3.457L8.107,20.179a.813.813,0,0,0-.575-.238H5.148a3.526,3.526,0,0,1-3.522-3.522V10.725a.813.813,0,1,0-1.626,0v5.694a5.154,5.154,0,0,0,5.148,5.148H7.2l5.181,5.181a.813.813,0,0,0,1.388-.575V21.567h7.695v.7a5.154,5.154,0,0,0,5.148,5.147h6.274L38.061,32.6a.813.813,0,0,0,1.388-.575V27.419H49.8a5.154,5.154,0,0,0,5.148-5.147V11A5.154,5.154,0,0,0,49.8,5.852Zm0,0" transform="translate(0 0)" fill="#02787c"/>
    </g>
  </g>
</svg>
