<svg xmlns="http://www.w3.org/2000/svg" xmlns:xlink="http://www.w3.org/1999/xlink" width="24" height="24" viewBox="0 0 24 24">
  <defs>
    <clipPath id="clip-path">
      <circle id="Ellipse_27" data-name="Ellipse 27" cx="12" cy="12" r="12" fill="#fff" stroke="#707070" stroke-width="1"/>
    </clipPath>
  </defs>
  <g id="counter" clip-path="url(#clip-path)">
    <g id="training" transform="translate(-2.945 3.125)">
      <path id="Path_115446" data-name="Path 115446" d="M48,230.271a.571.571,0,0,0,.571.571H58.846a.571.571,0,0,0,.571-.571v-2.843a2.867,2.867,0,0,0-2.069-2.747l-1.927-.55v-.725a2.841,2.841,0,0,0,1.142-2.269v-.571a.571.571,0,0,0,.571-.571v-.571a3.425,3.425,0,0,0-6.85,0V220a.571.571,0,0,0,.571.571v.571A2.841,2.841,0,0,0,52,223.406v.725l-1.926.55A2.866,2.866,0,0,0,48,227.429Zm5.709-13.13a2.283,2.283,0,0,1,2.283,2.268.571.571,0,0,1-.377-.3l-.254-.509a.571.571,0,0,0-.828-.22l-.849.566a2.847,2.847,0,0,1-1.584.479h-.675A2.284,2.284,0,0,1,53.709,217.142ZM52.1,220.567a3.984,3.984,0,0,0,2.217-.671l.313-.209a1.686,1.686,0,0,0,.791.714v.737a1.713,1.713,0,0,1-3.425,0v-.571Zm1.608,3.425a2.846,2.846,0,0,0,.571-.057v.628a.566.566,0,0,0,.2.423l-.768.576-.768-.576a.566.566,0,0,0,.2-.423v-.628A2.846,2.846,0,0,0,53.709,223.992Zm-4.567,3.437a1.721,1.721,0,0,1,1.242-1.649l1.242-.354,1.741,1.306a.57.57,0,0,0,.685,0l1.741-1.306,1.242.354a1.72,1.72,0,0,1,1.241,1.649V229.7H57.134v-2.283H55.992V229.7H51.425v-2.283H50.283V229.7H49.142Zm0,0" transform="translate(-43.685 -216)" fill="#195190"/>
      <path id="Path_115447" data-name="Path 115447" d="M253.13,242.275a1.713,1.713,0,0,0,1.713-1.713v-6.85A1.713,1.713,0,0,0,253.13,232H241.713A1.713,1.713,0,0,0,240,233.713v6.85a1.713,1.713,0,0,0,1.713,1.713h4v2.283h-1.142V245.7h5.709v-1.142h-1.142v-2.283Zm-11.417-1.142a.571.571,0,0,1-.571-.571v-6.85a.571.571,0,0,1,.571-.571H253.13a.571.571,0,0,1,.571.571v6.85a.571.571,0,0,1-.571.571h-4v-2.854a.571.571,0,0,0-.571-.571h-2.283a.571.571,0,0,0-.571.571v2.854Zm5.138,3.425V238.85h1.142v5.709Zm0,0" transform="translate(-223.519 -230.858)" fill="#195190"/>
      <path id="Path_115449" data-name="Path 115449" d="M33.607,432H0v1.142H1.12v1.713a.566.566,0,0,0,.56.571H31.927a.566.566,0,0,0,.56-.571v-1.713h1.12Zm-2.24,2.283H2.24v-1.142H31.367Zm0,0" transform="translate(0 -416.587)" fill="#195190"/>
    </g>
  </g>
</svg>
