<svg xmlns="http://www.w3.org/2000/svg" width="31.123" height="37.67" viewBox="0 0 31.123 37.67">
  <g id="dashboard-alerts" transform="translate(-45.256 -20.589)">
    <path id="Path_116075" data-name="Path 116075" d="M235.313,53.668v1.925l-4.914.024V53.668a2.457,2.457,0,0,1,4.914,0Zm0,0" transform="translate(-172.038 -29.805)" fill="#b8c6dc"/>
    <path id="Path_116076" data-name="Path 116076" d="M232.856,56.755v1.925L230.4,58.7V56.755a2.458,2.458,0,0,1,1.229-2.13,2.72,2.72,0,0,1,.508.393A2.453,2.453,0,0,1,232.856,56.755Zm0,0" transform="translate(-172.038 -32.891)" fill="#e3e7f2"/>
    <path id="Path_116077" data-name="Path 116077" d="M131.884,116.812v3.276a.819.819,0,0,1-.819.819H103.218a.819.819,0,0,1-.819-.819v-3.276a.819.819,0,0,1,.819-.819,3.25,3.25,0,0,0,.852-.115,3.338,3.338,0,0,0,1.466-.844,3.3,3.3,0,0,0,.958-2.318v-7.871a11.145,11.145,0,0,1,3.219-7.772,10.425,10.425,0,0,1,7.437-3.194,10.654,10.654,0,0,1,10.639,10.647v8.19a3.276,3.276,0,0,0,3.276,3.276.819.819,0,0,1,.819.819Zm0,0" transform="translate(-56.323 -68.378)" fill="#b8c6dc"/>
    <path id="Path_116078" data-name="Path 116078" d="M129.836,133.878v2.457H103.218a.819.819,0,0,1-.819-.819v-2.7a3.195,3.195,0,0,0,1.671-1.507,3.338,3.338,0,0,0,1.466-.844,3.3,3.3,0,0,0,.958-2.318v-7.871a11.145,11.145,0,0,1,3.219-7.772,10.178,10.178,0,0,1,5.389-1.556,10.654,10.654,0,0,1,10.639,10.647v8.19a3.276,3.276,0,0,0,3.276,3.276A.819.819,0,0,1,129.836,133.878Zm0,0" transform="translate(-56.323 -83.806)" fill="#e3e7f2"/>
    <path id="Path_116079" data-name="Path 116079" d="M171.485,128.811a.819.819,0,0,1-.819-.819,8.467,8.467,0,0,1,8.19-8.511.819.819,0,1,1,0,1.638,6.808,6.808,0,0,0-6.552,6.873A.819.819,0,0,1,171.485,128.811Zm0,0" transform="translate(-118.039 -91.522)" fill="#fff"/>
    <path id="Path_116080" data-name="Path 116080" d="M156.058,317.384H154.42a.819.819,0,0,1,0-1.638h1.638a.819.819,0,1,1,0,1.638Zm0,0" transform="translate(-102.612 -268.95)" fill="#fff"/>
    <path id="Path_116081" data-name="Path 116081" d="M217.9,317.384H205.62a.819.819,0,0,1,0-1.638H217.9a.819.819,0,1,1,0,1.638Zm0,0" transform="translate(-148.897 -268.95)" fill="#fff"/>
    <path id="Path_116082" data-name="Path 116082" d="M171.487,232.871a.819.819,0,0,1-.819-.819v-.819a.819.819,0,0,1,1.638,0v.819A.819.819,0,0,1,171.487,232.871Zm0,0" transform="translate(-118.04 -191.808)" fill="#fff"/>
    <path id="Path_116083" data-name="Path 116083" d="M214.629,375.48a4.914,4.914,0,0,1-4.914,4.914,4.673,4.673,0,0,1-1.024-.106,4.926,4.926,0,0,1-3.89-4.808Zm0,0" transform="translate(-148.897 -322.951)" fill="#b8c6dc"/>
    <path id="Path_116084" data-name="Path 116084" d="M212.581,375.48a3.978,3.978,0,1,1-7.781,0Zm0,0" transform="translate(-148.897 -322.951)" fill="#e3e7f2"/>
    <path id="Path_116089" data-name="Path 116089" d="M207.258,375.48H204.8a4.926,4.926,0,0,0,3.89,4.808,4.673,4.673,0,0,0,1.024.106,4.927,4.927,0,0,0,1.242-.164A4.914,4.914,0,0,1,207.258,375.48Zm0,0" transform="translate(-148.897 -322.951)" fill="#fff"/>
    <path id="Path_116091" data-name="Path 116091" d="M102.4,78.239v3.276a.819.819,0,0,0,.819.819h2.457a.819.819,0,0,1-.819-.819V78.239a.819.819,0,0,1,.819-.819,3.25,3.25,0,0,0,.851-.115,3.339,3.339,0,0,0,1.466-.844,3.3,3.3,0,0,0,.958-2.318V66.273A11.143,11.143,0,0,1,112.17,58.5a10.649,10.649,0,0,1,5-2.883h-.03V53.668a2.457,2.457,0,0,1,1.217-2.121,2.439,2.439,0,0,0-3.674,2.121v1.949h.03a10.649,10.649,0,0,0-5,2.883,11.145,11.145,0,0,0-3.219,7.772v7.871a3.3,3.3,0,0,1-.958,2.318,3.338,3.338,0,0,1-1.466.844,3.25,3.25,0,0,1-.852.115.819.819,0,0,0-.819.819Zm0,0" transform="translate(-56.323 -29.805)" fill="#fff"/>
    <g id="Group_42765" data-name="Group 42765" transform="translate(45.256 20.589)">
      <path id="Path_116099" data-name="Path 116099" d="M111.744,43.662a3.276,3.276,0,0,0-5.592,2.316V47.3a11.486,11.486,0,0,0-4.832,3.03,12.039,12.039,0,0,0-3.358,8.252v7.869a2.457,2.457,0,0,1-2.457,2.457,1.638,1.638,0,0,0-1.638,1.638v3.276a1.638,1.638,0,0,0,1.638,1.638h8.256a5.726,5.726,0,0,0,11.335,0h8.256a1.638,1.638,0,0,0,1.638-1.638V70.548a1.638,1.638,0,0,0-1.638-1.638,2.457,2.457,0,0,1-2.457-2.457v-8.19a11.483,11.483,0,0,0-8.19-10.99v-1.3A3.252,3.252,0,0,0,111.744,43.662Zm-3.954,2.316a1.638,1.638,0,1,1,3.276,0v.949a11.417,11.417,0,0,0-1.631-.129h-.007a10.85,10.85,0,0,0-1.638.138Zm1.638,32.761a4.1,4.1,0,0,1-4.013-3.276h8.026A4.1,4.1,0,0,1,109.429,78.738Zm9.828-20.475v8.19a4.1,4.1,0,0,0,4.1,4.1v3.276H95.505V70.548a4.1,4.1,0,0,0,4.1-4.1V58.584a10.383,10.383,0,0,1,2.9-7.119,9.571,9.571,0,0,1,6.928-3.03h.006A9.834,9.834,0,0,1,119.257,58.263Zm0,0" transform="translate(-93.867 -42.704)" fill="#666d7b"/>
      <path id="Path_116100" data-name="Path 116100" d="M170.667,127.992a.819.819,0,1,0,1.638,0,6.808,6.808,0,0,1,6.552-6.873.819.819,0,1,0,0-1.638A8.467,8.467,0,0,0,170.667,127.992Zm0,0" transform="translate(-163.295 -112.111)" fill="#666d7b"/>
      <path id="Path_116101" data-name="Path 116101" d="M156.058,315.746H154.42a.819.819,0,0,0,0,1.638h1.638a.819.819,0,1,0,0-1.638Zm0,0" transform="translate(-147.868 -289.54)" fill="#666d7b"/>
      <path id="Path_116102" data-name="Path 116102" d="M204.8,316.565a.819.819,0,0,0,.819.819H217.9a.819.819,0,1,0,0-1.638H205.62A.819.819,0,0,0,204.8,316.565Zm0,0" transform="translate(-194.153 -289.54)" fill="#666d7b"/>
      <path id="Path_116103" data-name="Path 116103" d="M171.487,230.414a.819.819,0,0,0-.819.819v.819a.819.819,0,0,0,1.638,0v-.819A.819.819,0,0,0,171.487,230.414Zm0,0" transform="translate(-163.297 -212.398)" fill="#666d7b"/>
    </g>
  </g>
</svg>
