<svg xmlns="http://www.w3.org/2000/svg" width="37.082" height="37.082" viewBox="0 0 37.082 37.082">
  <g id="dashboard-connected-windows" transform="translate(-873 -436)">
    <g id="Page-1" transform="translate(873 436)">
      <g id="_029---Computer-Star" data-name="029---Computer-Star">
        <path id="Rectangle-path" d="M32,44h4.326v7.416H32Z" transform="translate(-12.223 -16.807)" fill="#f5bcb8"/>
        <path id="Shape" d="M49,1h3.708A2.472,2.472,0,0,1,55.18,3.472V25.721a2.472,2.472,0,0,1-2.472,2.472H49Z" transform="translate(-18.716 -0.382)" fill="#f5bcb8"/>
        <path id="Shape-2" data-name="Shape" d="M46,1h3.708A2.472,2.472,0,0,1,52.18,3.472V25.721a2.472,2.472,0,0,1-2.472,2.472H46Z" transform="translate(-17.57 -0.382)" fill="#ffe2e0"/>
        <rect id="Rectangle-path-2" data-name="Rectangle-path" width="23.224" height="26.94" rx="4" transform="translate(9.251 0.891)" fill="#f5bcb8"/>
        <path id="Rectangle-path-3" data-name="Rectangle-path" d="M2.339,0H26.315a2.408,2.408,0,0,1,2.339,2.472V24.721a2.408,2.408,0,0,1-2.339,2.472H2.339A2.408,2.408,0,0,1,0,24.721V2.472A2.408,2.408,0,0,1,2.339,0Z" transform="translate(2.248 0.618)" fill="#ffe2e0"/>
        <path id="Shape-3" data-name="Shape" d="M37,55h3.708a1.236,1.236,0,0,1,1.236,1.236v1.236H38.236" transform="translate(-14.133 -21.008)" fill="#f5bcb8"/>
        <path id="Shape-4" data-name="Shape" d="M33.138,39v1.236a2.471,2.471,0,0,1-2.472,2.472H3.472A2.471,2.471,0,0,1,1,40.236V39Z" transform="translate(-0.382 -14.897)" fill="#f4cac8"/>
        <path id="Shape-5" data-name="Shape" d="M31.284,39v1.236a2.471,2.471,0,0,1-2.472,2.472H3.472A2.471,2.471,0,0,1,1,40.236V39Z" transform="translate(-0.382 -14.897)" fill="#ffe3e2"/>
        <path id="Rectangle-path-4" data-name="Rectangle-path" d="M21,45h1.854v6.18H21Z" transform="translate(-8.021 -17.188)" fill="#fff"/>
        <path id="Shape-6" data-name="Shape" d="M16.854,56.236A1.236,1.236,0,0,1,18.09,55H16.236A1.236,1.236,0,0,0,15,56.236v1.236h1.854Z" transform="translate(-5.729 -21.008)" fill="#fff"/>
        <path id="Shape-7" data-name="Shape" d="M3.472,28.193H5.326a2.471,2.471,0,0,1-2.472-2.472V3.472A2.471,2.471,0,0,1,5.326,1H3.472A2.471,2.471,0,0,0,1,3.472V25.721a2.471,2.471,0,0,0,2.472,2.472Z" transform="translate(-0.382 -0.382)" fill="#fff"/>
        <path id="Shape-8" data-name="Shape" d="M1.236,5V27.249H0V5Z" transform="translate(0 -1.91)" fill="#fff"/>
        <g id="Group_42343" data-name="Group 42343">
          <path id="Shape-9" data-name="Shape" d="M.618,8.09a.62.62,0,0,0,.618-.618V5H0V7.472A.62.62,0,0,0,.618,8.09Z" transform="translate(0 -1.91)" fill="#ff8179"/>
          <path id="Shape-10" data-name="Shape" d="M0,31.451H1.236V16.618a.618.618,0,0,0-1.236,0Z" transform="translate(0 -6.111)" fill="#ff8179"/>
          <path id="Shape-11" data-name="Shape" d="M1.239,12.618a.651.651,0,0,0-.179-.439l-.093-.074a.471.471,0,0,0-.111-.056.393.393,0,0,0-.111-.037A.9.9,0,0,0,.621,12a.649.649,0,0,0-.439.179.638.638,0,0,0,0,.878.64.64,0,0,0,.2.13.618.618,0,0,0,.235.049.651.651,0,0,0,.439-.179.651.651,0,0,0,.179-.439Z" transform="translate(-0.003 -4.584)" fill="#ff8179"/>
          <path id="Shape-12" data-name="Shape" d="M30.284,28.43H3.09A3.094,3.094,0,0,1,0,25.339a.618.618,0,0,1,1.236,0A1.856,1.856,0,0,0,3.09,27.193H30.284a1.856,1.856,0,0,0,1.854-1.854V3.09a1.856,1.856,0,0,0-1.854-1.854H3.09A1.856,1.856,0,0,0,1.236,3.09.618.618,0,0,1,0,3.09,3.094,3.094,0,0,1,3.09,0H30.284a3.094,3.094,0,0,1,3.09,3.09V25.339A3.094,3.094,0,0,1,30.284,28.43Z" fill="#ff8179"/>
          <path id="Shape-13" data-name="Shape" d="M52.326,28.43H48.618a.618.618,0,0,1,0-1.236h3.708a1.856,1.856,0,0,0,1.854-1.854V3.09a1.856,1.856,0,0,0-1.854-1.854H48.618a.618.618,0,0,1,0-1.236h3.708a3.094,3.094,0,0,1,3.09,3.09V25.339A3.094,3.094,0,0,1,52.326,28.43Z" transform="translate(-18.334)" fill="#ff8179"/>
          <path id="Shape-14" data-name="Shape" d="M28.034,51.416H20.618A.618.618,0,0,1,20,50.8v-6.18A.618.618,0,0,1,20.618,44h7.416a.618.618,0,0,1,.618.618V50.8A.618.618,0,0,1,28.034,51.416Zm-6.8-1.236h6.18V45.236h-6.18Z" transform="translate(-7.639 -16.807)" fill="#ff8179"/>
          <path id="Shape-15" data-name="Shape" d="M29.451,57.708H14.618A.618.618,0,0,1,14,57.09V55.854A1.856,1.856,0,0,1,15.854,54H28.215a1.856,1.856,0,0,1,1.854,1.854V57.09A.618.618,0,0,1,29.451,57.708ZM15.236,56.472h13.6v-.618a.619.619,0,0,0-.618-.618H15.854a.619.619,0,0,0-.618.618Z" transform="translate(-5.348 -20.626)" fill="#ff8179"/>
          <path id="Shape-16" data-name="Shape" d="M41.562,57.708H37.854a.618.618,0,0,1,0-1.236h3.09v-.618a.619.619,0,0,0-.618-.618H36.618a.618.618,0,1,1,0-1.236h3.708a1.856,1.856,0,0,1,1.854,1.854V57.09A.618.618,0,0,1,41.562,57.708Z" transform="translate(-13.751 -20.626)" fill="#ff8179"/>
          <path id="Shape-17" data-name="Shape" d="M36.326,51.416H32.618A.618.618,0,0,1,32,50.8v-6.18A.618.618,0,0,1,32.618,44h3.708a.618.618,0,0,1,.618.618V50.8A.618.618,0,0,1,36.326,51.416Zm-3.09-1.236h2.472V45.236H33.236Z" transform="translate(-12.223 -16.807)" fill="#ff8179"/>
          <path id="Shape-18" data-name="Shape" d="M32.756,39.236H.618A.618.618,0,1,1,.618,38H32.756a.618.618,0,1,1,0,1.236Z" transform="translate(0 -14.515)" fill="#ff8179"/>
        </g>
      </g>
    </g>
  </g>
</svg>
