<svg xmlns="http://www.w3.org/2000/svg" width="39.499" height="32.257" viewBox="0 0 39.499 32.257">
  <g id="dashboard-connected-distributors" transform="translate(0 -46.933)">
    <g id="Group_42660" data-name="Group 42660" transform="translate(0.658 47.591)">
      <path id="Path_115345" data-name="Path 115345" d="M169.4,384.658H153.6l1.975-5.925h11.85Z" transform="translate(-142.408 -353.717)" fill="#f5bcb8"/>
      <path id="Path_115346" data-name="Path 115346" d="M176.616,408.283H162.133l1.317-3.95H175.3Z" transform="translate(-150.283 -377.342)" fill="#ffe2e0"/>
      <path id="Path_115347" data-name="Path 115347" d="M78.207,55.783V78.165a1.277,1.277,0,0,1-1.226,1.317h-33.1a1.277,1.277,0,0,1-1.226-1.317V55.783a1.277,1.277,0,0,1,1.226-1.317h33.1A1.278,1.278,0,0,1,78.207,55.783Z" transform="translate(-40.024 -54.466)" fill="#f5bcb8"/>
      <path id="Path_115348" data-name="Path 115348" d="M44.074,55.783V78.165a1.277,1.277,0,0,1-1.226,1.317H9.751a1.278,1.278,0,0,1-1.226-1.317V55.783a1.277,1.277,0,0,1,1.226-1.317h33.1A1.277,1.277,0,0,1,44.074,55.783Z" transform="translate(-8.525 -54.466)" fill="#fff"/>
      <path id="Path_115349" data-name="Path 115349" d="M68.347,55.783V78.165a1.258,1.258,0,0,1-1.18,1.317H35.3a1.258,1.258,0,0,1-1.18-1.317V55.783a1.258,1.258,0,0,1,1.18-1.317H67.167A1.258,1.258,0,0,1,68.347,55.783Z" transform="translate(-32.139 -54.466)" fill="#ffe2e0"/>
      <rect id="Rectangle_23739" data-name="Rectangle 23739" width="35.549" height="19.749" transform="translate(2.634 2.633)" fill="#f5bcb8"/>
      <rect id="Rectangle_23740" data-name="Rectangle 23740" width="34.232" height="19.749" transform="translate(1.976 2.633)" fill="#ffe2e0"/>
      <g id="Group_42659" data-name="Group 42659" transform="translate(1.976 4.613)">
        <path id="Path_115350" data-name="Path 115350" d="M34.794,119.518a.658.658,0,0,1-.465-1.124l3.95-3.95a.658.658,0,0,1,.931.931l-3.95,3.95A.657.657,0,0,1,34.794,119.518Z" transform="translate(-34.135 -114.256)" fill="#84b5cb"/>
        <path id="Path_115351" data-name="Path 115351" d="M34.794,123.468a.658.658,0,0,1-.465-1.124l7.9-7.9a.658.658,0,0,1,.931.931l-7.9,7.9A.657.657,0,0,1,34.794,123.468Z" transform="translate(-34.135 -114.256)" fill="#84b5cb"/>
        <path id="Path_115352" data-name="Path 115352" d="M410.26,255.95a.658.658,0,0,1-.465-1.124l3.95-3.95a.658.658,0,1,1,.931.931l-3.95,3.95A.656.656,0,0,1,410.26,255.95Z" transform="translate(-380.636 -240.155)" fill="#84b5cb"/>
        <path id="Path_115353" data-name="Path 115353" d="M359.06,208.7a.658.658,0,0,1-.465-1.124l7.9-7.9a.658.658,0,1,1,.931.931l-7.9,7.9A.656.656,0,0,1,359.06,208.7Z" transform="translate(-333.386 -192.905)" fill="#84b5cb"/>
      </g>
    </g>
    <g id="Group_42662" data-name="Group 42662" transform="translate(0 46.933)">
      <path id="Path_115354" data-name="Path 115354" d="M1.317,72.533V94.916H0V72.533Z" transform="translate(0 -70.558)" fill="#fff"/>
      <g id="Group_42661" data-name="Group 42661">
        <path id="Path_115355" data-name="Path 115355" d="M.711,133.582a.694.694,0,0,0,.467-.191.668.668,0,0,0,0-.935l-.1-.079a.5.5,0,0,0-.119-.059.419.419,0,0,0-.119-.039.964.964,0,0,0-.131-.013.691.691,0,0,0-.467.191.679.679,0,0,0,0,.935.681.681,0,0,0,.217.138A.657.657,0,0,0,.711,133.582Z" transform="translate(-0.053 -125.682)" fill="#ff8179"/>
        <path id="Path_115356" data-name="Path 115356" d="M34.794,120.518a.656.656,0,0,0,.465-.193l3.95-3.95a.658.658,0,0,0-.931-.931l-3.95,3.95a.658.658,0,0,0,.465,1.124Z" transform="translate(-31.502 -109.985)" fill="#ff8179"/>
        <path id="Path_115357" data-name="Path 115357" d="M34.326,124.259a.658.658,0,0,0,.931,0l7.9-7.9a.658.658,0,0,0-.931-.931l-7.9,7.9a.658.658,0,0,0,0,.931Z" transform="translate(-31.5 -109.969)" fill="#ff8179"/>
        <path id="Path_115358" data-name="Path 115358" d="M413.693,251.877l-3.95,3.95a.658.658,0,1,0,.931.931l3.95-3.95a.658.658,0,1,0-.931-.931Z" transform="translate(-377.951 -235.884)" fill="#ff8179"/>
        <path id="Path_115359" data-name="Path 115359" d="M367.389,200.727a.658.658,0,0,0-.931,0l-7.9,7.9a.658.658,0,1,0,.931.931l7.9-7.9a.658.658,0,0,0,0-.931Z" transform="translate(-330.717 -188.684)" fill="#ff8179"/>
        <path id="Path_115360" data-name="Path 115360" d="M37.524,46.933H1.975A1.977,1.977,0,0,0,0,48.908v2.633a.658.658,0,0,0,1.317,0v-.658H38.182V69.316H1.317V56.808a.658.658,0,0,0-1.317,0V71.29a1.977,1.977,0,0,0,1.975,1.975H12.911l-1.536,4.608H9.216a.658.658,0,1,0,0,1.317H30.282a.658.658,0,1,0,0-1.317H28.123l-1.536-4.608H37.524A1.977,1.977,0,0,0,39.5,71.291V48.908A1.977,1.977,0,0,0,37.524,46.933ZM1.317,49.566v-.658a.659.659,0,0,1,.658-.658H37.524a.659.659,0,0,1,.658.658v.658ZM26.735,77.874H12.763L14.3,73.265H25.2Zm10.788-5.925H1.975a.659.659,0,0,1-.658-.658v-.658H38.182v.658A.659.659,0,0,1,37.524,71.949Z" transform="translate(0 -46.933)" fill="#ff8179"/>
      </g>
    </g>
  </g>
</svg>
