<svg xmlns="http://www.w3.org/2000/svg" width="36.341" height="36.34" viewBox="0 0 36.341 36.34">
  <g id="dashboard-connected-TV" transform="translate(0 -0.003)">
    <g id="Group_42728" data-name="Group 42728" transform="translate(0.606 3.031)">
      <path id="Path_116066" data-name="Path 116066" d="M203.746,41.9v1.211h-8.479V41.9a4.241,4.241,0,0,1,3.331-4.143,4.441,4.441,0,0,1,.909-.1,4.237,4.237,0,0,1,4.24,4.24Z" transform="translate(-181.942 -37.664)" fill="#f5bcb8"/>
      <g id="Group_42725" data-name="Group 42725" transform="translate(2.423 0.097)">
        <path id="Path_116067" data-name="Path 116067" d="M201.928,43.172v1.211h-6.663V43.172a3.411,3.411,0,1,1,6.663,0Z" transform="translate(-184.364 -39.029)" fill="#ffe2e0"/>
        <path id="Path_116068" data-name="Path 116068" d="M41.667,447.264h6.057v3.028a.606.606,0,0,1-.606.606H42.273a.606.606,0,0,1-.606-.606Z" transform="translate(-41.667 -418.288)" fill="#ffe2e0"/>
        <path id="Path_116069" data-name="Path 116069" d="M383,447.264h6.057v3.028a.606.606,0,0,1-.606.606h-4.845a.606.606,0,0,1-.606-.606Z" transform="translate(-358.773 -418.288)" fill="#ffe2e0"/>
      </g>
      <path id="Path_116070" data-name="Path 116070" d="M8.14,97.4H42.058a.606.606,0,0,1,.606.606v25.439a.606.606,0,0,1-.606.606H8.14a.606.606,0,0,1-.606-.606V98A.606.606,0,0,1,8.14,97.4Z" transform="translate(-7.534 -93.157)" fill="#f5bcb8"/>
      <path id="Path_116071" data-name="Path 116071" d="M8.14,97.4h32.1a.606.606,0,0,1,.606.606v25.439a.606.606,0,0,1-.606.606H8.14a.606.606,0,0,1-.606-.606V98A.606.606,0,0,1,8.14,97.4Z" transform="translate(-7.534 -93.157)" fill="#ffe2e0"/>
      <path id="Path_116072" data-name="Path 116072" d="M44.09,131.53H62.26a2.423,2.423,0,0,1,2.423,2.423v16.959a2.423,2.423,0,0,1-2.423,2.423H44.09a2.423,2.423,0,0,1-2.423-2.423V133.953A2.423,2.423,0,0,1,44.09,131.53Z" transform="translate(-39.244 -124.868)" fill="#f5bcb8"/>
      <path id="Path_116073" data-name="Path 116073" d="M44.09,131.53H60.443a2.423,2.423,0,0,1,2.423,2.423v16.959a2.423,2.423,0,0,1-2.423,2.423H44.09a2.423,2.423,0,0,1-2.423-2.423V133.953A2.423,2.423,0,0,1,44.09,131.53Z" transform="translate(-39.244 -124.868)" fill="#ffe2e0"/>
      <g id="Group_42726" data-name="Group 42726" transform="translate(27.256 22.41)">
        <circle id="Ellipse_8626" data-name="Ellipse 8626" cx="3.028" cy="3.028" r="3.028" fill="#ffe2e0"/>
      </g>
      <g id="Group_42727" data-name="Group 42727" transform="translate(0 0)">
        <path id="Path_116078" data-name="Path 116078" d="M9.957,124.048H8.14a.607.607,0,0,1-.606-.606V98A.607.607,0,0,1,8.14,97.4H9.957A.607.607,0,0,0,9.351,98v25.439A.607.607,0,0,0,9.957,124.048Z" transform="translate(-7.534 -93.158)" fill="#fff"/>
        <path id="Path_116079" data-name="Path 116079" d="M44.09,474.681H42.273a.607.607,0,0,1-.606-.606v-1.211h1.817v1.211A.607.607,0,0,0,44.09,474.681Z" transform="translate(-39.244 -441.974)" fill="#fff"/>
        <path id="Path_116080" data-name="Path 116080" d="M199.507,37.663a4.041,4.041,0,0,1,.9.1,4.241,4.241,0,0,0-3.325,4.143h-1.817A4.241,4.241,0,0,1,198.6,37.76,4.441,4.441,0,0,1,199.507,37.663Z" transform="translate(-181.942 -37.663)" fill="#fff"/>
        <path id="Path_116081" data-name="Path 116081" d="M385.423,474.681h-1.817a.607.607,0,0,1-.606-.606v-1.211h1.817v1.211A.608.608,0,0,0,385.423,474.681Z" transform="translate(-356.35 -441.974)" fill="#fff"/>
      </g>
    </g>
    <g id="Group_42730" data-name="Group 42730" transform="translate(0 0.003)">
      <path id="Path_116082" data-name="Path 116082" d="M1.211,110.93v25.439H0V110.93Z" transform="translate(0 -103.057)" fill="#ff8179"/>
      <g id="Group_42729" data-name="Group 42729" transform="translate(0 0)">
        <path id="Path_116083" data-name="Path 116083" d="M.659,171.873a.638.638,0,0,0,.43-.176.614.614,0,0,0,0-.86L1,170.765a.461.461,0,0,0-.109-.055.384.384,0,0,0-.109-.036.886.886,0,0,0-.121-.012.636.636,0,0,0-.43.176.625.625,0,0,0,0,.86.626.626,0,0,0,.2.127A.6.6,0,0,0,.659,171.873Z" transform="translate(-0.053 -158.549)" fill="#ff8179"/>
        <path id="Path_116084" data-name="Path 116084" d="M1.211,34.527H2.423v.606a1.213,1.213,0,0,0,1.211,1.211H8.48a1.213,1.213,0,0,0,1.211-1.211v-.606H26.65v.606a1.213,1.213,0,0,0,1.211,1.211h4.845a1.213,1.213,0,0,0,1.211-1.211v-.606h1.211a1.213,1.213,0,0,0,1.211-1.211V7.877a1.213,1.213,0,0,0-1.211-1.211H22.974a4.82,4.82,0,0,0-1.027-2.422L28.132,1.15A.606.606,0,0,0,27.59.067L21.013,3.355a4.81,4.81,0,0,0-5.683,0L8.75.067A.606.606,0,0,0,8.209,1.15L14.4,4.241a4.821,4.821,0,0,0-1.028,2.424H1.211A1.213,1.213,0,0,0,0,7.877V10.3a.606.606,0,1,0,1.211,0V7.877H35.129V33.315H1.211V15.145a.606.606,0,0,0-1.211,0v18.17A1.213,1.213,0,0,0,1.211,34.527ZM18.17,3.637A3.637,3.637,0,0,1,21.75,6.665H14.591A3.637,3.637,0,0,1,18.17,3.637Zm14.537,30.89v.606H27.861v-.606Zm-24.227,0v.606H3.634v-.606Z" transform="translate(0 -0.003)" fill="#ff8179"/>
        <path id="Path_116085" data-name="Path 116085" d="M37.161,151.013h18.17a3.032,3.032,0,0,0,3.028-3.028V131.025A3.032,3.032,0,0,0,55.332,128H37.161a3.032,3.032,0,0,0-3.028,3.028v16.959A3.032,3.032,0,0,0,37.161,151.013Zm-1.817-19.987a1.819,1.819,0,0,1,1.817-1.817h18.17a1.819,1.819,0,0,1,1.817,1.817v16.959a1.819,1.819,0,0,1-1.817,1.817H37.161a1.819,1.819,0,0,1-1.817-1.817V131.025Z" transform="translate(-31.71 -118.912)" fill="#ff8179"/>
        <path id="Path_116087" data-name="Path 116087" d="M1.163.374a.7.7,0,0,0-.127-.2A.607.607,0,0,0,.376.047.548.548,0,0,0,.049.374.605.605,0,0,0,0,.6a.581.581,0,0,0,.376.557.6.6,0,0,0,.23.048.638.638,0,0,0,.43-.176L1.109.944A.472.472,0,0,0,1.163.834.375.375,0,0,0,1.2.725.765.765,0,0,0,1.212.6.608.608,0,0,0,1.163.374Z" transform="translate(33.131 11.26) rotate(90)" fill="#ff8179"/>
        <path id="Path_116089" data-name="Path 116089" d="M1.2.484A.375.375,0,0,0,1.163.374.474.474,0,0,0,1.109.266L1.036.175A.605.605,0,0,0,.376.047.582.582,0,0,0,0,.6a.635.635,0,0,0,.176.43.628.628,0,0,0,.2.127.607.607,0,0,0,.23.048.627.627,0,0,0,.43-.176c.024-.03.048-.061.073-.1a.341.341,0,0,0,.054-.1A.356.356,0,0,0,1.2.72.694.694,0,0,0,1.212.6.763.763,0,0,0,1.2.484Z" transform="translate(31.315 11.26) rotate(90)" fill="#ff8179"/>
        <path id="Path_116093" data-name="Path 116093" d="M.376.045A.582.582,0,0,0,0,.6a.607.607,0,0,0,.048.23.546.546,0,0,0,.327.327.606.606,0,0,0,.23.049A.608.608,0,0,0,1.036.173.616.616,0,0,0,.376.045Z" transform="translate(29.496 11.26) rotate(90)" fill="#ff8179"/>
        <path id="Path_116096" data-name="Path 116096" d="M387.634,357.13A3.634,3.634,0,1,0,384,353.5,3.634,3.634,0,0,0,387.634,357.13Zm0-6.057a2.423,2.423,0,1,1-2.423,2.423A2.423,2.423,0,0,1,387.634,351.074Z" transform="translate(-356.744 -325.03)" fill="#ff8179"/>
        <path id="Path_116097" data-name="Path 116097" d="M444,385.083a.463.463,0,0,0,.109.055.391.391,0,0,0,.109.036.855.855,0,0,0,.121.012.6.6,0,0,0,.606-.606.512.512,0,0,0-.048-.23.7.7,0,0,0-.127-.2.949.949,0,0,0-.091-.073.459.459,0,0,0-.109-.055.366.366,0,0,0-.115-.036.514.514,0,0,0-.236,0,.381.381,0,0,0-.109.036.462.462,0,0,0-.109.055.931.931,0,0,0-.09.073.7.7,0,0,0-.127.2.5.5,0,0,0-.048.23.635.635,0,0,0,.176.43Z" transform="translate(-412.235 -356.72)" fill="#ff8179"/>
        <path id="Path_116098" data-name="Path 116098" d="M316.34,163.342h.606a.606.606,0,0,0,0-1.211h-.606a.606.606,0,1,0,0,1.211Z" transform="translate(-293.324 -150.623)" fill="#ff8179"/>
        <path id="Path_116099" data-name="Path 116099" d="M205.406,163.342h5.451a.606.606,0,0,0,0-1.211h-5.451a.606.606,0,1,0,0,1.211Z" transform="translate(-190.264 -150.623)" fill="#ff8179"/>
      </g>
    </g>
  </g>
</svg>
