<svg xmlns="http://www.w3.org/2000/svg" width="40.69" height="36.041" viewBox="0 0 40.69 36.041">
  <g id="dashboard-prestations" transform="translate(0 -29.251)">
    <g id="Group_43099" data-name="Group 43099" transform="translate(0.678 29.631)">
      <path id="Path_118714" data-name="Path 118714" d="M41.679,47.731l5.188-5.188-9.508-9.508-5.188,5.188a3.672,3.672,0,0,0-5.188,0l-.041.034a3.661,3.661,0,0,0-4.713.393l-5.188-5.188L7.533,42.977l5.188,5.188-.434.427a3.672,3.672,0,0,0,0,5.188l1.3,1.3,0,0-.431.431a2.443,2.443,0,1,0,3.452,3.459,2.446,2.446,0,0,0,3.459,3.459l1.174-1.174,0,0-1.605,1.605a1.832,1.832,0,0,0,2.591,2.591l1.3-1.3a1.834,1.834,0,1,0,2.6,2.591l.861-.861,1.3,1.3a1.837,1.837,0,1,0,2.6-2.6l1.3,1.3a1.834,1.834,0,0,0,2.59-2.6l-.427-.427A2.446,2.446,0,0,0,37.793,59.4a2.443,2.443,0,0,0,3.452-3.459l-.861-.868,1.729-1.729a3.663,3.663,0,0,0,0-5.181Z" transform="translate(-7.533 -33.035)" fill="#d6edfd"/>
      <g id="Group_43097" data-name="Group 43097" transform="translate(4.905 0.292)">
        <path id="Path_118715" data-name="Path 118715" d="M76.734,280.324a2.408,2.408,0,0,1-.719,1.723l-2.6,2.6a2.443,2.443,0,0,1-3.452-3.459l2.591-2.591a2.444,2.444,0,0,1,3.459,0A2.412,2.412,0,0,1,76.734,280.324Z" transform="translate(-69.249 -258.711)" fill="#d6edfd"/>
        <path id="Path_118716" data-name="Path 118716" d="M119.467,325.547l-2.6,2.6a2.446,2.446,0,1,1-3.459-3.459l2.6-2.6a2.456,2.456,0,0,1,3.459,0v.007a2.436,2.436,0,0,1,0,3.452Z" transform="translate(-109.242 -298.753)" fill="#d6edfd"/>
        <path id="Path_118717" data-name="Path 118717" d="M160.224,363.557a1.823,1.823,0,0,1-.536,1.3l-2.163,2.163-1.3,1.3a1.832,1.832,0,0,1-2.591-2.591l3.459-3.459a1.831,1.831,0,0,1,3.126,1.3Z" transform="translate(-146.438 -335.895)" fill="#d6edfd"/>
        <path id="Path_118718" data-name="Path 118718" d="M209.111,379.829a1.811,1.811,0,0,1-.536,1.3l-3.459,3.459a1.834,1.834,0,1,1-2.6-2.591l2.163-2.163,1.3-1.3a1.834,1.834,0,0,1,2.6,0A1.812,1.812,0,0,1,209.111,379.829Z" transform="translate(-191.432 -350.872)" fill="#d6edfd"/>
        <path id="Path_118719" data-name="Path 118719" d="M183.977,51.834a3.663,3.663,0,0,1,0,5.181l-1.729,1.729L170.576,47.073,168.847,48.8l-3.025,3.031a2.456,2.456,0,0,1-3.459,0,2.524,2.524,0,0,1-.671-1.261,2.745,2.745,0,0,1-.047-.468,2.468,2.468,0,0,1,.719-1.729l3.025-3.031,3.418-3.418.041-.034a3.672,3.672,0,0,1,5.188,0l5-4.991.19-.2,9.508,9.508L183.543,51.4Z" transform="translate(-154.302 -36.704)" fill="#d6edfd"/>
      </g>
      <g id="Group_43098" data-name="Group 43098" transform="translate(20.257 0.292)">
        <path id="Path_118720" data-name="Path 118720" d="M266.045,423.744a1.834,1.834,0,0,1-3.133,1.3l-.488-.488a1.835,1.835,0,0,0,1.729-3.079l1.3,1.3a1.678,1.678,0,0,0,.482.339A1.706,1.706,0,0,1,266.045,423.744Z" transform="translate(-262.424 -390.893)" fill="#95c8ed"/>
        <path id="Path_118721" data-name="Path 118721" d="M321.764,303.2a2.445,2.445,0,0,1-4.171,1.729,2.446,2.446,0,1,1-3.459,3.459l.427.427a1.834,1.834,0,0,1-2.591,2.6l-.482-.488a1.8,1.8,0,0,0,1.716-.482,1.842,1.842,0,0,0,0-2.6l-.427-.427a2.446,2.446,0,0,0,3.459-3.459,2.443,2.443,0,0,0,3.452-3.459l-.861-.868.2-.19,1.16,1.16.861.868A2.411,2.411,0,0,1,321.764,303.2Z" transform="translate(-307.591 -278.563)" fill="#95c8ed"/>
        <path id="Path_118722" data-name="Path 118722" d="M385.384,51.834a3.663,3.663,0,0,1,0,5.181l-1.729,1.729-1.16-1.16,1.533-1.539a3.663,3.663,0,0,0,0-5.181l-.434-.434,5.188-5.188L380.44,36.9l.19-.2,9.508,9.508L384.95,51.4Z" transform="translate(-371.061 -36.704)" fill="#95c8ed"/>
      </g>
    </g>
    <g id="Group_43100" data-name="Group 43100" transform="translate(0.678 38.447)">
      <path id="Path_118723" data-name="Path 118723" d="M8.211,130.968l6.544,6.605-.434.427a3.672,3.672,0,0,0,0,5.188l-.733,1.3h-.007l-1.3-1.3a3.672,3.672,0,0,1,0-5.188l.434-.427-5.188-5.188Z" transform="translate(-7.533 -130.968)" fill="#fff"/>
      <path id="Path_118724" data-name="Path 118724" d="M200.9,406.307a1.834,1.834,0,0,0,3.133,1.3l.488-.488a1.835,1.835,0,0,1-1.729-3.079l-1.3,1.3a1.678,1.678,0,0,1-.482.339A1.706,1.706,0,0,0,200.9,406.307Z" transform="translate(-185.53 -382.334)" fill="#fff"/>
      <path id="Path_118725" data-name="Path 118725" d="M67.266,284.56a2.445,2.445,0,0,0,4.171,1.729,2.446,2.446,0,0,0,3.459,3.459l-.427.427a1.834,1.834,0,1,0,2.591,2.6l.482-.488a1.8,1.8,0,0,1-1.716-.482,1.842,1.842,0,0,1,0-2.6l.427-.427a2.446,2.446,0,0,1-3.459-3.459,2.443,2.443,0,0,1-3.452-3.459l.861-.868-.2-.19-1.16,1.16-.861.868A2.412,2.412,0,0,0,67.266,284.56Z" transform="translate(-62.519 -268.895)" fill="#fff"/>
    </g>
    <path id="Path_118726" data-name="Path 118726" d="M30.982,29.442a.7.7,0,0,0-.959,0L25.275,34.19a4.324,4.324,0,0,0-5.266.125,4.3,4.3,0,0,0-4.592.309l-4.75-4.75a.678.678,0,0,0-.959,0L.2,39.383a.678.678,0,0,0,0,.959l4.709,4.709a4.35,4.35,0,0,0,.045,6.1l.822.822a3.119,3.119,0,0,0,2.251,5.28,3.133,3.133,0,0,0,.372-.036,3.1,3.1,0,0,0,3.086,3.492c.039,0,.077-.01.116-.011a2.494,2.494,0,0,0,3.971,2.354,2.479,2.479,0,0,0,.62,1.066,2.515,2.515,0,0,0,3.552,0l.385-.385.818.818a2.492,2.492,0,0,0,4.173-1.066,2.472,2.472,0,0,0,3.97-2.353c.039,0,.076.011.116.011a3.127,3.127,0,0,0,3.125-3.129,3.171,3.171,0,0,0-.038-.367,3.155,3.155,0,0,0,.371.036,3.121,3.121,0,0,0,2.208-5.33l-.385-.385,1.25-1.249a4.349,4.349,0,0,0,.045-6.1l4.71-4.71a.678.678,0,0,0,0-.959ZM6.777,55.376a1.769,1.769,0,0,1,0-2.5L9.37,50.284a1.767,1.767,0,0,1,2.5,2.5L9.276,55.376A1.809,1.809,0,0,1,6.777,55.376Zm3.458,3.458a1.77,1.77,0,0,1,0-2.5l2.593-2.593a1.767,1.767,0,0,1,2.5,2.5l-2.6,2.6a1.768,1.768,0,0,1-2.5,0Zm3.025,3.025a1.158,1.158,0,0,1,0-1.635l.429-.429,0,0L16.286,57.2h0l.432-.432A1.156,1.156,0,0,1,18.354,58.4l-2.163,2.162h0l-1.3,1.3A1.158,1.158,0,0,1,13.26,61.859Zm3.89,1.3a1.158,1.158,0,0,1,0-1.633l2.163-2.162h0l1.3-1.3A1.156,1.156,0,1,1,22.243,59.7l-3.458,3.458A1.157,1.157,0,0,1,17.15,63.156Zm6.39.432a1.158,1.158,0,0,1-1.635,0l-.817-.817,1.635-1.634.817.817a1.159,1.159,0,0,1,0,1.635Zm10.373-7.78a1.769,1.769,0,0,1-2.5,0L25.8,50.189a.678.678,0,0,0-.959.959l5.619,5.619a1.763,1.763,0,0,1,0,2.5,1.8,1.8,0,0,1-2.509-.011l-1.707-1.631a.678.678,0,0,0-.938.98L27,60.225l.432.432A1.156,1.156,0,1,1,25.8,62.292L23.607,60.1a2.5,2.5,0,0,0-3.675-3.229,2.46,2.46,0,0,0-2.744-1.767,3.087,3.087,0,0,0-3.482-3.2,3.113,3.113,0,0,0-5.295-2.581L6.73,51.006l-.818-.818a2.993,2.993,0,0,1,0-4.227l.432-.432a.677.677,0,0,0,.2-.48c0-.01-.005-.02-.006-.031a.673.673,0,0,0-.192-.449h0L1.637,39.863l8.551-8.551,4.707,4.707a.678.678,0,0,0,.959,0,2.965,2.965,0,0,1,3.1-.7l-5.789,5.789a3.123,3.123,0,0,0,4.417,4.417l4.275-4.275L33.913,53.309a1.763,1.763,0,0,1,0,2.5Zm.432-11.671a.678.678,0,0,0,0,.959l.432.432a2.994,2.994,0,0,1,0,4.228l-1.25,1.249L22.817,40.295l1.249-1.249a.678.678,0,1,0-.959-.959L21.38,39.814h0v0L16.624,44.57a1.809,1.809,0,0,1-2.5,0,1.764,1.764,0,0,1,0-2.5l6.484-6.483a2.991,2.991,0,0,1,4.228,0l.864.864a.678.678,0,1,0,.959-.959l-.385-.385L30.5,30.88l8.551,8.55Z" fill="#32a1f2"/>
  </g>
</svg>
