<svg xmlns="http://www.w3.org/2000/svg" width="36.664" height="36.664" viewBox="0 0 36.664 36.664">
  <g id="dashboard-sites" transform="translate(10482 2115)">
    <g id="checklist" transform="translate(-10482 -2115)">
      <g id="Group_42257" data-name="Group 42257" transform="translate(0 1.075)">
        <path id="Path_115159" data-name="Path 115159" d="M44,79.461v28.078c0,.909-.55,1.65-1.222,1.65H9.755c-.672,0-1.222-.743-1.222-1.65V79.461Z" transform="translate(-7.922 -74.774)" fill="#d4e1f4"/>
        <path id="Path_115160" data-name="Path 115160" d="M42.163,79.461v28.078c0,.909-.55,1.65-1.222,1.65H9.755c-.672,0-1.222-.743-1.222-1.65V79.461Z" transform="translate(-7.922 -74.774)" fill="#f4f4f4"/>
        <path id="Path_115161" data-name="Path 115161" d="M36.076,15.119v3.317H0V15.119a1.184,1.184,0,0,1,1.244-1.105H34.831A1.184,1.184,0,0,1,36.076,15.119Z" transform="translate(0 -14.012)" fill="#b8c6dc"/>
        <path id="Path_115162" data-name="Path 115162" d="M34.21,15.12v3.317H0V15.12a1.184,1.184,0,0,1,1.244-1.105H32.966A1.185,1.185,0,0,1,34.21,15.12Z" transform="translate(0 -14.013)" fill="#e8edfc"/>
        <g id="Group_42254" data-name="Group 42254" transform="translate(3.605 7.694)">
          <path id="Path_115163" data-name="Path 115163" d="M91.094,122.657v3.605a1.2,1.2,0,0,1-1.2,1.2H83.883v-6.007H89.89A1.21,1.21,0,0,1,91.094,122.657Z" transform="translate(-81.482 -121.453)" fill="#b8c6dc"/>
          <path id="Path_115164" data-name="Path 115164" d="M53.351,121.454v6.007h-1.8a1.2,1.2,0,0,1-1.2-1.2v-3.605a1.205,1.205,0,0,1,1.2-1.2Z" transform="translate(-50.348 -121.453)" fill="#b8c6dc"/>
          <path id="Path_115165" data-name="Path 115165" d="M91.094,248.518v3.605a1.21,1.21,0,0,1-1.2,1.2H83.883V247.32H89.89A1.2,1.2,0,0,1,91.094,248.518Z" transform="translate(-81.482 -238.307)" fill="#b8c6dc"/>
          <path id="Path_115166" data-name="Path 115166" d="M53.351,247.32v6.007h-1.8a1.205,1.205,0,0,1-1.2-1.2v-3.605a1.2,1.2,0,0,1,1.2-1.2Z" transform="translate(-50.348 -238.307)" fill="#b8c6dc"/>
          <path id="Path_115167" data-name="Path 115167" d="M91.094,374.3v3.605a1.2,1.2,0,0,1-1.2,1.2H83.883V373.1H89.89A1.21,1.21,0,0,1,91.094,374.3Z" transform="translate(-81.482 -355.081)" fill="#b8c6dc"/>
        </g>
        <g id="Group_42255" data-name="Group 42255" transform="translate(6.007 7.694)">
          <path id="Path_115168" data-name="Path 115168" d="M89.26,122.657v3.605a1.2,1.2,0,0,1-1.2,1.2H83.883v-6.007h4.174A1.21,1.21,0,0,1,89.26,122.657Z" transform="translate(-83.883 -121.453)" fill="#e3e7f2"/>
          <path id="Path_115169" data-name="Path 115169" d="M89.26,248.518v3.605a1.21,1.21,0,0,1-1.2,1.2H83.883V247.32h4.174A1.2,1.2,0,0,1,89.26,248.518Z" transform="translate(-83.883 -238.307)" fill="#e3e7f2"/>
          <path id="Path_115170" data-name="Path 115170" d="M89.26,374.3v3.605a1.2,1.2,0,0,1-1.2,1.2H83.883V373.1h4.174A1.21,1.21,0,0,1,89.26,374.3Z" transform="translate(-83.883 -355.081)" fill="#e3e7f2"/>
        </g>
        <path id="Path_115171" data-name="Path 115171" d="M53.351,373.11v6.007h-1.8a1.2,1.2,0,0,1-1.2-1.2v-3.605a1.205,1.205,0,0,1,1.2-1.2Z" transform="translate(-46.743 -347.394)" fill="#b8c6dc"/>
        <g id="Group_42256" data-name="Group 42256" transform="translate(0 0)">
          <path id="Path_115172" data-name="Path 115172" d="M8.534,79.461v28.078c0,.909.55,1.65,1.222,1.65h1.833c-.672,0-1.222-.743-1.222-1.65V79.461Z" transform="translate(-7.923 -74.774)" fill="#fff"/>
          <path id="Path_115173" data-name="Path 115173" d="M1.833,15.12a1.184,1.184,0,0,1,1.244-1.105H1.244A1.184,1.184,0,0,0,0,15.12v3.317H1.833Z" transform="translate(0 -14.013)" fill="#fff"/>
        </g>
      </g>
      <g id="Group_42259" data-name="Group 42259">
        <path id="Path_115174" data-name="Path 115174" d="M0,58.6v-33H1.222v33Z" transform="translate(0 -23.767)" fill="#fff"/>
        <g id="Group_42258" data-name="Group 42258">
          <path id="Path_115175" data-name="Path 115175" d="M.379,410.773a.387.387,0,0,0,.11.037.922.922,0,0,0,.122.012.643.643,0,0,0,.434-.177.632.632,0,0,0,.128-.2.624.624,0,0,0-.128-.666.63.63,0,0,0-.2-.128.612.612,0,0,0-.232-.049.643.643,0,0,0-.434.177.62.62,0,0,0,0,.868l.092.073A.462.462,0,0,0,.379,410.773Z" transform="translate(0 -380.269)" fill="#666d7b"/>
          <path id="Path_115176" data-name="Path 115176" d="M34.831,0h-33A1.833,1.833,0,0,0,0,1.833V27.5a.611.611,0,1,0,1.222,0V6.111h34.22v28.72a.611.611,0,0,1-.611.611h-33a.611.611,0,0,1-.611-.611V32.387a.611.611,0,0,0-1.222,0v2.444a1.833,1.833,0,0,0,1.833,1.833h33a1.833,1.833,0,0,0,1.833-1.833v-33A1.833,1.833,0,0,0,34.831,0ZM1.222,4.889V1.833a.611.611,0,0,1,.611-.611h33a.611.611,0,0,1,.611.611V4.889Z" fill="#666d7b"/>
          <path id="Path_115177" data-name="Path 115177" d="M43.889,34.134h-.611a.611.611,0,1,0,0,1.222h.611a.611.611,0,0,0,0-1.222Z" transform="translate(-39.612 -31.69)" fill="#666d7b"/>
          <path id="Path_115178" data-name="Path 115178" d="M86.556,34.134h-.611a.611.611,0,1,0,0,1.222h.611a.611.611,0,0,0,0-1.222Z" transform="translate(-79.223 -31.69)" fill="#666d7b"/>
          <path id="Path_115179" data-name="Path 115179" d="M129.223,34.134h-.611a.611.611,0,0,0,0,1.222h.611a.611.611,0,0,0,0-1.222Z" transform="translate(-118.835 -31.69)" fill="#666d7b"/>
          <path id="Path_115180" data-name="Path 115180" d="M444.957,34.134h-.611a.611.611,0,1,0,0,1.222h.611a.611.611,0,1,0,0-1.222Z" transform="translate(-411.959 -31.69)" fill="#666d7b"/>
          <path id="Path_115181" data-name="Path 115181" d="M44.5,118.267h7.333a1.833,1.833,0,0,0,1.833-1.833v-3.666a1.833,1.833,0,0,0-1.833-1.833H44.5a1.833,1.833,0,0,0-1.833,1.833v3.666A1.833,1.833,0,0,0,44.5,118.267Zm7.944-5.5v3.666a.611.611,0,0,1-.611.611H46.944v-4.889h4.889A.611.611,0,0,1,52.444,112.767Zm-8.555,0a.611.611,0,0,1,.611-.611h1.222v4.889H44.5a.611.611,0,0,1-.611-.611Z" transform="translate(-39.612 -102.985)" fill="#666d7b"/>
          <path id="Path_115183" data-name="Path 115183" d="M42.667,244.434a1.833,1.833,0,0,0,1.833,1.833h7.333a1.833,1.833,0,0,0,1.833-1.833v-3.666a1.833,1.833,0,0,0-1.833-1.833H44.5a1.833,1.833,0,0,0-1.833,1.833Zm9.777-3.666v3.666a.611.611,0,0,1-.611.611H46.944v-4.889h4.889A.611.611,0,0,1,52.444,240.767Zm-8.555,0a.611.611,0,0,1,.611-.611h1.222v4.889H44.5a.611.611,0,0,1-.611-.611Z" transform="translate(-39.612 -221.819)" fill="#666d7b"/>
          <path id="Path_115185" data-name="Path 115185" d="M42.667,372.434a1.833,1.833,0,0,0,1.833,1.833h7.333a1.833,1.833,0,0,0,1.833-1.833v-3.666a1.833,1.833,0,0,0-1.833-1.833H44.5a1.833,1.833,0,0,0-1.833,1.833Zm9.777-3.666v3.666a.611.611,0,0,1-.611.611H46.944v-4.889h4.889A.611.611,0,0,1,52.444,368.767Zm-8.555,0a.611.611,0,0,1,.611-.611h1.222v4.889H44.5a.611.611,0,0,1-.611-.611Z" transform="translate(-39.612 -340.653)" fill="#666d7b"/>
          <path id="Path_115187" data-name="Path 115187" d="M222.478,154.823h7.944a.611.611,0,0,0,0-1.222h-7.944a.611.611,0,0,0,0,1.222Z" transform="translate(-205.979 -142.573)" fill="#666d7b"/>
          <path id="Path_115190" data-name="Path 115190" d="M283.58,154.823h3.568a.611.611,0,1,0,0-1.222H283.58a.611.611,0,0,0,0,1.222Z" transform="translate(-254.112 -142.573)" fill="#666d7b"/>
          <path id="Path_115191" data-name="Path 115191" d="M283.58,154.823h3.568a.611.611,0,1,0,0-1.222H283.58a.611.611,0,0,0,0,1.222Z" transform="translate(-254.112 -133.407)" fill="#666d7b"/>
          <path id="Path_115192" data-name="Path 115192" d="M283.58,154.823h3.568a.611.611,0,1,0,0-1.222H283.58a.611.611,0,0,0,0,1.222Z" transform="translate(-254.112 -124.241)" fill="#666d7b"/>
          <path id="Path_115188" data-name="Path 115188" d="M222.478,282.823h7.944a.611.611,0,1,0,0-1.222h-7.944a.611.611,0,1,0,0,1.222Z" transform="translate(-205.979 -261.407)" fill="#666d7b"/>
          <path id="Path_115189" data-name="Path 115189" d="M222.478,410.823h7.944a.611.611,0,0,0,0-1.222h-7.944a.611.611,0,0,0,0,1.222Z" transform="translate(-205.979 -380.241)" fill="#666d7b"/>
        </g>
      </g>
    </g>
  </g>
</svg>
