<svg xmlns="http://www.w3.org/2000/svg" width="41.509" height="40.509" viewBox="0 0 41.509 40.509">
  <g id="dashboard-tickets-in-process" transform="translate(-957 -625)">
    <g id="tickets" transform="translate(957 625)">
      <g id="Group_43177" data-name="Group 43177" transform="translate(0.65 0.65)">
        <path id="Path_118763" data-name="Path 118763" d="M41.334,23.134H37.7l2.08-5.662a3.91,3.91,0,0,1-2.314-5.005L24.044,7.534a3.9,3.9,0,0,1-5.005,2.314L14.158,23.134H11.434a3.9,3.9,0,0,1-3.9,3.9v14.3a3.9,3.9,0,0,1,3.9,3.9h29.9a3.9,3.9,0,0,1,3.9-3.9v-14.3A3.9,3.9,0,0,1,41.334,23.134Z" transform="translate(-7.534 -7.534)" fill="#e4d8ff"/>
        <path id="Path_118764" data-name="Path 118764" d="M74.167,249.828v10.179a6.572,6.572,0,0,0-3.361,3.361H45.028a6.572,6.572,0,0,0-3.361-3.361V249.828a6.571,6.571,0,0,0,3.361-3.361H70.807A6.571,6.571,0,0,0,74.167,249.828Z" transform="translate(-39.067 -228.267)" fill="#c0b0e3"/>
        <g id="Group_43174" data-name="Group 43174" transform="translate(2.6)">
          <path id="Path_118765" data-name="Path 118765" d="M72.217,249.828v10.179a6.571,6.571,0,0,0-3.36,3.361H45.028a6.572,6.572,0,0,0-3.361-3.361V249.828a6.571,6.571,0,0,0,3.361-3.361H68.857A6.571,6.571,0,0,0,72.217,249.828Z" transform="translate(-41.667 -228.267)" fill="#e4d8ff"/>
          <path id="Path_118766" data-name="Path 118766" d="M150.548,56.74l-.864,2.34-.839,2.288H130.84l2.984-8.119.858-2.34a6.536,6.536,0,0,0,4.31-1.989l9.562,3.51A6.513,6.513,0,0,0,150.548,56.74Z" transform="translate(-124.047 -45.768)" fill="#e4d8ff"/>
          <path id="Path_118767" data-name="Path 118767" d="M120.111,17.473l-2.08,5.662h-2.769l.838-2.288.865-2.34a6.514,6.514,0,0,1-2-4.31l-9.562-3.51a6.536,6.536,0,0,1-4.31,1.989l-.858,2.34-2.984,8.119H94.488L99.37,9.848a3.9,3.9,0,0,0,5.005-2.314L117.8,12.468A3.91,3.91,0,0,0,120.111,17.473Z" transform="translate(-90.464 -7.534)" fill="#e4d8ff"/>
        </g>
        <g id="Group_43175" data-name="Group 43175" transform="translate(26.972 3.954)">
          <path id="Path_118768" data-name="Path 118768" d="M431.517,216.234v14.3a3.9,3.9,0,0,0-3.9,3.9h-1.95a3.9,3.9,0,0,1,3.9-3.9v-14.3a3.9,3.9,0,0,1-3.9-3.9h1.95A3.9,3.9,0,0,0,431.517,216.234Z" transform="translate(-420.789 -200.688)" fill="#c0b0e3"/>
          <path id="Path_118769" data-name="Path 118769" d="M364.587,60.425A3.91,3.91,0,0,0,366.9,65.43l-2.08,5.662H362.1l2.08-5.662a3.914,3.914,0,0,1-2.249-2.158,5.887,5.887,0,0,1-.169-1.118l-.117-.045a3.858,3.858,0,0,1,.221-1.683l.362-.979" transform="translate(-361.626 -59.446)" fill="#c0b0e3"/>
        </g>
        <g id="Group_43176" data-name="Group 43176" transform="translate(0 0)">
          <path id="Path_118770" data-name="Path 118770" d="M11.434,234.434h1.95a3.9,3.9,0,0,0-3.9-3.9v-14.3a3.9,3.9,0,0,0,3.9-3.9h-1.95a3.9,3.9,0,0,1-3.9,3.9v14.3A3.9,3.9,0,0,1,11.434,234.434Z" transform="translate(-7.534 -196.734)" fill="#fff"/>
          <path id="Path_118771" data-name="Path 118771" d="M101.246,38.115a3.876,3.876,0,0,1-1.876-.2L94.488,51.2h1.95Z" transform="translate(-87.864 -35.599)" fill="#fff"/>
          <path id="Path_118772" data-name="Path 118772" d="M193.327,8.144l-1.66-.61a3.89,3.89,0,0,1-2.689,2.428A3.9,3.9,0,0,0,193.327,8.144Z" transform="translate(-175.157 -7.534)" fill="#fff"/>
        </g>
      </g>
      <g id="Group_43179" data-name="Group 43179" transform="translate(0 0)">
        <path id="Path_118773" data-name="Path 118773" d="M1.3,264.534v14.3H0v-14.3Z" transform="translate(0 -244.384)" fill="#fff"/>
        <g id="Group_43178" data-name="Group 43178" transform="translate(0 0)">
          <path id="Path_118774" data-name="Path 118774" d="M.7,325.566a.685.685,0,0,0,.462-.189.659.659,0,0,0,0-.923l-.1-.078a.494.494,0,0,0-.117-.059.413.413,0,0,0-.117-.039.949.949,0,0,0-.13-.013.682.682,0,0,0-.462.189.671.671,0,0,0,0,.923.672.672,0,0,0,.214.136A.647.647,0,0,0,.7,325.566Z" transform="translate(-0.053 -299.566)" fill="#7851cc"/>
          <path id="Path_118775" data-name="Path 118775" d="M38.35,19.5a3.254,3.254,0,0,1-3.25-3.25.65.65,0,0,0-.65-.65h-2.7l1.759-4.787a.65.65,0,0,0-.384-.833,3.261,3.261,0,0,1-1.93-4.171.65.65,0,0,0-.386-.834L17.385.04a.65.65,0,0,0-.835.386,3.22,3.22,0,0,1-1.684,1.825,3.231,3.231,0,0,1-2.486.1.649.649,0,0,0-.834.386L6.82,15.6H4.55a.65.65,0,0,0-.65.65A3.254,3.254,0,0,1,.65,19.5a.65.65,0,0,0-.65.65v2.6a.65.65,0,0,0,1.3,0v-2A4.557,4.557,0,0,0,5.154,16.9H33.847A4.561,4.561,0,0,0,37.7,20.753V33.846A4.561,4.561,0,0,0,33.847,37.7H5.154A4.557,4.557,0,0,0,1.3,33.851v-5.9a.65.65,0,0,0-1.3,0v6.5a.65.65,0,0,0,.65.65A3.254,3.254,0,0,1,3.9,38.35a.65.65,0,0,0,.65.65h29.9a.65.65,0,0,0,.65-.65,3.254,3.254,0,0,1,3.25-3.25.65.65,0,0,0,.65-.65V20.15A.65.65,0,0,0,38.35,19.5ZM12.557,3.755a4.511,4.511,0,0,0,2.855-.324A4.513,4.513,0,0,0,17.5,1.468L29.792,5.985a4.569,4.569,0,0,0,2.287,4.944L30.363,15.6H28.98l1.381-3.753a.65.65,0,0,0-.161-.7,5.832,5.832,0,0,1-1.8-3.878A.65.65,0,0,0,27.98,6.7l-9.562-3.51a.652.652,0,0,0-.693.16,5.855,5.855,0,0,1-3.88,1.791.65.65,0,0,0-.572.425L9.589,15.6H8.2ZM10.974,15.6,13.41,8.967l.611.224a.65.65,0,1,0,.448-1.22l-.611-.224L14.352,6.4a7.145,7.145,0,0,0,4-1.848l8.79,3.227a7.12,7.12,0,0,0,1.853,4L28.5,13.126l-.611-.225a.65.65,0,1,0-.448,1.22l.611.224L27.594,15.6H10.974Z" transform="translate(0 0)" fill="#7851cc"/>
          <path id="Path_118776" data-name="Path 118776" d="M37.546,256.745a.65.65,0,0,0,.6.389H63.927a.65.65,0,0,0,.6-.389,5.859,5.859,0,0,1,3.023-3.023.65.65,0,0,0,.389-.6V242.941a.65.65,0,0,0-.389-.6,5.859,5.859,0,0,1-3.023-3.023.65.65,0,0,0-.6-.389H38.141a.65.65,0,0,0-.6.389,5.859,5.859,0,0,1-3.023,3.023.65.65,0,0,0-.389.6v10.186a.65.65,0,0,0,.389.6A5.859,5.859,0,0,1,37.546,256.745Zm-2.112-13.393a7.151,7.151,0,0,0,3.118-3.118h1.432v.65a.65.65,0,0,0,1.3,0v-.65h19.5v.65a.65.65,0,0,0,1.3,0v-.65h1.432a7.151,7.151,0,0,0,3.118,3.118v9.364a7.151,7.151,0,0,0-3.118,3.118H62.084v-.65a.65.65,0,0,0-1.3,0v.65h-19.5v-.65a.65.65,0,0,0-1.3,0v.65H38.552a7.151,7.151,0,0,0-3.118-3.118v-9.363Z" transform="translate(-31.534 -220.734)" fill="#7851cc"/>
          <path id="Path_118777" data-name="Path 118777" d="M384.651,292.734a.65.65,0,0,0,.65-.65v-1.3a.65.65,0,1,0-1.3,0v1.3A.65.65,0,0,0,384.651,292.734Z" transform="translate(-354.751 -268.034)" fill="#7851cc"/>
          <path id="Path_118778" data-name="Path 118778" d="M384.651,343.934a.65.65,0,0,0,.65-.65v-1.3a.65.65,0,1,0-1.3,0v1.3A.65.65,0,0,0,384.651,343.934Z" transform="translate(-354.751 -315.334)" fill="#7851cc"/>
          <path id="Path_118779" data-name="Path 118779" d="M384.651,395.134a.65.65,0,0,0,.65-.65v-1.3a.65.65,0,1,0-1.3,0v1.3A.65.65,0,0,0,384.651,395.134Z" transform="translate(-354.751 -362.634)" fill="#7851cc"/>
          <path id="Path_118780" data-name="Path 118780" d="M111.584,292.734a.65.65,0,0,0,.65-.65v-1.3a.65.65,0,1,0-1.3,0v1.3A.65.65,0,0,0,111.584,292.734Z" transform="translate(-102.484 -268.034)" fill="#7851cc"/>
          <path id="Path_118781" data-name="Path 118781" d="M111.584,343.934a.65.65,0,0,0,.65-.65v-1.3a.65.65,0,1,0-1.3,0v1.3A.65.65,0,0,0,111.584,343.934Z" transform="translate(-102.484 -315.334)" fill="#7851cc"/>
          <path id="Path_118782" data-name="Path 118782" d="M111.584,395.134a.65.65,0,0,0,.65-.65v-1.3a.65.65,0,1,0-1.3,0v1.3A.65.65,0,0,0,111.584,395.134Z" transform="translate(-102.484 -362.634)" fill="#7851cc"/>
          <path id="Path_118783" data-name="Path 118783" d="M212.617,116.391l-1.22-.448a.65.65,0,0,0-.448,1.22l1.22.448a.65.65,0,1,0,.448-1.22Z" transform="translate(-194.487 -107.074)" fill="#7851cc"/>
          <path id="Path_118784" data-name="Path 118784" d="M260.673,134.043l-1.22-.448a.65.65,0,1,0-.448,1.22l1.22.448a.65.65,0,0,0,.448-1.22Z" transform="translate(-238.882 -123.381)" fill="#7851cc"/>
          <path id="Path_118785" data-name="Path 118785" d="M308.736,151.693l-1.22-.448a.65.65,0,1,0-.448,1.22l1.22.449a.65.65,0,0,0,.448-1.22Z" transform="translate(-283.284 -139.687)" fill="#7851cc"/>
        </g>
      </g>
    </g>
    <g id="Rectangle_25219" data-name="Rectangle 25219" transform="translate(981 648)" fill="#f5f7ff" stroke="#7851cc" stroke-width="1">
      <rect width="17.509" height="17.509" rx="8.754" stroke="none"/>
      <rect x="0.5" y="0.5" width="16.509" height="16.509" rx="8.254" fill="none"/>
    </g>
    <g id="reload-symbol" transform="translate(980.242 651.999)">
      <g id="Group_43433" data-name="Group 43433" transform="translate(4.758 0)">
        <path id="Path_121868" data-name="Path 121868" d="M10.1,1.6,8.821,2.881a.189.189,0,0,1-.268,0l-.018-.019V1.921a2.977,2.977,0,0,0-1.187,5.6.5.5,0,1,1-.474.891A3.987,3.987,0,0,1,8.535.909V.074L8.553.056a.189.189,0,0,1,.268,0L10.1,1.334A.189.189,0,0,1,10.1,1.6Z" transform="translate(-4.758 0)" fill="#7851cc"/>
        <path id="Path_121869" data-name="Path 121869" d="M41.217,20.147l-1.279-1.279a.189.189,0,0,1,0-.267l1.279-1.279a.189.189,0,0,1,.268,0l.018.018v.941a2.977,2.977,0,0,0,1.187-5.6.5.5,0,1,1,.474-.891,3.986,3.986,0,0,1-1.661,7.5v.835l-.018.018A.19.19,0,0,1,41.217,20.147Z" transform="translate(-36.604 -10.638)" fill="#7851cc"/>
      </g>
    </g>
  </g>
</svg>
