<svg xmlns="http://www.w3.org/2000/svg" width="65.765" height="53.708" viewBox="0 0 65.765 53.708">
  <g id="distributer-empty-icon" transform="translate(0 -46.933)">
    <g id="Group_42660" data-name="Group 42660" transform="translate(1.095 48.029)">
      <path id="Path_115345" data-name="Path 115345" d="M179.906,388.6H153.6l3.288-9.865h19.73Z" transform="translate(-134.965 -337.082)" fill="#b8c6dc"/>
      <path id="Path_115346" data-name="Path 115346" d="M186.247,410.91H162.133l2.192-6.577h19.73Z" transform="translate(-142.402 -359.393)" fill="#e3e7f2"/>
      <path id="Path_115347" data-name="Path 115347" d="M101.848,56.658V93.925a2.127,2.127,0,0,1-2.041,2.192H44.7a2.127,2.127,0,0,1-2.041-2.192V56.658A2.127,2.127,0,0,1,44.7,54.466H99.807A2.127,2.127,0,0,1,101.848,56.658Z" transform="translate(-38.273 -54.466)" fill="#b8c6dc"/>
      <path id="Path_115348" data-name="Path 115348" d="M67.715,56.658V93.925a2.127,2.127,0,0,1-2.041,2.192H10.567a2.127,2.127,0,0,1-2.041-2.192V56.658a2.127,2.127,0,0,1,2.041-2.192H65.674A2.127,2.127,0,0,1,67.715,56.658Z" transform="translate(-8.525 -54.466)" fill="#fff"/>
      <path id="Path_115349" data-name="Path 115349" d="M91.113,56.658V93.925a2.094,2.094,0,0,1-1.965,2.192H36.081a2.094,2.094,0,0,1-1.965-2.192V56.658a2.094,2.094,0,0,1,1.965-2.192H89.147A2.094,2.094,0,0,1,91.113,56.658Z" transform="translate(-30.827 -54.466)" fill="#e3e7f2"/>
      <rect id="Rectangle_23739" data-name="Rectangle 23739" width="59.189" height="32.883" transform="translate(4.386 4.384)" fill="#b8c6dc"/>
      <rect id="Rectangle_23740" data-name="Rectangle 23740" width="56.997" height="32.883" transform="translate(3.289 4.384)" fill="#f5f7ff"/>
      <g id="Group_42659" data-name="Group 42659" transform="translate(3.29 7.68)">
        <path id="Path_115350" data-name="Path 115350" d="M35.231,123.018a1.1,1.1,0,0,1-.775-1.871l6.577-6.577a1.1,1.1,0,0,1,1.55,1.55L36.006,122.7A1.093,1.093,0,0,1,35.231,123.018Z" transform="translate(-34.135 -114.256)" fill="#84b5cb"/>
        <path id="Path_115351" data-name="Path 115351" d="M35.231,129.594a1.1,1.1,0,0,1-.775-1.871L47.609,114.57a1.1,1.1,0,0,1,1.55,1.55L36.006,129.273A1.093,1.093,0,0,1,35.231,129.594Z" transform="translate(-34.135 -114.256)" fill="#84b5cb"/>
        <path id="Path_115352" data-name="Path 115352" d="M410.7,259.455a1.1,1.1,0,0,1-.775-1.871l6.577-6.576a1.1,1.1,0,1,1,1.55,1.55l-6.577,6.577A1.092,1.092,0,0,1,410.7,259.455Z" transform="translate(-361.374 -233.156)" fill="#84b5cb"/>
        <path id="Path_115353" data-name="Path 115353" d="M359.5,214.832a1.1,1.1,0,0,1-.775-1.871l13.153-13.153a1.1,1.1,0,1,1,1.55,1.55l-13.153,13.153A1.092,1.092,0,0,1,359.5,214.832Z" transform="translate(-316.75 -188.533)" fill="#84b5cb"/>
      </g>
    </g>
    <g id="Group_42662" data-name="Group 42662" transform="translate(0 46.933)">
      <path id="Path_115354" data-name="Path 115354" d="M2.192,72.533V109.8H0V72.533Z" transform="translate(0 -69.245)" fill="#fff"/>
      <g id="Group_42661" data-name="Group 42661">
        <path id="Path_115355" data-name="Path 115355" d="M1.146,134.457a1.155,1.155,0,0,0,.778-.318,1.111,1.111,0,0,0,0-1.556l-.164-.132a.835.835,0,0,0-.2-.1.7.7,0,0,0-.2-.065,1.6,1.6,0,0,0-.219-.022,1.151,1.151,0,0,0-.778.318,1.131,1.131,0,0,0,0,1.556,1.135,1.135,0,0,0,.361.23A1.094,1.094,0,0,0,1.146,134.457Z" transform="translate(-0.05 -121.304)" fill="#666d7b"/>
        <path id="Path_115356" data-name="Path 115356" d="M35.231,124.018a1.092,1.092,0,0,0,.775-.321l6.577-6.577a1.1,1.1,0,0,0-1.55-1.55l-6.577,6.577a1.1,1.1,0,0,0,.775,1.871Z" transform="translate(-29.751 -106.48)" fill="#666d7b"/>
        <path id="Path_115357" data-name="Path 115357" d="M34.454,130.257a1.1,1.1,0,0,0,1.55,0L49.157,117.1a1.1,1.1,0,0,0-1.55-1.55L34.454,128.707a1.1,1.1,0,0,0,0,1.55Z" transform="translate(-29.749 -106.464)" fill="#666d7b"/>
        <path id="Path_115358" data-name="Path 115358" d="M416.45,252.008l-6.577,6.577a1.1,1.1,0,1,0,1.55,1.55L418,253.558a1.1,1.1,0,1,0-1.55-1.55Z" transform="translate(-356.94 -225.38)" fill="#666d7b"/>
        <path id="Path_115359" data-name="Path 115359" d="M373.392,200.855a1.1,1.1,0,0,0-1.55,0l-13.153,13.153a1.1,1.1,0,1,0,1.55,1.55L373.392,202.4a1.1,1.1,0,0,0,0-1.55Z" transform="translate(-312.332 -180.804)" fill="#666d7b"/>
        <path id="Path_115360" data-name="Path 115360" d="M62.477,46.933H3.288A3.292,3.292,0,0,0,0,50.221v4.384a1.1,1.1,0,0,0,2.192,0v-1.1H63.573V84.2H2.192V63.374a1.1,1.1,0,0,0-2.192,0V87.488a3.292,3.292,0,0,0,3.288,3.288H21.5L18.94,98.449H15.345a1.1,1.1,0,1,0,0,2.192H50.42a1.1,1.1,0,1,0,0-2.192H46.826l-2.558-7.673H62.477a3.292,3.292,0,0,0,3.288-3.288V50.221A3.292,3.292,0,0,0,62.477,46.933ZM2.192,51.317v-1.1a1.1,1.1,0,0,1,1.1-1.1H62.477a1.1,1.1,0,0,1,1.1,1.1v1.1ZM44.515,98.449H21.251l2.557-7.673h18.15Zm17.962-9.865H3.288a1.1,1.1,0,0,1-1.1-1.1v-1.1H63.573v1.1A1.1,1.1,0,0,1,62.477,88.584Z" transform="translate(0 -46.933)" fill="#666d7b"/>
      </g>
    </g>
  </g>
</svg>
