<svg id="document" xmlns="http://www.w3.org/2000/svg" width="28.667" height="37.392" viewBox="0 0 28.667 37.392">
  <path id="Path_115463" data-name="Path 115463" d="M.109,57.525V89.931a.623.623,0,0,0,.623.623H24.414a.623.623,0,0,0,.623-.623V63.757c0-.014-.007-.026-.008-.039a.588.588,0,0,0-.032-.16c-.007-.02-.012-.039-.021-.059a.617.617,0,0,0-.125-.183L18.62,57.085a.6.6,0,0,0-.183-.125.569.569,0,0,0-.057-.021.618.618,0,0,0-.161-.032c-.011,0-.023,0-.036,0H.733A.623.623,0,0,0,.109,57.525Zm22.8,5.609h-4.1v-4.1ZM1.356,58.149h16.2v5.609a.623.623,0,0,0,.623.623h5.609V89.308H1.356Zm0,0" transform="translate(-0.109 -53.163)" fill="#195190"/>
  <path id="Path_115464" data-name="Path 115464" d="M79.443,32.406v1.246h1.87a.623.623,0,0,0,.623-.623V.623A.623.623,0,0,0,81.313,0H57.631a.623.623,0,0,0-.623.623v1.87h1.247V1.246H80.689v31.16Zm0,0" transform="translate(-53.269)" fill="#195190"/>
  <path id="Path_115465" data-name="Path 115465" d="M75.977,189.668H90.933v1.246H75.977Zm0,0" transform="translate(-70.991 -177.204)" fill="#195190"/>
  <path id="Path_115466" data-name="Path 115466" d="M75.977,132.766h4.986v1.247H75.977Zm0,0" transform="translate(-70.991 -124.041)" fill="#195190"/>
  <path id="Path_115467" data-name="Path 115467" d="M75.977,246.566h9.971v1.247H75.977Zm0,0" transform="translate(-70.991 -230.363)" fill="#195190"/>
  <path id="Path_115468" data-name="Path 115468" d="M246.676,246.566h3.739v1.247h-3.739Zm0,0" transform="translate(-230.473 -230.363)" fill="#195190"/>
  <path id="Path_115469" data-name="Path 115469" d="M75.977,303.465H90.933v1.247H75.977Zm0,0" transform="translate(-70.991 -283.523)" fill="#195190"/>
  <path id="Path_115470" data-name="Path 115470" d="M75.977,417.266H90.933v1.247H75.977Zm0,0" transform="translate(-70.991 -389.845)" fill="#195190"/>
  <path id="Path_115471" data-name="Path 115471" d="M161.324,360.367h9.348v1.246h-9.348Zm0,0" transform="translate(-150.73 -336.686)" fill="#195190"/>
  <path id="Path_115472" data-name="Path 115472" d="M75.977,360.367h4.362v1.246H75.977Zm0,0" transform="translate(-70.991 -336.686)" fill="#195190"/>
  <path id="Path_115473" data-name="Path 115473" d="M75.977,474.168h2.493v1.246H75.977Zm0,0" transform="translate(-70.991 -443.008)" fill="#195190"/>
  <path id="Path_115474" data-name="Path 115474" d="M132.875,474.168h11.217v1.246H132.875Zm0,0" transform="translate(-124.15 -443.008)" fill="#195190"/>
</svg>
