<svg xmlns="http://www.w3.org/2000/svg" width="17.835" height="17.835" viewBox="0 0 17.835 17.835">
  <g id="drag" transform="translate(-205.846 0)">
    <path id="Path_121883" data-name="Path 121883" d="M308.505,56.3l-1.866-1.866a1.1,1.1,0,0,0-1.565,1.544h-2.46a1.1,1.1,0,1,0,0,2.2h2.46a1.1,1.1,0,0,0,1.565,1.544l1.866-1.866A1.1,1.1,0,0,0,308.505,56.3Z" transform="translate(-85.146 -48.161)" fill="#959ba5"/>
    <path id="Path_121884" data-name="Path 121884" d="M208.035,59.722a1.1,1.1,0,0,0,1.565-1.544h2.46a1.1,1.1,0,1,0,0-2.2H209.6a1.1,1.1,0,0,0-1.565-1.544L206.168,56.3a1.1,1.1,0,0,0,0,1.555Z" transform="translate(0 -48.161)" fill="#959ba5"/>
    <path id="Path_121885" data-name="Path 121885" d="M262.925,95.666a1.1,1.1,0,0,0-1.1,1.1v2.46a1.1,1.1,0,0,0-1.544,1.565l1.866,1.866a1.1,1.1,0,0,0,1.555,0l1.866-1.866a1.1,1.1,0,0,0-1.544-1.565v-2.46A1.1,1.1,0,0,0,262.925,95.666Z" transform="translate(-48.162 -85.145)" fill="#959ba5"/>
    <path id="Path_121886" data-name="Path 121886" d="M261.826,3.754v2.46a1.1,1.1,0,0,0,2.2,0V3.754a1.1,1.1,0,0,0,1.544-1.565L263.7.322a1.1,1.1,0,0,0-1.555,0l-1.866,1.866a1.1,1.1,0,0,0,1.544,1.565Z" transform="translate(-48.162)" fill="#959ba5"/>
  </g>
</svg>
