<svg xmlns="http://www.w3.org/2000/svg" width="38.095" height="29.092" viewBox="0 0 38.095 29.092">
  <g id="email" transform="translate(0 -60.5)" opacity="0.699">
    <g id="Group_40611" data-name="Group 40611" transform="translate(0 60.5)">
      <path id="Path_114282" data-name="Path 114282" d="M36.607,77.688A1.488,1.488,0,0,0,38.1,76.2V66.452A5.959,5.959,0,0,0,32.143,60.5H5.952A5.959,5.959,0,0,0,0,66.452V83.64a5.959,5.959,0,0,0,5.952,5.952H32.143A5.959,5.959,0,0,0,38.1,83.64a1.488,1.488,0,1,0-2.976,0,2.98,2.98,0,0,1-2.976,2.976H5.952A2.98,2.98,0,0,1,2.976,83.64V66.768L15.9,74.807a5.916,5.916,0,0,0,6.286,0l12.928-8.039V76.2A1.488,1.488,0,0,0,36.607,77.688ZM20.619,72.279a2.958,2.958,0,0,1-3.143,0L4.218,64.035a2.96,2.96,0,0,1,1.734-.559H32.143a2.96,2.96,0,0,1,1.734.559Z" transform="translate(0 -60.5)" fill="#707070"/>
    </g>
  </g>
</svg>
