<svg id="emplacements-empty-icon" xmlns="http://www.w3.org/2000/svg" width="62.504" height="62.504" viewBox="0 0 62.504 62.504">
  <path id="Path_115205" data-name="Path 115205" d="M25.327,375.467c-9.9,1.23-16.793,4.651-16.793,7.813,0,4.315,12.826,7.813,28.648,7.813s28.648-3.5,28.648-7.813c0-3.162-6.889-6.583-16.793-7.813" transform="translate(-7.492 -329.631)" fill="#e8edfc"/>
  <path id="Path_115206" data-name="Path 115206" d="M262.734,375.467h-2.209c9.9,1.23,16.793,4.651,16.793,7.813,0,4.245-12.418,7.7-27.887,7.808.267,0,.533.005.8.005,16.685,0,30.21-3.5,30.21-7.813C280.443,380.118,273.178,376.7,262.734,375.467Z" transform="translate(-218.981 -329.631)" fill="#b8c6dc"/>
  <path id="Path_115207" data-name="Path 115207" d="M26.242,375.467h2.209c-9.9,1.23-16.793,4.651-16.793,7.813,0,4.245,12.418,7.7,27.887,7.808-.267,0-.533.005-.8.005-16.685,0-30.21-3.5-30.21-7.813C8.532,380.118,15.8,376.7,26.242,375.467Z" transform="translate(-7.49 -329.631)" fill="#fff"/>
  <path id="Path_115208" data-name="Path 115208" d="M118.317,62.7,103.169,40.828c-5.654-7.538-4.9-20.085,1.759-26.748h0a18.935,18.935,0,0,1,26.778,0h0c6.663,6.663,7.413,19.209,1.759,26.748Z" transform="translate(-87.25 -7.492)" fill="#b8c6dc"/>
  <path id="Path_115209" data-name="Path 115209" d="M123.2,62.7l-14.26-21.876c-5.654-7.539-4.9-20.085,1.759-26.748h0c7.395-7.395,15.186-7.395,22.581,0h0c6.663,6.663,7.413,19.209,1.759,26.748Z" transform="translate(-92.314 -7.492)" fill="#e8edfc"/>
  <circle id="Ellipse_8624" data-name="Ellipse 8624" cx="6.25" cy="6.25" r="6.25" transform="translate(25.002 13.542)" fill="#b8c6dc"/>
  <ellipse id="Ellipse_8625" data-name="Ellipse 8625" cx="4.688" cy="6.25" rx="4.688" ry="6.25" transform="translate(24.637 13.542)" fill="#e8edfc"/>
  <path id="Path_115210" data-name="Path 115210" d="M104.929,14.217h0A18.863,18.863,0,0,1,119.1,8.708c-3.592.188-7.179,2.01-10.677,5.509h0c-6.663,6.663-7.413,19.209-1.759,26.748l11.758,21.727-.1.149L103.17,40.965C97.516,33.426,98.266,20.88,104.929,14.217Z" transform="translate(-87.25 -7.629)" fill="#fff"/>
  <g id="Group_42334" data-name="Group 42334">
    <path id="Path_115211" data-name="Path 115211" d="M203.559,116.984a7.292,7.292,0,1,1,7.292-7.292,7.292,7.292,0,0,1-7.292,7.292Zm0-12.5a5.209,5.209,0,1,0,5.209,5.209,5.209,5.209,0,0,0-5.209-5.209Z" transform="translate(-172.307 -89.899)" fill="#666d7b"/>
    <path id="Path_115212" data-name="Path 115212" d="M110.825,56.254a1.043,1.043,0,0,1-.857-.449L94.82,33.929c-5.971-7.96-5.1-21.1,1.879-28.077a19.976,19.976,0,0,1,28.251,0c6.983,6.982,7.85,20.117,1.856,28.108L111.682,55.8A1.043,1.043,0,0,1,110.825,56.254Zm0-54.17A17.778,17.778,0,0,0,98.172,7.325c-6.3,6.3-7.078,18.164-1.662,25.386l14.315,20.671,14.291-20.639c5.44-7.254,4.663-19.116-1.639-25.418A17.777,17.777,0,0,0,110.825,2.084Z" transform="translate(-79.757)" fill="#666d7b"/>
    <path id="Path_115213" data-name="Path 115213" d="M31.252,384.642C10.735,384.642,0,380.187,0,375.787c0-3.918,7.661-7.556,18.629-8.848a1.042,1.042,0,1,1,.244,2.069c-10.955,1.29-16.79,4.765-16.79,6.778,0,2.827,11.1,6.771,29.168,6.771s29.168-3.944,29.168-6.771c0-2.013-5.835-5.488-16.79-6.778a1.042,1.042,0,1,1,.244-2.069c10.968,1.292,18.629,4.93,18.629,8.848C62.5,380.187,51.769,384.642,31.252,384.642Z" transform="translate(0 -322.138)" fill="#666d7b"/>
  </g>
</svg>
