<svg xmlns="http://www.w3.org/2000/svg" width="40.536" height="60.809" viewBox="0 0 40.536 60.809">
  <g id="clipboard" transform="translate(-0.02)">
    <path id="Path_118633" data-name="Path 118633" d="M10.581,42.711H45.037a2.027,2.027,0,0,1,2.027,2.027V95.407a2.027,2.027,0,0,1-2.027,2.027H10.581a2.027,2.027,0,0,1-2.027-2.027V44.738A2.027,2.027,0,0,1,10.581,42.711Zm0,0" transform="translate(-7.522 -37.639)" fill="#a2b2cb"/>
    <path id="Path_118634" data-name="Path 118634" d="M10.581,42.711H42a2.027,2.027,0,0,1,2.027,2.027V95.407A2.027,2.027,0,0,1,42,97.434H10.581a2.027,2.027,0,0,1-2.027-2.027V44.738A2.027,2.027,0,0,1,10.581,42.711Zm0,0" transform="translate(-7.522 -37.639)" fill="#fff"/>
    <path id="Path_118635" data-name="Path 118635" d="M67.009,76.844h5.067a1.013,1.013,0,0,1,1.013,1.013v44.589a1.013,1.013,0,0,1-1.013,1.013H43.7a1.013,1.013,0,0,1-1.014-1.013V77.857A1.013,1.013,0,0,1,43.7,76.844Zm0,0" transform="translate(-37.601 -67.718)" fill="#b8c6dc"/>
    <path id="Path_118636" data-name="Path 118636" d="M64.568,76.844h4.56a.967.967,0,0,1,.912,1.013v44.589a.967.967,0,0,1-.912,1.013H43.59a.967.967,0,0,1-.912-1.013V77.857a.967.967,0,0,1,.912-1.013Zm0,0" transform="translate(-37.592 -67.718)" fill="#e8edfc"/>
    <path id="Path_118637" data-name="Path 118637" d="M136.555,12.628a4.054,4.054,0,1,1,8.107,0" transform="translate(-120.321 -7.556)" fill="#b8c6dc"/>
    <path id="Path_118638" data-name="Path 118638" d="M93.887,42.711h18.241v4.054a2.027,2.027,0,0,1-2.027,2.027H95.913a2.027,2.027,0,0,1-2.027-2.027Zm0,0" transform="translate(-82.72 -37.639)" fill="#b8c6dc"/>
    <path id="Path_118639" data-name="Path 118639" d="M111.015,183.719l-1.433-1.433a1.013,1.013,0,0,0-1.434,0l-5.371,5.371a1.014,1.014,0,0,1-1.433,0l-5.371-5.371a1.013,1.013,0,0,0-1.434,0l-1.433,1.433a1.013,1.013,0,0,0,0,1.434l5.371,5.371a1.013,1.013,0,0,1,0,1.433l-5.371,5.371a1.013,1.013,0,0,0,0,1.433l1.433,1.433a1.014,1.014,0,0,0,1.434,0l5.371-5.371a1.014,1.014,0,0,1,1.433,0l5.371,5.371a1.014,1.014,0,0,0,1.434,0l1.433-1.433a1.013,1.013,0,0,0,0-1.433l-5.371-5.371a1.013,1.013,0,0,1,0-1.433l5.371-5.371a1.013,1.013,0,0,0,0-1.434Zm0,0" transform="translate(-81.77 -160.376)" fill="#e3e7f2"/>
    <path id="Path_118640" data-name="Path 118640" d="M136.555,12.662h3.04a4.053,4.053,0,0,1,2.533-3.75,4.046,4.046,0,0,0-5.574,3.75Zm0,0" transform="translate(-120.321 -7.589)" fill="#fff"/>
    <path id="Path_118641" data-name="Path 118641" d="M11.6,95.407V44.738a2.027,2.027,0,0,1,2.027-2.027h-3.04a2.027,2.027,0,0,0-2.027,2.027V95.407a2.027,2.027,0,0,0,2.027,2.027h3.04A2.027,2.027,0,0,1,11.6,95.407Zm0,0" transform="translate(-7.522 -37.639)" fill="#fff"/>
    <path id="Path_118642" data-name="Path 118642" d="M.02,68.309H2.047V81.483H.02Zm0,0" transform="translate(0 -60.196)" fill="#fff"/>
    <g id="Group_42922" data-name="Group 42922" transform="translate(0.02)">
      <path id="Path_118643" data-name="Path 118643" d="M37.515,4.059H25.253a5.067,5.067,0,0,0-9.931,0H3.06A3.04,3.04,0,0,0,.02,7.1V57.768a3.04,3.04,0,0,0,3.04,3.04H37.515a3.04,3.04,0,0,0,3.04-3.04V7.1A3.04,3.04,0,0,0,37.515,4.059ZM10.34,10.139a3.039,3.039,0,0,0,2.853,2.027H27.381a3.041,3.041,0,0,0,2.854-2.027h4.24V54.728H6.1V10.139Zm9.947-8.107a3.041,3.041,0,0,1,2.854,2.027H17.434A3.041,3.041,0,0,1,20.288,2.032Zm8.107,4.054v3.04a1.013,1.013,0,0,1-1.013,1.013H13.194a1.013,1.013,0,0,1-1.013-1.013V6.085ZM38.529,57.768a1.013,1.013,0,0,1-1.014,1.014H3.06a1.013,1.013,0,0,1-1.013-1.014V7.1A1.013,1.013,0,0,1,3.06,6.085h7.094V8.112H5.087A1.013,1.013,0,0,0,4.073,9.126V55.741a1.013,1.013,0,0,0,1.013,1.014h30.4A1.013,1.013,0,0,0,36.5,55.741V9.126a1.013,1.013,0,0,0-1.014-1.014H30.421V6.085h7.094A1.013,1.013,0,0,1,38.529,7.1Zm0,0" transform="translate(-0.02)" fill="#666d7b"/>
      <path id="Path_118644" data-name="Path 118644" d="M69.3,386.07h3.04a1.013,1.013,0,0,0,0-2.027H69.3a1.013,1.013,0,0,0,0,2.027Zm0,0" transform="translate(-60.182 -338.435)" fill="#666d7b"/>
      <path id="Path_118645" data-name="Path 118645" d="M144.234,384.043h-15.2a1.013,1.013,0,1,0,0,2.027h15.2a1.013,1.013,0,1,0,0-2.027Zm0,0" transform="translate(-112.819 -338.435)" fill="#666d7b"/>
      <path id="Path_118646" data-name="Path 118646" d="M234.475,418.176h-3.04a1.013,1.013,0,0,0,0,2.027h3.04a1.013,1.013,0,1,0,0-2.027Zm0,0" transform="translate(-203.06 -368.515)" fill="#666d7b"/>
      <path id="Path_118647" data-name="Path 118647" d="M69.3,420.2H84.5a1.013,1.013,0,1,0,0-2.027H69.3a1.013,1.013,0,0,0,0,2.027Zm0,0" transform="translate(-60.182 -368.515)" fill="#666d7b"/>
      <path id="Path_118648" data-name="Path 118648" d="M69.3,121.535h3.04a1.013,1.013,0,0,0,0-2.027H69.3a1.013,1.013,0,0,0,0,2.027Zm0,0" transform="translate(-60.182 -105.315)" fill="#666d7b"/>
      <path id="Path_118649" data-name="Path 118649" d="M129.033,121.535h15.2a1.013,1.013,0,1,0,0-2.027h-15.2a1.013,1.013,0,1,0,0,2.027Zm0,0" transform="translate(-112.819 -105.315)" fill="#666d7b"/>
      <path id="Path_118650" data-name="Path 118650" d="M80.993,173.083a1.013,1.013,0,0,0,0,1.432l6.091,6.092L80.993,186.7a1.013,1.013,0,0,0,0,1.433L83.859,191a1.013,1.013,0,0,0,1.433,0l6.091-6.088L97.475,191a1.013,1.013,0,0,0,1.433,0l2.866-2.865a1.013,1.013,0,0,0,0-1.433l-6.091-6.092,6.091-6.091a1.013,1.013,0,0,0,0-1.433l-2.866-2.871a1.013,1.013,0,0,0-1.433,0l-6.091,6.092-6.091-6.092a1.013,1.013,0,0,0-1.433,0Zm9.674,5.371a1.014,1.014,0,0,0,1.433,0l6.091-6.092,1.433,1.433-6.091,6.092a1.013,1.013,0,0,0,0,1.432l6.091,6.092-1.433,1.433L92.1,182.752a1.014,1.014,0,0,0-1.433,0l-6.092,6.092-1.433-1.433,6.091-6.092a1.013,1.013,0,0,0,0-1.432l-6.091-6.092,1.433-1.433Zm0,0" transform="translate(-71.115 -149.74)" fill="#666d7b"/>
    </g>
  </g>
</svg>
