<svg id="excel" xmlns="http://www.w3.org/2000/svg" width="21.021" height="19.707" viewBox="0 0 21.021 19.707">
  <g id="Group_43548" data-name="Group 43548">
    <g id="Group_43547" data-name="Group 43547">
      <path id="Path_121913" data-name="Path 121913" d="M11.587,16.16a.661.661,0,0,0-.54-.139L.536,17.992A.655.655,0,0,0,0,18.637V33.089a.656.656,0,0,0,.536.645L11.047,35.7a.628.628,0,0,0,.121.012.657.657,0,0,0,.657-.657V16.666A.655.655,0,0,0,11.587,16.16ZM10.511,34.267l-9.2-1.724V19.182l9.2-1.724Z" transform="translate(0 -16.01)" fill="#34a8a6"/>
    </g>
  </g>
  <g id="Group_43550" data-name="Group 43550" transform="translate(10.511 2.627)">
    <g id="Group_43549" data-name="Group 43549">
      <path id="Path_121914" data-name="Path 121914" d="M265.854,79.99h-9.2a.657.657,0,1,0,0,1.314h8.54V93.128h-8.54a.657.657,0,1,0,0,1.314h9.2a.657.657,0,0,0,.657-.657V80.647A.657.657,0,0,0,265.854,79.99Z" transform="translate(-256 -79.99)" fill="#34a8a6"/>
    </g>
  </g>
  <g id="Group_43552" data-name="Group 43552" transform="translate(10.511 5.255)">
    <g id="Group_43551" data-name="Group 43551">
      <path id="Path_121915" data-name="Path 121915" d="M259.285,143.99h-2.628a.657.657,0,0,0,0,1.314h2.628a.657.657,0,1,0,0-1.314Z" transform="translate(-256 -143.99)" fill="#34a8a6"/>
    </g>
  </g>
  <g id="Group_43554" data-name="Group 43554" transform="translate(10.511 7.882)">
    <g id="Group_43553" data-name="Group 43553">
      <path id="Path_121916" data-name="Path 121916" d="M259.285,207.99h-2.628a.657.657,0,0,0,0,1.314h2.628a.657.657,0,1,0,0-1.314Z" transform="translate(-256 -207.99)" fill="#34a8a6"/>
    </g>
  </g>
  <g id="Group_43556" data-name="Group 43556" transform="translate(10.511 10.51)">
    <g id="Group_43555" data-name="Group 43555">
      <path id="Path_121917" data-name="Path 121917" d="M259.285,271.99h-2.628a.657.657,0,1,0,0,1.314h2.628a.657.657,0,1,0,0-1.314Z" transform="translate(-256 -271.99)" fill="#34a8a6"/>
    </g>
  </g>
  <g id="Group_43558" data-name="Group 43558" transform="translate(10.511 13.138)">
    <g id="Group_43557" data-name="Group 43557">
      <path id="Path_121918" data-name="Path 121918" d="M259.285,335.99h-2.628a.657.657,0,1,0,0,1.314h2.628a.657.657,0,0,0,0-1.314Z" transform="translate(-256 -335.99)" fill="#34a8a6"/>
    </g>
  </g>
  <g id="Group_43560" data-name="Group 43560" transform="translate(15.766 5.255)">
    <g id="Group_43559" data-name="Group 43559">
      <path id="Path_121919" data-name="Path 121919" d="M385.971,143.99h-1.314a.657.657,0,1,0,0,1.314h1.314a.657.657,0,0,0,0-1.314Z" transform="translate(-384 -143.99)" fill="#34a8a6"/>
    </g>
  </g>
  <g id="Group_43562" data-name="Group 43562" transform="translate(15.766 7.882)">
    <g id="Group_43561" data-name="Group 43561">
      <path id="Path_121920" data-name="Path 121920" d="M385.971,207.99h-1.314a.657.657,0,1,0,0,1.314h1.314a.657.657,0,0,0,0-1.314Z" transform="translate(-384 -207.99)" fill="#34a8a6"/>
    </g>
  </g>
  <g id="Group_43564" data-name="Group 43564" transform="translate(15.766 10.51)">
    <g id="Group_43563" data-name="Group 43563">
      <path id="Path_121921" data-name="Path 121921" d="M385.971,271.99h-1.314a.657.657,0,1,0,0,1.314h1.314a.657.657,0,0,0,0-1.314Z" transform="translate(-384 -271.99)" fill="#34a8a6"/>
    </g>
  </g>
  <g id="Group_43566" data-name="Group 43566" transform="translate(15.766 13.138)">
    <g id="Group_43565" data-name="Group 43565">
      <path id="Path_121922" data-name="Path 121922" d="M385.971,335.99h-1.314a.657.657,0,1,0,0,1.314h1.314a.657.657,0,0,0,0-1.314Z" transform="translate(-384 -335.99)" fill="#34a8a6"/>
    </g>
  </g>
  <g id="Group_43568" data-name="Group 43568" transform="translate(3.285 6.568)">
    <g id="Group_43567" data-name="Group 43567">
      <path id="Path_121923" data-name="Path 121923" d="M85.755,181.464l-4.6-5.255a.657.657,0,0,0-.989.864l4.6,5.255a.657.657,0,0,0,.989-.865Z" transform="translate(-80.004 -175.984)" fill="#34a8a6"/>
    </g>
  </g>
  <g id="Group_43570" data-name="Group 43570" transform="translate(3.285 5.912)">
    <g id="Group_43569" data-name="Group 43569">
      <path id="Path_121924" data-name="Path 121924" d="M85.658,160.131a.657.657,0,0,0-.922.114l-4.6,5.912a.657.657,0,0,0,1.037.808l4.6-5.912A.657.657,0,0,0,85.658,160.131Z" transform="translate(-79.999 -159.992)" fill="#34a8a6"/>
    </g>
  </g>
</svg>
