<svg xmlns="http://www.w3.org/2000/svg" width="53.591" height="35.111" viewBox="0 0 53.591 35.111">
  <g id="flag-united-kingdom" transform="translate(0 -88.275)">
    <path id="Path_115198" data-name="Path 115198" d="M49.577,88.276H4.014A4.013,4.013,0,0,0,0,92.29v27.084a4.014,4.014,0,0,0,4.014,4.014H49.577a4.014,4.014,0,0,0,4.014-4.014V92.29A4.013,4.013,0,0,0,49.577,88.276Z" transform="translate(0 -0.001)" fill="#41479b"/>
    <path id="Path_115199" data-name="Path 115199" d="M53.535,91.625a4.014,4.014,0,0,0-3.958-3.35H48.533L31.415,99.49V88.275h-9.24V99.49L5.058,88.275H4.014a4.014,4.014,0,0,0-3.958,3.35l14.63,9.586H0v9.24H14.686L.056,120.036a4.014,4.014,0,0,0,3.958,3.35H5.058l17.118-11.215v11.215h9.24V112.171l17.118,11.215h1.044a4.014,4.014,0,0,0,3.958-3.35L38.9,110.45H53.591v-9.24H38.9Z" fill="#f5f5f5"/>
    <g id="Group_42273" data-name="Group 42273" transform="translate(0 88.275)">
      <path id="Path_115200" data-name="Path 115200" d="M29.567,88.276H24.023V103.06H0V108.6H24.023v14.784h5.544V108.6H53.591V103.06H29.567Z" transform="translate(0 -88.276)" fill="#ff4b55"/>
      <path id="Path_115201" data-name="Path 115201" d="M10.854,312.815l19.53-12.677H26.989L9.224,311.67A4.019,4.019,0,0,0,10.854,312.815Z" transform="translate(-8.259 -277.963)" fill="#ff4b55"/>
      <path id="Path_115202" data-name="Path 115202" d="M317.354,300.138H313.96l18.915,12.278a4.032,4.032,0,0,0,1.286-1.369Z" transform="translate(-281.098 -277.963)" fill="#ff4b55"/>
      <path id="Path_115203" data-name="Path 115203" d="M4.049,97.269l16.51,10.717h3.394L5.245,95.842A4.03,4.03,0,0,0,4.049,97.269Z" transform="translate(-3.625 -95.05)" fill="#ff4b55"/>
      <path id="Path_115204" data-name="Path 115204" d="M303.532,103.317l17.8-11.553a4.02,4.02,0,0,0-1.643-1.137l-19.549,12.69Z" transform="translate(-268.723 -90.381)" fill="#ff4b55"/>
    </g>
  </g>
</svg>
