<svg xmlns="http://www.w3.org/2000/svg" width="39.721" height="34.813" viewBox="0 0 39.721 34.813">
  <g id="gallery" transform="translate(0 -26.576)">
    <g id="Group_42631" data-name="Group 42631" transform="translate(0 26.576)">
      <g id="Group_42630" data-name="Group 42630" transform="translate(0 0)">
        <path id="Path_115343" data-name="Path 115343" d="M178.041,159.668a4.052,4.052,0,1,0,4.052,4.052A4.052,4.052,0,0,0,178.041,159.668Zm0,6.174a2.122,2.122,0,0,1,0-4.245h0a2.122,2.122,0,0,1,0,4.245Z" transform="translate(-157.926 -147.38)" fill="#e6eaff"/>
        <path id="Path_115344" data-name="Path 115344" d="M36.274,29.6,9.938,26.612a3.617,3.617,0,0,0-2.846.82,3.666,3.666,0,0,0-1.4,2.508L5.211,33.9h-1.5A3.876,3.876,0,0,0,0,37.9V57.626a3.666,3.666,0,0,0,3.568,3.761H30.2a3.959,3.959,0,0,0,4.052-3.762v-.772a4.823,4.823,0,0,0,1.833-.772,4,4,0,0,0,1.4-2.6L39.7,33.9A3.907,3.907,0,0,0,36.274,29.6ZM32.318,57.626A2.031,2.031,0,0,1,30.2,59.459H3.715a1.736,1.736,0,0,1-1.787-1.685q0-.074,0-.148V54.057l7.476-5.5A2.315,2.315,0,0,1,12.4,48.7l5.258,4.631A4.534,4.534,0,0,0,20.5,54.395a4.389,4.389,0,0,0,2.315-.627l9.5-5.5v9.357Zm0-11.625L21.8,52.128a2.46,2.46,0,0,1-2.846-.241l-5.306-4.679A4.293,4.293,0,0,0,8.3,47.015L1.931,51.645V37.9a1.947,1.947,0,0,1,1.785-2.074H30.2A2.219,2.219,0,0,1,32.318,37.9V46Zm5.452-12.367,0,.019L35.5,53.237a1.64,1.64,0,0,1-.627,1.3c-.193.193-.627.289-.627.386V37.9a4.148,4.148,0,0,0-4.052-4H7.14l.434-3.762A2.219,2.219,0,0,1,8.3,28.879a2.219,2.219,0,0,1,1.447-.386l26.288,3.039A1.929,1.929,0,0,1,37.771,33.635Z" transform="translate(0 -26.576)" fill="#e6eaff"/>
      </g>
    </g>
  </g>
</svg>
