<svg xmlns="http://www.w3.org/2000/svg" width="74.62" height="58.472" viewBox="0 0 74.62 58.472">
  <g id="group-empty-icon" transform="translate(0 0)">
    <path id="Path_115141" data-name="Path 115141" d="M67.772,54.729v1a1.249,1.249,0,0,1-1.244,1.244H23L38.56,2.5a13.021,13.021,0,0,1,4.96-1.389A14.955,14.955,0,0,1,45.386,1c11.63,0,12.412,9.551,12.437,9.964v6.165l.325.364a3.071,3.071,0,0,1,.918,2.05v4.29A3.2,3.2,0,0,1,57.91,26.3l-.325.272-.112.389A17.493,17.493,0,0,1,53.2,34.233l-.35.364v3.916a3.986,3.986,0,0,0,2.1,3.435l8.332,5.222A8.585,8.585,0,0,1,67.772,54.729Zm0,0" transform="translate(5.604 0.245)" fill="#b8c6dc"/>
    <path id="Path_115142" data-name="Path 115142" d="M64.041,54.709v1A1.249,1.249,0,0,1,62.8,56.949H23L38.56,2.475a13.021,13.021,0,0,1,4.96-1.389c9.852.942,10.547,9.473,10.571,9.862v6.165l.325.364a3.071,3.071,0,0,1,.918,2.05v4.29a3.2,3.2,0,0,1-1.156,2.463l-.325.272-.112.389a17.493,17.493,0,0,1-4.275,7.273l-.35.364v3.916a3.986,3.986,0,0,0,2.1,3.435l8.332,5.222A8.585,8.585,0,0,1,64.041,54.709Zm0,0" transform="translate(5.604 0.265)" fill="#e8edfc"/>
    <path id="Path_115143" data-name="Path 115143" d="M56.772,54.731v1a1.249,1.249,0,0,1-1.244,1.244H12L27.56,2.5a13.021,13.021,0,0,1,4.96-1.389,14.955,14.955,0,0,1,1.866-.1A14.632,14.632,0,0,1,41.241,2.5a10.915,10.915,0,0,1,5.582,8.472v6.165l.325.364a3.071,3.071,0,0,1,.918,2.05v4.29A3.2,3.2,0,0,1,46.91,26.3l-.325.272-.112.389A17.493,17.493,0,0,1,42.2,34.234l-.35.364v3.916a3.986,3.986,0,0,0,2.1,3.435l8.332,5.222A8.585,8.585,0,0,1,56.772,54.731Zm0,0" transform="translate(2.924 0.243)" fill="#b8c6dc"/>
    <path id="Path_115144" data-name="Path 115144" d="M53.041,54.709v1A1.249,1.249,0,0,1,51.8,56.949H12L27.56,2.475a13.021,13.021,0,0,1,4.96-1.389A13.162,13.162,0,0,1,37.51,2.475a10.915,10.915,0,0,1,5.582,8.472v6.165l.325.364a3.071,3.071,0,0,1,.918,2.05v4.29a3.2,3.2,0,0,1-1.156,2.463l-.325.272-.112.389a17.493,17.493,0,0,1-4.275,7.273l-.35.364v3.916a3.986,3.986,0,0,0,2.1,3.435l8.332,5.222A8.585,8.585,0,0,1,53.041,54.709Zm0,0" transform="translate(2.924 0.265)" fill="#e8edfc"/>
    <path id="Path_115145" data-name="Path 115145" d="M45.772,54.729v1a1.249,1.249,0,0,1-1.244,1.244H2.244A1.249,1.249,0,0,1,1,55.725v-1A8.622,8.622,0,0,1,5.489,47.17l8.332-5.222a4,4,0,0,0,2.1-3.435V34.6l-.35-.364A17.493,17.493,0,0,1,11.3,26.961l-.112-.389-.311-.257a3.179,3.179,0,0,1-1.171-2.478v-4.29a3.062,3.062,0,0,1,.918-2.065l.325-.35V10.953c.024-.311.685-8.89,10.571-9.847A14.955,14.955,0,0,1,23.386,1c11.63,0,12.412,9.551,12.437,9.964v6.165l.325.364a3.071,3.071,0,0,1,.918,2.05v4.29A3.179,3.179,0,0,1,35.9,26.315l-.311.257-.112.389A17.493,17.493,0,0,1,31.2,34.233l-.35.364v3.916a3.986,3.986,0,0,0,2.1,3.435l8.332,5.222A8.585,8.585,0,0,1,45.772,54.729Zm0,0" transform="translate(0.244 0.245)" fill="#b8c6dc"/>
    <path id="Path_115146" data-name="Path 115146" d="M42.041,54.709v1A1.249,1.249,0,0,1,40.8,56.949H2.244A1.249,1.249,0,0,1,1,55.705v-1A8.622,8.622,0,0,1,5.489,47.15l8.332-5.222a4,4,0,0,0,2.1-3.435V34.578l-.35-.364A17.493,17.493,0,0,1,11.3,26.941l-.112-.389-.311-.257a3.179,3.179,0,0,1-1.171-2.478v-4.29a3.062,3.062,0,0,1,.918-2.065l.325-.35V10.933c.024-.311.685-8.89,10.571-9.847,9.852.942,10.547,9.473,10.571,9.862v6.165l.325.364a3.071,3.071,0,0,1,.918,2.05v4.29a3.179,3.179,0,0,1-1.171,2.478l-.311.257-.112.389a17.493,17.493,0,0,1-4.275,7.273l-.35.364v3.916a3.986,3.986,0,0,0,2.1,3.435l8.332,5.222A8.585,8.585,0,0,1,42.041,54.709Zm0,0" transform="translate(0.244 0.265)" fill="#e8edfc"/>
    <path id="Path_115147" data-name="Path 115147" d="M4.731,55.725v-1A8.622,8.622,0,0,1,9.22,47.17l8.332-5.222a4,4,0,0,0,2.1-3.435V34.6l-.35-.364a17.493,17.493,0,0,1-4.275-7.273l-.112-.389-.311-.257a3.179,3.179,0,0,1-1.171-2.478v-4.29a3.062,3.062,0,0,1,.918-2.065l.325-.35V10.953c.024-.311.685-8.89,10.571-9.847l.015,0c-.6-.058-1.215-.1-1.88-.1a14.955,14.955,0,0,0-1.866.1c-9.886.957-10.547,9.536-10.571,9.847v6.179l-.325.35a3.062,3.062,0,0,0-.918,2.065v4.29a3.179,3.179,0,0,0,1.171,2.478l.311.257.112.389a17.493,17.493,0,0,0,4.275,7.273l.35.364v3.916a4,4,0,0,1-2.1,3.435L5.489,47.17A8.622,8.622,0,0,0,1,54.729v1a1.249,1.249,0,0,0,1.244,1.244H5.975a1.249,1.249,0,0,1-1.244-1.244Zm0,0" transform="translate(0.244 0.245)" fill="#fff"/>
    <path id="Path_115148" data-name="Path 115148" d="M27.878,2.505l0-.01a13.021,13.021,0,0,1,4.96-1.389l.015,0c-.6-.058-1.215-.1-1.88-.1a14.955,14.955,0,0,0-1.866.1,14.316,14.316,0,0,0-3.124.632A12.518,12.518,0,0,1,27.878,2.505Zm0,0" transform="translate(6.333 0.245)" fill="#fff"/>
    <path id="Path_115149" data-name="Path 115149" d="M38.882,2.5a13.021,13.021,0,0,1,4.96-1.389l.015,0c-.6-.058-1.215-.1-1.88-.1a14.955,14.955,0,0,0-1.866.1,14.273,14.273,0,0,0-3.119.632A12.474,12.474,0,0,1,38.882,2.5Zm0,0" transform="translate(9.014 0.245)" fill="#fff"/>
    <g id="Group_42253" data-name="Group 42253" transform="translate(0 0)">
      <path id="Path_115150" data-name="Path 115150" d="M44.772,58.456a1.244,1.244,0,0,1,0-2.487v-.991a7.369,7.369,0,0,0-3.843-6.471l-8.4-5.266a5.215,5.215,0,0,1-2.682-4.489V34.841a1.254,1.254,0,0,1,.35-.865l.355-.359a16.275,16.275,0,0,0,3.969-6.733l.1-.384a1.26,1.26,0,0,1,.413-.641l.316-.262a1.949,1.949,0,0,0,.714-1.511v-4.3a1.959,1.959,0,0,0-.588-1.215l-.325-.355a1.229,1.229,0,0,1-.33-.84v-6.17C34.8,10.935,34.1,2.491,23.63,2.491c-10.285,0-11.135,7.894-11.2,8.793l0,6.092a1.229,1.229,0,0,1-.33.84l-.325.359a1.935,1.935,0,0,0-.588,1.21v4.3a1.946,1.946,0,0,0,.714,1.506l.316.267a1.229,1.229,0,0,1,.413.641l.1.389a16.241,16.241,0,0,0,3.969,6.724l.355.364a1.245,1.245,0,0,1,.35.865v3.911a5.185,5.185,0,0,1-2.745,4.528L6.393,48.473a7.393,7.393,0,0,0-3.906,6.5v.991a1.244,1.244,0,0,1,0,2.487A2.486,2.486,0,0,1,0,55.969v-.991a9.864,9.864,0,0,1,5.14-8.657l8.268-5.188a2.768,2.768,0,0,0,1.516-2.38V35.346a18.868,18.868,0,0,1-4.586-7.822l-.01-.01a4.405,4.405,0,0,1-1.623-3.43v-4.3A4.292,4.292,0,0,1,9.949,16.9V11.2C9.983,10.658,10.872,0,23.63,0s13.646,10.663,13.675,11.12l0,5.767a4.359,4.359,0,0,1,1.244,2.9v4.3a4.422,4.422,0,0,1-1.623,3.435l-.01,0a18.868,18.868,0,0,1-4.586,7.822v3.406A2.74,2.74,0,0,0,33.783,41.1l8.4,5.261a9.822,9.822,0,0,1,5.072,8.618v.991A2.486,2.486,0,0,1,44.772,58.456Zm0,0" transform="translate(0 0.001)" fill="#666d7b"/>
      <path id="Path_115151" data-name="Path 115151" d="M55.772,58.457H12.244a1.244,1.244,0,0,1,0-2.487H55.772v-1a7.356,7.356,0,0,0-3.843-6.466l-8.395-5.261a5.21,5.21,0,0,1-2.687-4.489V34.842a1.245,1.245,0,0,1,.35-.865l.345-.359a16.152,16.152,0,0,0,3.974-6.733l.117-.413a1.223,1.223,0,0,1,.4-.607l.325-.272a1.97,1.97,0,0,0,.7-1.511v-4.29a1.87,1.87,0,0,0-.583-1.2l-.345-.384a1.247,1.247,0,0,1-.316-.831V11.212A9.623,9.623,0,0,0,40.9,3.843,13.417,13.417,0,0,0,34.63,2.492a13.294,13.294,0,0,0-6.247,1.351,1.245,1.245,0,1,1-1.156-2.206A15.816,15.816,0,0,1,34.63,0a15.927,15.927,0,0,1,7.428,1.632,12.212,12.212,0,0,1,6.247,9.473l.01,5.8a4.276,4.276,0,0,1,1.239,2.881v4.29a4.451,4.451,0,0,1-1.6,3.42l-.039.049a18.693,18.693,0,0,1-4.576,7.792v3.415a2.718,2.718,0,0,0,1.448,2.337l8.4,5.266a9.824,9.824,0,0,1,5.072,8.613v1a2.486,2.486,0,0,1-2.487,2.487Zm0,0" transform="translate(2.68 0)" fill="#666d7b"/>
      <path id="Path_115152" data-name="Path 115152" d="M30.244,21.691A1.243,1.243,0,0,1,29,20.447v-4.29a1.244,1.244,0,0,1,2.487,0v4.29A1.243,1.243,0,0,1,30.244,21.691Zm0,0" transform="translate(7.066 3.634)" fill="#666d7b"/>
      <path id="Path_115153" data-name="Path 115153" d="M66.772,58.457H23.244a1.244,1.244,0,0,1,0-2.487H66.772v-1a7.356,7.356,0,0,0-3.843-6.466l-8.395-5.261a5.21,5.21,0,0,1-2.687-4.489V34.842a1.245,1.245,0,0,1,.35-.865l.345-.359a16.152,16.152,0,0,0,3.974-6.733l.117-.413a1.223,1.223,0,0,1,.4-.607l.325-.272a1.97,1.97,0,0,0,.7-1.511v-4.29a1.87,1.87,0,0,0-.583-1.2l-.345-.384a1.247,1.247,0,0,1-.316-.831V11.212c-.019-.287-.651-8.72-11.193-8.72a13.294,13.294,0,0,0-6.247,1.351,1.245,1.245,0,0,1-1.156-2.206A15.816,15.816,0,0,1,45.63,0c10.285,0,13.442,7.277,13.675,11.13l.01,5.776a4.276,4.276,0,0,1,1.239,2.881v4.29a4.451,4.451,0,0,1-1.6,3.42l-.039.049a18.663,18.663,0,0,1-4.576,7.792v3.415A2.731,2.731,0,0,0,55.788,41.1l8.4,5.261a9.83,9.83,0,0,1,5.072,8.613v1a2.486,2.486,0,0,1-2.487,2.487Zm0,0" transform="translate(5.361 0)" fill="#666d7b"/>
    </g>
    <path id="Path_115154" data-name="Path 115154" d="M2,45H44.285v2.487H2Zm0,0" transform="translate(0.487 10.966)" fill="#fff"/>
    <path id="Path_115155" data-name="Path 115155" d="M8.218,46.248A1.252,1.252,0,0,0,6.975,45H2v2.487H6.975A1.249,1.249,0,0,0,8.218,46.248Zm0,0" transform="translate(0.487 10.966)" fill="#666d7b"/>
    <path id="Path_115156" data-name="Path 115156" d="M41.6,47.491V45H14.244a1.244,1.244,0,1,0,0,2.487Zm0,0" transform="translate(3.168 10.966)" fill="#666d7b"/>
    <path id="Path_115157" data-name="Path 115157" d="M10.244,45a1.324,1.324,0,0,0-.884.36l-.146.189a.888.888,0,0,0-.117.223A.861.861,0,0,0,9.024,46,2.138,2.138,0,0,0,9,46.248a1.3,1.3,0,0,0,.359.884,1.23,1.23,0,0,0,2.031-.413,1.276,1.276,0,0,0,.1-.471A1.228,1.228,0,0,0,10.244,45Zm0,0" transform="translate(2.193 10.966)" fill="#666d7b"/>
  </g>
</svg>
