<svg id="guichets-empty-icon" xmlns="http://www.w3.org/2000/svg" width="60" height="60" viewBox="0 0 60 60">
  <g id="_029---Computer-Star" data-name="029---Computer-Star">
    <path id="Rectangle-path" d="M32,44h7V56H32Z" fill="#b8c6dc"/>
    <path id="Shape" d="M49,1h6a4,4,0,0,1,4,4V41a4,4,0,0,1-4,4H49Z" fill="#b8c6dc"/>
    <path id="Shape-2" data-name="Shape" d="M46,1h6a4,4,0,0,1,4,4V41a4,4,0,0,1-4,4H46Z" fill="#e8edfc"/>
    <rect id="Rectangle-path-2" data-name="Rectangle-path" width="38" height="44" rx="4" transform="translate(15 1)" fill="#b8c6dc"/>
    <path id="Rectangle-path-3" data-name="Rectangle-path" d="M3.785,0H42.579a3.9,3.9,0,0,1,3.785,4V40a3.9,3.9,0,0,1-3.785,4H3.785A3.9,3.9,0,0,1,0,40V4A3.9,3.9,0,0,1,3.785,0Z" transform="translate(3.637 1)" fill="#e8edfc"/>
    <path id="Shape-3" data-name="Shape" d="M37,55h6a2,2,0,0,1,2,2v2H39" fill="#b8c6dc"/>
    <path id="Shape-4" data-name="Shape" d="M53,39v2a4,4,0,0,1-4,4H5a4,4,0,0,1-4-4V39Z" fill="#cad9fc"/>
    <path id="Shape-5" data-name="Shape" d="M50,39v2a4,4,0,0,1-4,4H5a4,4,0,0,1-4-4V39Z" fill="#e8edfc"/>
    <path id="Rectangle-path-4" data-name="Rectangle-path" d="M21,45h3V55H21Z" fill="#fff"/>
    <path id="Shape-6" data-name="Shape" d="M18,57a2,2,0,0,1,2-2H17a2,2,0,0,0-2,2v2h3Z" fill="#fff"/>
    <path id="Shape-7" data-name="Shape" d="M5,45H8a4,4,0,0,1-4-4V5A4,4,0,0,1,8,1H5A4,4,0,0,0,1,5V41a4,4,0,0,0,4,4Z" fill="#fff"/>
    <path id="Shape-8" data-name="Shape" d="M2,5V41H0V5Z" fill="#fff"/>
    <g id="Group_42343" data-name="Group 42343">
      <path id="Shape-9" data-name="Shape" d="M1,10A1,1,0,0,0,2,9V5H0V9A1,1,0,0,0,1,10Z" fill="#666d7b"/>
      <path id="Shape-10" data-name="Shape" d="M0,41H2V17a1,1,0,0,0-2,0Z" fill="#666d7b"/>
      <path id="Shape-11" data-name="Shape" d="M2,13a1.053,1.053,0,0,0-.29-.71l-.15-.12a.762.762,0,0,0-.18-.09.636.636,0,0,0-.18-.06A1.462,1.462,0,0,0,1,12a1.05,1.05,0,0,0-.71.29,1.032,1.032,0,0,0,0,1.42,1.035,1.035,0,0,0,.33.21A1,1,0,0,0,1,14a1.054,1.054,0,0,0,.71-.29A1.054,1.054,0,0,0,2,13Z" fill="#666d7b"/>
      <path id="Shape-12" data-name="Shape" d="M49,46H5a5.006,5.006,0,0,1-5-5,1,1,0,0,1,2,0,3,3,0,0,0,3,3H49a3,3,0,0,0,3-3V5a3,3,0,0,0-3-3H5A3,3,0,0,0,2,5,1,1,0,0,1,0,5,5.006,5.006,0,0,1,5,0H49a5.006,5.006,0,0,1,5,5V41A5.006,5.006,0,0,1,49,46Z" fill="#666d7b"/>
      <path id="Shape-13" data-name="Shape" d="M55,46H49a1,1,0,0,1,0-2h6a3,3,0,0,0,3-3V5a3,3,0,0,0-3-3H49a1,1,0,0,1,0-2h6a5.006,5.006,0,0,1,5,5V41A5.006,5.006,0,0,1,55,46Z" fill="#666d7b"/>
      <path id="Shape-14" data-name="Shape" d="M33,56H21a1,1,0,0,1-1-1V45a1,1,0,0,1,1-1H33a1,1,0,0,1,1,1V55A1,1,0,0,1,33,56ZM22,54H32V46H22Z" fill="#666d7b"/>
      <path id="Shape-15" data-name="Shape" d="M39,60H15a1,1,0,0,1-1-1V57a3,3,0,0,1,3-3H37a3,3,0,0,1,3,3v2A1,1,0,0,1,39,60ZM16,58H38V57a1,1,0,0,0-1-1H17a1,1,0,0,0-1,1Z" fill="#666d7b"/>
      <path id="Shape-16" data-name="Shape" d="M45,60H39a1,1,0,0,1,0-2h5V57a1,1,0,0,0-1-1H37a1,1,0,0,1,0-2h6a3,3,0,0,1,3,3v2A1,1,0,0,1,45,60Z" fill="#666d7b"/>
      <path id="Shape-17" data-name="Shape" d="M39,56H33a1,1,0,0,1-1-1V45a1,1,0,0,1,1-1h6a1,1,0,0,1,1,1V55A1,1,0,0,1,39,56Zm-5-2h4V46H34Z" fill="#666d7b"/>
      <path id="Shape-18" data-name="Shape" d="M53,40H1a1,1,0,0,1,0-2H53a1,1,0,0,1,0,2Z" fill="#666d7b"/>
    </g>
  </g>
</svg>
