<svg id="icon-leave" xmlns="http://www.w3.org/2000/svg" width="18.131" height="40.794" viewBox="0 0 18.131 40.794">
  <path id="Shape" d="M9.133,32A1.136,1.136,0,0,0,8,33.133v4.533h2.266V33.133A1.136,1.136,0,0,0,9.133,32Z" transform="translate(1.065 0.862)" fill="#ed3348"/>
  <path id="Shape-2" data-name="Shape" d="M10.266,17.938H8v8a1.133,1.133,0,1,0,2.266,0Z" transform="translate(1.065 -1.011)" fill="#ed3348"/>
  <path id="Shape-3" data-name="Shape" d="M8,29.133a1.193,1.193,0,0,0,.329.8l.17.136a.863.863,0,0,0,.2.1.72.72,0,0,0,.2.068,1.657,1.657,0,0,0,.227.023,1.19,1.19,0,0,0,.8-.329,1.117,1.117,0,0,0-.374-1.847A1.133,1.133,0,0,0,9.133,28,1.122,1.122,0,0,0,8,29.133Z" transform="translate(1.065 0.329)" fill="#ed3348"/>
  <path id="Shape-4" data-name="Shape" d="M15.864,43.794H11.332a2.269,2.269,0,0,1-2.266-2.266,1.133,1.133,0,1,1,2.266,0h4.533v-23a4.5,4.5,0,0,0-1.328-3.2c-.028-.028-.053-.057-.079-.087L9.546,9.187a1.133,1.133,0,0,1,.079-1.516l2.4-2.4-9.76,0v9.609l2.577-2.422a1.132,1.132,0,0,1,1.672.13l3.875,5a3.375,3.375,0,0,1,.941,2.347,1.133,1.133,0,1,1-2.266,0,1.14,1.14,0,0,0-.332-.8,1.137,1.137,0,0,1-.094-.107L5.49,14.958,3.837,16.516a2.22,2.22,0,0,1-2.419.467A2.271,2.271,0,0,1,0,14.876V5.266A2.269,2.269,0,0,1,2.266,3h9.758a2.268,2.268,0,0,1,1.6,3.872l-1.68,1.68,4.233,5.209a6.751,6.751,0,0,1,1.949,4.765v23A2.269,2.269,0,0,1,15.864,43.794Z" transform="translate(0 -3)" fill="#ed3348"/>
</svg>
