<svg xmlns="http://www.w3.org/2000/svg" width="70.573" height="70.573" viewBox="0 0 70.573 70.573">
  <g id="icon-consulting-blue" transform="translate(-643.692 -571.613)">
    <g id="consulting" transform="translate(643.692 571.613)">
      <path id="Path_113673" data-name="Path 113673" d="M64.259,260.308l-2.849-.989a6.879,6.879,0,0,0,2.621-5.4v-2.088a6.89,6.89,0,0,0-13.781,0v2.088a6.88,6.88,0,0,0,2.621,5.4l-2.849.989a9.383,9.383,0,0,0-4.464,3.283h-7.7v-3.037a9.4,9.4,0,0,0-6.314-8.876l-2.849-.989a6.88,6.88,0,0,0,2.621-5.4V243.2a6.89,6.89,0,0,0-13.781,0v2.088a6.881,6.881,0,0,0,2.621,5.4l-2.849.989A9.4,9.4,0,0,0,11,260.554v3.037H1.044A1.044,1.044,0,0,0,0,264.635v8.63a1.044,1.044,0,0,0,1.044,1.044h43.43a.944.944,0,0,1,.278,0H69.529a1.044,1.044,0,0,0,1.044-1.044v-4.081A9.4,9.4,0,0,0,64.259,260.308Zm-11.921-8.479a4.8,4.8,0,0,1,9.6,0v2.088a4.8,4.8,0,0,1-9.6,0ZM19.627,243.2a4.8,4.8,0,0,1,9.6,0v2.088a4.8,4.8,0,0,1-9.6,0Zm6.993,8.978,1.014.352-3.2,5.56-3.2-5.56,1.014-.352Zm-13.535,8.377A7.314,7.314,0,0,1,18,253.65l1.221-.424,4.308,7.476a1.044,1.044,0,0,0,1.809,0l4.308-7.476,1.221.424a7.313,7.313,0,0,1,4.91,6.9v3.037H13.084Zm-11,5.125h42.3a9.362,9.362,0,0,0-.68,3.5v3.037H2.088Zm66.4,6.542H45.8v-3.037a7.313,7.313,0,0,1,4.91-6.9l4.243-1.473h4.381l4.243,1.473a7.313,7.313,0,0,1,4.911,6.9Zm0,0" transform="translate(0 -203.736)" fill="#164171"/>
      <path id="Path_113674" data-name="Path 113674" d="M63.961,7.517h-10.6a1.044,1.044,0,1,0,0,2.088h10.6a4.529,4.529,0,0,1,4.524,4.524V28.605a4.529,4.529,0,0,1-4.524,4.524H49.624a1.044,1.044,0,0,0-1.044,1.044v4.44L43.4,33.435a1.044,1.044,0,0,0-.738-.306H34.173a4.529,4.529,0,0,1-4.524-4.524V14.128A4.529,4.529,0,0,1,34.173,9.6h14.3a1.044,1.044,0,0,0,0-2.088H43.012v-.9A6.62,6.62,0,0,0,36.4,0H6.612A6.62,6.62,0,0,0,0,6.612V8.92a1.044,1.044,0,0,0,2.088,0V6.612A4.529,4.529,0,0,1,6.612,2.088H36.4a4.529,4.529,0,0,1,4.524,4.524v.9H34.173a6.62,6.62,0,0,0-6.612,6.612V25.612H16.634a1.044,1.044,0,0,0-1.044,1.044V31.1l-5.178-5.178a1.044,1.044,0,0,0-.738-.306H6.612a4.529,4.529,0,0,1-4.524-4.524V13.775a1.044,1.044,0,1,0-2.088,0v7.314A6.619,6.619,0,0,0,6.612,27.7h2.63L15.9,34.355a1.044,1.044,0,0,0,1.782-.738V27.7h9.883v.905a6.619,6.619,0,0,0,6.612,6.611h8.059l6.654,6.654a1.044,1.044,0,0,0,1.782-.738V35.217H63.961a6.619,6.619,0,0,0,6.612-6.611V14.128A6.62,6.62,0,0,0,63.961,7.517Zm0,0" transform="translate(0 0)" fill="#164171"/>
    </g>
  </g>
</svg>
