<svg xmlns="http://www.w3.org/2000/svg" width="18.571" height="17.498" viewBox="0 0 18.571 17.498">
  <g id="icon-configuration" transform="translate(-1 -1)">
    <path id="Path_115011" data-name="Path 115011" d="M3.407,4.815a2.409,2.409,0,0,0,2.38-2.063h13.44a.344.344,0,1,0,0-.688H5.787a2.406,2.406,0,1,0-2.38,2.751Zm0-4.127a1.72,1.72,0,1,1-1.72,1.72A1.721,1.721,0,0,1,3.407.688Z" transform="translate(0 1)" fill="#fff"/>
    <path id="Path_115012" data-name="Path 115012" d="M17.163,42a2.409,2.409,0,0,0-2.38,2.063H1.344a.344.344,0,0,0,0,.688h13.44A2.406,2.406,0,1,0,17.163,42Zm0,4.127a1.72,1.72,0,1,1,1.719-1.72A1.721,1.721,0,0,1,17.163,46.127Z" transform="translate(0 -28.316)" fill="#fff"/>
    <path id="Path_115013" data-name="Path 115013" d="M19.227,22.792H12.819a2.478,2.478,0,0,0-4.925,0H1.344a.344.344,0,0,0,0,.688H7.915a2.475,2.475,0,0,0,4.882,0h6.43a.344.344,0,1,0,0-.688Zm-8.87,2.063a1.791,1.791,0,1,1,1.791-1.791A1.793,1.793,0,0,1,10.356,24.855Z" transform="translate(0 -13.387)" fill="#fff"/>
  </g>
</svg>
