<svg xmlns="http://www.w3.org/2000/svg" width="20.403" height="20.402" viewBox="0 0 20.403 20.402">
  <g id="icon-dashboard" transform="translate(0 -0.019)">
    <g id="Group_40903" data-name="Group 40903" transform="translate(0 0.019)">
      <g id="Group_40902" data-name="Group 40902" transform="translate(0 0)">
        <path id="Path_115024" data-name="Path 115024" d="M17.415,3.005a10.2,10.2,0,1,0,0,14.429A10.152,10.152,0,0,0,17.415,3.005ZM3.743,16.929a8.973,8.973,0,0,1,2.734-2.04,8.623,8.623,0,0,1,10.181,2.04A9.3,9.3,0,0,1,3.743,16.929Zm13.526-.642A9.511,9.511,0,0,0,6.1,14.093a9.889,9.889,0,0,0-2.964,2.19,9.318,9.318,0,1,1,14.137,0Z" transform="translate(0 -0.019)" fill="#fff"/>
      </g>
    </g>
    <g id="Group_40905" data-name="Group 40905" transform="translate(9.761 2.315)">
      <g id="Group_40904" data-name="Group 40904">
        <path id="Path_115025" data-name="Path 115025" d="M221.042,51.919a.444.444,0,0,0-.442.442v2.664a.442.442,0,0,0,.885,0V52.361A.444.444,0,0,0,221.042,51.919Z" transform="translate(-220.6 -51.919)" fill="#fff"/>
      </g>
    </g>
    <g id="Group_40907" data-name="Group 40907" transform="translate(14.561 9.779)">
      <g id="Group_40906" data-name="Group 40906">
        <path id="Path_115026" data-name="Path 115026" d="M332.206,220.619h-2.664a.442.442,0,1,0,0,.885h2.664a.442.442,0,0,0,0-.885Z" transform="translate(-329.1 -220.619)" fill="#fff"/>
      </g>
    </g>
    <g id="Group_40909" data-name="Group 40909" transform="translate(2.296 9.779)">
      <g id="Group_40908" data-name="Group 40908">
        <path id="Path_115027" data-name="Path 115027" d="M55.006,220.619H52.342a.442.442,0,1,0,0,.885h2.664a.442.442,0,1,0,0-.885Z" transform="translate(-51.9 -220.619)" fill="#fff"/>
      </g>
    </g>
    <g id="Group_40911" data-name="Group 40911" transform="translate(4.474 4.493)">
      <g id="Group_40910" data-name="Group 40910">
        <path id="Path_115028" data-name="Path 115028" d="M103.787,103.182l0,0-1.9-1.9a.441.441,0,0,0-.628.619l0,0,1.9,1.9a.441.441,0,0,0,.628-.619Z" transform="translate(-101.125 -101.144)" fill="#fff"/>
      </g>
    </g>
    <g id="Group_40913" data-name="Group 40913" transform="translate(8.787 4.493)">
      <g id="Group_40912" data-name="Group 40912">
        <path id="Path_115029" data-name="Path 115029" d="M205.61,101.275a.441.441,0,0,0-.624,0l0,0-4.341,4.341a1.413,1.413,0,1,0,.624,1.9,1.4,1.4,0,0,0,0-1.27l4.341-4.345A.441.441,0,0,0,205.61,101.275Zm-5.6,6.124a.527.527,0,1,1,.527-.527A.525.525,0,0,1,200.009,107.4Z" transform="translate(-198.592 -101.144)" fill="#fff"/>
      </g>
    </g>
  </g>
</svg>
