<svg id="icon-location" xmlns="http://www.w3.org/2000/svg" width="23.504" height="23.504" viewBox="0 0 23.504 23.504">
  <path id="Path_115205" data-name="Path 115205" d="M14.849,375.467c-3.724.462-6.315,1.749-6.315,2.938,0,1.623,4.823,2.938,10.773,2.938s10.773-1.315,10.773-2.938c0-1.189-2.591-2.475-6.315-2.938" transform="translate(-8.142 -358.231)" fill="#e8edfc"/>
  <path id="Path_115206" data-name="Path 115206" d="M254.433,375.467H253.6c3.724.462,6.315,1.749,6.315,2.938,0,1.6-4.67,2.895-10.487,2.936l.3,0c6.274,0,11.36-1.315,11.36-2.938C261.093,377.216,258.361,375.93,254.433,375.467Z" transform="translate(-237.981 -358.231)" fill="#b8c6dc"/>
  <path id="Path_115207" data-name="Path 115207" d="M15.192,375.467h.831c-3.724.462-6.315,1.749-6.315,2.938,0,1.6,4.67,2.895,10.487,2.936l-.3,0c-6.274,0-11.36-1.315-11.36-2.938C8.532,377.216,11.264,375.93,15.192,375.467Z" transform="translate(-8.14 -358.231)" fill="#fff"/>
  <path id="Path_115208" data-name="Path 115208" d="M106.5,28.9l-5.7-8.226a8.165,8.165,0,0,1,.661-10.058h0a7.12,7.12,0,0,1,10.07,0h0a8.165,8.165,0,0,1,.661,10.058Z" transform="translate(-94.82 -8.142)" fill="#b8c6dc"/>
  <path id="Path_115209" data-name="Path 115209" d="M111.937,28.9l-5.362-8.226a8.165,8.165,0,0,1,.661-10.058h0c2.781-2.781,5.71-2.781,8.491,0h0a8.165,8.165,0,0,1,.661,10.058Z" transform="translate(-100.323 -8.142)" fill="#e8edfc"/>
  <circle id="Ellipse_8624" data-name="Ellipse 8624" cx="2.35" cy="2.35" r="2.35" transform="translate(9.402 5.092)" fill="#b8c6dc"/>
  <ellipse id="Ellipse_8625" data-name="Ellipse 8625" cx="1.763" cy="2.35" rx="1.763" ry="2.35" transform="translate(9.264 5.092)" fill="#e8edfc"/>
  <path id="Path_115210" data-name="Path 115210" d="M101.468,10.768h0A7.093,7.093,0,0,1,106.8,8.7a6.228,6.228,0,0,0-4.015,2.071h0a8.165,8.165,0,0,0-.661,10.058L106.542,29l-.039.056-5.7-8.226A8.165,8.165,0,0,1,101.468,10.768Z" transform="translate(-94.82 -8.291)" fill="#fff"/>
  <g id="Group_42334" data-name="Group 42334">
    <path id="Path_115211" data-name="Path 115211" d="M199.009,107.884a2.742,2.742,0,1,1,2.742-2.742,2.742,2.742,0,0,1-2.742,2.742Zm0-4.7a1.959,1.959,0,1,0,1.959,1.959,1.959,1.959,0,0,0-1.959-1.959Z" transform="translate(-187.257 -97.699)" fill="#666d7b"/>
    <path id="Path_115212" data-name="Path 115212" d="M98.36,21.154a.392.392,0,0,1-.322-.169l-5.7-8.226A8.557,8.557,0,0,1,93.048,2.2a7.512,7.512,0,0,1,10.624,0,8.56,8.56,0,0,1,.7,10.57l-5.687,8.215A.392.392,0,0,1,98.36,21.154Zm0-20.37A6.685,6.685,0,0,0,93.6,2.754a7.731,7.731,0,0,0-.625,9.546l5.383,7.773,5.374-7.761a7.734,7.734,0,0,0-.616-9.558A6.685,6.685,0,0,0,98.36.783Z" transform="translate(-86.677)" fill="#666d7b"/>
    <path id="Path_115213" data-name="Path 115213" d="M11.752,373.592C4.037,373.592,0,371.917,0,370.262c0-1.473,2.881-2.841,7.005-3.327a.392.392,0,1,1,.092.778c-4.12.485-6.314,1.792-6.314,2.549,0,1.063,4.173,2.546,10.968,2.546s10.968-1.483,10.968-2.546c0-.757-2.194-2.064-6.314-2.549a.392.392,0,1,1,.092-.778c4.124.486,7.005,1.854,7.005,3.327C23.5,371.917,19.467,373.592,11.752,373.592Z" transform="translate(0 -350.088)" fill="#666d7b"/>
  </g>
</svg>
