<svg id="icon-info-blue" xmlns="http://www.w3.org/2000/svg" width="17.719" height="17.719" viewBox="0 0 17.719 17.719">
  <path id="Path_115452" data-name="Path 115452" d="M8.86,0a8.86,8.86,0,1,0,8.86,8.86A8.87,8.87,0,0,0,8.86,0Zm0,16.108A7.249,7.249,0,1,1,16.108,8.86,7.257,7.257,0,0,1,8.86,16.108Z" fill="#195190"/>
  <path id="Path_115453" data-name="Path 115453" d="M146.076,70a1.074,1.074,0,1,0,1.074,1.074A1.075,1.075,0,0,0,146.076,70Z" transform="translate(-137.216 -66.241)" fill="#195190"/>
  <path id="Path_115454" data-name="Path 115454" d="M150.805,140a.805.805,0,0,0-.805.805v4.833a.805.805,0,1,0,1.611,0v-4.833A.805.805,0,0,0,150.805,140Z" transform="translate(-141.946 -132.483)" fill="#195190"/>
</svg>
