<svg xmlns="http://www.w3.org/2000/svg" width="24" height="24" viewBox="0 0 24 24">
  <g id="icon-forward" transform="translate(-8 -8)">
    <path id="Path_115336" data-name="Path 115336" d="M20,8A12,12,0,1,0,32,20,12.014,12.014,0,0,0,20,8Zm0,22A10,10,0,1,1,30,20,10.011,10.011,0,0,1,20,30Z" fill="#959ba5"/>
    <path id="Path_115337" data-name="Path 115337" d="M22.574,22.276a.917.917,0,0,0-1.313,1.279l2.94,3.036-2.94,3.019a.917.917,0,0,0,1.313,1.28l2.932-3.01a1.833,1.833,0,0,0,.009-2.584Z" transform="translate(-6.339 -6.583)" fill="#959ba5"/>
    <path id="Path_115338" data-name="Path 115338" d="M33.574,22.276a.917.917,0,1,0-1.313,1.279l2.94,3.036-2.94,3.019a.917.917,0,0,0,1.313,1.28l2.931-3.01a1.833,1.833,0,0,0,.009-2.584Z" transform="translate(-11.703 -6.583)" fill="#959ba5"/>
  </g>
</svg>
