<svg xmlns="http://www.w3.org/2000/svg" width="14.832" height="19.381" viewBox="0 0 14.832 19.381">
  <g id="icon-management" transform="translate(-1802.633 -2226.23)">
    <g id="Group_40914" data-name="Group 40914" transform="translate(1802.633 2226.23)">
      <path id="Path_115018" data-name="Path 115018" d="M16.9,81.7l-1.109-.4a.386.386,0,0,0-.105-.3l-.72-.757V78.977c.076-.063.151-.127.224-.2a4.539,4.539,0,0,0,1.43-3.3V74.467a4.47,4.47,0,0,0,.413-1.88V68.453a.387.387,0,0,0-.387-.387H10.857a3.7,3.7,0,0,0-3.695,3.695v.827a4.47,4.47,0,0,0,.413,1.88v.873A4.725,4.725,0,0,0,9.23,78.947v1.3L8.51,81a.386.386,0,0,0-.105.3l-2.379.865A3.672,3.672,0,0,0,4.993,83a2.036,2.036,0,0,0-.311,1.08V87.06a.387.387,0,1,0,.773,0V84.083a1.271,1.271,0,0,1,.834-1.191L8.8,81.98l1.044,1.567a.8.8,0,0,0,.587.352q.04,0,.08,0a.8.8,0,0,0,.565-.234l.637-.637V87.06a.387.387,0,0,0,.773,0V83.032l.637.637a.8.8,0,0,0,.565.234q.04,0,.08,0a.8.8,0,0,0,.587-.352L15.4,81.98l2.509.912a1.271,1.271,0,0,1,.834,1.191V87.06a.387.387,0,1,0,.773,0V84.084a2.044,2.044,0,0,0-.572-1.415ZM8.35,75.34v-.959a.387.387,0,0,0-.038-.168,3.709,3.709,0,0,1-.375-1.625v-.827a2.925,2.925,0,0,1,2.921-2.921h5.4v3.748a3.709,3.709,0,0,1-.375,1.625.387.387,0,0,0-.038.168v1.1a3.713,3.713,0,0,1-1.185,2.735,3.844,3.844,0,0,1-.3.251l-.007,0a3.718,3.718,0,0,1-2.509.749A3.83,3.83,0,0,1,8.35,75.34Zm2.177,7.781a.024.024,0,0,1-.022.008.025.025,0,0,1-.02-.012l-1.2-1.8.387-.407,1.825,1.247ZM12.1,81.629,10,80.2v-.722a4.354,4.354,0,0,0,1.794.518q.153.01.3.01a4.48,4.48,0,0,0,2.09-.512V80.2Zm1.612,1.488a.025.025,0,0,1-.02.012.024.024,0,0,1-.022-.008l-.968-.968,1.825-1.247.387.407Z" transform="translate(-4.682 -68.066)" fill="#fff"/>
      <g id="Group_40897" data-name="Group 40897" transform="translate(4.135 3.513)">
        <g id="Group_40896" data-name="Group 40896">
          <path id="Path_115021" data-name="Path 115021" d="M198.909,137.351c-1.463-1.463-4.523-1.183-5.771-.995a.794.794,0,0,0-.678.791v.891a.387.387,0,1,0,.773,0v-.891a.026.026,0,0,1,.02-.026,12.217,12.217,0,0,1,2.512-.123,3.992,3.992,0,0,1,2.6.9.387.387,0,0,0,.547-.547Z" transform="translate(-192.46 -136.203)" fill="#fff"/>
        </g>
      </g>
    </g>
    <g id="Group_40899" data-name="Group 40899" transform="translate(1805.114 2243.184)">
      <g id="Group_40898" data-name="Group 40898">
        <path id="Path_115022" data-name="Path 115022" d="M160.771,396.853a.387.387,0,0,0-.387.387v1.654a.387.387,0,0,0,.773,0V397.24A.387.387,0,0,0,160.771,396.853Z" transform="translate(-160.384 -396.853)" fill="#fff"/>
      </g>
    </g>
    <g id="Group_40901" data-name="Group 40901" transform="translate(1814.211 2243.184)">
      <g id="Group_40900" data-name="Group 40900">
        <path id="Path_115023" data-name="Path 115023" d="M337.193,396.853a.387.387,0,0,0-.387.387v1.654a.387.387,0,0,0,.773,0V397.24A.387.387,0,0,0,337.193,396.853Z" transform="translate(-336.806 -396.853)" fill="#fff"/>
      </g>
    </g>
  </g>
</svg>
