<svg id="icon-monitoring" xmlns="http://www.w3.org/2000/svg" width="17.895" height="17.895" viewBox="0 0 17.895 17.895">
  <path id="Path_115014" data-name="Path 115014" d="M16.973,6.959H15.3a.643.643,0,0,1-.455-1.1l1.184-1.183a.922.922,0,0,0,0-1.3L14.519,1.866a.943.943,0,0,0-1.3,0L12.033,3.05a.643.643,0,0,1-1.1-.454V.921A.922.922,0,0,0,10.014,0H7.88a.922.922,0,0,0-.921.921V2.6a.643.643,0,0,1-1.1.454L4.678,1.866a.943.943,0,0,0-1.3,0L1.866,3.375a.922.922,0,0,0,0,1.3L3.05,5.862a.643.643,0,0,1-.455,1.1H.921A.922.922,0,0,0,0,7.88v2.134a.922.922,0,0,0,.921.922H2.6a.643.643,0,0,1,.455,1.1L1.866,13.216a.922.922,0,0,0,0,1.3l1.509,1.509a.943.943,0,0,0,1.3,0l1.183-1.184a.643.643,0,0,1,1.1.455v1.674a.922.922,0,0,0,.921.921h2.134a.922.922,0,0,0,.921-.921V15.3a.643.643,0,0,1,1.1-.455l1.183,1.184a.943.943,0,0,0,1.3,0l1.509-1.509a.922.922,0,0,0,0-1.3l-1.184-1.183a.643.643,0,0,1,.455-1.1h1.674a.922.922,0,0,0,.921-.921V7.88A.922.922,0,0,0,16.973,6.959Zm.258,3.055a.259.259,0,0,1-.258.258H15.3a1.306,1.306,0,0,0-.923,2.229l1.184,1.183a.259.259,0,0,1,0,.366L14.051,15.56a.259.259,0,0,1-.366,0L12.5,14.376a1.306,1.306,0,0,0-2.229.923v1.674a.259.259,0,0,1-.258.258H7.88a.259.259,0,0,1-.258-.258V15.3a1.285,1.285,0,0,0-.806-1.206,1.321,1.321,0,0,0-.508-.1,1.287,1.287,0,0,0-.915.386L4.21,15.559a.259.259,0,0,1-.366,0L2.335,14.051a.259.259,0,0,1,0-.366L3.519,12.5A1.305,1.305,0,0,0,2.6,10.273H.921a.259.259,0,0,1-.258-.258V7.88a.259.259,0,0,1,.258-.258H2.6a1.306,1.306,0,0,0,.923-2.229L2.335,4.21a.259.259,0,0,1,0-.366L3.844,2.335a.259.259,0,0,1,.366,0L5.393,3.518A1.306,1.306,0,0,0,7.622,2.6V.921A.259.259,0,0,1,7.88.663h2.134a.259.259,0,0,1,.259.258V2.6a1.306,1.306,0,0,0,2.229.923l1.183-1.183a.259.259,0,0,1,.366,0L15.56,3.844a.259.259,0,0,1,0,.366L14.376,5.393A1.306,1.306,0,0,0,15.3,7.622h1.674a.258.258,0,0,1,.258.258Z" fill="#fff"/>
  <path id="Path_115015" data-name="Path 115015" d="M20.982,18a2.982,2.982,0,1,0,2.982,2.982A2.986,2.986,0,0,0,20.982,18Zm0,5.3a2.32,2.32,0,1,1,2.32-2.32A2.323,2.323,0,0,1,20.982,23.3Z" transform="translate(-12.035 -12.035)" fill="#fff"/>
</svg>
