<svg id="information" xmlns="http://www.w3.org/2000/svg" width="22.246" height="22.246" viewBox="0 0 22.246 22.246">
  <g id="Group_42961" data-name="Group 42961" transform="translate(0 0)">
    <g id="Group_42960" data-name="Group 42960">
      <path id="Path_118655" data-name="Path 118655" d="M214.826,85.333a1.493,1.493,0,1,0,1.493,1.493A1.494,1.494,0,0,0,214.826,85.333Z" transform="translate(-203.793 -80.182)" fill="#666d7b"/>
      <path id="Path_118656" data-name="Path 118656" d="M195.359,192h-2.986a.373.373,0,0,0-.373.373v1.493a.373.373,0,0,0,.373.373h.373v5.6a.373.373,0,0,0,.373.373h2.239a.373.373,0,0,0,.373-.373v-7.465A.373.373,0,0,0,195.359,192Z" transform="translate(-183.207 -183.116)" fill="#666d7b"/>
      <path id="Path_118657" data-name="Path 118657" d="M11.123,0A11.123,11.123,0,1,0,22.246,11.123,11.136,11.136,0,0,0,11.123,0Zm0,21.319a10.2,10.2,0,1,1,10.2-10.2A10.208,10.208,0,0,1,11.123,21.319Z" transform="translate(0 0)" fill="#666d7b"/>
    </g>
  </g>
</svg>
