<svg id="information-popUp" xmlns="http://www.w3.org/2000/svg" width="648.708" height="422.995" viewBox="0 0 648.708 422.995">
  <path id="Path_113710" data-name="Path 113710" d="M174.62,388.4l-3.32-6.074h0L159.427,360.6l1.865-1.019a12.89,12.89,0,0,0,5.129-17.493h0a12.89,12.89,0,0,0-17.493-5.129l-1.865,1.019-15.193-27.8a6.012,6.012,0,0,0-10.431-.208L92.168,358.8l-14.483,7.916L66.73,372.7A20.947,20.947,0,0,0,57.5,399.286c.233.551.5,1.094.787,1.632.038.07.065.144.1.214h0a20.939,20.939,0,0,0,28.43,8.336l4.138-2.262h0l4.46-2.438,2.665,4.407-4.99,2.536a10.244,10.244,0,0,0-5.108,12.276L95.1,446.034v7.312H94.4a.932.932,0,0,0-.932.932v8.784H88.6V500h40.694V463.062h-4.866v-8.784a.932.932,0,0,0-.932-.932h-.462v-2.915l4.431,7.327a8.529,8.529,0,1,0,14.6-8.825l-5.338-8.828,3.323-1.918a5.407,5.407,0,0,0-5.374-9.384l2.1-1.214a5.409,5.409,0,0,0,1.98-7.388h0a5.41,5.41,0,0,0-7.389-1.98l-4.481,2.587,0,0,5.48-3.164a5.4,5.4,0,0,0-5.242-9.443l1.175-.678a5.409,5.409,0,1,0-5.409-9.368l-8.546,4.934L110.4,396.58l1.858-1.016,56.9,1.728a6.271,6.271,0,0,0,1.659-.174,5.89,5.89,0,0,0,2.113-1,6.087,6.087,0,0,0,2.425-4.584A5.949,5.949,0,0,0,174.62,388.4Z" transform="translate(0 -77.005)" fill="#ccacb8" opacity="0.5"/>
  <path id="Path_2" data-name="Path 2" d="M87.1,446.035V500h27.93V447.113l13.313-11.239-18.3-29.138-18.25,13.176Z" transform="translate(0 -77.005)" fill="#eaa97d"/>
  <g id="Group_1" data-name="Group 1" transform="translate(83.565 310.477)">
    <path id="Path_3" data-name="Path 3" d="M126.769,461.876a8.523,8.523,0,0,1-7.306-4.117L84.8,400.425a8.529,8.529,0,0,1,14.6-8.826l34.667,57.334a8.531,8.531,0,0,1-7.291,12.943Z" transform="translate(-83.565 -387.482)" fill="#dd98ab"/>
  </g>
  <path id="Path_4" data-name="Path 4" d="M102.718,411.422h0a5.409,5.409,0,0,1,1.98-7.388l10.187-5.882a5.409,5.409,0,0,1,7.389,1.98h0a5.409,5.409,0,0,1-1.98,7.388L110.106,413.4A5.409,5.409,0,0,1,102.718,411.422Z" transform="translate(0 -77.005)" fill="#fcd5bb"/>
  <path id="Path_5" data-name="Path 5" d="M106.786,421.543h0a5.408,5.408,0,0,1,1.979-7.388l10.188-5.882a5.409,5.409,0,0,1,7.388,1.98h0a5.408,5.408,0,0,1-1.98,7.388l-10.187,5.882A5.408,5.408,0,0,1,106.786,421.543Z" transform="translate(0 -77.005)" fill="#fcd5bb"/>
  <path id="Path_6" data-name="Path 6" d="M111.2,431.491h0a5.407,5.407,0,0,1,1.979-7.388l10.187-5.882a5.41,5.41,0,0,1,7.389,1.98h0a5.409,5.409,0,0,1-1.98,7.388l-10.187,5.882A5.408,5.408,0,0,1,111.2,431.491Z" transform="translate(0 -77.005)" fill="#fcd5bb"/>
  <path id="Path_7" data-name="Path 7" d="M114.469,442.089h0a5.409,5.409,0,0,1,1.98-7.389l10.187-5.881a5.408,5.408,0,0,1,7.389,1.98h0a5.409,5.409,0,0,1-1.98,7.388l-10.187,5.881A5.409,5.409,0,0,1,114.469,442.089Z" transform="translate(0 -77.005)" fill="#fcd5bb"/>
  <path id="Path_8" data-name="Path 8" d="M87.1,446.035l-7.113-22.048A10.244,10.244,0,0,1,85.1,411.711l15.958-8.109a6.6,6.6,0,0,1,8.99,3.134h0a6.6,6.6,0,0,1-2.746,8.492l-9.423,5.34s4.9,14.692-2.938,20.079Z" transform="translate(0 -77.005)" fill="#ffcca9"/>
  <path id="Rectangle_2" data-name="Rectangle 2" d="M.932,0h29.1a.932.932,0,0,1,.932.932V9.716a0,0,0,0,1,0,0H0a0,0,0,0,1,0,0V.932A.932.932,0,0,1,.932,0Z" transform="translate(85.464 376.341)" fill="#fefff4"/>
  <path id="Rectangle_3" data-name="Rectangle 3" d="M0,0H6.066A.932.932,0,0,1,7,.932V9.716a0,0,0,0,1,0,0H0a0,0,0,0,1,0,0V0A0,0,0,0,1,0,0Z" transform="translate(109.428 376.341)" fill="#dcddce"/>
  <rect id="Rectangle_4" data-name="Rectangle 4" width="40.694" height="36.938" transform="translate(80.598 386.057)" fill="#161e5c"/>
  <rect id="Rectangle_5" data-name="Rectangle 5" width="11.864" height="36.938" transform="translate(109.428 386.057)" fill="#0b123d"/>
  <g id="Group_2" data-name="Group 2" transform="translate(47.824 230.049)">
    <path id="Path_9" data-name="Path 9" d="M105.483,394.9,78.824,409.468a20.949,20.949,0,0,1-28.43-8.336h0A20.949,20.949,0,0,1,58.73,372.7l26.658-14.571Z" transform="translate(-47.824 -307.054)" fill="#b3bfff"/>
    <path id="Path_10" data-name="Path 10" d="M48.809,397.406a20.941,20.941,0,0,0,1.585,3.726h0a20.949,20.949,0,0,0,28.43,8.336L105.483,394.9l-3.865-7.072L74.959,402.4A20.95,20.95,0,0,1,48.809,397.406Z" transform="translate(-47.824 -307.054)" fill="#8c9fea"/>
    <rect id="Rectangle_6" data-name="Rectangle 6" width="25.652" height="41.899" transform="matrix(0.877, -0.48, 0.48, 0.877, 15.044, 63.387)" fill="#dd98ab"/>
    <rect id="Rectangle_7" data-name="Rectangle 7" width="25.652" height="7.996" transform="matrix(0.877, -0.48, 0.48, 0.877, 31.303, 93.136)" fill="#be6d83"/>
    <path id="Path_11" data-name="Path 11" d="M124.525,345.926l16.4-8.965a12.89,12.89,0,0,1,17.493,5.129h0a12.89,12.89,0,0,1-5.129,17.493l-16.4,8.965Z" transform="translate(-47.824 -307.054)" fill="#161e5c"/>
    <path id="Path_12" data-name="Path 12" d="M161.163,397.292l-56.9-1.728L84.168,358.8l29.271-48.824a6.011,6.011,0,0,1,10.43.208L166.62,388.4A6.011,6.011,0,0,1,161.163,397.292Z" transform="translate(-47.824 -307.054)" fill="#b3bfff"/>
    <path id="Path_13" data-name="Path 13" d="M157.843,391.219,100.4,388.493l3.865,7.071,56.9,1.728a6.011,6.011,0,0,0,5.457-8.891l-3.32-6.074A6.011,6.011,0,0,1,157.843,391.219Z" transform="translate(-47.824 -307.054)" fill="#8c9fea"/>
  </g>
  <path id="Path_14" data-name="Path 14" d="M205.538,265.085s31.695-50.091-31.837-45.5S0,234.89,0,175.2V0H648.708V193.725s-21.544,55.227-211.02,46.683c-16.711-.754-33.316-2.181-49.774-4.069C360.724,233.219,286.982,229.443,205.538,265.085Z" fill="#e8f9f9"/>
  <path id="Path_15" data-name="Path 15" d="M298.99,304.993a338.679,338.679,0,0,0,38.364,5.251C483.395,321.27,500,250,500,250V230.045C452.91,313,333.778,293.248,268.575,289.3S158.421,342.09,158.421,342.09C221.2,296.094,278.033,300.966,298.99,304.993Z" transform="translate(148.708 -77.005)" fill="#009499"/>
  <rect id="Rectangle_8" data-name="Rectangle 8" width="7.124" height="60.277" transform="translate(455.698 289.41)" fill="#009499"/>
  <rect id="Rectangle_9" data-name="Rectangle 9" width="7.124" height="60.277" transform="translate(502.883 291.643) rotate(-38.49)" fill="#316aeb"/>
  <rect id="Rectangle_10" data-name="Rectangle 10" width="7.124" height="60.277" transform="translate(544.849 263.185) rotate(-60)" fill="#195190"/>
  <circle id="Ellipse_1" data-name="Ellipse 1" cx="7.503" cy="7.503" r="7.503" transform="matrix(0.924, -0.383, 0.383, 0.924, 133.774, 192.468)" fill="#009499"/>
  <circle id="Ellipse_2" data-name="Ellipse 2" cx="7.503" cy="7.503" r="7.503" transform="translate(29.703 108.84)" fill="#195190"/>
  <path id="Path_16" data-name="Path 16" d="M431.526,225.917a7.5,7.5,0,1,1-7.5-7.5A7.5,7.5,0,0,1,431.526,225.917Z" transform="translate(148.708 -36.891)" fill="#316aeb"/>
  <circle id="Ellipse_3" data-name="Ellipse 3" cx="7.503" cy="7.503" r="7.503" transform="translate(309.347 290.903) rotate(-23.667)" fill="#195190"/>
  <path id="Path_17" data-name="Path 17" d="M37.206,327.684H50.455L43.83,339.157l-6.624,11.474-6.624-11.474-6.624-11.474Z" transform="translate(0 -77.005)" fill="#195190"/>
  <path id="Path_18" data-name="Path 18" d="M451.283,440.343l10.911-7.515,1.053,13.207,1.053,13.207-11.964-5.691-11.964-5.691Z" transform="translate(148.708 -77.005)" fill="#316aeb"/>
  <path id="Path_19" data-name="Path 19" d="M457.82,113.881l-4.2-12.565,12.982,2.645,12.982,2.646-8.782,9.92-8.782,9.92Z" transform="translate(148.708 -77.005)" fill="#009499"/>
</svg>
