<svg xmlns="http://www.w3.org/2000/svg" width="12.284" height="12.711" viewBox="0 0 12.284 12.711">
  <g id="list-view" transform="translate(12.284) rotate(90)">
    <path id="Path_49574" data-name="Path 49574" d="M13.739,40.684h-1.9c-.363,0-.639-.424-.639-.922V29.322c0-.523.294-.922.639-.922h1.9c.363,0,.639.424.639.922v10.44C14.378,40.285,14.1,40.684,13.739,40.684Z" transform="translate(-11.2 -28.4)" fill="#fff"/>
    <path id="Path_49575" data-name="Path 49575" d="M41.339,22.684h-1.9a.657.657,0,0,1-.639-.675V11.075a.656.656,0,0,1,.639-.675h1.9a.657.657,0,0,1,.639.675V22.009A.656.656,0,0,1,41.339,22.684Z" transform="translate(-34.033 -10.4)" fill="#fff"/>
    <path id="Path_49576" data-name="Path 49576" d="M68.939,51.184h-1.9c-.363,0-.639-.538-.639-1.171V40.071c0-.665.294-1.171.639-1.171h1.9c.363,0,.639.538.639,1.171v9.941C69.578,50.677,69.284,51.184,68.939,51.184Z" transform="translate(-56.867 -38.9)" fill="#fff"/>
  </g>
</svg>
