<svg xmlns="http://www.w3.org/2000/svg" width="18.15" height="19.457" viewBox="0 0 18.15 19.457">
  <g id="Group_40596" data-name="Group 40596" transform="translate(0)">
    <path id="Path_114263" data-name="Path 114263" d="M2.831,23.97H14.418L11.43,27.013a.615.615,0,0,0,0,.849.594.594,0,0,0,.411.184.571.571,0,0,0,.411-.163l3.722-3.717a.577.577,0,0,0,0-.819L15.8,23.17a.574.574,0,0,0-.149-.148l-3.4-3.4a.581.581,0,0,0-.821,0,.516.516,0,0,0,0,.766L13.9,22.809H2.831a.581.581,0,1,0,0,1.162Z" transform="translate(-2.25 -13.806)" fill="#fff"/>
    <path id="Path_114264" data-name="Path 114264" d="M33.528,17.216V2.771A2.753,2.753,0,0,0,30.988,0H23.437A2.865,2.865,0,0,0,20.75,2.771V6.209a.581.581,0,1,0,1.162,0V2.771a1.716,1.716,0,0,1,1.525-1.609h7.551a1.592,1.592,0,0,1,1.379,1.609V17.216c0,.773-.64,1.08-1.379,1.08H23.437c-.687,0-1.525-.258-1.525-1.08V13.76a.581.581,0,1,0-1.162,0v3.456a2.42,2.42,0,0,0,2.687,2.242h7.551A2.3,2.3,0,0,0,33.528,17.216Z" transform="translate(-15.377)" fill="#fff"/>
  </g>
</svg>
