<svg id="logout-blue" xmlns="http://www.w3.org/2000/svg" width="14.386" height="15.422" viewBox="0 0 14.386 15.422">
  <g id="Group_40596" data-name="Group 40596">
    <path id="Path_114263" data-name="Path 114263" d="M.46,3.578H9.645L7.276,5.99a.487.487,0,0,0,0,.673.471.471,0,0,0,.326.146.453.453,0,0,0,.325-.129l2.95-2.947a.458.458,0,0,0,0-.649l-.14-.14a.455.455,0,0,0-.118-.118L7.927.135a.46.46,0,0,0-.651,0,.409.409,0,0,0,0,.607L9.236,2.657H.46a.46.46,0,0,0,0,.921Z" transform="translate(11.012 11.287) rotate(180)" fill="#3d6fde"/>
    <path id="Path_114264" data-name="Path 114264" d="M30.878,13.646V2.2A2.182,2.182,0,0,0,28.865,0H22.88a2.271,2.271,0,0,0-2.13,2.2V4.922a.46.46,0,1,0,.921,0V2.2A1.36,1.36,0,0,1,22.88.921h5.985A1.262,1.262,0,0,1,29.957,2.2V13.646c0,.613-.507.856-1.093.856H22.88c-.544,0-1.209-.2-1.209-.856V10.906a.46.46,0,1,0-.921,0v2.739a1.918,1.918,0,0,0,2.13,1.777h5.985A1.819,1.819,0,0,0,30.878,13.646Z" transform="translate(-16.492)" fill="#3d6fde"/>
  </g>
</svg>
