<svg xmlns="http://www.w3.org/2000/svg" width="36.463" height="35.858" viewBox="0 0 36.463 35.858">
  <g id="logout" transform="translate(-1577.751 -49)">
    <g id="sign-in" transform="translate(1577.751 49)">
      <g id="Group_40596" data-name="Group 40596" transform="translate(0)">
        <path id="Path_114263" data-name="Path 114263" d="M26.783,27.775H5.429l5.507,5.608a1.133,1.133,0,0,1,0,1.564,1.1,1.1,0,0,1-.757.339,1.053,1.053,0,0,1-.757-.3L2.564,28.135a1.064,1.064,0,0,1,0-1.509l.325-.325a1.059,1.059,0,0,1,.275-.273L9.422,19.77a1.07,1.07,0,0,1,1.514,0,.952.952,0,0,1,0,1.412L6.38,25.634h20.4a1.07,1.07,0,1,1,0,2.141Z" transform="translate(-2.25 -9.043)" fill="#fff"/>
        <path id="Path_114264" data-name="Path 114264" d="M44.3,31.726V5.106C44.3,2.541,42.207,0,39.617,0H25.7A5.28,5.28,0,0,0,20.75,5.106v6.337a1.07,1.07,0,1,0,2.141,0V5.106A3.162,3.162,0,0,1,25.7,2.141H39.617c1.417,0,2.541,1.572,2.541,2.965v26.62c0,1.425-1.179,1.99-2.541,1.99H25.7c-1.266,0-2.811-.475-2.811-1.99V25.358a1.07,1.07,0,1,0-2.141,0v6.369c0,2.512,2.238,4.131,4.952,4.131H39.617C42.392,35.858,44.3,34.157,44.3,31.726Z" transform="translate(-7.835)" fill="#fff"/>
      </g>
    </g>
  </g>
</svg>
