<svg xmlns="http://www.w3.org/2000/svg" xmlns:xlink="http://www.w3.org/1999/xlink" width="31.435" height="30" viewBox="0 0 31.435 30">
  <defs>
    <filter id="Ellipse_5896" x="1.435" y="0" width="30" height="30" filterUnits="userSpaceOnUse">
      <feOffset dy="3" input="SourceAlpha"/>
      <feGaussianBlur stdDeviation="3" result="blur"/>
      <feFlood flood-opacity="0.161"/>
      <feComposite operator="in" in2="blur"/>
      <feComposite in="SourceGraphic"/>
    </filter>
  </defs>
  <g id="notification" transform="translate(-969.565 -11)">
    <g id="notification-2" data-name="notification" transform="translate(905.548 17.202)">
      <g id="Group_40871" data-name="Group 40871" transform="translate(64.017)">
        <g id="Group_40870" data-name="Group 40870">
          <path id="Path_115005" data-name="Path 115005" d="M84.241,16.818c-.008-.015-.016-.03-.025-.044a1.431,1.431,0,0,0-.526-.556c-1.541-.889-2.473-3.308-2.771-7.19a6.716,6.716,0,0,0-4.946-5.951,2,2,0,1,0-3.364,0,6.716,6.716,0,0,0-4.946,5.951c-.3,3.882-1.231,6.3-2.771,7.19a2.026,2.026,0,0,0-.838,1.581,2.854,2.854,0,0,0,.311,1.961.571.571,0,0,0,.4.167h6.092a3.478,3.478,0,0,0,6.862,0h6.092a.571.571,0,0,0,.4-.167,2.855,2.855,0,0,0,.311-1.962A2.928,2.928,0,0,0,84.241,16.818ZM74.292,1.142A.857.857,0,1,1,73.435,2,.858.858,0,0,1,74.292,1.142Zm0,20.551a2.341,2.341,0,0,1-2.266-1.766h4.532A2.341,2.341,0,0,1,74.292,21.693ZM83.4,18.785H65.181a3.374,3.374,0,0,1,0-.762c.055-.51.2-.768.286-.818,1.913-1.1,3.005-3.751,3.339-8.092a5.5,5.5,0,0,1,10.979,0,17.943,17.943,0,0,0,1.016,5.1,8.3,8.3,0,0,0,.547,1.142,13.99,13.99,0,0,0,2,2.284,2.656,2.656,0,0,1,.067.38A3.37,3.37,0,0,1,83.4,18.785Z" transform="translate(-64.017)" fill="#666d7b"/>
        </g>
      </g>
    </g>
    <g transform="matrix(1, 0, 0, 1, 969.57, 11)" filter="url(#Ellipse_5896)">
      <circle id="Ellipse_5896-2" data-name="Ellipse 5896" cx="6" cy="6" r="6" transform="translate(10.43 6)" fill="#ed3348"/>
    </g>
  </g>
</svg>
