<svg id="notification2" xmlns="http://www.w3.org/2000/svg" width="12.838" height="14.265" viewBox="0 0 12.838 14.265">
  <g id="Group_40871" data-name="Group 40871" transform="translate(0)">
    <g id="Group_40870" data-name="Group 40870">
      <path id="Path_115005" data-name="Path 115005" d="M76.651,10.506c0-.009-.01-.019-.015-.028a.894.894,0,0,0-.328-.348c-.962-.555-1.545-2.067-1.731-4.492a4.2,4.2,0,0,0-3.09-3.717,1.249,1.249,0,1,0-2.1,0A4.2,4.2,0,0,0,66.3,5.639c-.186,2.425-.769,3.937-1.731,4.492a1.266,1.266,0,0,0-.524.988,1.783,1.783,0,0,0,.194,1.225.357.357,0,0,0,.252.1h3.806a2.173,2.173,0,0,0,4.287,0h3.806a.357.357,0,0,0,.252-.1,1.784,1.784,0,0,0,.194-1.226A1.829,1.829,0,0,0,76.651,10.506ZM70.436.713a.535.535,0,1,1-.535.535A.536.536,0,0,1,70.436.713Zm0,12.839a1.462,1.462,0,0,1-1.416-1.1h2.831A1.462,1.462,0,0,1,70.436,13.552Zm5.692-1.817H64.744a2.107,2.107,0,0,1,0-.476c.034-.319.126-.48.179-.511,1.2-.69,1.878-2.343,2.086-5.055a3.438,3.438,0,0,1,6.859,0A11.209,11.209,0,0,0,74.5,8.883a5.188,5.188,0,0,0,.342.713,8.74,8.74,0,0,0,1.247,1.427,1.659,1.659,0,0,1,.042.237A2.105,2.105,0,0,1,76.127,11.736Z" transform="translate(-64.017)" fill="#195190"/>
    </g>
  </g>
</svg>
