<svg xmlns="http://www.w3.org/2000/svg" width="49.018" height="59.331" viewBox="0 0 49.018 59.331">
  <g id="bell" transform="translate(-45.256 -20.589)">
    <path id="Path_116075" data-name="Path 116075" d="M238.139,55.081v3.032l-7.74.038v-3.07a3.87,3.87,0,0,1,7.74,0Zm0,0" transform="translate(-164.503 -29.335)" fill="#b8c6dc"/>
    <path id="Path_116076" data-name="Path 116076" d="M234.269,57.979v3.032l-3.87.025V57.979a3.871,3.871,0,0,1,1.935-3.354,4.284,4.284,0,0,1,.8.619A3.863,3.863,0,0,1,234.269,57.979Zm0,0" transform="translate(-164.503 -32.233)" fill="#e3e7f2"/>
    <path id="Path_116077" data-name="Path 116077" d="M148.837,130v5.16a1.29,1.29,0,0,1-1.29,1.29H103.689a1.29,1.29,0,0,1-1.29-1.29V130a1.29,1.29,0,0,1,1.29-1.29,5.12,5.12,0,0,0,1.342-.181,5.257,5.257,0,0,0,2.309-1.329,5.194,5.194,0,0,0,1.509-3.651v-12.4a17.553,17.553,0,0,1,5.069-12.242,16.419,16.419,0,0,1,11.713-5.031,16.78,16.78,0,0,1,16.756,16.769v12.9a5.16,5.16,0,0,0,5.16,5.16,1.289,1.289,0,0,1,1.29,1.29Zm0,0" transform="translate(-55.853 -65.553)" fill="#b8c6dc"/>
    <path id="Path_116078" data-name="Path 116078" d="M145.612,147.064v3.87H103.689a1.29,1.29,0,0,1-1.29-1.29v-4.257a5.031,5.031,0,0,0,2.632-2.373,5.257,5.257,0,0,0,2.309-1.329,5.194,5.194,0,0,0,1.509-3.651v-12.4a17.553,17.553,0,0,1,5.069-12.242,16.03,16.03,0,0,1,8.488-2.451,16.78,16.78,0,0,1,16.757,16.769v12.9a5.16,5.16,0,0,0,5.16,5.16A1.29,1.29,0,0,1,145.612,147.064Zm0,0" transform="translate(-55.853 -80.04)" fill="#e3e7f2"/>
    <path id="Path_116079" data-name="Path 116079" d="M171.956,134.176a1.29,1.29,0,0,1-1.29-1.29,13.335,13.335,0,0,1,12.9-13.4,1.29,1.29,0,1,1,0,2.58,10.723,10.723,0,0,0-10.32,10.825A1.29,1.29,0,0,1,171.956,134.176Zm0,0" transform="translate(-113.801 -87.285)" fill="#fff"/>
    <path id="Path_116080" data-name="Path 116080" d="M157.471,318.326h-2.58a1.29,1.29,0,0,1,0-2.58h2.58a1.29,1.29,0,1,1,0,2.58Zm0,0" transform="translate(-99.315 -253.882)" fill="#fff"/>
    <path id="Path_116081" data-name="Path 116081" d="M225.44,318.326H206.09a1.29,1.29,0,0,1,0-2.58H225.44a1.29,1.29,0,1,1,0,2.58Zm0,0" transform="translate(-142.775 -253.882)" fill="#fff"/>
    <path id="Path_116082" data-name="Path 116082" d="M171.958,234.284a1.29,1.29,0,0,1-1.29-1.29V231.7a1.29,1.29,0,0,1,2.58,0v1.29A1.29,1.29,0,0,1,171.958,234.284Zm0,0" transform="translate(-113.802 -181.449)" fill="#fff"/>
    <path id="Path_116083" data-name="Path 116083" d="M220.28,375.48a7.739,7.739,0,0,1-7.74,7.74,7.364,7.364,0,0,1-1.613-.168,7.759,7.759,0,0,1-6.127-7.572Zm0,0" transform="translate(-142.775 -304.586)" fill="#b8c6dc"/>
    <path id="Path_116084" data-name="Path 116084" d="M217.055,375.48a7.759,7.759,0,0,1-6.128,7.572,7.759,7.759,0,0,1-6.127-7.572Zm0,0" transform="translate(-142.775 -304.586)" fill="#e3e7f2"/>
    <path id="Path_116089" data-name="Path 116089" d="M208.67,375.48H204.8a7.759,7.759,0,0,0,6.127,7.572,7.364,7.364,0,0,0,1.613.168,7.758,7.758,0,0,0,1.956-.258A7.74,7.74,0,0,1,208.67,375.48Zm0,0" transform="translate(-142.775 -304.586)" fill="#fff"/>
    <path id="Path_116091" data-name="Path 116091" d="M102.4,93.78v5.16a1.29,1.29,0,0,0,1.29,1.29h3.87a1.29,1.29,0,0,1-1.29-1.29V93.78a1.29,1.29,0,0,1,1.29-1.29,5.119,5.119,0,0,0,1.341-.181,5.259,5.259,0,0,0,2.309-1.329,5.194,5.194,0,0,0,1.509-3.651v-12.4a17.551,17.551,0,0,1,5.069-12.242,16.772,16.772,0,0,1,7.878-4.541h-.048v-3.07a3.87,3.87,0,0,1,1.917-3.341,3.841,3.841,0,0,0-5.787,3.341v3.07h.048a16.772,16.772,0,0,0-7.878,4.541,17.553,17.553,0,0,0-5.069,12.242v12.4a5.194,5.194,0,0,1-1.509,3.651,5.257,5.257,0,0,1-2.309,1.329,5.12,5.12,0,0,1-1.342.181,1.289,1.289,0,0,0-1.29,1.29Zm0,0" transform="translate(-55.853 -29.335)" fill="#fff"/>
    <g id="Group_42765" data-name="Group 42765" transform="translate(45.256 20.589)">
      <path id="Path_116099" data-name="Path 116099" d="M122.023,44.213a5.16,5.16,0,0,0-8.807,3.647v2.086a18.091,18.091,0,0,0-7.611,4.773,18.961,18.961,0,0,0-5.288,13V80.108a3.87,3.87,0,0,1-3.87,3.87,2.58,2.58,0,0,0-2.58,2.58v5.16a2.58,2.58,0,0,0,2.58,2.58h13a9.018,9.018,0,0,0,17.853,0h13a2.58,2.58,0,0,0,2.58-2.58v-5.16a2.58,2.58,0,0,0-2.58-2.58,3.87,3.87,0,0,1-3.87-3.87v-12.9a18.085,18.085,0,0,0-12.9-17.309V47.86A5.122,5.122,0,0,0,122.023,44.213ZM115.8,47.86a2.58,2.58,0,1,1,5.16,0v1.494a17.981,17.981,0,0,0-2.568-.2h-.012a17.088,17.088,0,0,0-2.58.217Zm2.58,51.6a6.461,6.461,0,0,1-6.321-5.16H124.7A6.461,6.461,0,0,1,118.376,99.458Zm15.479-32.249v12.9a6.463,6.463,0,0,0,6.45,6.45v5.16H96.447v-5.16a6.458,6.458,0,0,0,6.45-6.45V67.715A16.353,16.353,0,0,1,107.465,56.5a15.074,15.074,0,0,1,10.912-4.772h.009A15.489,15.489,0,0,1,133.856,67.209Zm0,0" transform="translate(-93.867 -42.704)" fill="#666d7b"/>
      <path id="Path_116100" data-name="Path 116100" d="M170.667,132.885a1.29,1.29,0,1,0,2.58,0,10.723,10.723,0,0,1,10.32-10.825,1.29,1.29,0,1,0,0-2.58A13.335,13.335,0,0,0,170.667,132.885Zm0,0" transform="translate(-159.057 -107.874)" fill="#666d7b"/>
      <path id="Path_116101" data-name="Path 116101" d="M157.471,315.746h-2.58a1.29,1.29,0,0,0,0,2.58h2.58a1.29,1.29,0,1,0,0-2.58Zm0,0" transform="translate(-144.572 -274.471)" fill="#666d7b"/>
      <path id="Path_116102" data-name="Path 116102" d="M204.8,317.036a1.29,1.29,0,0,0,1.29,1.29H225.44a1.29,1.29,0,1,0,0-2.58H206.09A1.29,1.29,0,0,0,204.8,317.036Zm0,0" transform="translate(-188.031 -274.471)" fill="#666d7b"/>
      <path id="Path_116103" data-name="Path 116103" d="M171.958,230.414a1.29,1.29,0,0,0-1.29,1.29v1.29a1.29,1.29,0,0,0,2.58,0V231.7A1.29,1.29,0,0,0,171.958,230.414Zm0,0" transform="translate(-159.058 -202.038)" fill="#666d7b"/>
    </g>
  </g>
</svg>
