<svg xmlns="http://www.w3.org/2000/svg" width="665.813" height="302.465" viewBox="0 0 665.813 302.465">
  <g id="oops" transform="translate(0.508)">
    <g id="Group_40743" data-name="Group 40743" transform="translate(-189.076 -198.414)">
      <g id="Group_40742" data-name="Group 40742" transform="translate(189.076 198.414)">
        <path id="Path_115271" data-name="Path 115271" d="M658.441,395.514c-3.344-6.38-16.934-11.505-23.016-12.667-32.462-6.2-66.463-5.33-99.347-5.226-35.813.113-69.982,5.844-105.5,8.5-18.469,1.376-37.988-1.1-56.5-1.745q-45.727-1.584-91.434-3.718c-26.272-1.226-53.54,1.523-76.714,16.007-2.634,1.648-5.295,3.635-6.493,6.591-7.528,18.558,86.294,16.227,98.517,16.545,61.659,1.6,123.358,2.434,185.024.765,45.851-1.242,93.635-1.166,139.107-7.636,10.055-1.431,23.74-1.944,32.427-7.861C659.321,401.793,660.014,398.516,658.441,395.514Z" transform="translate(-159.982 -121.424)" fill="#e7f5fe"/>
        <g id="Group_40708" data-name="Group 40708" transform="translate(0 0)">
          <path id="Path_115272" data-name="Path 115272" d="M777.9,187.489c21.932,0,57.668,6.514,54.134,22.6-4.844,22.046-135.287,13.916-166.443,14.145-62.654.459-125.971.636-187.4,10.928-14.937,2.5-36.333,8.026-34.706,22.342.569,5,4.492,9.527,9.482,12.912,17.94,12.172,42.938,13.338,66.142,15.474,35.1,3.232,202.044-1.075,256.616,12.366,10.748,2.647,24.175,6.061,24.622,17.594,1.137,29.324-95.811,27.881-124.89,28.438-77.616,1.487-155.318.9-232.936-.253-62.725-.93-125.648-1.753-188.271-4.794-23.345-1.133-61.525-1.473-79.328-14.638-9.956-7.361-11.261-20.744,4.478-27.581,11.095-4.819,43.638-2.712,56.163-3.52,40.482-2.616,24.614-22.151-10.872-22.151" transform="translate(-167.49 -166.69)" fill="none" stroke="#164171" stroke-miterlimit="10" stroke-width="1" stroke-dasharray="4"/>
          <g id="Group_40701" data-name="Group 40701" transform="translate(581.267)">
            <path id="Path_115273" data-name="Path 115273" d="M547.7,212.933l-7.507-39.686a3.135,3.135,0,0,0-5.126-1.794L504.452,197.8a3.135,3.135,0,0,0,1.01,5.337l38.123,13.34A3.135,3.135,0,0,0,547.7,212.933Z" transform="translate(-503.36 -170.692)" fill="#f0faff"/>
            <g id="Group_40700" data-name="Group 40700" transform="translate(5.255 5.1)">
              <path id="Path_115274" data-name="Path 115274" d="M540.906,211.349a1.945,1.945,0,0,1-.641-.109l-31.356-10.973a1.949,1.949,0,0,1-.628-3.316l25.182-21.67a1.946,1.946,0,0,1,3.183,1.114l6.176,32.644a1.947,1.947,0,0,1-1.917,2.309Zm-30.315-13.117L540.219,208.6l-5.834-30.844Z" transform="translate(-507.604 -174.81)" fill="#b5ddf7"/>
            </g>
            <path id="Path_115275" data-name="Path 115275" d="M523.657,196.187h0a1.175,1.175,0,0,1-.738-1.447l3.109-10.909a1.844,1.844,0,0,1,2.376-1.21h0a1.843,1.843,0,0,1,1.1,2.427l-4.371,10.468A1.176,1.176,0,0,1,523.657,196.187Z" transform="translate(-498.713 -167.875)" fill="#b5ddf7"/>
            <path id="Path_115276" data-name="Path 115276" d="M524.137,196.266a1.2,1.2,0,1,1-.734-1.525A1.2,1.2,0,0,1,524.137,196.266Z" transform="translate(-498.966 -164.979)" fill="#b5ddf7"/>
          </g>
          <g id="Group_40703" data-name="Group 40703" transform="translate(40.81 84.799)">
            <path id="Path_115277" data-name="Path 115277" d="M205.614,246.847,180.93,234.559a2.141,2.141,0,0,0-3.091,2.049l1.7,27.52a2.141,2.141,0,0,0,3.32,1.652l22.982-15.234A2.14,2.14,0,0,0,205.614,246.847Z" transform="translate(-177.836 -234.331)" fill="#f0faff"/>
            <g id="Group_40702" data-name="Group 40702" transform="translate(2.374 3.172)">
              <path id="Path_115278" data-name="Path 115278" d="M202.443,249.133a1.33,1.33,0,0,1-.323.3l-18.9,12.529a1.33,1.33,0,0,1-2.062-1.026l-1.4-22.636a1.329,1.329,0,0,1,1.919-1.273l20.3,10.106a1.327,1.327,0,0,1,.466,1.995ZM182.8,260.212l17.862-11.84-19.183-9.549Z" transform="translate(-179.753 -236.893)" fill="#b5ddf7"/>
            </g>
            <path id="Path_115279" data-name="Path 115279" d="M188.84,249.934h0a.8.8,0,0,1-1.092-.2l-4.652-6.19a1.261,1.261,0,0,1,.322-1.793h0a1.26,1.26,0,0,1,1.776.4l3.89,6.695A.8.8,0,0,1,188.84,249.934Z" transform="translate(-176.64 -232.613)" fill="#b5ddf7"/>
            <path id="Path_115280" data-name="Path 115280" d="M189.359,249.28a.818.818,0,1,1-1.133-.229A.818.818,0,0,1,189.359,249.28Z" transform="translate(-175.448 -230.857)" fill="#b5ddf7"/>
          </g>
          <g id="Group_40707" data-name="Group 40707" transform="translate(55.63 24.988)">
            <circle id="Ellipse_8620" data-name="Ellipse 8620" cx="2.056" cy="2.056" r="2.056" transform="translate(0 117.71)" fill="none" stroke="#d2e8f9" stroke-miterlimit="10" stroke-width="1"/>
            <circle id="Ellipse_8621" data-name="Ellipse 8621" cx="2.056" cy="2.056" r="2.056" transform="translate(430.8 79.674)" fill="none" stroke="#d2e8f9" stroke-miterlimit="10" stroke-width="1"/>
            <circle id="Ellipse_8622" data-name="Ellipse 8622" cx="2.056" cy="2.056" r="2.056" transform="translate(202.232 22.072)" fill="none" stroke="#d2e8f9" stroke-miterlimit="10" stroke-width="1"/>
            <circle id="Ellipse_8623" data-name="Ellipse 8623" cx="2.056" cy="2.056" r="2.056" transform="translate(198.749 178.398)" fill="none" stroke="#d2e8f9" stroke-miterlimit="10" stroke-width="1"/>
            <g id="Group_40704" data-name="Group 40704" transform="translate(266.112 59.417)">
              <line id="Line_26" data-name="Line 26" y2="4.651" transform="translate(2.325)" fill="none" stroke="#d2e8f9" stroke-linecap="round" stroke-linejoin="round" stroke-width="1"/>
              <line id="Line_27" data-name="Line 27" x1="4.651" transform="translate(0 2.325)" fill="none" stroke="#d2e8f9" stroke-linecap="round" stroke-linejoin="round" stroke-width="1"/>
            </g>
            <g id="Group_40705" data-name="Group 40705" transform="translate(384.004)">
              <line id="Line_28" data-name="Line 28" y2="4.651" transform="translate(2.325)" fill="none" stroke="#d2e8f9" stroke-linecap="round" stroke-linejoin="round" stroke-width="1"/>
              <line id="Line_29" data-name="Line 29" x1="4.651" transform="translate(0 2.325)" fill="none" stroke="#d2e8f9" stroke-linecap="round" stroke-linejoin="round" stroke-width="1"/>
            </g>
            <g id="Group_40706" data-name="Group 40706" transform="translate(566.395 125.444)">
              <line id="Line_30" data-name="Line 30" y2="4.651" transform="translate(2.325)" fill="none" stroke="#d2e8f9" stroke-linecap="round" stroke-linejoin="round" stroke-width="1"/>
              <line id="Line_31" data-name="Line 31" x1="4.651" transform="translate(0 2.325)" fill="none" stroke="#d2e8f9" stroke-linecap="round" stroke-linejoin="round" stroke-width="1"/>
            </g>
          </g>
        </g>
        <g id="Group_40741" data-name="Group 40741" transform="translate(140.293 40.852)">
          <path id="Path_115361" data-name="Path 115361" d="M269.927,222.117,257.243,211.9s5.7-21.066-1.847-28.423a41.256,41.256,0,0,0-14.341-8.576c-11.671-4.429-25.613-5.434-36.016,1.469-7.673,5.091-12.337,13.818-14.426,22.788-1.837,7.9-1.684,16.872,3.253,23.3a25.3,25.3,0,0,0,8.48,6.752c10.036,5.259,36.581,7.243,48.1-.474,3.19-2.137,2.91-5.027,4.246-9.542Z" transform="translate(-189.532 -171.38)" fill="#164171"/>
          <text id="Oops_" data-name="Oops!" transform="translate(33.349 37.49)" fill="#fff" font-size="20" font-family="OpenSans, Open Sans" letter-spacing="-0.03em"><tspan x="-26.197" y="0">Oops!</tspan></text>
        </g>
      </g>
    </g>
    <g id="Group_40748" data-name="Group 40748" transform="translate(-87.84 -122.877)">
      <g id="Group_40746" data-name="Group 40746">
        <path id="Path_115362" data-name="Path 115362" d="M334.185,421.973q7.425.894,14.858,1.722c6.247.7,12.282,1.114,18.528,1.568a71.547,71.547,0,0,0,7.165-.059,23.075,23.075,0,0,0,4.525-.82,16.029,16.029,0,0,0,3.688-1.622,12.336,12.336,0,0,0,4.687-4.918,12.955,12.955,0,0,0-.351-12.714,18.655,18.655,0,0,0-2.885-3.637c2.657-5.383-1.013-12.147-11.535-15.726l.987-.078a9.114,9.114,0,0,0,4.322.539,126.691,126.691,0,0,0,13.448-1.359c.878-.166,25.954,8.182,36.479,7.6a59.774,59.774,0,0,0,6.217-.77,18.8,18.8,0,0,0,3.82-1.048,14.455,14.455,0,0,0,2.976-1.538,8.877,8.877,0,0,0,3.377-4.008,7.84,7.84,0,0,0,.44-4.525,9.094,9.094,0,0,0-2.542-4.567,16.309,16.309,0,0,0-3.022-2.32c1.657-4.427-3.22-9.258-14.4-10.4-3.522-.191-19.967-11.38-35.829-12.042a9.165,9.165,0,0,0-2.036-2.76,16.317,16.317,0,0,0-3.023-2.158c1.656-4.12-3.218-8.614-14.4-9.673-10.293-.518-102.532-6.4-105.669,2.788a28.133,28.133,0,0,0-5.2,1.465,11.886,11.886,0,0,0-5.71,4.355,6.348,6.348,0,0,0-1.044,3.779,6.817,6.817,0,0,0,1.12,3.347,11.584,11.584,0,0,0,1.514,1.843,14.1,14.1,0,0,0-4.169,2.188,7.671,7.671,0,0,0-2.182,2.6,5.213,5.213,0,0,0-.424,3.578,6.56,6.56,0,0,0,1.644,2.925,10.837,10.837,0,0,0,2.135,1.739,19.024,19.024,0,0,0,3.737,1.75c.3.1.6.181.9.265-2.815.621-4.676,1.619-5.316,3.073a26.92,26.92,0,0,0-6.2,1.319,15.149,15.149,0,0,0-7.456,5.466,11.818,11.818,0,0,0-2.077,5.364,12.2,12.2,0,0,0,.464,5.076,16.684,16.684,0,0,0,1.265,2.938,15.614,15.614,0,0,0-5.209,2.538,11.506,11.506,0,0,0-3.073,3.458,9.916,9.916,0,0,0-1.329,5.165,10.6,10.6,0,0,0,1.152,4.543,13.222,13.222,0,0,0,1.987,2.882,19.227,19.227,0,0,0,3.786,3.155c4.511,2.636,8.4,3.306,13.576,4.1.088.034.924.126,1.084.147,5.018.653,10.013,1.043,15.049,1.453,12.727,1.034,25.494,1.141,38.215,1.708.6.026,3.6.174,7.264.34,1.109,1.011,3.291,1.318,4.743,1.417a119.961,119.961,0,0,0,15.425.287,14.362,14.362,0,0,0,2.738-.736,7.7,7.7,0,0,0,1.765-1ZM304.46,368.444a8.972,8.972,0,0,0,.684,1.438,12.18,12.18,0,0,0,1.514,1.98c-.486.187-.928.369-1.343.564-6.566-1.029-13.041-1.934-19.106-2.618C292.31,369.454,298.386,368.948,304.46,368.444Z" fill="#5bb7b9" fill-rule="evenodd"/>
        <g id="Group_40745" data-name="Group 40745">
          <path id="Path_115363" data-name="Path 115363" d="M418.5,229.1c-2.11-.158-1.858,1.58-2.186,2.789-1.1,4.041-1.892,8.176-3.632,12.012-.789,1.742-1.951,3.317-1.365,5.418.2.716-.341,1.3-.854,1.815a23.932,23.932,0,0,1-4.851,3.957c-2.936,1.728-6.049,3.138-8.877,5.062-2.883,1.959-2.945,2.045-.6,4.627,2.848,3.141,2.627,6.092-.663,8.781a12.288,12.288,0,0,1-4.625,2.378,29.767,29.767,0,0,1-13.487.342c-7.534-1.419-15.015-2.976-22.7-3.622-6.5-.546-12.174-3.679-16.8-8.38-2.048-2.083-1.576-3.809,1.055-4.705,1.407-.48,3.447-.926,3.155-2.55-.3-1.675-2.415-1.629-4-1.658a1.1,1.1,0,0,0-.485.183.472.472,0,0,0-.1.706h0c.222.3.56.257.871.3-.318-.006-.645-.04-.87.264v0c-.433.462-1.15.047-1.584.512l-.006,0a.678.678,0,0,1-.324.2,2.641,2.641,0,0,1-2.368,2.863c-3.908.373-7.662,2.556-11.463,3.475-1.55.376-3.123.62-4.671.96.994,4.457-2.734,11.189-3.433,14.705A2.059,2.059,0,0,1,312,281.27a1.488,1.488,0,0,1-.216.848.428.428,0,0,1-.039.4,1.8,1.8,0,0,0-.384,1.468,3.46,3.46,0,0,0,.26.749c.109.243.222.484.353.716a4.542,4.542,0,0,1,.353,3.3c-1.964,8.151-2.326,16.522-3.357,24.8-.5,4.005-1.165,7.888-3.413,11.391a20.511,20.511,0,0,0-2.5,5.158,12.034,12.034,0,0,1-.02,2.71,2.3,2.3,0,0,1,2.4,2.4,26.116,26.116,0,0,1-2.969,12.514,4.077,4.077,0,0,0,.851.508c1.469-3.709,1.809-7.692,2.687-11.687a15.668,15.668,0,0,1,2.818,8.327c.013.78.187,1.448.913,1.721,2.369.892,4.121,2.868,6.671,3.527,2.094.542,4.082,1.571,6.154,2.235,6.223,1.994,9.275,6.3,10.089,12.66,1.832,14.294,2.715,28.674,4.076,43.009.251,2.646,1.082,5.374-.485,7.924-.048.531.336.733.715.939l-.011-.005a5.316,5.316,0,0,0,.515.547,3.093,3.093,0,0,0,.52.528h.525a1.644,1.644,0,0,0,.487-.56l-.014.011.018-.015,0,0a1.813,1.813,0,0,0,.536-.518l-.013.011.021-.019-.008.008a3.258,3.258,0,0,0,.541-.508l0,0a6.778,6.778,0,0,1,.543-.473l.038-.029c.221-.346.723-.236.95-.573l.028-.034c-.008.013-.019.021-.028.034a2.664,2.664,0,0,0,.577-.487l.01-.006a16.25,16.25,0,0,0,3.66-3.687l-.006.011a1.1,1.1,0,0,0,.112-1.215c-2.805-2.066-3.4-5.034-3.624-8.291-.315-4.521-.987-9.024-1.291-13.547-.265-3.914-1.724-7.953.586-11.77a1.445,1.445,0,0,0-.273-1.715c-2.839-3.3-2.287-7.41-2.58-11.25-.259-3.365.716-3.966,4.191-4.031,7.349-.137,14.634,1.078,21.962,1.033,4.632-.027,8.831.84,12.511,3.748a3.038,3.038,0,0,0,4.27-.2,15.732,15.732,0,0,0,4.406-6.423,147.372,147.372,0,0,0,7.239-24.886c1.4-7.2,1.888-14.568,3.932-21.649a3.272,3.272,0,0,0-1.133-3.508,14.559,14.559,0,0,1-3.251-4.694c-3.275-7.505.941-15.89,7.182-20.38a3.7,3.7,0,0,1,3.271-.4c1.511.411,2.483,1.559,3.6,2.536,1.206,1.054,1.989,2.74,3.92,2.783.063-.192.128-.383.192-.576a1.407,1.407,0,0,1,.418-.467l.029-.029a2.856,2.856,0,0,1,.5-.5l.028-.028a2.941,2.941,0,0,1,.5-.495l.027-.029a3.081,3.081,0,0,1,.5-.5l.028-.028c.152-.184.311-.364.472-.541.7-1.176-.132-2.563.516-3.746.021-.5.044-1,.064-1.505.613-1.554-.185-3.244.461-4.794.018-.324.035-.651.054-.976a6.741,6.741,0,0,0,.027-3.665l-.033-.043c-.393-.327-.291-.671-.046-1.023h0l.008-.012-.006.011a2.292,2.292,0,0,0,.525-.547c-.009,0-.019.015-.026.015l.033-.025-.007.01a.264.264,0,0,0,.111-.141c.048-.109.008-.218-.117-.335l.021.02c-.163-.18-.315-.37-.461-.564l-.04-.044a1.726,1.726,0,0,1-.484-.483l-.043-.043a1.769,1.769,0,0,1-.483-.481l-.041-.041a1.841,1.841,0,0,1-.485-.483l-.041-.044a1.677,1.677,0,0,1-.235-.193c-3.636-.044-7.257-.391-10.894-.421a2.428,2.428,0,0,1-2.35-3.019.765.765,0,0,1-.178-.07c-.425-.321-.345-.664-.036-1.014l0,.013c.3-.266.792-.184,1.046-.545l-.01,0,.024-.017c0,.006-.009.007-.014.014.323-.242.815-.155,1.06-.549l-.032.035a4.992,4.992,0,0,0,.579-.447.381.381,0,0,1,.354-.1c.392-.183.888-.128,1.188-.518l-.013.007.027-.019c0,.007-.01.008-.014.012.326-.223.794-.159,1.055-.512l-.01,0,.024-.017c0,.006-.01.007-.014.012.318-.243.79-.173,1.061-.514l-.009.005.016-.012-.007.007c.31-.26.781-.185,1.065-.5h0c.424-.471,1.157-.038,1.57-.533l0,0,.009-.005-.005,0a7.532,7.532,0,0,0,5.238-4.781.581.581,0,0,1,.053-.454c.507-.637-.054-1.516.48-2.147a.629.629,0,0,1,.063-.482c.4-.456.012-1.144.47-1.582l-.008.016c.591-.6-.04-1.505.541-2.1l-.006.008c.454-.488.119-1.2.486-1.706a.422.422,0,0,1,.063-.4c.438-.467.059-1.174.484-1.644a.62.62,0,0,1,.071-.465c.4-.455.012-1.144.47-1.58l-.008.014c.581-.624-.013-1.529.518-2.165a.639.639,0,0,1,.067-.469c.383-.492.058-1.173.445-1.663a.5.5,0,0,1,.047-.425c.525-.654-.013-1.54.48-2.2a.5.5,0,0,1,.044-.426A4.466,4.466,0,0,0,418.5,229.1Z" fill="#fff"/>
          <path id="Path_115364" data-name="Path 115364" d="M449.808,369.138a.427.427,0,0,1-.051-.4c-.383-.5-.02-1.224-.51-1.693l.012.021c-.287-.3-.2-.764-.473-1.067a.33.33,0,0,1-.088-.344,1.849,1.849,0,0,0-.434-.722l-.019-.034c-.362-.233-.232-.758-.59-.994l.027.028a6.954,6.954,0,0,0-.488-.572l-.011-.014c-.327-.24-.225-.741-.574-.967l0,0-.045-.034a.152.152,0,0,1,.041.029,1.373,1.373,0,0,0-.525-.554l.017.02-.03-.029.013.009a1.621,1.621,0,0,0-.518-.521l.01.014-.029-.028a.134.134,0,0,1,.019.014,1.843,1.843,0,0,0-.513-.535l.008.007-.022-.02a.043.043,0,0,1,.014.013,2.99,2.99,0,0,0-.522-.544l.011.011a4.075,4.075,0,0,0-.525-.526l-.01-.01a4.148,4.148,0,0,0-.526-.526l.012.012a4.137,4.137,0,0,0-.538-.537l.012.011a4.3,4.3,0,0,0-.536-.535l.012.011a2.884,2.884,0,0,0-.545-.519l.011.013-.022-.023c.005,0,.007.007.011.01a1.739,1.739,0,0,0-.526-.506l.008.009-.034-.027c.009,0,.015.012.026.018a1.073,1.073,0,0,0-.7-.515.366.366,0,0,1-.343-.124,3.4,3.4,0,0,0-.614-.423.613.613,0,0,1-.441-.131c-.2-.14-.4-.269-.614-.394a.577.577,0,0,1-.43-.091c-.339-.246-.79-.2-1.133-.427l-.973-.11c-1.016-.418-2.161.048-3.162-.474-.514.462-1.058.895-1.533,1.394a3.451,3.451,0,0,0-1.263,1.714c1.258-.468,2.306-.844,3.345-1.249a2.722,2.722,0,0,1,1.537-.184,1.066,1.066,0,0,1,.823.58c.165.368.005.635-.3.886a81.563,81.563,0,0,0-6.278,5.526,13.378,13.378,0,0,0-2.787,4.389,6.258,6.258,0,0,0,1.611,6.921,12.219,12.219,0,0,0,10.715,2.828,2.95,2.95,0,0,1,2.039.052,2.052,2.052,0,0,0,1.981-.218,5.185,5.185,0,0,0,1.8-1.492,4,4,0,0,1,3-1.344c.458-.044.492.376.577.7.223.14.377.077.472-.159a.525.525,0,0,1,.109-.4c.24-.309.152-.759.454-1.04l0,.008c.474-.429.046-1.157.527-1.585l0,.009A3.027,3.027,0,0,0,449.808,369.138Z" fill="#fff"/>
          <path id="Path_115365" data-name="Path 115365" d="M425.085,194.406a1.1,1.1,0,0,0-.529-.541l0,.008-.031-.027c.01.005.016.013.027.019a1.962,1.962,0,0,0-.486-.582l0,.008a4.8,4.8,0,0,1-.469-.546l-.042-.043a1.769,1.769,0,0,1-.481-.483l-.043-.043a1.755,1.755,0,0,1-.482-.482l-.041-.042a1.73,1.73,0,0,1-.37-.344,9.132,9.132,0,0,1-1.206-.209c-5.884-1.473-12.358-1.3-18.386-2.294a152.832,152.832,0,0,1-18.284-3.767c-6.052-1.767-11.7-2.3-17.914-3.052-2.53-.308-5.336-1.47-7.846-1.546a22.869,22.869,0,0,1-4.658-.573,8.711,8.711,0,0,1-1.723.678c-3.106.865-5.816,2.617-8.842,3.708-2.69.969-5.425,1.784-8.129,2.71-4.443,1.522-8.548,3.834-12.973,5.366.823,3.494.448,7.134-.165,10.786-.813,4.852-1.637,9.7-2.43,14.556-1.806,11.061-1.8,22.567-4.656,33.429a3.539,3.539,0,0,1,.459.449l.023.019a5.112,5.112,0,0,0,.572.477l-.029-.029c.457.538,1.2.159,1.7.523l.2-.022.18.075c.486.457,1.2.109,1.71.477l.2-.023.189.072c.8.614,1.847-.094,2.645.509l-.009-.008c1.187.71,2.58-.108,3.781.509l.2-.046.195.068a2.576,2.576,0,0,0,2.076.161c.062-1.652-1.4-1.549-2.334-1.9-3.181-1.178-6.474-2.076-9.491-3.733.169-.236.316-.291.512-.254,13.134,2.559,26.323,4.726,39.627,6.233,9.127,1.035,18.1,3.09,27.179,4.483,1.311.2,2.62.438,3.825-.334,4.189-2.689,8.594-5.088,12.14-8.672,9.831-9.941,15.615-22,18.482-35.558,1.035-4.889,1.615-9.869,2.723-15.1.925,1.929.259,3.731,1.123,5.234a.432.432,0,0,0,.706.033.574.574,0,0,1,.055-.448c.495-.66-.024-1.532.464-2.194a.5.5,0,0,1,.044-.425c.6-.814-.1-1.865.5-2.678a.639.639,0,0,1,.055-.481c.485-.648-.051-1.517.464-2.158a.623.623,0,0,1,.062-.465c.258-.535.409-1.059-.127-1.527Z" fill="#fff"/>
          <path id="Path_115366" data-name="Path 115366" d="M282.935,333.008a4.774,4.774,0,0,1-1.122-2.316,18.956,18.956,0,0,1,.172-4.2c-3.32,1.337-6.912,1.949-10.072,3.73-3.269,1.845-2.061,6.337-6.19,7.669-2.965.957-6.317-1.8-8.706-3.073-4.269-2.283-8.13-2.109-12.2-.556a1.5,1.5,0,0,1,.031.252c.009.678.473.83.993,1,3.733,1.193,7.451,2.435,11.2,3.582a2.065,2.065,0,0,1,1.744,1.966,2.642,2.642,0,0,0,.549,1.448c1.2,1.351,1.29,3.1,1.392,4.667.169,2.6.861,5.168.654,7.8a2.037,2.037,0,0,0,.053.78,17.536,17.536,0,0,1,.461,5.189,5.887,5.887,0,0,0,.07,1.566,19.371,19.371,0,0,1,.4,5.719c.026,2.62,0,5.24.019,7.859a11.706,11.706,0,0,0,.19,2.338,37.091,37.091,0,0,1,.857,6.172c.156,4.174-.323,8.37.487,12.527a2.046,2.046,0,0,1-1.824,2.431,7.827,7.827,0,0,1-1.3.058c-.052,0-.084.073-.1.217-.01.121.086.192.291.216a.461.461,0,0,1,.378.1.841.841,0,0,0,1.018.049c.185-.013.372-.027.557-.042l.543.468-.013-.013a2.672,2.672,0,0,0,.545.538l-.018-.017a1.779,1.779,0,0,0,.564.528l-.027-.04a.582.582,0,0,0,1,.014l-.025.031a5.427,5.427,0,0,0,.571-.479l.025-.016c.248-.339.769-.217,1.005-.584l-.026.028c.216-.126.372-.325.573-.468l.032-.021c.24-.348.765-.22.993-.592l-.027.031a3.442,3.442,0,0,0,.571-.491l.013-.007c.249-.319.749-.218.977-.57l0,0,.03-.04a.168.168,0,0,1-.027.037,1.509,1.509,0,0,0,.554-.508l-.007.006.02-.022-.013.016c.206-.131.363-.324.563-.463l.036-.023a24.883,24.883,0,0,0,3.663-3.607l.055-.067a.418.418,0,0,0,.018-.455c-1.266-.122-1.86-1.19-2.693-1.923a3.443,3.443,0,0,1-1.133-2.246c-.4-2.735-.993-5.441-1.433-8.172-.275-1.7-.442-3.43-.6-5.153a17.073,17.073,0,0,0-.341-2.833,12.585,12.585,0,0,1-.152-4.149c.134-1.75,1.27-2.95,2.513-4.051.816-5.98-.584-11.9-.467-17.9.729.189,1.255,1.071,2.139.621a9.081,9.081,0,0,0-.041-1.045c-.218-1.413.47-2.235,1.622-2.962a52.487,52.487,0,0,1,5.561-2.9,7.924,7.924,0,0,0,4.187-4.753,1.4,1.4,0,0,0-.179-1.466A12.516,12.516,0,0,1,282.935,333.008Z" fill="#fff"/>
          <path id="Path_115367" data-name="Path 115367" d="M413.57,284.07l-.01.012,0,.007Z" fill="#fff" fill-rule="evenodd"/>
          <path id="Path_115368" data-name="Path 115368" d="M341.605,415.3h0Z" fill="#fff" fill-rule="evenodd"/>
          <path id="Path_115369" data-name="Path 115369" d="M345.954,410.153c-2.093-.762-3.54-1.987-3.814-4.415-.4-3.545-.908-7.076-1.032-10.647-.825-2.345-.246-4.86-.892-7.25-.311-1.151.141-2.533-.248-3.634-.61-1.719.275-3.45-.373-5.118-.2-.5.165-1.028.458-1.459.435-.646.93-1.252,1.454-1.948a4.923,4.923,0,0,0-.839-.989,4.952,4.952,0,0,1-2.014-4.084c-.116-2.617-.814-5.176-.665-7.811a7.347,7.347,0,0,1,.355-2.309,2.793,2.793,0,0,1,2.915-2.018c2.7.329,5.411.058,8.114.178a9.471,9.471,0,0,1,3.11.341,1.888,1.888,0,0,0,.773.12c4.374-.249,8.687.912,13.061.567a17,17,0,0,1,9.282,2.262,11.118,11.118,0,0,1,2.328,1.677c1.259,1.129,1.864,1.074,3.166-.042A15.058,15.058,0,0,0,385.2,357.9a122.908,122.908,0,0,0,4.294-12.629c.989-3.345,1.9-6.709,2.611-10.121.586-2.806,1.041-5.642,1.529-8.467.842-4.882,1.269-9.837,2.6-14.632.071-.251.027-.566.16-.762,1.045-1.522.279-2.479-.88-3.508-3.537-3.137-4.631-7.277-4.437-11.807a14.6,14.6,0,0,1,.955-4.055,16.112,16.112,0,0,1,4.452-7.29c.795-.684,1.475-1.493,2.24-2.213a5.089,5.089,0,0,1,7.083-.064c1.353,1.237,2.606,2.587,3.913,3.879.369.362.769.7,1.156,1.043l.181-.05a.923.923,0,0,0,.441.468l.064.064a1.438,1.438,0,0,0,.453.5l.025.035c.139.2.332.362.474.565l-.016-.019a1.368,1.368,0,0,1,.507.6l-.051-.052c.423.192.289.744.636.983l.011.021c.153.207.384.358.444.631l-.057-.058c.45.227.357.738.574,1.088l-.032-.05c.446.292.382.814.554,1.229a.24.24,0,0,0,.119.324c.262.3.154.765.478,1.033l.005.007c.292.312.237.773.474,1.11l-.027-.042c.554.439.188,1.152.493,1.662l-.032-.042c.474.182.353.729.631,1.031l-.019-.03c.371.327.335.822.507,1.232a.247.247,0,0,0,.1.337c.273.314.2.769.452,1.091l-.021-.034c.385.322.342.822.517,1.232a.243.243,0,0,0,.1.335c.273.309.189.77.463,1.077l-.012-.025c.356.321.3.813.5,1.2a.311.311,0,0,0,.105.377c.258.316.185.768.448,1.082l-.017-.029c.539.387.064,1.153.577,1.548l.005.012c.292.344.258.817.462,1.2a.327.327,0,0,0,.114.395c.242.314.163.763.447,1.062l-.008-.019a3.177,3.177,0,0,1,.479,1.268.2.2,0,0,0,.083.3,4.236,4.236,0,0,1,.445,1.26.217.217,0,0,0,.1.319c.394.494.108,1.151.4,1.67l-.035-.047c.494.23.386.777.6,1.151a.316.316,0,0,0,.1.38c.255.354.223.81.427,1.184a.324.324,0,0,0,.111.394c.243.312.163.764.448,1.062l-.008-.019c.334.346.315.83.483,1.24a.246.246,0,0,0,.1.337c.274.31.2.769.459,1.084l-.016-.03c.366.337.341.831.5,1.249a.22.22,0,0,0,.1.319c.286.3.2.771.475,1.079l-.014-.025c.355.336.325.828.5,1.237a.244.244,0,0,0,.1.335c.272.315.2.771.452,1.093l-.019-.038c.632.615.055,1.513.507,2.171l-.033-.04a.866.866,0,0,1,.566.738.177.177,0,0,0,.093.274c.284.309.2.772.466,1.088l-.016-.031c.534.412.1,1.156.549,1.6l-.012-.024c.349.344.332.833.493,1.253a.208.208,0,0,0,.076.313c.31.338.255.819.463,1.2a.318.318,0,0,0,.1.386c.255.319.19.768.441,1.09l-.022-.036c.548.41.112,1.156.551,1.6l-.015-.029c.366.341.345.835.5,1.26a.2.2,0,0,0,.077.3,3.925,3.925,0,0,1,.447,1.271.2.2,0,0,0,.082.305c.538.614-.06,1.5.5,2.108l0,0c.318.282.229.768.527,1.061l-.006-.014c.481.434.075,1.157.518,1.6l-.013-.024c.5.465.138,1.2.515,1.7-.008.756-.017,1.509-.022,2.262-.157.427-.132.926-.511,1.261l.019-.032c-.267.312-.157.842-.6,1.051l.054-.056a1.3,1.3,0,0,1-.49.614l.01-.011a5.6,5.6,0,0,0-.449.565l-.025.04c-.217.3-.293.682-.524.977a4.334,4.334,0,0,1-1.238,1.149c1.559-.223,3.4-1.493,4.291.334.93,1.92-1.324,2.528-2.372,3.478-2.259,2.049-4.715,3.9-6.086,6.728-1.642,3.39-.915,6.088,2.175,8.159a12.676,12.676,0,0,0,8.216,1.976c2.675-.182,5.309-.191,7.4-2.434.58-.62,2.309-1.772,3.047.4a1.14,1.14,0,0,1-.222.7c-.011.175-.019.354-.029.529a.675.675,0,0,1-.039,1.037l.016-.021c-.291.29-.158.85-.648,1.01l.072-.072c-.152.485-.717.348-.989.652l0,0a1.028,1.028,0,0,1-.635.453l.05-.059c-.172.5-.715.371-1.034.62l.018-.021a1.228,1.228,0,0,1-.679.418,6.415,6.415,0,0,0-2.272,1.261c-6.335,5.544-18.2,2.455-22.012-5.37-1.917-3.928-.627-7.865.824-11.69.4-1.059,1.439-2.21-.1-3.24a3.728,3.728,0,0,1-.859-.808l.015.038a1.5,1.5,0,0,1-.58-.517l.012.014a2.383,2.383,0,0,1-.54-.535l.013.012a2.384,2.384,0,0,1-.537-.538l.012.013a2.5,2.5,0,0,1-.537-.536l.012.011a2.447,2.447,0,0,1-.538-.537l.013.012a2.447,2.447,0,0,1-.537-.538l.012.013a2.447,2.447,0,0,1-.537-.538l.012.014a1.452,1.452,0,0,1-.51-.594l.048.057c-.436-.31-.389-.829-.546-1.258a.2.2,0,0,0-.109-.3c-.274-.3-.175-.768-.478-1.054l0,.006c-.317-.3-.252-.769-.5-1.1l.023.037c-.394-.328-.363-.832-.52-1.261l0-.091c.074-.259.2-.522-.041-.765l.012.022a1.255,1.255,0,0,1-.507-.611l.057.06c-.464-.264-.379-.794-.573-1.19a.277.277,0,0,0-.114-.353c-.255-.32-.19-.769-.438-1.092l.02.036c-.382-.333-.355-.835-.512-1.257a.193.193,0,0,0-.075-.3c-.317-.322-.239-.808-.48-1.162a.376.376,0,0,0-.107-.425c-.236-.317-.158-.764-.444-1.06l.007.016c-.334-.334-.3-.82-.488-1.211a.3.3,0,0,0-.123-.372c-.237-.317-.162-.764-.444-1.062l.01.019c-.342-.325-.294-.814-.495-1.2a.316.316,0,0,0-.115-.382c-.248-.3-.15-.764-.464-1.035v-.005c-.3-.306-.24-.774-.488-1.1l.024.03c-.14-.1-.191-.207-.152-.317s.081-.17.124-.17l-.01.025c.119-.124.149-.236.1-.339s-.1-.149-.148-.149l-.043-.059a1.943,1.943,0,0,0-.457-.52l-.014-.02c-.156-.2-.379-.355-.457-.616l.049.054c-.427-.241-.339-.744-.562-1.09l.032.043c-.419-.247-.337-.748-.556-1.1l.017-.017c-1.05-.28-.815.526-.87,1.051-.128,1.249.231,2.525-.212,3.756a2.182,2.182,0,0,0-.107,1.385c-.461.891.06,1.932-.429,2.819-.029.3-.058.6-.089.906-.509.866.1,1.919-.463,2.775a.335.335,0,0,0-.05.412c-.472.671.018,1.536-.447,2.206a.4.4,0,0,0-.067.451c-.559.831.065,1.862-.459,2.7l-.087.906c-.546,1.045.124,2.259-.459,3.3a.383.383,0,0,0-.047.439c-.582,1.015.087,2.2-.446,3.228-.026.324-.053.647-.078.972-.628,1.194.153,2.57-.485,3.76a.34.34,0,0,0-.051.415c-.526.637.15,1.6-.59,2.18l.052-.066a.961.961,0,0,1-.561.579l.044-.044a1.009,1.009,0,0,1-.568.567l.041-.042a1.007,1.007,0,0,1-.566.568l.042-.042a1.006,1.006,0,0,1-.567.565l.042-.04a1.009,1.009,0,0,1-.568.567l.043-.042a1.019,1.019,0,0,1-.567.567l.042-.045a.8.8,0,0,1-.6.532l.055-.058c-.183.489-.717.37-1.047.606l.031-.024c-.243.412-.743.321-1.077.552l.029-.021c-.232.4-.745.295-1.044.576l.008-.006c-.246.346-.753.226-1.005.561l-.03.015c-.2.159-.345.4-.632.428l.049-.052c-.194.473-.723.361-1.053.6l.033-.024c-.228.4-.746.292-1.035.586h0c-.252.331-.755.209-1,.553l-.037.019c-.2.15-.348.385-.625.429l.046-.049c-.2.457-.73.34-1.041.6l.025-.016c-.244.372-.752.262-1.034.567l-.006,0a8.269,8.269,0,0,1-1.635.993l.033-.023c-.222.416-.74.3-1.041.585l.01,0a.989.989,0,0,1-.625.474l.051-.056c-.182.487-.717.369-1.045.607l.031-.021c-.235.4-.744.3-1.05.573l.02-.012c-2.384.8-4.908-.191-7.292.582l-.028.032c-.359.236-.232.744-.562.995l.007-.011c-.3.288-.187.813-.6,1.038l.045-.048c-.085.251-.307.4-.446.614l-.018.034c-.358.236-.232.748-.569.995l.008-.014c-.3.285-.17.839-.639,1.015l.058-.056a1.148,1.148,0,0,1-.469.631l0-.007c-.3.277-.173.837-.648,1l.061-.058a.94.94,0,0,1-.508.62l.031-.033a3.287,3.287,0,0,1-.48.585l-.011.019c-.452.452-.611,1.127-1.159,1.5l.051-.047a1.109,1.109,0,0,1-.532.6l.03-.031a1.724,1.724,0,0,1-.525.566l.012-.013a2.4,2.4,0,0,1-.537.538l.013-.013a2.439,2.439,0,0,1-.539.539l.013-.012a2.46,2.46,0,0,1-.537.536l.012-.011a2.477,2.477,0,0,1-.536.536l.012-.013a2.473,2.473,0,0,1-.537.539l.013-.012a1.915,1.915,0,0,1-.559.528l.025-.024a1.985,1.985,0,0,1-.528.56l.008-.014a47.649,47.649,0,0,1-6.232,6.343l-.038.036a1.9,1.9,0,0,0-.484.483l-.041.041a1.978,1.978,0,0,0-.484.482l-.042.042a3.555,3.555,0,0,0-.524.471l-.014.012a5.918,5.918,0,0,1-.548.5l.012-.012a2.486,2.486,0,0,1-.538.536l.011-.011a2.03,2.03,0,0,1-.553.532l.024-.022a1.326,1.326,0,0,1-.586.523l.038-.039a1.065,1.065,0,0,1-.561.57l.04-.039a1.461,1.461,0,0,1-.522.586l.02-.021a2.246,2.246,0,0,1-.537.546l.013-.012a2.579,2.579,0,0,1-.536.538l.011-.012a6.314,6.314,0,0,1-.5.551l-.012.015a2.966,2.966,0,0,0-.466.522l-.038.044c-.487.415-.636,1.09-1.149,1.486l.044-.04a1.574,1.574,0,0,1-.522.583l.017-.016a2.36,2.36,0,0,1-.538.541l.011-.012a2.371,2.371,0,0,1-.536.536l.013-.01a2.527,2.527,0,0,1-.537.536l.012-.012a2.56,2.56,0,0,1-.537.538l.006-.012C346.274,410.278,346.142,410.321,345.954,410.153Z" fill="#cdbfbd" fill-rule="evenodd"/>
          <path id="Path_115370" data-name="Path 115370" d="M303.248,348.229a31.776,31.776,0,0,1,.867-5.647c.428-2.088,1.264-4.17.923-6.408-.064-.428.363-.933.666-1.643.981,1.376,2.076,2.4,2.309,3.925a5.433,5.433,0,0,0,.972,2.4c1,1.386,1.408,2.791.347,4.336-.079.115-.011.331-.011.588.634.238,1.268.518,1.928.708.945.275,1.835.548,2.2,1.626.159.472.683.444,1.09.582a111.549,111.549,0,0,1,11.7,4.546,20.271,20.271,0,0,1,4.175,3.122,3.943,3.943,0,0,1,1.3,2.224c.212,1.018.61,2,.906,3a41.875,41.875,0,0,1,1.226,6.923c.325,2.674.4,5.367.858,8.036.4,2.308.48,4.672.667,7.016a8.823,8.823,0,0,0,.326,2.585,1.916,1.916,0,0,1,.15.766c-.18,2.98.521,5.9.55,8.867a69.75,69.75,0,0,0,.954,9.6,16.9,16.9,0,0,1,.106,1.83,18.815,18.815,0,0,0,.384,3.894,4.8,4.8,0,0,1-1.451,5.219,1.037,1.037,0,0,1-1.526-.008l.029.017c-.328-.245-.79-.166-1.1-.462l-.131-.118-.176.028c-.422-.147-.9-.141-1.255-.478l0,0c-.428-.459-1.173-.014-1.574-.55l.019.013c-.316-.266-.8-.178-1.074-.537l.032.033c-.227-1.518-1.1-1.952-2.6-1.878-1.4.067-2.871.375-4.252-.26l.024.013c-.459-.419-1.161-.03-1.613-.479l-.153-.111-.184.038c-.537-.327-1.257,0-1.748-.494l.011.007c-.611-.54-1.517.08-2.11-.532l.01.007c-.623-.538-1.523.07-2.131-.517l-.139-.1-.163.056c-.726-.4-1.628.068-2.324-.472l-.137-.1-.16.056a1.513,1.513,0,0,1-.748-.428l-.037-.031a2.272,2.272,0,0,0-.494-.48l-.041-.041a1.94,1.94,0,0,0-.485-.484l-.042-.042a1.92,1.92,0,0,0-.482-.482l-.043-.041a1.923,1.923,0,0,0-.484-.485l-.041-.041a2.264,2.264,0,0,0-.482-.5l-.025-.03c-.605-1.383.167-2.913-.463-4.292-.019-.322-.037-.643-.056-.967-.631-1.556.181-3.253-.468-4.807-.016-.321-.032-.643-.047-.963-.655-1.554.178-3.257-.479-4.813a2.416,2.416,0,0,0-.077-1.5c-.546-1.424.126-2.968-.421-4.392a2.253,2.253,0,0,0-.082-1.377c-.632-1.556.179-3.251-.469-4.808-.016-.32-.031-.642-.046-.963-.933-.9.814-2.693-1.1-3.263l.015.009a20.586,20.586,0,0,1-2.138,1.081l.036-.029c-.21.436-.738.32-1.036.6l.009-.007a.99.99,0,0,1-.622.478l.05-.057c-.186.486-.717.371-1.05.6l.032-.023c-.21.409-.741.284-1.008.6l-.012.009c-.191.178-.338.406-.623.45l.047-.053c-.192.465-.727.347-1.038.611l.023-.017c-.5.4-1.281.407-1.6,1.089l.026-.027a1.935,1.935,0,0,1-.544.549l.016-.017a1.071,1.071,0,0,1-.614.491l.049-.055c-.165.46-.725.319-.978.647l-.016.013a2.244,2.244,0,0,1-.587.48l.037-.035c-.2.39-.744.246-.961.613l-.054.034q-.285.225-.577.448l.025-.024a9.769,9.769,0,0,1-1.584,1.071l.011-.006a1.036,1.036,0,0,1-.619.485l.051-.055c-.173.468-.725.339-1.007.634l0,0a1.241,1.241,0,0,1-.609.488l.048-.052c-.185.443-.732.313-1,.629l-.009.007c-.185.181-.339.407-.62.461l.048-.052c-.186.453-.728.327-1.009.623h0a1.019,1.019,0,0,1-.631.457l.059-.053c-.3.7-1.134.153-1.516.654l-.008.006a3.306,3.306,0,0,1-.546.512l.014-.014a1.423,1.423,0,0,1-.588.513l.044-.044c-.214.413-.742.295-1.018.6l-.007,0a1.26,1.26,0,0,1-.617.466l.048-.052c-.2.46-.727.348-1.05.594l.026-.017c-.222.388-.746.265-1,.593l-.021.013a1.658,1.658,0,0,1-.61.458l.043-.045c-.187.423-.735.289-.977.627l-.029.018a2.784,2.784,0,0,1-.59.468l.036-.035c-.2.388-.745.245-.962.615l-.051.032a3.443,3.443,0,0,1-.841.294,5.007,5.007,0,0,1-4.056-4.262,148.72,148.72,0,0,1-2.622-18.119c-.226-2.534.314-4.884,2.5-6.543,1.5-1.958,3.8-2.75,5.839-3.883,6.638-3.676,13.1-7.694,20.279-10.337C298.82,349.677,301.311,349.757,303.248,348.229Z" fill="#cdbfbd" fill-rule="evenodd"/>
          <path id="Path_115371" data-name="Path 115371" d="M329.1,254.09c-1.759-1-3.759-1.337-5.634-2.02a64.236,64.236,0,0,1-6.551-2.646,6.181,6.181,0,0,1-1.129-.658.678.678,0,0,1-.212-.926.9.9,0,0,1,.6-.4,4.5,4.5,0,0,1,1.278.161c3.293.843,6.644,1.363,10,1.889,3.69.581,7.355,1.331,11.042,1.94,2.745.452,5.514.766,8.264,1.2,3.182.5,6.4.725,9.588,1.1,3.794.448,7.549,1.217,11.322,1.848q5.273.885,10.548,1.768c2.488.416,4.987.772,7.45,1.295a2.661,2.661,0,0,0,2.231-.312c3.5-2.449,7.39-4.343,10.566-7.239a47.949,47.949,0,0,0,7.248-7.9,67.689,67.689,0,0,0,7.648-13.671c.512-1.3,1.223-2.516,1.749-3.809a60.642,60.642,0,0,0,3.324-12.333c.719-4.023,1.458-8.041,2.063-12.086a18.305,18.305,0,0,1,.851-3.006c.1-.3.339-.684.765-.487a.953.953,0,0,1,.375.6,33.268,33.268,0,0,1,.6,6.493,2.152,2.152,0,0,1-.051,2.036.271.271,0,0,0-.047.381c-.564,1.221.111,2.583-.432,3.8a2.31,2.31,0,0,0-.1,1.434c-.548,1.044.13,2.262-.466,3.3a.342.342,0,0,0-.051.412c-.476.669.035,1.544-.461,2.21a.342.342,0,0,0-.064.413c-.378.5-.06,1.185-.445,1.682a.351.351,0,0,0-.078.421c-.388.5-.043,1.2-.471,1.684a.261.261,0,0,0-.075.357c-.181.391-.159.855-.431,1.214a.28.28,0,0,0-.091.367c-.191.388-.156.858-.445,1.211a.214.214,0,0,0-.085.322c-.433.706.107,1.634-.525,2.294l.019-.047c-.114.227-.157.507-.449.6-.908.967-1.711,1.955-1.28,3.447a1.562,1.562,0,0,1-.235.981,21.778,21.778,0,0,0-1.54,4.989,24.984,24.984,0,0,1-3.325,8.2,1.315,1.315,0,0,0-.169,1.453,3.482,3.482,0,0,1,.372,1.248c.074.97.1,1.958-1.142,2.3a1.545,1.545,0,0,0-.989.809,5.772,5.772,0,0,1-2.482,2.262c-1.719,1.035-3.41,2.14-5.216,3-2.46,1.173-4.6,2.84-6.992,4.119a.69.69,0,0,0-.12,1.252c.329.284.679.547,1.024.813a7.422,7.422,0,0,1,2.483,4.21,4.39,4.39,0,0,1-.9,4.174,12.566,12.566,0,0,1-5.693,4.034,16.4,16.4,0,0,1-5.1,1.027,12.7,12.7,0,0,0-1.807.237,7.033,7.033,0,0,1-1.546.2c-2.076-.195-4.157-.394-6.218-.708a69.979,69.979,0,0,1-11.947-2.749,8,8,0,0,0-2.334-.16,21.455,21.455,0,0,1-5.465-.419c-1.251-.349-2.593-.094-3.9-.311a28.284,28.284,0,0,1-6.471-2.014,30.65,30.65,0,0,1-10.395-6.914,4.245,4.245,0,0,1-.994-3.86,1.468,1.468,0,0,1,.751-1.024,3.745,3.745,0,0,1,1.683-.681,6.217,6.217,0,0,0,1.293-.164c.961-.292,2.333-1.452,2.111-1.718-.554-.662-1.381-.653-2.146-.812s-1.457-.641-2.283-.359a2.109,2.109,0,0,1-1.97-.139l.009.008c-.623-.538-1.518.064-2.13-.513l-.137-.107-.166.053c-.708-.421-1.635.114-2.3-.522l.022.021C330.25,254.2,329.474,254.72,329.1,254.09Z" fill="#cdbfbd" fill-rule="evenodd"/>
          <path id="Path_115372" data-name="Path 115372" d="M251.37,397.471l-.148-.107-.175.053c-.714-.417-1.616.069-2.3-.477l-.147-.1-.174.058c-.715-.409-1.6.051-2.3-.459l-.173-.107-.2.049c-.68-.458-1.588.088-2.236-.508l.022.016c-.189-.155-.378-.307-.569-.454l-.043-.042a2,2,0,0,0-.483-.483l-.042-.041a1.952,1.952,0,0,0-.484-.484l-.041-.041a1.916,1.916,0,0,0-.484-.483l-.042-.042a1.958,1.958,0,0,0-.482-.483l-.044-.043a3.223,3.223,0,0,0-.475-.523l-.005-.008c-.7-2.822.178-5.731-.47-8.554a3.859,3.859,0,0,0-.089-1.955c-.594-1.926.175-3.957-.447-5.88a5.935,5.935,0,0,0-.077-2.52c-.473-3.1-.08-6.226-.223-9.337-.045-.94.232-1.91-.233-2.815a8.223,8.223,0,0,0-.077-3.072c-.59-2.648.187-5.37-.428-8.018a2.4,2.4,0,0,0-.075-1.426c-.631-1.915.178-3.945-.469-5.859,0-.64,0-1.283,0-1.923.676-2.445-.192-4.99.485-7.434l.009-.017a1.865,1.865,0,0,0,.447-.525l.064-.065a1.305,1.305,0,0,0,.487-.455l.048-.036a1.924,1.924,0,0,1,.721-.419.257.257,0,0,0,.345-.1,2.273,2.273,0,0,1,2.085.017.234.234,0,0,0,.334.094c.422.2.9.128,1.334.294,2.513,2.751,6.054,3.526,9.379,4.243,5.727,1.234,7.371,5.246,7.989,10.2a134.663,134.663,0,0,1,1.493,17.709c-.076,9.184,1.561,18.259,1.237,27.43a29.3,29.3,0,0,0,.289,3.91c.254,2.666-.548,3.471-3.416,3.594-.447-.031-.925.073-1.311-.266l-.135-.111-.169.045c-.554-.308-1.274-.006-1.778-.491l.01.008c-.613-.539-1.514.073-2.111-.526l.005.005c-.616-.546-1.519.068-2.126-.522l-.138-.105-.165.057C252.6,397.632,251.892,397.921,251.37,397.471Z" fill="#cdbfbd" fill-rule="evenodd"/>
          <path id="Path_115373" data-name="Path 115373" d="M312.269,284.681a3.955,3.955,0,0,1,.894,3.863,43.332,43.332,0,0,0-1.438,8.19c-.024.854-.978,1.321-.834,2.131a5,5,0,0,1,.274,2.3c-.694,2.188-.326,4.489-.862,6.71a49.585,49.585,0,0,0-.668,5.894c-.2,1.724-.378,3.456-.7,5.157a9.233,9.233,0,0,1-1.584,4.089,22.941,22.941,0,0,0-1.738,3.215c-.736,1.376-1.485,2.746-2.229,4.12a3.852,3.852,0,0,1-.323,1.9,16.492,16.492,0,0,1-2.193,3.231c-2.118,2.414-4.142,4.616-5.451,7.89-1.768,4.417-6.242,6.72-11.16,7.669a12.764,12.764,0,0,1-11.687-3.411c-.831-2.3.137-3.833,2.1-4.977,1.729-1.007,3.571-1.8,5.309-2.789,3.481-1.98,3.855-3.632,2.052-7.1a8.632,8.632,0,0,1,.327-8.694,13.471,13.471,0,0,0,1.126-1.09l-.049.044a1.944,1.944,0,0,1,.473-.611l.006-.011c.333-.251.2-.812.65-.984l-.057.056a1.191,1.191,0,0,1,.489-.623l-.014.018a4.061,4.061,0,0,0,.4-.537.23.23,0,0,0,.168-.3.949.949,0,0,1,.536-.747l-.039.047a1.348,1.348,0,0,1,.547-.572l-.019.026c.255-.324.169-.823.549-1.083l-.034.038c.14-.193.284-.386.434-.573a.2.2,0,0,0,.127-.283,1,1,0,0,1,.517-.756l-.031.035c.118-.221.325-.377.451-.593l.024-.043c.373-.22.238-.748.592-.978l-.022.027c.146-.179.283-.361.411-.553a.243.243,0,0,0,.156-.312,1.11,1.11,0,0,1,.491-.742l-.009.016c.3-.286.168-.839.636-1.018l-.059.056a1.2,1.2,0,0,1,.474-.632l-.008.012c.3-.284.179-.831.634-1.017l-.058.054a1.3,1.3,0,0,1,.478-.623l-.006.009c.306-.285.188-.82.614-1.03l-.051.052a1.871,1.871,0,0,1,.463-.618l.007-.012c.335-.256.214-.784.6-1.01l-.037.042a5.442,5.442,0,0,1,.448-.6l.021-.039c.367-.225.235-.747.582-.986l-.018.023a4.158,4.158,0,0,0,.4-.542.254.254,0,0,0,.17-.314.974.974,0,0,1,.532-.729l-.035.043a1.776,1.776,0,0,1,.522-.582l-.011.018c.278-.311.21-.774.482-1.085l.011-.02c.348-.247.22-.781.61-1l-.04.044a1.912,1.912,0,0,1,.5-.585l0,0c.166-.186.343-.359.522-.531h0c.171-.181.346-.353.524-.525h0c.476-.429.062-1.143.509-1.581l.005-.009c.331-.264.216-.78.579-1.024l-.026.036c.122-.218.326-.372.452-.587l.035-.047a1.278,1.278,0,0,0,.457-.486l.065-.063a1.078,1.078,0,0,0,.46-.461l.064-.064a1.1,1.1,0,0,0,.461-.46l.053-.057c.665-.534-.05-1.473.588-2.015l-.011.021c.284-.3.179-.822.591-1.051l-.045.052c.083-.251.307-.4.438-.618l.023-.038c.366-.227.231-.756.6-.985l-.019.029c.268-.314.166-.836.591-1.059l-.049.053c.075-.259.3-.412.445-.624l.013-.029c.357-.238.232-.753.577-1l-.013.019c.286-.3.176-.824.6-1.044l-.049.052c.076-.262.3-.415.458-.618l.013-.019a1.78,1.78,0,0,0,.448-.521l.063-.064a1.059,1.059,0,0,0,.46-.46l.065-.064a1.074,1.074,0,0,0,.461-.461l.064-.065a1.075,1.075,0,0,0,.46-.46l.065-.063a1.089,1.089,0,0,0,.46-.461l.066-.068a5.312,5.312,0,0,0,.589-.416l-.025.027c.172-.188.322-.18.445.051l-.018-.014c.606.073.828.578,1.131,1l-.031-.034A4.77,4.77,0,0,1,312.269,284.681Z" fill="#cdbfbd" fill-rule="evenodd"/>
          <path id="Path_115374" data-name="Path 115374" d="M390.854,159.629l-.216-.006-.167.143c-.328.216-.774.131-1.07.429-.17.026-.335.051-.5.079a12.908,12.908,0,0,1-4.7.01l-.234-.116-.261.024c-.3-.3-.793-.2-1.088-.517l.006,0a1.507,1.507,0,0,0-.514-.38.265.265,0,0,0-.335-.21.744.744,0,0,1-.656-.6l.066.06a.658.658,0,0,1-.583-.581l.057.056a.655.655,0,0,1-.582-.581l.056.057a.655.655,0,0,1-.58-.582l.055.056a.657.657,0,0,1-.581-.581l.057.057a.659.659,0,0,1-.582-.583l.058.057a.641.641,0,0,1-.576-.59l.068.066c-.5-.126-.354-.716-.688-.961h0a1.3,1.3,0,0,1-.453-.75.2.2,0,0,0-.116-.31c-.259-.346-.211-.806-.434-1.165a1.037,1.037,0,0,0-.083-.933,3.456,3.456,0,0,1,.011-2.613.79.79,0,0,0,.1-.822c.319-.552-.028-1.3.536-1.784l-.025.048c.231-.338.148-.839.552-1.091l-.044.047a1.234,1.234,0,0,1,.561-.57l-.039.04a1.277,1.277,0,0,1,.563-.563l-.039.038a1.282,1.282,0,0,1,.565-.563l-.039.037a1.27,1.27,0,0,1,.562-.563l-.036.04a1.271,1.271,0,0,1,.563-.565l-.039.039a1.177,1.177,0,0,1,.575-.556l-.049.045c.2-.4.748-.271.982-.626l.024-.012a1.465,1.465,0,0,1,.752-.428.212.212,0,0,0,.316-.125c.3-.252.766-.151,1.038-.47h0c.49-.437,1.194-.107,1.7-.48a6.811,6.811,0,0,0,2.387-.006c.5.372,1.156.094,1.672.4l.841.154a1.806,1.806,0,0,1,.734.352.384.384,0,0,0,.432.139,4.811,4.811,0,0,1,.645.442l.043.027a1.1,1.1,0,0,0,.494.448l.061.06a20.909,20.909,0,0,1,2.573,2.572l.061.062a.887.887,0,0,0,.455.461l.063.065a1.593,1.593,0,0,0,.443.532l.006.014a1.508,1.508,0,0,1,.449.722q-.006,3.456-.008,6.915a1.5,1.5,0,0,1-.418.779l-.016.032c-.366.226-.232.761-.609.982l.035-.04a2.7,2.7,0,0,1-.5.587h0c-.179.172-.354.345-.519.529l0,0a6.785,6.785,0,0,0-.522.523l0,0a6.924,6.924,0,0,0-.521.521l0,0a6.441,6.441,0,0,0-.523.522l0,0a7.117,7.117,0,0,0-.521.521l0,0a6.442,6.442,0,0,0-.523.522l0,0c-.186.166-.357.346-.542.513l.009-.007A1.491,1.491,0,0,1,390.854,159.629Z" fill="#d42e2e" fill-rule="evenodd"/>
          <path id="Path_115375" data-name="Path 115375" d="M420.766,360.339c.419.11.847.2,1.257.335.954.318,1.023.465.676,1.264-.521,1.2-1.039,2.4-1.57,3.593a16.047,16.047,0,0,0-1.253,7.142,7.642,7.642,0,0,0,1.147,3.7c1.978,3.362,5.063,5.242,8.647,6.364a13.571,13.571,0,0,0,8.488.016,7.4,7.4,0,0,0,3.565-2.109,3.029,3.029,0,0,1,2.824-1.008.3.3,0,0,1,.112.348c-.047.111-.094.166-.138.166l.017-.014a3.7,3.7,0,0,1-.538.539l.012-.014a2.909,2.909,0,0,1-.538.537l.014-.012a2.964,2.964,0,0,1-.54.539l.015-.015a2.068,2.068,0,0,1-.558.529l.024-.024a1.53,1.53,0,0,1-.566.538l.034-.041c-.239.4-.751.3-1.053.574l.018-.011c-.275.349-.758.269-1.081.521l.028-.019c-.448.544-1.19.155-1.688.534l-.2-.024-.189.074a21.444,21.444,0,0,1-7.35,0l-.192-.074-.2.025c-.508-.368-1.218-.024-1.7-.491l.005,0c-.418-.478-1.182-.007-1.566-.573l.027.017c-.325-.247-.82-.16-1.076-.543l.03.034a2.782,2.782,0,0,1-.573-.492l-.009-.006c-.265-.32-.792-.2-1.012-.6l.032.039a1.353,1.353,0,0,1-.562-.542l.029.029a1.492,1.492,0,0,1-.554-.553l.029.027a1.482,1.482,0,0,1-.554-.552l.028.028a1.5,1.5,0,0,1-.552-.554l.027.027a1.48,1.48,0,0,1-.553-.552l.029.029a1.515,1.515,0,0,1-.554-.553l.028.028a1.459,1.459,0,0,1-.55-.558l.039.033c-.386-.2-.242-.75-.622-.958l-.033-.051a5.583,5.583,0,0,0-.454-.563l.015.018c-.335-.262-.225-.768-.556-1.029l-.008-.012c-.285-.3-.21-.773-.5-1.078l.012.022c-.583-.645-.027-1.551-.509-2.22q-.036-.727-.071-1.457a3.363,3.363,0,0,1,0-2.605.606.606,0,0,0,.049-.477c.529-.633-.026-1.509.477-2.149a.547.547,0,0,0,.065-.431c.241-.351.184-.822.471-1.155l.008-.015c.335-.266.238-.74.5-1.038l.015-.027c.535-.381.043-1.155.585-1.532l-.016.029A2.31,2.31,0,0,1,420.766,360.339Z" fill="#979898" fill-rule="evenodd"/>
          <path id="Path_115376" data-name="Path 115376" d="M323.313,307.337a1.16,1.16,0,0,1,1.218.127c.927.635,1.863,1.255,2.786,1.9a8.075,8.075,0,0,0,2.2,1.352,2.262,2.262,0,0,1-.4.645,1.445,1.445,0,0,0-.25,2.1,8.219,8.219,0,0,0,.69.789c.6.781.6,1.022-.141,1.775-.549.56-1.159,1.061-1.74,1.588a1.967,1.967,0,0,0-.442,2.559,5.281,5.281,0,0,0,2.145,1.881,1.364,1.364,0,0,0,1.459-.1,20.331,20.331,0,0,1,2.289-1.268c1.113-.526,1.59-.38,2.178.606.312.526.568,1.085.845,1.629.241.469.47.941.714,1.4.915,1.75,2.127,2.956,4.323,2.323,1.187,2.013-.356,3.153-1.551,4.17-1.52,1.293-2.435,2.49-1.742,4.662a2.846,2.846,0,0,1-1.981,3.742c-1.88,1.4-1.884,1.422-4.187.8-1.068-.291-2.237-.364-3.025-1.33-.242-.3-.619-.223-.965-.113a2.394,2.394,0,0,1-2.553-.838,5.8,5.8,0,0,0-1.952-1.675,2.419,2.419,0,0,1-1.213-1.636,22.067,22.067,0,0,0-2.376-5.752,9.722,9.722,0,0,0-1.019-1.172,3.069,3.069,0,0,1-.749-4,2.428,2.428,0,0,0,.252-1.714,4.6,4.6,0,0,1,.051-1.552c.3-2.4.688-4.8.9-7.212a3.7,3.7,0,0,1,1.133-2.529C321.268,309.466,322.28,308.39,323.313,307.337Z" fill="#cdbfbd" fill-rule="evenodd"/>
          <path id="Path_115377" data-name="Path 115377" d="M370.453,316.716a2.466,2.466,0,0,1-.437-.284,1.563,1.563,0,0,0-2.308-.17c-.908.676-1.861,1.291-2.79,1.943a.942.942,0,0,1-1.387-.037,32.757,32.757,0,0,1-4.425-4.89c.545-.68,1.079-1.343,1.607-2.012a1.9,1.9,0,0,0,0-2.427c-.66-.956-1.428-1.766-2.823-1.264a6.207,6.207,0,0,1-1.563.053,2.364,2.364,0,0,1-2.09-.843,3.044,3.044,0,0,0-.556-.55c-1.861-1.259-2.156-3.258-2.5-5.237a1.673,1.673,0,0,1,.928-1.72c2.072-2.265,2.105-2.375,5.079-1.46,3.482,1.074,7.073,1.78,10.474,3.113a2.337,2.337,0,0,0,1.255.043,6.545,6.545,0,0,1,6.187,2.59,2.172,2.172,0,0,1,.579,2.4c-1.084,1.908-.791,4.074-1.374,6.066A4.772,4.772,0,0,1,373,314.493,11.425,11.425,0,0,1,370.453,316.716Z" fill="#cdbfbd" fill-rule="evenodd"/>
          <path id="Path_115378" data-name="Path 115378" d="M330.207,273.125a5.161,5.161,0,0,1,5.648,5.252c.063,2.846-3.306,5.539-5.608,5.6-2.207.055-5.317-2.729-5.258-5.554.037-1.829,1.319-2.966,2.269-4.273A2.944,2.944,0,0,1,330.207,273.125Z" fill="#d22e2f" fill-rule="evenodd"/>
          <path id="Path_115379" data-name="Path 115379" d="M335.909,339.213a4.1,4.1,0,0,0,1.186-4.684,23.476,23.476,0,0,1-.449-2.322,12.475,12.475,0,0,0,1.83-.953c.622-.465,1.089-1.135,1.707-1.607a2.9,2.9,0,0,0,1-3.008,6.194,6.194,0,0,1,1.037-.005,3.717,3.717,0,0,1,3.389,4.561,2.25,2.25,0,0,1-1.449,1.984,2.491,2.491,0,0,1-.716.284c-1.878.035-2.856,1.452-4.056,2.555a2.131,2.131,0,0,0-.349,3.187.748.748,0,0,1-.736.531A4.5,4.5,0,0,1,335.909,339.213Z" fill="#fafdff" fill-rule="evenodd"/>
          <path id="Path_115380" data-name="Path 115380" d="M348,279.681a3.313,3.313,0,0,1-3.1,3.216c-1.379-.092-2.626-1.717-2.6-3.381a2.849,2.849,0,1,1,5.695.165Z" fill="#d33430" fill-rule="evenodd"/>
          <path id="Path_115381" data-name="Path 115381" d="M319.638,328.667a5.154,5.154,0,0,1,2.628,4.2,7.818,7.818,0,0,0,.961,3.193,8.7,8.7,0,0,1-3.512-.7,1.587,1.587,0,0,1-1.227-1.5A11.486,11.486,0,0,1,319.638,328.667Z" fill="#f6f4f4" fill-rule="evenodd"/>
          <path id="Path_115382" data-name="Path 115382" d="M303.419,333.511c-.158-.575.07-1.295-.628-1.664q.3-.748.594-1.494C304.362,331.4,303.927,332.453,303.419,333.511Z" fill="#d3d4d3" fill-rule="evenodd"/>
          <path id="Path_115383" data-name="Path 115383" d="M312.269,284.681a.61.61,0,0,1-.552-.585A.757.757,0,0,1,312.269,284.681Z" fill="#c3c7ca" fill-rule="evenodd"/>
          <path id="Path_115384" data-name="Path 115384" d="M367.431,250.523a34.957,34.957,0,0,1-5.955-1.224c-8.208-2-16.4-4.091-24.585-6.167a35.937,35.937,0,0,1-3.5-1.088,2.215,2.215,0,0,1-1.685-2.6,4.424,4.424,0,0,1,.167-1.289c.452-1.309.451-2.765,1.282-3.948,1.41-.355,2.706.235,4.046.485,3.933.732,7.88,1.384,11.8,2.154,2.561.5,5.09,1.178,7.639,1.741q6.877,1.518,13.771,2.98a4.073,4.073,0,0,1,1.7.628.832.832,0,0,1,.325.649,31.965,31.965,0,0,1-1.287,5.579C370.307,250.484,370.3,250.556,367.431,250.523Z" fill="#cdbfbd" fill-rule="evenodd"/>
          <path id="Path_115385" data-name="Path 115385" d="M333.263,213.868c0-.611.009-1.223,0-1.837a3.411,3.411,0,0,1,.842-2.427,35.37,35.37,0,0,1,3.556-3.794,4.824,4.824,0,0,1,4.926-.707,10.648,10.648,0,0,1,7.162,7.4c.931,3.18-.252,5.054-2.061,6.814a10.682,10.682,0,0,1-3.834,2.221,8.763,8.763,0,0,1-9.754-3.129,4.178,4.178,0,0,1-.836-2.443C333.273,215.268,333.265,214.567,333.263,213.868Z" fill="#cdbfbd" fill-rule="evenodd"/>
          <path id="Path_115386" data-name="Path 115386" d="M366.323,219.543a8.178,8.178,0,0,1,.422-2.57,4.735,4.735,0,0,1,3.495-3.183,16.117,16.117,0,0,1,2.548-.486,7.028,7.028,0,0,1,6.261,2.555,8.027,8.027,0,0,1,1.9,4.774,6.335,6.335,0,0,1-1.341,4.143,10.21,10.21,0,0,1-4.07,3.16,4.733,4.733,0,0,1-4.256-.285,8.99,8.99,0,0,1-4.389-4.3A8.611,8.611,0,0,1,366.323,219.543Z" fill="#cdbfbd" fill-rule="evenodd"/>
          <path id="Path_115387" data-name="Path 115387" d="M401.491,231.382a19.408,19.408,0,0,1,1.591-7.9,10.907,10.907,0,0,1,1.127-2.061,1.786,1.786,0,0,1,1.543-.853,3.013,3.013,0,0,0,1.023-.015c.562-.2,1.056-.7,1.707-.4a3.805,3.805,0,0,1,1.779,1.855,9.653,9.653,0,0,1,1.04,3.5,18.428,18.428,0,0,1-.891,8.012,7.248,7.248,0,0,1-3.064,4.107c-2.2,1.255-3.815.8-5.186-1.632a5.349,5.349,0,0,1-.667-2.515C401.481,232.781,401.491,232.081,401.491,231.382Z" fill="#d22e2f" fill-rule="evenodd"/>
          <path id="Path_115388" data-name="Path 115388" d="M370.1,186.482a14.152,14.152,0,0,1,6.029,1.447,3.963,3.963,0,0,1,1.838,2.094,2.87,2.87,0,0,1-1.118,3.89c-1.724,1.311-3.616,2.364-6.007,2.065a8.434,8.434,0,0,1-3.2-1,5.3,5.3,0,0,1-2.827-6.168,1.866,1.866,0,0,1,.667-1.084C366.817,186.6,367.323,186.435,370.1,186.482Z" fill="#cdbfbd" fill-rule="evenodd"/>
          <path id="Path_115389" data-name="Path 115389" d="M371.7,365.359a2.813,2.813,0,0,1,2.553.94.562.562,0,0,1-.005.882.68.68,0,0,1-.922.125A3.63,3.63,0,0,1,371.7,365.359Z" fill="#8b8c8c" fill-rule="evenodd"/>
          <path id="Path_115390" data-name="Path 115390" d="M376.832,262.025c2.618,0,5.118.806,7.688,1.149a6.009,6.009,0,0,1,1.6.818c.452.221,1.186.14,1.288.726.133.753-.735.823-1.151,1.2a.783.783,0,0,1-1.164-.1c-1.408-1.635-3.513-1.787-5.338-2.532a1.513,1.513,0,0,0-1.259.078c-.854.4-1.282-.147-1.676-.763a.349.349,0,0,1-.12-.382C376.741,262.087,376.788,262.025,376.832,262.025Z" fill="#949394" fill-rule="evenodd"/>
          <path id="Path_115391" data-name="Path 115391" d="M376.832,262.025c-.005.189-.012.38-.017.569a137.168,137.168,0,0,1-14.27-2.876,1.438,1.438,0,0,1,1.351-.251c3.375.821,6.874.968,10.217,1.94C375.01,261.668,376.075,261.171,376.832,262.025Z" fill="#858787" fill-rule="evenodd"/>
          <path id="Path_115392" data-name="Path 115392" d="M286.377,337.2c-.135.081-.277.241-.389.222-.409-.069-.491-.39-.4-.736.03-.1.249-.249.335-.224A.578.578,0,0,1,286.377,337.2Z" fill="#858585" fill-rule="evenodd"/>
          <g id="Group_40744" data-name="Group 40744">
            <path id="Path_115393" data-name="Path 115393" d="M402.183,235.947a5.43,5.43,0,0,0,1.309,3.086,3.193,3.193,0,0,0,3.784.962,5.6,5.6,0,0,0,3.083-2.7,16.71,16.71,0,0,0,1.068-12.7,4.6,4.6,0,0,0-1.184-2.011,2.743,2.743,0,0,0-.812-.644,1.391,1.391,0,0,0-2.023.647,4.53,4.53,0,0,0,.87.556A3.186,3.186,0,0,1,410.3,225.7a16.228,16.228,0,0,1-.853,10.249,4.585,4.585,0,0,1-1.8,2.185,2.373,2.373,0,0,1-3.685-1.092,5.634,5.634,0,0,1-.426-1.5,18.881,18.881,0,0,1,.934-9,6.226,6.226,0,0,1,2.159-3.488.371.371,0,0,0,.007-.636.73.73,0,0,0-.482-.108,2.688,2.688,0,0,0-1.854,1.7A21.223,21.223,0,0,0,402.183,235.947Z" fill="#4f2808" fill-rule="evenodd"/>
            <path id="Path_115394" data-name="Path 115394" d="M399.979,211.046a9.006,9.006,0,0,0,2.532-1.758,4.626,4.626,0,0,0,.377-.608c-.06-.124-.077-.23-.131-.255-.147-.066-.335-.172-.465-.13a5.594,5.594,0,0,0-2.7,1.91.417.417,0,0,0-.1.234,1.812,1.812,0,0,0,.077.486C399.635,211.139,399.777,211.162,399.979,211.046Z" fill="#250d08" fill-rule="evenodd"/>
            <path id="Path_115395" data-name="Path 115395" d="M338.244,199.692c1.97.714,3.931,1.459,5.933,2.074a115.361,115.361,0,0,0,16.633,3.579,167.852,167.852,0,0,1,24.711,5.788,111.261,111.261,0,0,0,10.885,2.721.518.518,0,0,0,.411-.227.65.65,0,0,0,.077-.489,1.331,1.331,0,0,0-1.146-.926,53.952,53.952,0,0,1-5.856-1.4c-4.336-1.351-8.626-2.833-13.031-3.963-4.318-1.105-8.647-2.151-13.044-2.861a168.383,168.383,0,0,1-20.747-4.37c-1.5-.442-3.064-.657-4.458-.947-.456.136-.945-.013-.87.527A.827.827,0,0,0,338.244,199.692Z" fill="#250d08" fill-rule="evenodd"/>
            <path id="Path_115396" data-name="Path 115396" d="M380.58,216.4a4.118,4.118,0,0,0-1.666.709c-1.271.757-2.564,1.481-3.818,2.268a1.011,1.011,0,0,1-1.4-.141c-1.007-.963-2-1.936-3.02-2.89-.632-.592-1.278-1.177-1.946-1.731a.819.819,0,0,0-.98-.039,1.018,1.018,0,0,0-.42.9,4.422,4.422,0,0,0,.9,2.412c.864,1.3,1.744,2.591,2.744,4.07-1.052.8-1.977,1.451-2.846,2.173a1.621,1.621,0,0,0-.43,2.1,1.526,1.526,0,0,0,1.842.563,29.452,29.452,0,0,0,3.123-1.313,1.378,1.378,0,0,1,1.852.319c.413.449.848.879,1.295,1.29.9.823,1.8,1.642,2.735,2.427a1.027,1.027,0,0,0,.972.232,2.281,2.281,0,0,0,1.486-3.441,8.226,8.226,0,0,0-1.022-1.177c-.661-.763-2.054-1.2-1.882-2.294.163-1.037,1.624-1.147,2.407-1.813a5.048,5.048,0,0,1,.665-.414,3.961,3.961,0,0,0,1.267-1.292,1.882,1.882,0,0,0,.149-1.976A2.059,2.059,0,0,0,380.58,216.4Z" fill="#4f2808" fill-rule="evenodd"/>
            <path id="Path_115397" data-name="Path 115397" d="M363.639,251.54c1.693.419,3.4.8,5.114,1.1,1.6.285,2.183-.041,2.859-1.572a23.056,23.056,0,0,0,1-2.967c.241-.836.4-1.7.565-2.553.079-.4.583-.775.217-1.184a3.4,3.4,0,0,0-1.07-.7,4.421,4.421,0,0,0-.991-.315c-4.09-.879-8.221-1.606-12.267-2.657-7.951-2.056-16.066-3.263-24.1-4.906-1.045-.214-1.308-.109-1.576.791a22.928,22.928,0,0,0-1.089,4.874c-.037,1.487.23,1.97,1.44,2.4,1.481.519,2.981,1,4.5,1.385q12.687,3.181,25.387,6.3Zm-29.291-8.958h0c-.875-.232-1.074-.467-.831-1.258a20.564,20.564,0,0,1,1.122-4c1.411-.2,2.7.356,4.045.616,3.77.726,7.553,1.4,11.314,2.169,2.223.452,4.41,1.056,6.62,1.565,4.76,1.106,9.523,2.191,14.282,3.288.645.149.915.51.759,1.129-.343,1.353-.747,2.688-1.117,4.034-.148.531-.529.625-1.369.552-.237-.05-.832-.181-1.431-.3-6.686-1.292-13.243-3.143-19.877-4.664-4.169-.958-8.329-1.941-12.494-2.911C335.032,242.724,334.685,242.673,334.348,242.582Z" fill="#4f2808" fill-rule="evenodd"/>
            <path id="Path_115398" data-name="Path 115398" d="M334.479,219.108a8.509,8.509,0,0,0,4.109-.523c.859-.36,1.7-1.313,2.621-.869.8.389,1.348,1.321,1.994,2.023a17.721,17.721,0,0,0,3,2.912,2.394,2.394,0,0,0,.928.455c.808.111,2.231-1.423,2.125-2.259a4.3,4.3,0,0,0-1.386-2.425c-3.318-3.487-3.345-2.66,1-4.972.537-.283,1.121-.487,1.651-.784a7.508,7.508,0,0,0,1.281-.9,2.031,2.031,0,0,0,.193-2.823,1.727,1.727,0,0,0-2.278-.713c-.944.448-1.891.9-2.823,1.37-1.243.634-2.461,1.316-3.71,1.939-1.016.508-1.211.458-2-.438-.638-.718-1.213-1.49-1.856-2.2-.815-.907-1.648-1.8-2.518-2.658a3.472,3.472,0,0,0-1.1-.671c-.547-.228-1.348.454-1.164,1.009a11.365,11.365,0,0,0,.853,1.893c1.067,1.9,2.17,3.769,3.249,5.63a10.04,10.04,0,0,1-4.313,2.938,8.139,8.139,0,0,0-.94.41.726.726,0,0,0-.072,1.126A2,2,0,0,0,334.479,219.108Z" fill="#4f2808" fill-rule="evenodd"/>
            <path id="Path_115399" data-name="Path 115399" d="M345.6,284.793a3.529,3.529,0,0,0,3.337-3.4,3.064,3.064,0,0,0-2.832-2.914c-2.014,0-3.207,1.1-3.228,2.989a3.23,3.23,0,0,0,2.723,3.322Zm-1.024-4.254h0c.183-.307.5-.473,1.177-.4a5.135,5.135,0,0,1,.882.461,1.233,1.233,0,0,1-1.027,2.189A1.579,1.579,0,0,1,344.573,280.539Z" fill="#4f2808" fill-rule="evenodd"/>
            <path id="Path_115400" data-name="Path 115400" d="M330.934,285.874a6.074,6.074,0,0,0,5.7-5.769c-.054-3.288-2.322-5.309-5.857-5.308a3.337,3.337,0,0,0-2.841,1.047c-1.067,1.351-2.438,2.625-2.347,4.535a5.782,5.782,0,0,0,5.347,5.495Zm-2.6-7.108h0c.338-.1.7-.158.812-.535.261-.928,1-.789,1.687-.808a4.949,4.949,0,0,1,2.038.335,2.5,2.5,0,0,1,1.5,2.974,3.532,3.532,0,0,1-6.832-.279C327.43,279.762,327.439,279.018,328.332,278.766Z" fill="#4f2808" fill-rule="evenodd"/>
            <path id="Path_115401" data-name="Path 115401" d="M450,366.775c-2.272-5.635-6.011-9.777-12.085-11.429-.487-.133-1.059-.06-1.455-.492-.266-.433.023-.828.093-1.242a10.474,10.474,0,0,0-.182-5.179c-.355-1.077-.55-2.205-.9-3.28q-3.792-11.583-8.3-22.907c-.809-2.027-1.654-4.047-2.352-6.111a263.561,263.561,0,0,0-9.98-25.34,3.366,3.366,0,0,1-.239-2.018c.251-1.729.421-3.472.534-5.216A97.544,97.544,0,0,1,416.9,269a3.173,3.173,0,0,0-2.3-4.067,21.922,21.922,0,0,0-2.548-.6,74,74,0,0,0-8.848-1.025c-.38-.026-.878.135-1.112-.376.257-.665.886-.839,1.416-1.062,2.983-1.263,5.781-2.882,8.653-4.361a4.294,4.294,0,0,0,2.45-3.163c.4-1.966.882-3.918,1.39-5.859,1.289-4.9,2.636-9.786,3.483-14.79,1.165-6.893,2.51-13.752,3.95-20.592A137.631,137.631,0,0,0,426,198.933a16.216,16.216,0,0,0-.171-5.983,2.348,2.348,0,0,0-1.632-1.886c-2.462-.581-4.754-1.73-7.324-1.963a61.422,61.422,0,0,1-9.055-1.444c-3.057-.752-6.141-1.361-9.256-1.806-2.6-.37-5.2-.676-7.791-1.068-3.98-.6-7.833-1.787-11.759-2.645-.487-.108-1.059-.1-1.42-.661.071-.3.133-.638.239-.968a118.363,118.363,0,0,1,5.769-14.9c.151-.316.314-.623.465-.94a1.369,1.369,0,0,1,1.459-.875c.26.023.52.071.782.085a10.941,10.941,0,0,0,9.925-4.795,12.269,12.269,0,0,0,1.8-11.915,9.664,9.664,0,0,0-5.5-5.969,13.168,13.168,0,0,0-4.849-1.03,9.288,9.288,0,0,0-7.6,3.436,26.828,26.828,0,0,0-1.8,2.572,9.621,9.621,0,0,0-1.419,3.076c-1.082,4.505-.192,8.5,3.126,11.82a1.522,1.522,0,0,1,.364,2.055,89.086,89.086,0,0,0-4.5,10.892c-.694,1.98-1.387,3.96-2.027,5.957-.224.7-.6,1.028-1.324.929-.347-.045-.7-.067-1.04-.132-4.3-.827-8.67-1.065-13.013-1.522a21.715,21.715,0,0,0-5.385.3,42.778,42.778,0,0,0-8.544,2.4c-1.561.564-3.12,1.148-4.721,1.569a108.455,108.455,0,0,0-15.35,5.266,10.542,10.542,0,0,0-2.26,1.287,1.979,1.979,0,0,0-.9,2.031,10.707,10.707,0,0,1-.345,4.387,159.122,159.122,0,0,0-2.749,16.543c-.661,5.993-1.134,12.007-1.706,18.011-.257,2.7-.448,5.4-.856,8.078-.566,3.713-1.287,7.4-1.991,11.091a7.534,7.534,0,0,0-.2,2.335,1.558,1.558,0,0,0,1.846,1.34,3.953,3.953,0,0,1,2.052.021q6.978,1.783,13.964,3.55a9.9,9.9,0,0,1,1.257.368c.329.132.836,0,.972.6a6.289,6.289,0,0,1-.936.5c-3.244,1.038-6.487,2.09-9.746,3.075a17.357,17.357,0,0,1-4.633.836,2.6,2.6,0,0,0-2.845,2.706,69.837,69.837,0,0,1-1.412,9.053,9.175,9.175,0,0,1-1.384,3.354c-1.291,1.975-2.6,3.947-3.754,6a4.856,4.856,0,0,1-2.684,2.257c-3.943,1.548-6.971,4.005-7.542,8.564a2.223,2.223,0,0,1-1.358,1.778c-1.086.562-2.126,1.213-3.167,1.855a18.6,18.6,0,0,0-4.061,3.293,20.171,20.171,0,0,0-1.554,2.1.477.477,0,0,0,.085.449.458.458,0,0,0,.441.058c.491-.5.924-1.049,1.413-1.547a15.045,15.045,0,0,1,7.489-4.082.815.815,0,0,1,.936.25,1.046,1.046,0,0,1,.136,1.213c-.257.457-.533.9-.81,1.348-4.7,7.476-9.489,14.893-14.52,22.152a2.5,2.5,0,0,1-2.107,1.2,17.542,17.542,0,0,0-10.556,4.754,10.478,10.478,0,0,0-3.264,4.974c-.12.419-.251.837-.373,1.258a1,1,0,0,1-1.176.8,21.229,21.229,0,0,1-3.082-.566c-3.26-.979-6.505-2.019-9.746-3.068a8.193,8.193,0,0,1-2.137-.958,2.793,2.793,0,0,0-2.726-.212,84.188,84.188,0,0,1-8.262,2.528,1.562,1.562,0,0,0-1.286,1.46c-.071.521-.1,1.043-.152,1.568a136.213,136.213,0,0,0-.152,15.716c.1,5.679.435,11.353.665,17.028.118,2.968.193,5.939.352,8.906.245,4.626.746,9.236.707,13.878a30.24,30.24,0,0,0,.148,3.4,1.548,1.548,0,0,0,2.144,1.46,2.486,2.486,0,0,1,1.992.2,62.909,62.909,0,0,0,11.685,3.832c1.952.465,3.877,1.049,5.813,1.582a2.592,2.592,0,0,1,1.44,1.021c1.066,1.4,1.309,1.442,2.772.453,2.825-1.909,5.6-3.889,8.394-5.848a3.841,3.841,0,0,0,1.424-1.513,5.756,5.756,0,0,1,2.381-2.361c1.53-1.017,3.08-2,4.633-2.979a179.882,179.882,0,0,0,21.577-15.32c.257-.221.561-.52.91-.218a1.072,1.072,0,0,1,.3.673c.275,3.046.521,6.1.792,9.142.593,6.7,1.212,13.4,1.787,20.109.1,1.217.009,2.45.076,3.672a2.015,2.015,0,0,0,1.662,2.062c.589.165,1.2.246,1.8.354a122.623,122.623,0,0,1,20.869,6.022,20.072,20.072,0,0,1,2.156.943.825.825,0,0,1,.338,1.128h2.624a9.783,9.783,0,0,1,2.509-1.352c1.137-.655,2.291-1.274,3.43-1.92a3.228,3.228,0,0,0,1.706-1.912,4.41,4.41,0,0,1,1.689-2.236c1.15-1.07,2.307-2.143,3.373-3.3,2.9-3.158,6-6.115,9.114-9.061,4.385-4.149,8.721-8.358,11.915-13.556a4.01,4.01,0,0,1,1.987-1.6,51.986,51.986,0,0,0,4.953-2.39c4.568-2.576,9.088-5.232,13.635-7.848,1.969-1.134,3.914-2.311,5.934-3.353a6.578,6.578,0,0,0,3.726-5.609c.206-2.088.452-4.172.751-6.248q1.6-11.157,3.264-22.3c.055-.379-.057-.876.653-1.067a11.891,11.891,0,0,1,.623,1.063c.907,1.986,1.852,3.959,2.678,5.977,1.987,4.851,3.955,9.708,5.843,14.6a7.765,7.765,0,0,0,3.725,4.5,5.436,5.436,0,0,1,.856.7,20.1,20.1,0,0,0-2.245,9.11,13.376,13.376,0,0,0,4.1,10.414c4.965,4.757,14.942,6.716,21.582,1.825a18.656,18.656,0,0,0,6.561-8.935,12.83,12.83,0,0,0-.406-9.469Zm-14.451,16.389h0a17.366,17.366,0,0,1-8.366-1.72,9.062,9.062,0,0,1-5.175-7.369,19.263,19.263,0,0,1,.786-9.034,1.258,1.258,0,0,1,1.32-1.008,9.242,9.242,0,0,0,5.363-1.814,11.659,11.659,0,0,0,1.519-1.018c1.094-.987,2.269-1.637,3.376-1.266a10.745,10.745,0,0,1,8.964,3.778,15.4,15.4,0,0,1,3.652,6.559,6.373,6.373,0,0,1-.156,4.1c-.067.16-.089.34-.147.5-1.881,5.224-5.468,8.163-11.136,8.29Zm-37.133-18.678h0c-.557,3.77-.539,3.114-3.127,4.581-3.878,2.2-7.719,4.465-11.57,6.712a17.871,17.871,0,0,1-3.52,1.808,6.514,6.514,0,0,1,.036-2.68c.118-1.391.235-2.785.329-4.179.008-.132-.18-.4-.226-.391-.234.055-.6.139-.645.291-.258.921-.449,1.863-.646,2.8-.323,1.539-.623,3.08-.952,4.617-.111.51-.222,1.043-.793,1.275-.237.1-.5.311-.7.263-.469-.1-.31-.519-.253-.835a7.735,7.735,0,0,1,.258-1.017,11.638,11.638,0,0,0-.867-8.917,10.829,10.829,0,0,0-9.009-6.356,16.551,16.551,0,0,0-10.581,2.176,59.02,59.02,0,0,0-11.8,8.667c-.345.345-.659.853-1.294.732-.088-.137-.233-.265-.25-.409-.2-1.56-.428-3.118-.545-4.686a80.527,80.527,0,0,1-.113-12.051,11.169,11.169,0,0,0-.889-4.329,2.321,2.321,0,0,0-1.8-1.376c-1.435-.383-2.881-.723-4.311-1.115-5.477-1.5-10.947-3.02-16.424-4.517q-1.766-.484-3.564-.861c-1.211-.256-2.113.692-3.228.9-1.963.372-3.821,1.222-5.836,1.389-.477-.324-.271-.76-.208-1.172q1-6.741,2-13.485c.125-.863.2-1.737.253-2.609a9.237,9.237,0,0,1,1.144-4.263c.737-1.239.664-2.684.887-4.036.987-5.948,1.659-11.941,2.237-17.949a105.979,105.979,0,0,1,2.5-14.722c.254-1.058.419-1.167,1.423-.961a15.547,15.547,0,0,1,6.816,3.186,2.173,2.173,0,0,1,.868,2.713c-.627,1.816-1.137,3.669-1.647,5.521a127.552,127.552,0,0,0-3.6,19.31c-.577,4.959-1.565,9.835-2.46,14.736a24.8,24.8,0,0,0-.809,4.9,1.8,1.8,0,0,0,.794,1.55c.385.283.792.5,1.185.209.967-.707,1.679-.375,2.548.272a6.449,6.449,0,0,0,2.227.7c1.355.344,2.735.6,4.07,1a133.133,133.133,0,0,0,17.675,3.743c7.336,1.161,14.676,2.3,21.929,3.934,2.381.534,3.89-.522,4.038-3.026a57.071,57.071,0,0,1,.651-5.725q1.062-6.6,2.171-13.192a7.9,7.9,0,0,1,.4-1.518c.154-.4.51-.418.845-.2a7.65,7.65,0,0,1,2.208,2.218,16.719,16.719,0,0,1,2.41,11.051.85.85,0,0,1-.879.789,6.353,6.353,0,0,0-3.994,1.754,4.2,4.2,0,0,0-.978,4.376,2.8,2.8,0,0,0,3.64,1.678,5.093,5.093,0,0,0,2.454-1.893c.443-.647.854-1.313,1.421-2.186a13.516,13.516,0,0,1,1.36.477c2.131,1.024,2.152,1.081,1.811,3.395-.575,3.889-1.225,7.771-1.7,11.673-.309,2.512-.365,5.053-.528,7.583a.543.543,0,0,0,.343.618c.547.142.494-.352.54-.636.538-3.278,1.071-6.553,1.57-9.836.421-2.764.794-5.535,1.2-8.3a1.78,1.78,0,0,1,.579-1.223A6.76,6.76,0,0,1,387.578,350c1.766,2.752,3.1,5.676,2.764,9.085-.029.294.039.521.361.513a.512.512,0,0,0,.355-.287,5.919,5.919,0,0,0,.333-3.087,40.246,40.246,0,0,0-1.52-6.368,12.368,12.368,0,0,0-3.065-5.42,3.139,3.139,0,0,1-.968-3.056c.452-3.025.859-6.056,1.258-9.09.853-6.5,1.879-12.974,2.453-19.507.276-3.135.72-6.253,1.093-9.378a1.25,1.25,0,0,1,.137-.5.634.634,0,0,1,.365-.308.458.458,0,0,1,.339.278c1.578,6.273,4.719,11.809,8.091,17.241a14.781,14.781,0,0,1,.876,1.9c.106.241.164.5.258.743a35.314,35.314,0,0,1,2.139,5.624c.4,1.952-.4,3.962-.566,5.958a63.722,63.722,0,0,1-.566,7.05c-.5,2.57-.757,5.187-1.225,7.764-.871,4.821-1.361,9.69-2,14.541-.035.262-.039.524-.075.785Zm-52.034,43.858h0c-.325-.078-.331-.376-.358-.622q-.543-5.194-1.069-10.4c-.345-3.379-.7-6.759-1.024-10.14-.109-1.116-.133-2.241-.223-3.887a15.1,15.1,0,0,1,5.561,6.142,49.653,49.653,0,0,1,3.421,10.941,2.514,2.514,0,0,1-.781,2.585c-1.685,1.638-3.252,3.4-4.861,5.113a.662.662,0,0,1-.666.266Zm7.573-7.945h0c-.394-1.95-.727-3.918-1.213-5.845a35.8,35.8,0,0,0-1.34-3.955,17.062,17.062,0,0,0-6.626-8.221c-.145-.1-.286-.2-.425-.3-1.248-.942-1.3-1.544-.238-2.775.284-.333.6-.641.907-.946,1.189-1.159,2.4-2.291,3.567-3.47a4.035,4.035,0,0,1,4.784-.927,9.84,9.84,0,0,1,4.3,3.309,21.445,21.445,0,0,1,2.514,4.271,44.791,44.791,0,0,1,2.378,6.916,17.317,17.317,0,0,1,.379,2.583,2.036,2.036,0,0,1-.581,1.673,98.208,98.208,0,0,1-7.9,7.633c-.1.087-.325.041-.5.057Zm10.8-10.39h0a.409.409,0,0,1-.642-.162,10.25,10.25,0,0,1-.328-1.528,28.8,28.8,0,0,0-1.589-6.6,23.619,23.619,0,0,0-2.994-5.208,11.668,11.668,0,0,0-5.571-4.178,7.411,7.411,0,0,1-.963-.561,27.814,27.814,0,0,1,6.82-3.835,15.172,15.172,0,0,1,8.768-.324c2.871.626,5.718,4.777,4.8,8.279a19.313,19.313,0,0,1-1.162,3.189,49.652,49.652,0,0,1-6.41,10.175,4.526,4.526,0,0,1-.724.752ZM304.3,373.294h0a36.261,36.261,0,0,0-3.61,2.119c-1.295.8-1.842,1.221-2.13-.848a30.113,30.113,0,0,0-1.17-4.554,15.893,15.893,0,0,0-6.639-8.816c-.5-.333-.986-.694-1.463-1.027a1.382,1.382,0,0,1,.754-.785,75.79,75.79,0,0,1,9.964-3.979,24.037,24.037,0,0,1,3.075-.613.886.886,0,0,1,1.113.811,9.415,9.415,0,0,1,.172,1.292c.351,4.789.677,9.579,1.051,14.367a1.747,1.747,0,0,1-1.117,2.033Zm-29.074,17.942h0c-.331-1.89-.629-3.785-.953-5.676-.807-4.734-1.3-9.505-1.688-14.286-.055-.692.316-1,.95-.817a11.2,11.2,0,0,1,6.366,4.321,19.324,19.324,0,0,1,3.51,9.912c0,.515.007.951,0,1.385a1.725,1.725,0,0,1-.813,1.541c-2.132,1.362-4.253,2.739-6.389,4.1a.648.648,0,0,1-.981-.476Zm-10.117,8.432h0a2.218,2.218,0,0,1-.587-1.676c-.127-3.056-.345-6.109-.388-9.164-.1-6.821-.577-13.619-1-20.422-.338-5.411-.873-10.8-1.295-16.2-.143-1.828-.411-3.646-.668-5.463a6,6,0,0,0-.478-1.491.855.855,0,0,0-.827-.532c-.449.012-.547.358-.55.719a10.268,10.268,0,0,0,.06,1.569c.588,3.975.961,7.974,1.246,11.981.48,6.711.956,13.425,1.356,20.141.355,6.019.606,12.042.9,18.065.017.34-.042.686-.089,1.366-2.743-.692-5.267-1.376-7.816-1.955-3.235-.739-6.485-1.407-9.736-2.073a1.141,1.141,0,0,1-1.05-1.248c-.01-1.311.02-2.625-.05-3.933-.308-5.76-.682-11.514-.955-17.273-.153-3.23-.088-6.472-.253-9.7-.228-4.45-.322-8.9-.8-13.342-.363-3.387-.5-6.8-.732-10.2a4.83,4.83,0,0,1,.022-1.048.561.561,0,0,1,.747-.5c.671.183,1.323.437,1.983.66,3.638,1.238,7.266,2.5,10.912,3.706,1.608.534,2.615.392,2.512-.216-.19-1.114-1.221-1.139-2-1.4-2.733-.911-5.488-1.754-8.236-2.626-.248-.081-.489-.183-.732-.275-.205-.076-.295-.225-.212-.408.068-.144.16-.331.288-.382.974-.382,1.958-.741,2.94-1.105a3.47,3.47,0,0,1,2.067-.008,115.755,115.755,0,0,1,11.8,3.483c.41.149.816.314,1.207.5a3.821,3.821,0,0,1,2.408,3.657c.225,7.6,1.092,15.161,1.269,22.772a128.471,128.471,0,0,0,1.252,14.881c.658,4.676,1.342,9.34,2.324,13.957a1.694,1.694,0,0,1-.709,2.037c-1.677,1.1-3.318,2.267-4.977,3.4-.466.316-.821.053-1.151-.254Zm9.085-67.475h0a35.084,35.084,0,0,1,6.888-3.753.484.484,0,0,1,.727.446c.027.961-.014,1.923-.011,2.883a9.727,9.727,0,0,0,2.746,6.882,24.113,24.113,0,0,0,3.933,3.451,9.01,9.01,0,0,0,3.8,1.659,7.777,7.777,0,0,1,1.088.334,4.834,4.834,0,0,1-2.165,2.6,15.643,15.643,0,0,1-15.5.9c-6.109-2.809-6.318-12.037-1.5-15.4Zm46.566-64.736h0a7.857,7.857,0,0,1,1.533.287c3.726.946,7.424,2.009,11.174,2.83,5.12,1.12,10.287,2.018,15.416,3.085,11.973,2.494,23.925,5.078,35.772,8.128,1.267.323,2.565.523,3.857.735.31.052.77.052.8-.431a.877.877,0,0,0-.34-.622,7.94,7.94,0,0,0-3.107-1.33c-5.952-1.4-11.889-2.863-17.861-4.161-8.194-1.783-16.375-3.636-24.639-5.089-5.592-.982-11.176-2.007-16.678-3.431-.754-.2-1.509-.4-2.376-.631a2.254,2.254,0,0,1,1.515-.916c3.915-1.234,7.838-2.441,11.743-3.709a17.741,17.741,0,0,0,3.624-1.487,4,4,0,0,1,3.5-.358c.411.133.827.246,1.336.4a5.121,5.121,0,0,1-.293,2.547,14.723,14.723,0,0,0-.369,3.118,2.207,2.207,0,0,0,1.22,2.161,18.967,18.967,0,0,0,3.1,1.39c5.078,1.609,10.187,3.12,15.4,4.252,2.9.626,5.815,1.2,8.723,1.8.428.091.849.209,1.28.272a3.643,3.643,0,0,0,4.372-2.764,12.366,12.366,0,0,0,.542-5.042c2.1.3,3.924.542,5.088,2.4.459.734.823.754,1.551.27,2.7-1.8,5.6-3.23,8.429-4.79a3.884,3.884,0,0,1,3.236-.359,100.817,100.817,0,0,0,13,3.054c.238.038.58.089.5.436a1.028,1.028,0,0,1-.425.578c-2.066,1.313-4.188,2.541-6.2,3.922a40.86,40.86,0,0,1-5.289,3.392,8.989,8.989,0,0,0-1.666,1.248.647.647,0,0,0-.188.461.745.745,0,0,0,.237.394c.039.041.177.024.249-.011a36.5,36.5,0,0,0,5.592-2.833,52.041,52.041,0,0,1,6.274-3.8,2.628,2.628,0,0,1,1.612-.533c.442,2.12-.331,4.207-.389,6.32a38.286,38.286,0,0,1-.675,6.7c-1.341-.766-2.577-1.381-3.717-2.14a6.054,6.054,0,0,0-5.263-.77,13.659,13.659,0,0,0-8.723,7.388,8.465,8.465,0,0,1-1.432,2.765c.088-.983.176-1.76.222-2.538s.064-1.574.067-2.361c0-.7-.005-1.4-.065-2.091a.786.786,0,0,0-.365-.584c-.514-.15-.518.312-.537.622-.454,7.686-1.556,15.3-2.541,22.926q-1.928,14.948-3.849,29.9c-.134,1.037-.359,2.061-.583,3.321-.422-.123-.671-.2-.923-.266-1.674-.432-2.343-1.39-2.21-3.219a19.3,19.3,0,0,0-1.335-7.687,12.223,12.223,0,0,0-4.928-6.585,1.759,1.759,0,0,1-.864-2.183c.546-2.294.985-4.615,1.58-6.9a52.855,52.855,0,0,0,1.31-7.483,4.856,4.856,0,0,1,.683-2.184,2.373,2.373,0,0,0-1.621-3.6,7.953,7.953,0,0,0-1.306-.092,37.612,37.612,0,0,1-9.03-1.489,99.193,99.193,0,0,0-17.422-3.643c-.346-.038-.695-.08-1.039-.135a.71.71,0,0,1-.637-.931c1.456-7.878,8.551-10.537,14.371-8.294a4.322,4.322,0,0,1,.816.543c-.146.963-1.021,1.241-1.465,1.867a4.049,4.049,0,0,0-.5,4.432,2.155,2.155,0,0,0,3.3.906,4.866,4.866,0,0,0,2.447-4.088c.056-1.17.361-1.394,1.454-1.173a16.447,16.447,0,0,1,8.831,4.269,4.5,4.5,0,0,0,.559.546.478.478,0,0,0,.433.045c.107-.091.207-.356.149-.454a5.457,5.457,0,0,0-.881-1.271c-3.107-2.9-6.434-5.4-10.891-5.747a1.9,1.9,0,0,1-1.384-.633c-2.759-3.19-9.19-3.08-12.9-.6a12.9,12.9,0,0,0-5.594,7.646c-.134.508-.211,1.028-.344,1.533-.2.768-.492,1.029-1.319.928-1.822-.221-3.65-.436-5.441-.813-2.22-.466-4.4-1.1-6.605-1.654a12.262,12.262,0,0,0-1.782-.425,7.852,7.852,0,0,1-5.527-3.014,12.952,12.952,0,0,0-6.029-3.553c-.58-.2-1.165-.37-1.747-.558a.776.776,0,0,1-.564-1.007c.085-.427.141-.863.227-1.291q1.485-7.318,2.98-14.638c.237-1.157.624-1.482,1.77-1.425Zm-1.925-15.952h0c-1.217-.189-1.364-.357-1.188-1.5.2-1.3.38-2.6.682-3.871a93.545,93.545,0,0,0,1.819-12.965c.554-6,1.067-12.011,1.666-18.013.262-2.6.662-5.2,1.064-7.79.522-3.372.863-6.761,1.082-10.164.026-.436.078-.871.147-1.3.121-.729.454-.934,1.043-.547,1.644,1.078,3.573,1.39,5.369,2.042a1.282,1.282,0,0,0,.754-.046.6.6,0,0,0,.326-.367.573.573,0,0,0-.064-.472,1.959,1.959,0,0,0-.6-.485c-.621-.325-1.269-.593-1.881-.928-1.017-.56-2.449-.4-3.026-1.726.774-.9,1.941-1.058,2.94-1.517a46.509,46.509,0,0,1,7.689-2.583c3.049-.793,6.031-1.774,8.987-2.85.657-.239,1.288-.564,1.96-.744a24.831,24.831,0,0,0,8.266-3.848,1.722,1.722,0,0,1,1.707-.258,114.337,114.337,0,0,0,13.81,4.06.745.745,0,0,1,.642.956,18.23,18.23,0,0,0-.44,5.209c.047.686.023,1.456.9,1.7.684.192,1.343-.213,1.737-1.254.585-1.549,1.04-3.148,1.572-4.717.273-.812.564-1.028,1.335-.867,1.964.412,3.93.837,5.875,1.331a93.259,93.259,0,0,0,12.62,2.318A105.281,105.281,0,0,1,408,192.538a60.951,60.951,0,0,0,8.269,1.341,14.887,14.887,0,0,1,5.112,1.4,58.231,58.231,0,0,1-5.421,4.208c-1.062.769-2.129,1.533-3.15,2.353a11.391,11.391,0,0,0-1.466,1.488c-.384.446-.436,1.362-.137,1.434.506.12.742-.314,1.079-.557.918-.666,1.827-1.355,2.785-1.96a57.742,57.742,0,0,0,5.785-4.076c.4-.324.856-.574,1.272-.85.582.376.291.8.22,1.164-1.779,9-3.625,17.979-5.331,26.989-.927,4.891-1.6,9.832-2.833,14.664-.911,3.552-1.814,7.1-2.791,10.638-.3,1.092-.075,2.471-.9,3.227-.711.65-1.929.719-2.869,1.153-2.378,1.1-4.754,2.211-7.081,3.413-3.335,1.725-6.628,3.536-9.942,5.3a2.576,2.576,0,0,1-1.452.527,3.149,3.149,0,0,1-.066-2.295c.692-4.225,1.314-8.465,2.191-12.65,1.74-8.3,3.049-16.669,4.092-25.081.2-1.646.542-3.275.786-4.916a8.064,8.064,0,0,0,.041-1.562c-.011-.243-.1-.577-.441-.523a1.079,1.079,0,0,0-.615.379,4.951,4.951,0,0,0-.793,2.2c-.243,1.2-.4,2.415-.577,3.625-.9,6.136-1.668,12.3-2.73,18.4-.882,5.073-2.054,10.1-2.816,15.2-.349,2.335-.608,4.679-.923,7.019-.113.83-.4,1.032-1.238.853a24.509,24.509,0,0,1-2.535-.646,64.99,64.99,0,0,0-10.176-2.444c-6.309-.988-12.453-2.731-18.661-4.183-6.549-1.533-13.087-3.124-19.741-4.148-4.834-.741-9.7-1.3-14.546-1.934-.521-.066-1.046-.1-1.564-.177Zm62.34-103.882h0a2.171,2.171,0,0,1,.656-.789,10.16,10.16,0,0,1,10.417-.66,5.45,5.45,0,0,1,2.516,3.821,8.5,8.5,0,0,1-2.036,7.06,4.911,4.911,0,0,1-2.889,1.675c-.848.186-1.726.239-2.235.305-3.583,0-5.793-1.289-6.777-4a10.146,10.146,0,0,1,.348-7.411Zm-4.242,119.891h0c-.3,1.175-.529,2.182-.821,3.174a.911.911,0,0,1-1.208.666c-2.9-.609-5.813-1.181-8.719-1.779a156.426,156.426,0,0,1-15.393-4.193c-1.272-.4-1.311-.538-1.308-1.883a10.393,10.393,0,0,1,.079-1.307c.02-.153.161-.294.31-.551,2.97.431,5.888,1.3,8.844,1.993,3.059.714,6.1,1.483,9.178,2.139,2.972.636,5.97,1.157,9.038,1.741Zm36.412,30.7h0a43.328,43.328,0,0,0-15.844,9.035,12.942,12.942,0,0,1-2.239-5.523,15.52,15.52,0,0,1,.9-8.494,18.342,18.342,0,0,1,3.371-5.873,3.647,3.647,0,0,1,2.77-1.243,6.588,6.588,0,0,1,4.976,1.87,23.687,23.687,0,0,1,5.795,8.627,2.059,2.059,0,0,1,.272,1.6Zm-49.233,11.809h0c-.906-1.063-1.858-2.089-2.773-3.145a1.93,1.93,0,0,0-2.069-.784,1.342,1.342,0,0,1-.258.052c-3.47.257-3.8-.084-3.558-3.763a10.811,10.811,0,0,1,3.269.748c2.613.688,5.215,1.433,7.832,2.113a1.334,1.334,0,0,1,1.146,1.217c.361,2.539,1.965,3.774,4.474,4.086.326,1.546-.494,2.885-.689,4.528-2.182-.8-2.182-.8-3.935.393-.437.3-.871.586-1.3.886-1.363.95-1.341,1.009-2.542-.33-.673-.751-.655-.908.035-1.762.164-.2.361-.382.522-.588,1.156-1.5,1.14-2.143-.152-3.651Zm-5.89,32.869h0a4.844,4.844,0,0,1-.985.089q-6.338-1.041-12.669-2.113a11.606,11.606,0,0,1-1.516-.4c-.392-.122-.477-.48-.5-.834a.634.634,0,0,1,.532-.757,10.05,10.05,0,0,0,4.165-2.129c2.418-1.943,2.974-4.22,1.655-6.987-1.521-3.193-4.751-5.053-7.6-4.444-1.233.263-1.713-.219-2.178-1.207a14.388,14.388,0,0,0-2.759-4.121,1.041,1.041,0,0,0-1.4-.222c-1.133.662-2.28,1.3-3.419,1.944a.627.627,0,0,1-.914-.123.779.779,0,0,1,.039-1.149c.7-.776,1.4-1.559,2.045-2.381a1.769,1.769,0,0,0,.137-2.395,2.628,2.628,0,0,1-.473-.919,1.541,1.541,0,0,1,1.38-2.065q2.079-.287,4.17-.472c1.316-.115,1.525.068,1.734,1.316.029.172.018.349.049.521.235,1.3.6,1.671,1.845,1.767.956.073,1.924.031,2.881.113a2.673,2.673,0,0,0,2.921-1.724c.14-.314.209-.663.584-.842a20.048,20.048,0,0,1,4.5,1.28c.721.269,1.427.574,2.082.839a4.408,4.408,0,0,1-.807,2.321,2.111,2.111,0,0,0,.534,2.821,13.484,13.484,0,0,1,3.875,5.2c.64,1.451.908,1.489,2.685,1.172.862-.153,1.159.009,1.266.824.114.864.152,1.741.2,2.612a1.047,1.047,0,0,1-.828,1.146,10.523,10.523,0,0,0-1.308.833,2.194,2.194,0,0,0-1.112,1.668,15.63,15.63,0,0,1-1.409,4.21c-.817,1.615-.937,3.152.6,4.608Zm-24.3-9.11h0c.212.934.492,1.854.708,2.787a7.461,7.461,0,0,1,.155,1.295c.041.821-.288,1.132-1.407,1.005-.259-.067-.852-.217-1.439-.376-1.522-.414-1.465-.414-1.39-2.065.228-5.059-1.69-9.054-6.174-11.542-2.842-1.576-2.287-.909-2.027-3.981.191-2.259.573-4.5.891-6.746a4.526,4.526,0,0,1,.367-1.229.945.945,0,0,1,1.5-.458c1.1.7,2.188,1.432,3.238,2.214,2.913,2.161,3.224,1.988.1,4.5-1.332,1.073-1.361,2.02-.215,3.307.291.325.6.631.917.936a1.9,1.9,0,0,0,2.588.334,28.46,28.46,0,0,1,2.816-1.382.7.7,0,0,1,.913.268,22.566,22.566,0,0,1,3.179,6.561.853.853,0,0,1-.653,1.2c-.755.2-1.527.344-2.293.526-1.66.393-2.153,1.169-1.774,2.845Zm-5.358,1.857h0a5.337,5.337,0,0,1-.188,1.019.76.76,0,0,1-.745.6,1.045,1.045,0,0,1-.91-.409,2.137,2.137,0,0,1-.249-.724c-.2-.844-.373-1.693-.554-2.542a7.753,7.753,0,0,0-3.48-4.991c-1.267-.839-1.251-.87-.862-2.28a2.206,2.206,0,0,1,.2-.478c.037-.072.127-.115.192-.17,4.826,1.23,7.008,6.515,6.6,9.978Zm43.649-27.13h0c-.751-.44-1.491-.9-2.2-1.4a.865.865,0,0,1-.334-.645c.039-.508.473-.392.8-.359.95.09,1.9.2,2.788.3a2.122,2.122,0,0,1-.09,1.614c-.137.546-.537.748-.96.5Zm-9.668-18.267h0a.628.628,0,0,1,.489-.063c.119.063.155.285.229.437-.048,1.1-.459,1.808-1.264,2.011-.182.047-.611-.169-.632-.307a1.9,1.9,0,0,1,1.178-2.078Zm-51.988-.646h0c.038.089.112.177.1.249q-.771,4.089-1.553,8.176c-.2-.039-.418-.011-.5-.1-.649-.692-1.606-1.32-1.819-2.137-.259-1,.809-1.814,1.3-2.709.5-.915,1.057-1.8,1.6-2.685.21-.343.394-.741.875-.791ZM308.632,302.3h0c-.262,2.579-.469,4.731-.7,6.879-.055.511-.2,1.011-.288,1.435-.7.438-1.079-.079-1.466-.33a17.477,17.477,0,0,1-4.752-4.395c-.655-.893-.619-1.116.018-2.064.441-.654.915-.589,1.553-.314a4.326,4.326,0,0,0,4.44-.495c.273-.192.576-.348,1.2-.716Zm-2.965-1.444h0a5.534,5.534,0,0,1-.712.151c-1.062.033-1.37-.43-1.033-1.124a3.9,3.9,0,0,1,.25-.442c.525-.815,1.163-.863,1.843-.143.59.625.441,1.315-.348,1.558Zm-.387-11.883h0c.076-.032.184.016.293.071-.049-.19-.01-.178.1.047.017.009.033.016.049.023l.007,0h0l.012.005a.05.05,0,0,0-.016-.005l-.041-.011c-.971,1.641-1.937,3.288-2.923,4.922a1.394,1.394,0,0,1-1.253.8c-.371-.007-.782-.1-.684-.533a6.981,6.981,0,0,1,4.45-5.32Zm-5.267,17.582h0c.824.966,1.527,1.855,2.3,2.682a10.7,10.7,0,0,0,4.01,2.852c1.228.469,1.237.574,1.079,1.7-.339,2.416-.709,4.828-1.025,7.248a6.507,6.507,0,0,1-1.242,3.377,7.58,7.58,0,0,0-.773,1.365c-.82,1.615-.918,2.02-3.02,1.239a43.946,43.946,0,0,1-6.361-3.035,10.135,10.135,0,0,1-2.468-1.916c-1.779-1.951-1.713-1.756-.429-3.727,2.283-3.5,4.548-7.025,6.831-10.529a2.837,2.837,0,0,1,1.1-1.259ZM272.2,363.811h0c-.13-2.53-.2-5.063-.32-7.594-.089-1.824-.236-3.646-.352-5.437.683-.353,1.027.15,1.433.4a18.279,18.279,0,0,0,9.93,2.883,13.652,13.652,0,0,0,5.363-1.076c3.421-1.438,6.622-3.207,8.612-6.536a6.324,6.324,0,0,0,1.107-2.352,5.259,5.259,0,0,1,2.033-3.434,33.363,33.363,0,0,0,2.784-3.4,50.791,50.791,0,0,1-1.514,11.463,2.566,2.566,0,0,1-2.007,2.093,76.129,76.129,0,0,0-18.577,9.006c-2.049,1.331-3.979,2.849-5.961,4.285a6.713,6.713,0,0,1-1.97,1.278c-.687-.342-.533-1.025-.561-1.584ZM289.918,321.6h0a4.6,4.6,0,0,1,.688.577,15.807,15.807,0,0,0,8.9,5.639c.673.178,1.348.358,2.018.556.977.289,1.149.609.687,1.515a36.709,36.709,0,0,1-4.371,7.127,5.649,5.649,0,0,1-7.1,1.254,13.849,13.849,0,0,1-4.192-3.893,5.22,5.22,0,0,1-.971-2.939,9.3,9.3,0,0,1,1.364-5.506c.934-1.465,1.967-2.871,2.978-4.33Zm-4.957,64.255h0c-.363-.364-.192-.811-.189-1.223a18.485,18.485,0,0,0-3.349-10.3,12.6,12.6,0,0,0-6.011-4.877c-.471-.192-1.049-.174-1.395-.725-.113-.562.452-.651.763-.829,3.711-2.124,7.452-4.2,11.159-6.332a2.118,2.118,0,0,1,2.207-.041,14.967,14.967,0,0,1,6.634,6.5,41.046,41.046,0,0,1,2.726,7.35,2.275,2.275,0,0,1-.993,2.906c-3.422,2.264-6.772,4.642-10.156,6.962a2.2,2.2,0,0,1-1.4.615Zm92-42h0a1.063,1.063,0,0,1-1.156.839c-.139,0-.4-.161-.391-.222a1.072,1.072,0,0,1,.236-.67.919.919,0,0,1,1.179-.15c.061.043.087.132.132.2Zm21.8-34.115h0c-.618-1.026-.577-1.223.267-2.017a29.559,29.559,0,0,1,5.088-3.684,40.217,40.217,0,0,1,8.563-3.9c1.4-.441,1.7-.323,2.207.966,1.752,4.469,3.466,8.952,5.193,13.428.155.4.287.82.439,1.258-.169.229-.274.5-.47.609a17.959,17.959,0,0,1-1.636.818,80.218,80.218,0,0,1-10.882,3.75,16.055,16.055,0,0,0-2,.592c-.7.31-1.012-.078-1.2-.578a65.555,65.555,0,0,0-5.573-11.245Zm8.454,12.9h0c4.5-1.082,8.977-2.235,12.952-4.76.589-.376.967-.228,1.213.4,1.425,3.657,2.851,7.313,4.247,10.98.389,1.019.242,1.379-.629,2.007a9.078,9.078,0,0,1-1.106.7,57.009,57.009,0,0,1-8.383,3.672,21.656,21.656,0,0,1-3.053.715c-1.166.2-1.361.116-1.875-.912a123.215,123.215,0,0,1-5.337-12.229c.811-.236,1.385-.432,1.971-.573Zm5.057,16.372h0c-.174-.44-.216-.94.337-1.049a27.384,27.384,0,0,0,4.8-1.274c1.616-.647,3.237-1.294,4.808-2.045,1.478-.71,2.891-1.558,4.333-2.341a6.712,6.712,0,0,1,1.159,2.626c1.075,2.851,2.07,5.734,3.109,8.6a1.274,1.274,0,0,1-.389,1.626,32.186,32.186,0,0,1-11.078,5.735,9.943,9.943,0,0,1-1.291.22,1.056,1.056,0,0,1-1.255-.678c-.413-1.055-.8-2.117-1.222-3.171q-1.647-4.128-3.307-8.251Zm5.442,13.7h0a27.936,27.936,0,0,0,11.776-4.873c.509-.337.976-.741,1.5-1.057.3-.18.711-.246.867.2.373,1.066.755,2.137,1.028,3.235a4.366,4.366,0,0,1-.115,2.326,9.718,9.718,0,0,1-9.613,6.69,3.827,3.827,0,0,1-3.792-2.656c-.425-1.224-1.012-2.39-1.648-3.864Zm-85.333,10.9h0a84.316,84.316,0,0,1,.969,11.748c.06,1.916.336,3.823.507,5.738q.41,4.57.813,9.143c.075.87.186,1.741.2,2.616.1,5.953.873,11.849,1.426,17.767a23.529,23.529,0,0,1,.2,4.075,2.354,2.354,0,0,1-1.682-.286,127.513,127.513,0,0,0-21.324-6.343c-.925-.176-1.117-.439-1.16-1.443-.236-5.855-.936-11.673-1.457-17.505-.427-4.788-.731-9.593-1.276-14.368-.657-5.728-1.508-11.434-2.278-17.151-.1-.78-.234-1.556-.329-2.337a1.2,1.2,0,0,1,.371-1.189c1.178-.9,1.117-2.07.414-3.629a81.588,81.588,0,0,1,12.222,3.93c1.957.753,3.886,1.576,5.83,2.362,2.5,1.007,3.984,1.143,3.791.525-.458-1.486-1.883-1.964-3.1-2.539-3.084-1.455-6.31-2.565-9.51-3.737-.813-.3-1.877-.172-2.334-1.189.978-.414,1.887.06,2.774.3,3.71,1.012,7.394,2.116,11.1,3.146,2.778.774,5.577,1.469,8.357,2.229,1.189.326,1.211.365,1.227,1.624.025,2.363.074,4.724-.006,7.085a75.424,75.424,0,0,0,.578,8.37c.431,5.491.963,10.972,1.514,16.451.649,6.434,1.357,12.861,2.067,19.29a11.349,11.349,0,0,0,.616,3.075c.534,1.292.009,1.924-.995,2.555-.81.513-1.5,1.2-2.288,1.753-.342.242-.672.046-.767-.359a9.381,9.381,0,0,1-.2-1.29c-.51-5.308-1.078-10.611-1.494-15.924-.257-3.312-.257-6.638-.651-9.943-.477-3.993-.856-8-1.275-11.994q-.436-4.172-.854-8.344a34.506,34.506,0,0,0-1.181-5.37.454.454,0,0,0-.61-.305c-.115.041-.212.268-.221.418A4.274,4.274,0,0,0,332.382,363.605Z" fill="#4f2808" fill-rule="evenodd"/>
          </g>
        </g>
      </g>
      <g id="Group_40747" data-name="Group 40747">
        <path id="Path_115402" data-name="Path 115402" d="M283.738,284.68a1.559,1.559,0,1,1,0-3.117h12.636a1.559,1.559,0,1,1,0,3.117Z" fill="#5aa9a8" fill-rule="evenodd"/>
        <path id="Path_115403" data-name="Path 115403" d="M277.508,281.563a1.559,1.559,0,1,1,0,3.117H274.3a1.559,1.559,0,1,1,0-3.117Z" fill="#5aa9a8" fill-rule="evenodd"/>
        <path id="Path_115404" data-name="Path 115404" d="M334.245,171.067a1.559,1.559,0,0,1,0-3.118H364.9a1.559,1.559,0,0,1,0,3.118Z" fill="#5aa9a8" fill-rule="evenodd"/>
        <path id="Path_115405" data-name="Path 115405" d="M328.017,167.949a1.559,1.559,0,0,1,0,3.118H324.8a1.559,1.559,0,1,1,0-3.118Z" fill="#5aa9a8" fill-rule="evenodd"/>
        <path id="Path_115406" data-name="Path 115406" d="M252.087,289.9a5.592,5.592,0,1,1-3.954,9.546l-.09-.1a5.585,5.585,0,0,1,.09-7.809l.1-.091a5.569,5.569,0,0,1,3.854-1.547Zm1.749,3.842a2.479,2.479,0,0,0-3.438-.063l-.06.063a2.486,2.486,0,0,0-.065,3.44l.065.059a2.472,2.472,0,0,0,3.5,0h.007a2.484,2.484,0,0,0-.007-3.5Z" fill="#5aa9a8" fill-rule="evenodd"/>
        <path id="Path_115407" data-name="Path 115407" d="M311.126,172.883a5.569,5.569,0,0,1,3.946,1.638l.006.005a5.583,5.583,0,0,1,0,7.9l-.1.09a5.587,5.587,0,0,1-7.806-7.993l.006-.005a5.576,5.576,0,0,1,3.948-1.638Zm1.748,3.836a2.488,2.488,0,0,0-3.5,0l-.005.006a2.483,2.483,0,0,0,.005,3.5v0a2.489,2.489,0,0,0,3.439.058l.06-.063a2.484,2.484,0,0,0,.006-3.5Z" fill="#5aa9a8" fill-rule="evenodd"/>
        <path id="Path_115408" data-name="Path 115408" d="M444.858,221.339a5.59,5.59,0,0,1,3.953,9.544l-.1.091a5.587,5.587,0,1,1-3.855-9.635Zm1.749,3.835a2.484,2.484,0,0,0-3.5.006H443.1a2.479,2.479,0,0,0,3.444,3.564l.06-.064a2.472,2.472,0,0,0,0-3.5Z" fill="#5aa9a8" fill-rule="evenodd"/>
        <path id="Path_115409" data-name="Path 115409" d="M272.141,229.856a1.559,1.559,0,0,1,3.117,0V242.9a1.559,1.559,0,1,1-3.117,0Z" fill="#5aa9a8" fill-rule="evenodd"/>
        <path id="Path_115410" data-name="Path 115410" d="M280.218,234.818a1.559,1.559,0,1,1,0,3.117H267.18a1.559,1.559,0,1,1,0-3.117Z" fill="#5aa9a8" fill-rule="evenodd"/>
        <path id="Path_115411" data-name="Path 115411" d="M410.675,166.287a1.558,1.558,0,1,1,3.116,0v13.04a1.558,1.558,0,1,1-3.116,0Z" fill="#5aa9a8" fill-rule="evenodd"/>
        <path id="Path_115412" data-name="Path 115412" d="M418.753,171.248a1.559,1.559,0,1,1,0,3.118h-13.04a1.559,1.559,0,0,1,0-3.118Z" fill="#5aa9a8" fill-rule="evenodd"/>
        <path id="Path_115413" data-name="Path 115413" d="M442.16,267.452a1.558,1.558,0,0,1,2.2,2.2l-9.22,9.22a1.558,1.558,0,1,1-2.2-2.2Z" fill="#5aa9a8" fill-rule="evenodd"/>
        <path id="Path_115414" data-name="Path 115414" d="M444.364,276.673a1.558,1.558,0,0,1-2.2,2.2l-9.22-9.221a1.558,1.558,0,1,1,2.2-2.2Z" fill="#5aa9a8" fill-rule="evenodd"/>
        <path id="Path_115415" data-name="Path 115415" d="M223.184,323.832a1.559,1.559,0,0,1,3.118,0v13.039a1.559,1.559,0,1,1-3.118,0Z" fill="#5aa9a8" fill-rule="evenodd"/>
        <path id="Path_115416" data-name="Path 115416" d="M231.264,328.793a1.559,1.559,0,0,1,0,3.118h-13.04a1.559,1.559,0,1,1,0-3.118Z" fill="#5aa9a8" fill-rule="evenodd"/>
        <path id="Path_115417" data-name="Path 115417" d="M407.308,393.131a1.559,1.559,0,1,1,0,3.118H394.671a1.559,1.559,0,0,1,0-3.118Z" fill="#5aa9a8" fill-rule="evenodd"/>
        <path id="Path_115418" data-name="Path 115418" d="M413.538,396.249a1.559,1.559,0,1,1,0-3.118h3.213a1.559,1.559,0,1,1,0,3.118Z" fill="#5aa9a8" fill-rule="evenodd"/>
        <path id="Path_115419" data-name="Path 115419" d="M441.4,322.927a5.587,5.587,0,0,1,3.954,9.54l0,0a5.579,5.579,0,0,1-7.9,0l0,0a5.582,5.582,0,0,1,0-7.9l.1-.09a5.565,5.565,0,0,1,3.854-1.548Zm1.75,3.835a2.489,2.489,0,0,0-3.438-.057l-.061.064a2.484,2.484,0,0,0-.007,3.5l.007.005a2.486,2.486,0,0,0,3.5,0l.006-.005a2.481,2.481,0,0,0-.006-3.5Z" fill="#5aa9a8" fill-rule="evenodd"/>
      </g>
    </g>
  </g>
</svg>
