<svg xmlns="http://www.w3.org/2000/svg" width="28" height="32" viewBox="0 0 28 32">
  <g id="password" transform="translate(-32)" opacity="0.697">
    <g id="Group_40595" data-name="Group 40595" transform="translate(32)">
      <g id="Group_40594" data-name="Group 40594">
        <circle id="Ellipse_8" data-name="Ellipse 8" cx="1.5" cy="1.5" r="1.5" transform="translate(20 20)" fill="#707070"/>
        <path id="Path_114262" data-name="Path 114262" d="M58.75,22.625A1.25,1.25,0,0,0,60,21.375V16.75a5.006,5.006,0,0,0-5-5H53.5V7.342a7.5,7.5,0,0,0-15,0V11.75H37a5.006,5.006,0,0,0-5,5V27a5.006,5.006,0,0,0,5,5H55a5.006,5.006,0,0,0,5-5,1.25,1.25,0,0,0-2.5,0A2.5,2.5,0,0,1,55,29.5H37A2.5,2.5,0,0,1,34.5,27V16.75a2.5,2.5,0,0,1,2.5-2.5H55a2.5,2.5,0,0,1,2.5,2.5v4.625A1.25,1.25,0,0,0,58.75,22.625ZM51,11.75H41V7.342a5,5,0,0,1,10,0Z" transform="translate(-32)" fill="#707070"/>
        <circle id="Ellipse_9" data-name="Ellipse 9" cx="1.5" cy="1.5" r="1.5" transform="translate(10 20)" fill="#707070"/>
        <circle id="Ellipse_10" data-name="Ellipse 10" cx="1.5" cy="1.5" r="1.5" transform="translate(5 20)" fill="#707070"/>
        <circle id="Ellipse_11" data-name="Ellipse 11" cx="1.5" cy="1.5" r="1.5" transform="translate(15 20)" fill="#707070"/>
      </g>
    </g>
  </g>
</svg>
