<svg id="pdf" xmlns="http://www.w3.org/2000/svg" width="20" height="20" viewBox="0 0 20 20">
  <path id="Path_121925" data-name="Path 121925" d="M18.242,0H4.57A1.76,1.76,0,0,0,2.813,1.758V4.727h-1.4A1.41,1.41,0,0,0,0,6.135v7.73a1.41,1.41,0,0,0,1.408,1.408h1.4v2.969A1.76,1.76,0,0,0,4.57,20H18.242A1.76,1.76,0,0,0,20,18.242V1.758A1.76,1.76,0,0,0,18.242,0ZM1.172,13.865V6.135A.237.237,0,0,1,1.408,5.9h14.84a.237.237,0,0,1,.236.236v7.73a.237.237,0,0,1-.236.236H1.408A.237.237,0,0,1,1.172,13.865Zm17.656,4.377a.587.587,0,0,1-.586.586H4.57a.587.587,0,0,1-.586-.586V15.273H16.248a1.41,1.41,0,0,0,1.408-1.408V6.135a1.41,1.41,0,0,0-1.408-1.408H3.984V1.758a.587.587,0,0,1,.586-.586H18.242a.587.587,0,0,1,.586.586Zm0,0" fill="#195190"/>
  <path id="Path_121926" data-name="Path 121926" d="M61.172,184.906h.586a1.953,1.953,0,1,0,0-3.906H60.586a.586.586,0,0,0-.586.586v4.688a.586.586,0,1,0,1.172,0Zm0-2.734h.586a.781.781,0,1,1,0,1.563h-.586Zm0,0" transform="translate(-57.656 -173.93)" fill="#195190"/>
  <path id="Path_121927" data-name="Path 121927" d="M185.586,186.859h.977a2.151,2.151,0,0,0,2.148-2.148v-1.562A2.151,2.151,0,0,0,186.562,181h-.977a.586.586,0,0,0-.586.586v4.688A.586.586,0,0,0,185.586,186.859Zm.586-4.687h.391a.978.978,0,0,1,.977.977v1.563a.978.978,0,0,1-.977.977h-.391Zm0,0" transform="translate(-177.773 -173.93)" fill="#195190"/>
  <path id="Path_121928" data-name="Path 121928" d="M310.586,186.859a.586.586,0,0,0,.586-.586v-1.758h1.172a.586.586,0,0,0,0-1.172h-1.172v-1.172h1.445a.586.586,0,0,0,0-1.172h-2.031a.586.586,0,0,0-.586.586v4.688A.586.586,0,0,0,310.586,186.859Zm0,0" transform="translate(-297.891 -173.93)" fill="#195190"/>
</svg>
