<svg xmlns="http://www.w3.org/2000/svg" width="13.908" height="13.918" viewBox="0 0 13.908 13.918">
  <path id="pen-dark" d="M.914,11.456a3.726,3.726,0,0,1,.92-1.525L10.8.969a.337.337,0,0,1,.477,0l.05.05L12.032.3a1.012,1.012,0,0,1,1.441,0l.416.421a1.015,1.015,0,0,1,0,1.427l-.712.712.262.259a1.687,1.687,0,0,1,.007,2.392l-2.7,2.7a.337.337,0,1,1-.477-.477l2.7-2.7a1.012,1.012,0,0,0,.022-1.408L8.947,7.667,8.209,8.4l-.477.477L4.259,12.354a3.725,3.725,0,0,1-1.525.921L.709,13.9a.337.337,0,0,1-.422-.422ZM13.408,1.2,12.993.775a.338.338,0,0,0-.48,0L11.8,1.5l.891.891.715-.715A.338.338,0,0,0,13.408,1.2Zm-.9,1.958-1.47-1.47L7.455,5.265l1.47,1.47ZM8.447,7.212l-1.47-1.47-.716.716,1.47,1.47ZM7.255,8.4l-1.47-1.47L2.312,10.408q-.053.053-.1.108L3.673,11.98c.037-.033.073-.067.108-.1ZM2.534,12.63a3.036,3.036,0,0,0,.584-.251L1.81,11.071a3.033,3.033,0,0,0-.252.584l-.438,1.413Zm0,0" transform="translate(-0.271)" fill="#373c46"/>
</svg>
