<svg xmlns="http://www.w3.org/2000/svg" width="12.145" height="12.154" viewBox="0 0 12.145 12.154">
  <path id="pen-blue" d="M.833,10a3.254,3.254,0,0,1,.8-1.332L9.463.846a.3.3,0,0,1,.417,0l.044.044.618-.626a.884.884,0,0,1,1.258,0l.363.368a.886.886,0,0,1,0,1.246l-.622.622.229.226a1.473,1.473,0,0,1,.006,2.089L9.414,7.172A.295.295,0,1,1,9,6.755L11.355,4.4a.883.883,0,0,0,.02-1.229L7.847,6.695,7.2,7.339l-.417.417L3.753,10.789a3.253,3.253,0,0,1-1.332.8l-1.769.548a.295.295,0,0,1-.369-.369ZM11.743,1.045,11.381.677a.295.295,0,0,0-.42,0l-.621.629.778.778.624-.624A.3.3,0,0,0,11.743,1.045Zm-.789,1.709L9.671,1.471,6.544,4.6,7.828,5.881ZM7.411,6.3,6.128,5.014,5.5,5.639,6.786,6.923ZM6.37,7.339,5.086,6.056,2.053,9.089q-.046.046-.089.094l1.278,1.278c.032-.029.064-.059.094-.089ZM2.247,11.03a2.651,2.651,0,0,0,.51-.22L1.615,9.668a2.648,2.648,0,0,0-.22.51l-.383,1.234Zm0,0" transform="translate(-0.271 0)" fill="#3d6fde"/>
</svg>
