<svg xmlns="http://www.w3.org/2000/svg" width="12.523" height="12.532" viewBox="0 0 12.523 12.532">
  <path id="pen-white" d="M.85,10.315a3.355,3.355,0,0,1,.829-1.373L9.749.872a.3.3,0,0,1,.43,0l.045.045.638-.646a.911.911,0,0,1,1.3,0l.374.379a.914.914,0,0,1,0,1.285l-.641.641.236.233a1.519,1.519,0,0,1,.006,2.154L9.7,7.4a.3.3,0,1,1-.43-.43L11.7,4.534a.911.911,0,0,0,.02-1.268L8.083,6.9l-.664.664L6.989,8,3.862,11.124a3.355,3.355,0,0,1-1.373.829l-1.824.565a.3.3,0,0,1-.38-.38ZM12.1,1.077,11.726.7a.3.3,0,0,0-.433,0l-.64.649.8.8.644-.644A.3.3,0,0,0,12.1,1.077ZM11.287,2.84,9.964,1.517,6.74,4.741,8.063,6.064ZM7.633,6.494,6.31,5.17l-.644.644L6.989,7.138ZM6.559,7.568,5.236,6.244,2.109,9.372q-.047.048-.092.1l1.318,1.318c.033-.03.066-.061.1-.092ZM2.309,11.373a2.733,2.733,0,0,0,.526-.226L1.657,9.969a2.731,2.731,0,0,0-.227.526l-.395,1.272Zm0,0" transform="translate(-0.271)" fill="#fff"/>
</svg>
