<svg xmlns="http://www.w3.org/2000/svg" width="15.143" height="15.154" viewBox="0 0 15.143 15.154">
  <path id="pen-dark2" d="M.971,12.473a4.057,4.057,0,0,1,1-1.66l9.758-9.758a.367.367,0,0,1,.519,0l.055.055.771-.781a1.1,1.1,0,0,1,1.569,0L15.1.787a1.1,1.1,0,0,1-.005,1.553l-.775.775L14.6,3.4A1.837,1.837,0,0,1,14.61,6l-2.94,2.94a.367.367,0,1,1-.519-.519l2.94-2.94a1.1,1.1,0,0,0,.024-1.533l-4.4,4.4-.8.8-.52.519L4.613,13.452a4.056,4.056,0,0,1-1.66,1l-2.205.684a.367.367,0,0,1-.46-.46ZM14.575,1.3,14.123.844a.368.368,0,0,0-.523,0l-.774.784.97.97.778-.778A.368.368,0,0,0,14.575,1.3Zm-.984,2.131-1.6-1.6-3.9,3.9,1.6,1.6ZM9.173,7.852l-1.6-1.6-.779.779,1.6,1.6Zm-1.3,1.3-1.6-1.6L2.493,11.332q-.057.057-.111.118l1.594,1.594c.04-.036.079-.073.118-.111Zm-5.14,4.6a3.305,3.305,0,0,0,.636-.274L1.947,12.054a3.3,3.3,0,0,0-.274.636L1.2,14.229Zm0,0" transform="translate(-0.271)" fill="#959ba5"/>
</svg>
