<svg id="presentation-empty-icon" xmlns="http://www.w3.org/2000/svg" width="60" height="60" viewBox="0 0 60 60">
  <g id="_031---Email-Settings" data-name="031---Email-Settings">
    <path id="Shape" d="M59,50V32a2,2,0,0,0-2-2H3a2,2,0,0,0-2,2V50Z" fill="#b8c6dc"/>
    <path id="Shape-2" data-name="Shape" d="M56,50V32a1.95,1.95,0,0,0-1.9-2H2.9A1.95,1.95,0,0,0,1,32V50Z" fill="#b8c6dc"/>
    <path id="Shape-3" data-name="Shape" d="M52,3V49H8V3a2.006,2.006,0,0,1,2-2H50A2.006,2.006,0,0,1,52,3Z" fill="#b8c6dc"/>
    <path id="Shape-4" data-name="Shape" d="M49,3V49H8V3a2.006,2.006,0,0,1,2-2H47A2.006,2.006,0,0,1,49,3Z" fill="#e8edfc"/>
    <path id="Shape-5" data-name="Shape" d="M59,41V55a4,4,0,0,1-4,4H5a4,4,0,0,1-4-4V41H17.46a1.013,1.013,0,0,1,.84.45l3.4,5.1a1.013,1.013,0,0,0,.84.45H37.46a1.013,1.013,0,0,0,.84-.45l3.4-5.1a1.013,1.013,0,0,1,.84-.45Z" fill="#cad9fc"/>
    <path id="Shape-6" data-name="Shape" d="M46.32,19.77l-3.63-1.21c-.23-.56-.35-.83-.58-1.39l1.71-3.43a1,1,0,0,0-.19-1.15L40.41,9.37a1,1,0,0,0-1.15-.19l-3.43,1.71c-.56-.23-.83-.35-1.39-.58L33.23,6.68A1.013,1.013,0,0,0,32.28,6H27.72a1.014,1.014,0,0,0-.95.68l-1.21,3.63c-.56.23-.83.35-1.39.58L20.74,9.18a1,1,0,0,0-1.15.19l-3.22,3.22a1,1,0,0,0-.19,1.15l1.71,3.43c-.23.56-.35.83-.58,1.39l-3.63,1.21a1.014,1.014,0,0,0-.68.95v4.56a1.014,1.014,0,0,0,.68.95l3.63,1.21c.23.56.35.83.58,1.39l-1.71,3.43a1,1,0,0,0,.19,1.15l3.22,3.22a1,1,0,0,0,1.15.19l3.43-1.71c.56.23.83.35,1.39.58l1.21,3.63a1.013,1.013,0,0,0,.95.68h4.56a1.013,1.013,0,0,0,.95-.68l1.21-3.63c.56-.23.83-.35,1.39-.58l3.43,1.71a1,1,0,0,0,1.15-.19l3.22-3.22a1,1,0,0,0,.19-1.15l-1.71-3.43c.23-.56.35-.83.58-1.39l3.63-1.21a1.013,1.013,0,0,0,.68-.95V20.72a1.014,1.014,0,0,0-.68-.95ZM30,26a3,3,0,1,1,2.122-.878A3,3,0,0,1,30,26Z" fill="#fff"/>
    <path id="Shape-7" data-name="Shape" d="M47,20.72v4.56a1.014,1.014,0,0,1-.68.95l-3.63,1.21c-.23.56-.35.83-.58,1.39l1.71,3.43a1,1,0,0,1-.19,1.15l-3.22,3.22a1,1,0,0,1-1.15.19l-1.36-.68,2.73-2.73a1,1,0,0,0,.19-1.15l-1.71-3.43c.23-.56.35-.83.58-1.39l3.63-1.21a1.013,1.013,0,0,0,.68-.95V20.72a1.014,1.014,0,0,0-.68-.95l-3.63-1.21c-.23-.56-.35-.83-.58-1.39l1.71-3.43a1,1,0,0,0-.19-1.15L37.9,9.86l1.36-.68a1,1,0,0,1,1.15.19l3.22,3.22a1,1,0,0,1,.19,1.15l-1.71,3.43c.23.56.35.83.58,1.39l3.63,1.21a1.013,1.013,0,0,1,.68.95Z" fill="#e8edfc"/>
    <path id="Shape-8" data-name="Shape" d="M56,41V55a4,4,0,0,1-4,4H5a4,4,0,0,1-4-4V41H16.92a1.013,1.013,0,0,1,.84.45l3.4,5.1A1.013,1.013,0,0,0,22,47H37.46a1.013,1.013,0,0,0,.84-.45l3.4-5.1a1.013,1.013,0,0,1,.84-.45Z" fill="#e8edfc"/>
    <path id="Shape-9" data-name="Shape" d="M5,59H8a4,4,0,0,1-4-4V32a1.95,1.95,0,0,1,1.9-2h-3A1.95,1.95,0,0,0,1,32V55a4,4,0,0,0,4,4Z" fill="#fff"/>
    <path id="Shape-10" data-name="Shape" d="M8,41h3V3a2.006,2.006,0,0,1,2-2H10A2.006,2.006,0,0,0,8,3Z" fill="#fff"/>
    <path id="Shape-11" data-name="Shape" d="M55,60H5a5.006,5.006,0,0,1-5-5V41a1,1,0,0,1,1-1H17.465a2,2,0,0,1,1.664.891L22.535,46h14.93l3.406-5.109A2,2,0,0,1,42.535,40H59a1,1,0,0,1,1,1V55a5.006,5.006,0,0,1-5,5ZM2,42V55a3,3,0,0,0,3,3H55a3,3,0,0,0,3-3V42H42.535l-3.406,5.109A2,2,0,0,1,37.465,48H22.535a2,2,0,0,1-1.664-.891L17.465,42Z" fill="#666d7b"/>
    <path id="Shape-12" data-name="Shape" d="M9,3V41H7V3Z" fill="#fff"/>
    <g id="Group_42261" data-name="Group 42261">
      <path id="Shape-13" data-name="Shape" d="M8,8A1,1,0,0,0,9,7V3H7V7A1,1,0,0,0,8,8Z" fill="#666d7b"/>
      <path id="Shape-14" data-name="Shape" d="M7,41H9V15a1,1,0,0,0-2,0Z" fill="#666d7b"/>
      <path id="Shape-15" data-name="Shape" d="M9,11a1.053,1.053,0,0,0-.29-.71l-.15-.12a.762.762,0,0,0-.18-.09.636.636,0,0,0-.18-.06A1.462,1.462,0,0,0,8,10a1.05,1.05,0,0,0-.71.29.986.986,0,0,0,.33,1.63A1,1,0,0,0,8,12a.99.99,0,0,0,1-1Z" fill="#666d7b"/>
      <path id="Shape-16" data-name="Shape" d="M52,42a1,1,0,0,1-1-1V3a1,1,0,0,0-1-1H10A1,1,0,0,0,9,3,1,1,0,0,1,7,3a3,3,0,0,1,3-3H50a3,3,0,0,1,3,3V41A1,1,0,0,1,52,42Z" fill="#666d7b"/>
      <path id="Shape-17" data-name="Shape" d="M1,42a1,1,0,0,1-1-1V32a3,3,0,0,1,3-3H8a1,1,0,0,1,0,2H3a1,1,0,0,0-1,1v9A1,1,0,0,1,1,42Z" fill="#666d7b"/>
      <path id="Shape-18" data-name="Shape" d="M59,42a1,1,0,0,1-1-1V32a1,1,0,0,0-1-1H52a1,1,0,0,1,0-2h5a3,3,0,0,1,3,3v9a1,1,0,0,1-1,1Z" fill="#666d7b"/>
      <path id="Shape-19" data-name="Shape" d="M33,41H27a1,1,0,0,1-.948-.683l-1.44-4.311-4.065,2.029a1,1,0,0,1-1.153-.188l-4.24-4.24a1,1,0,0,1-.188-1.153l2.029-4.065-4.311-1.44A1,1,0,0,1,12,26V20a1,1,0,0,1,.683-.948l4.311-1.44-2.029-4.065a1,1,0,0,1,.188-1.153l4.24-4.24a1,1,0,0,1,1.153-.188l4.065,2.029,1.44-4.311A1,1,0,0,1,27,5h6a1,1,0,0,1,.948.683l1.44,4.311,4.065-2.029a1,1,0,0,1,1.153.188l4.24,4.24a1,1,0,0,1,.188,1.153l-2.029,4.065,4.311,1.44A1,1,0,0,1,48,20v6a1,1,0,0,1-.683.948l-4.311,1.44,2.029,4.065a1,1,0,0,1-.188,1.153l-4.24,4.24a1,1,0,0,1-1.153.188l-4.065-2.029-1.44,4.311A1,1,0,0,1,33,41Zm-5.28-2h4.56l1.392-4.167a1,1,0,0,1,.6-.62c.224-.083.448-.177.662-.27a1,1,0,0,1,.845.022L39.7,35.924,42.924,32.7l-1.959-3.926a1,1,0,0,1-.022-.845c.093-.214.187-.438.27-.662a1,1,0,0,1,.62-.6L46,25.28V20.72l-4.167-1.392a1,1,0,0,1-.62-.6c-.083-.224-.177-.448-.27-.662a1,1,0,0,1,.022-.845L42.924,13.3,39.7,10.076l-3.926,1.959a1,1,0,0,1-.845.022c-.214-.093-.438-.187-.662-.271a1,1,0,0,1-.6-.62L32.28,7H27.72l-1.392,4.167a1,1,0,0,1-.6.62c-.224.083-.448.177-.662.271a1,1,0,0,1-.845-.022L20.3,10.077,17.076,13.3l1.959,3.926a1,1,0,0,1,.022.845c-.093.214-.187.438-.27.662a1,1,0,0,1-.62.6L14,20.72v4.56l4.167,1.392a1,1,0,0,1,.62.6c.083.224.177.448.27.662a1,1,0,0,1-.022.845L17.076,32.7,20.3,35.924l3.926-1.959a1,1,0,0,1,.845-.022c.214.093.438.187.662.27a1,1,0,0,1,.6.62Z" fill="#666d7b"/>
      <path id="Shape-20" data-name="Shape" d="M21,24a1,1,0,0,1-1-1A10.011,10.011,0,0,1,30,13a1,1,0,0,1,0,2,8.009,8.009,0,0,0-8,8A1,1,0,0,1,21,24Z" fill="#666d7b"/>
      <path id="Shape-21" data-name="Shape" d="M30,33a1,1,0,0,1,0-2,8.009,8.009,0,0,0,8-8,1,1,0,0,1,2,0A10.011,10.011,0,0,1,30,33Z" fill="#666d7b"/>
      <path id="Shape-22" data-name="Shape" d="M30,27a4,4,0,1,1,4-4A4,4,0,0,1,30,27Zm0-6a2,2,0,1,0,2,2A2,2,0,0,0,30,21Z" fill="#666d7b"/>
    </g>
  </g>
</svg>
