<svg xmlns="http://www.w3.org/2000/svg" width="20.931" height="20.939" viewBox="0 0 20.931 20.939">
  <g id="qr-code" transform="translate(-76.952 -74.664)">
    <path id="Path_115214" data-name="Path 115214" d="M77.289,76.593v7.442a.538.538,0,0,0,.538.538h7.442a.538.538,0,0,0,.538-.538V82.624a.538.538,0,1,0-1.076,0V83.5H78.365V77.131h6.366v1.3a.538.538,0,1,0,1.076,0V76.593a.538.538,0,0,0-.538-.538H77.827A.538.538,0,0,0,77.289,76.593Zm0,0" transform="translate(-0.323 -1.331)" fill="#666d7b"/>
    <path id="Path_115215" data-name="Path 115215" d="M138.581,136.8a.538.538,0,0,0-.538.538v2.233a.538.538,0,0,0,.538.538h2.233a.538.538,0,0,0,.538-.538v-2.233a.538.538,0,0,0-.538-.538Zm1.695,2.233h-1.157v-1.157h1.157Zm0,0" transform="translate(-58.472 -59.476)" fill="#666d7b"/>
    <path id="Path_115216" data-name="Path 115216" d="M85.269,364.344H77.827a.538.538,0,0,0-.538.538v7.442a.538.538,0,0,0,.538.538h7.442a.538.538,0,0,0,.538-.538v-7.442A.538.538,0,0,0,85.269,364.344Zm-.538,7.442H78.365V365.42h6.366Zm0,0" transform="translate(-0.323 -277.259)" fill="#666d7b"/>
    <path id="Path_115217" data-name="Path 115217" d="M366.987,84.573h7.442a.538.538,0,0,0,.538-.538V76.593a.538.538,0,0,0-.538-.538h-7.442a.538.538,0,0,0-.538.538v7.442A.538.538,0,0,0,366.987,84.573Zm.538-7.442h6.366V83.5h-6.366Zm0,0" transform="translate(-277.085 -1.331)" fill="#666d7b"/>
    <path id="Path_115218" data-name="Path 115218" d="M374.968,372.324v-7.442a.538.538,0,0,0-.538-.538h-7.442a.538.538,0,0,0-.538.538v7.442a.538.538,0,0,0,.538.538h7.442A.538.538,0,0,0,374.968,372.324Zm-1.076-.538h-6.366V365.42h6.366Zm0,0" transform="translate(-277.085 -277.259)" fill="#666d7b"/>
    <path id="Path_115219" data-name="Path 115219" d="M146.511,85.734a.538.538,0,0,0,0-1.076h-9.434V75.2a.538.538,0,1,0-1.076,0v9.456h-7.142a.538.538,0,0,0,0,1.076H136v9.331a.538.538,0,0,0,1.076,0V85.734Zm0,0" transform="translate(-49.166)" fill="#666d7b"/>
    <path id="Path_115220" data-name="Path 115220" d="M138.581,429.336h2.233a.538.538,0,0,0,.538-.538v-2.233a.538.538,0,0,0-.538-.538h-2.233a.538.538,0,0,0-.538.538V428.8A.538.538,0,0,0,138.581,429.336Zm.538-2.233h1.157v1.157h-1.157Zm0,0" transform="translate(-58.472 -336.298)" fill="#666d7b"/>
    <path id="Path_115221" data-name="Path 115221" d="M429.966,136.8h-2.233a.538.538,0,0,0-.538.538v2.233a.538.538,0,0,0,.538.538h2.233a.538.538,0,0,0,.538-.538v-2.233A.538.538,0,0,0,429.966,136.8Zm-.538,2.233h-1.156v-1.157h1.156Zm0,0" transform="translate(-335.226 -59.476)" fill="#666d7b"/>
    <path id="Path_115222" data-name="Path 115222" d="M427.733,429.336h2.233a.538.538,0,0,0,.538-.538v-2.233a.538.538,0,0,0-.538-.538h-2.233a.538.538,0,0,0-.538.538V428.8A.538.538,0,0,0,427.733,429.336Zm.538-2.233h1.156v1.157h-1.156Zm0,0" transform="translate(-335.226 -336.298)" fill="#666d7b"/>
    <path id="Path_115223" data-name="Path 115223" d="M77.4,307.471l-.029.007a.538.538,0,1,0,.247,1.047l.029-.007a.538.538,0,0,0-.247-1.047Zm0,0" transform="translate(0 -222.811)" fill="#666d7b"/>
    <path id="Path_115224" data-name="Path 115224" d="M250.965,167.469l-.029.007a.538.538,0,0,0,.123,1.062.532.532,0,0,0,.123-.015l.029-.007a.538.538,0,0,0-.246-1.048Zm0,0" transform="translate(-166.127 -88.812)" fill="#666d7b"/>
  </g>
</svg>
