<svg xmlns="http://www.w3.org/2000/svg" width="44.396" height="47.592" viewBox="0 0 44.396 47.592">
  <g id="sign-in" transform="translate(-2.25)">
    <g id="Group_40596" data-name="Group 40596" transform="translate(2.25)">
      <path id="Path_114263" data-name="Path 114263" d="M3.671,30.5H32.012L24.7,37.94a1.5,1.5,0,0,0,0,2.076,1.453,1.453,0,0,0,1.005.45,1.4,1.4,0,0,0,1-.4l9.1-9.093a1.412,1.412,0,0,0,0-2l-.432-.431a1.405,1.405,0,0,0-.364-.363l-8.306-8.306a1.42,1.42,0,0,0-2.009,0,1.263,1.263,0,0,0,0,1.874l6.046,5.91H3.671a1.421,1.421,0,1,0,0,2.841Z" transform="translate(-2.25 -5.636)" fill="#fff"/>
      <path id="Path_114264" data-name="Path 114264" d="M52,42.109V6.777C52,3.372,49.229,0,45.791,0H27.322A7.008,7.008,0,0,0,20.75,6.777v8.41a1.421,1.421,0,0,0,2.841,0V6.777a4.2,4.2,0,0,1,3.731-3.936H45.791c1.88,0,3.372,2.086,3.372,3.936V42.109c0,1.892-1.565,2.642-3.372,2.642H27.322c-1.68,0-3.731-.63-3.731-2.642V33.656a1.421,1.421,0,0,0-2.841,0v8.453c0,3.334,2.97,5.483,6.572,5.483H45.791C49.475,47.592,52,45.336,52,42.109Z" transform="translate(-7.609)" fill="#fff"/>
    </g>
  </g>
</svg>
