<svg xmlns="http://www.w3.org/2000/svg" width="34.102" height="34.101" viewBox="0 0 34.102 34.101">
  <g id="stopwatch" transform="translate(0.35 0.35)">
    <path id="Path_115458" data-name="Path 115458" d="M16.7,0a.556.556,0,0,0-.557.557v7.4a.557.557,0,1,0,1.113,0V1.123A15.587,15.587,0,1,1,5.659,5.7a.557.557,0,0,0-.788-.786A16.7,16.7,0,1,0,16.7,0Z" fill="#666a71" stroke="#666a71" stroke-width="0.7"/>
    <path id="Path_115459" data-name="Path 115459" d="M24.319,27.091a1.984,1.984,0,1,0,2.77-2.772l-7.206-5.212a.557.557,0,0,0-.778.778Z" transform="translate(-8.423 -8.424)" fill="#666a71" stroke="#666a71" stroke-width="0.7"/>
  </g>
</svg>
