<svg xmlns="http://www.w3.org/2000/svg" width="26.272" height="17.213" viewBox="0 0 26.272 17.213">
  <g id="switzerland" transform="translate(0 -88.276)">
    <path id="Path_115036" data-name="Path 115036" d="M24.3,105.489H1.968A1.968,1.968,0,0,1,0,103.521V90.244a1.968,1.968,0,0,1,1.968-1.968H24.3a1.968,1.968,0,0,1,1.968,1.968v13.278A1.968,1.968,0,0,1,24.3,105.489Z" fill="#ff4b55"/>
    <path id="Path_115037" data-name="Path 115037" d="M160.485,153.693h-3.171v-3.171a.453.453,0,0,0-.453-.453h-2.718a.453.453,0,0,0-.453.453v3.171H150.52a.453.453,0,0,0-.453.453v2.718a.453.453,0,0,0,.453.453h3.171v3.171a.453.453,0,0,0,.453.453h2.718a.453.453,0,0,0,.453-.453v-3.171h3.171a.453.453,0,0,0,.453-.453v-2.718A.453.453,0,0,0,160.485,153.693Z" transform="translate(-142.367 -58.622)" fill="#f5f5f5"/>
  </g>
</svg>
