<svg xmlns="http://www.w3.org/2000/svg" width="11.789" height="11.789" viewBox="0 0 11.789 11.789">
  <path id="table-view" d="M18.807,8H8.982A.983.983,0,0,0,8,8.982v9.824a.983.983,0,0,0,.982.982h9.824a.983.983,0,0,0,.982-.982V8.982A.983.983,0,0,0,18.807,8Zm-6.14,7.859V13.895h2.456v1.965Zm2.456.982v1.965H12.667V16.842Zm0-5.895v1.965H12.667V10.947Zm3.684,0v1.965H16.1V10.947Zm-7.123,1.965h-2.7V10.947h2.7Zm-2.7.982h2.7v1.965h-2.7Zm7.123,0h2.7v1.965H16.1ZM8.982,8.982h9.824v.982H8.982V8.982Zm0,7.859h2.7v1.965h-2.7ZM16.1,18.807V16.842h2.7v1.965Z" transform="translate(-8 -8)" fill="#fff"/>
</svg>
