<svg xmlns="http://www.w3.org/2000/svg" width="38.89" height="30.001" viewBox="0 0 38.89 30.001">
  <g id="ticket-abandoned" transform="translate(1521.679 -4034.442)">
    <g id="Group_40974" data-name="Group 40974" transform="translate(-1521.679 4034.442)">
      <g id="Group_40946" data-name="Group 40946" transform="translate(0 0)">
        <g id="Group_40945" data-name="Group 40945" transform="translate(0 0)" opacity="0.999">
          <g id="ticket" transform="translate(0 0)">
            <g id="Group_40914" data-name="Group 40914" transform="translate(11.43)">
              <g id="Group_40913" data-name="Group 40913">
                <path id="Path_115460" data-name="Path 115460" d="M203.208,39.054H202.6a.928.928,0,0,1,0-1.857h.611a.473.473,0,0,0,.473-.473V33.887a.473.473,0,0,0-.473-.473H202.6a.93.93,0,0,1-.928-.928v-.172l.694-.635a.473.473,0,0,0,.04-.657l-1.846-2.155a.473.473,0,0,0-.667-.051l-.464.4a.929.929,0,1,1-1.208-1.41l.464-.4a.473.473,0,0,0,.051-.667l-1.846-2.155a.473.473,0,0,0-.667-.051l-.464.4a.928.928,0,0,1-1.309-.1l-.619-.723a.473.473,0,0,0-.667-.051l-8.177,7.006h-1.35a.473.473,0,0,0,0,.946h17.09v.479A1.877,1.877,0,0,0,202.6,34.36h.138v1.892H202.6a1.874,1.874,0,1,0,0,3.749h.138v1.892H202.6a1.877,1.877,0,0,0-1.875,1.874v1.072h-3.27a.473.473,0,1,0,0,.946H201.2a.473.473,0,0,0,.473-.473V43.766a.93.93,0,0,1,.929-.928h.611a.473.473,0,0,0,.473-.473V39.527A.473.473,0,0,0,203.208,39.054Zm-16.772-7.994,6.979-5.98.312.364a3.292,3.292,0,0,0,2.748.114l1.231,1.436-.1.09a1.874,1.874,0,1,0,2.439,2.847l.1-.09,1.045,1.219Z" transform="translate(-183.159 -23.941)" fill="#195190"/>
              </g>
            </g>
            <g id="Group_40916" data-name="Group 40916" transform="translate(0 7.12)">
              <g id="Group_40915" data-name="Group 40915">
                <path id="Path_115461" data-name="Path 115461" d="M21.572,151.809H2.959v-.479a1.877,1.877,0,0,0-1.874-1.874H.946v-1.892h.138a1.874,1.874,0,0,0,0-3.749H.946v-1.892h.138a1.877,1.877,0,0,0,1.874-1.874v-1.072h5.4a.473.473,0,0,0,0-.946H2.486a.473.473,0,0,0-.473.473v1.545a.93.93,0,0,1-.928.928H.473a.473.473,0,0,0-.473.473v2.838a.473.473,0,0,0,.473.473h.611a.928.928,0,1,1,0,1.857H.473a.473.473,0,0,0-.473.473v2.838a.473.473,0,0,0,.473.473h.611a.93.93,0,0,1,.928.928v.256l-.668.53a.473.473,0,0,0-.065.678l1.846,2.155a.473.473,0,0,0,.667.051l.464-.4a.928.928,0,0,1,1.309.1.93.93,0,0,1-.1,1.309l-.464.4a.473.473,0,0,0-.051.667L6.8,159.232a.473.473,0,0,0,.667.051l.464-.4a.929.929,0,0,1,1.309.1l.619.723a.473.473,0,0,0,.667.051l8.163-6.994.013-.012h2.875a.473.473,0,0,0,0-.946Zm-11.306,6.926-.311-.364a1.874,1.874,0,0,0-2.643-.2l-.105.09-1.231-1.436.1-.09a1.874,1.874,0,0,0-2.439-2.847l-.1.09-1.045-1.219H17.245Z" transform="translate(0 -138.031)" fill="#195190"/>
              </g>
            </g>
            <g id="Group_40918" data-name="Group 40918" transform="translate(4.776 9.337)">
              <g id="Group_40917" data-name="Group 40917">
                <path id="Path_115462" data-name="Path 115462" d="M98.451,173.562H84.978a.473.473,0,0,0,0,.946h13v8.4H77.469v-8.4h3.894a.473.473,0,0,0,0-.946H77a.473.473,0,0,0-.473.473v9.343a.473.473,0,0,0,.473.473H98.451a.473.473,0,0,0,.473-.473v-9.343A.473.473,0,0,0,98.451,173.562Z" transform="translate(-76.523 -173.562)" fill="#195190"/>
              </g>
            </g>
          </g>
        </g>
      </g>
    </g>
    <circle id="Ellipse_37" data-name="Ellipse 37" cx="8.168" cy="8.168" r="8.168" transform="translate(-1499.125 4048.106)" fill="#fff"/>
    <g id="Group_40979" data-name="Group 40979" transform="translate(-1067 -110.191)">
      <path id="check-mark" d="M12.8,6.4A6.4,6.4,0,1,1,6.4,0,6.4,6.4,0,0,1,12.8,6.4Zm-1,0a5.4,5.4,0,1,0-5.4,5.4A5.4,5.4,0,0,0,11.8,6.4Zm0,0" transform="translate(-430 4160)" fill="#195190"/>
      <path id="Path_115490" data-name="Path 115490" d="M346.742,345.924l-1.469-1.469,1.469-1.469a.578.578,0,0,0-.817-.817l-1.469,1.469-1.469-1.469a.578.578,0,1,0-.817.817l1.469,1.469-1.469,1.469a.578.578,0,1,0,.817.817l1.469-1.469,1.469,1.469a.578.578,0,0,0,.817-.817Z" transform="translate(-768.057 3821.944)" fill="#195190"/>
    </g>
  </g>
</svg>
