<svg xmlns="http://www.w3.org/2000/svg" width="44.279" height="34.158" viewBox="0 0 44.279 34.158">
  <g id="ticket" transform="translate(1521.679 -4034.442)">
    <g id="Group_40974" data-name="Group 40974" transform="translate(-1629.763 3811.013)">
      <g id="Group_40946" data-name="Group 40946" transform="translate(108.084 223.429)">
        <g id="Group_40945" data-name="Group 40945" transform="translate(0 0)" opacity="0.999">
          <g id="ticket-2" data-name="ticket" transform="translate(0 0)">
            <g id="Group_40914" data-name="Group 40914" transform="translate(13.014)">
              <g id="Group_40913" data-name="Group 40913">
                <path id="Path_115460" data-name="Path 115460" d="M205.986,41.149h-.7a1.057,1.057,0,0,1,0-2.114h.7a.538.538,0,0,0,.539-.539V35.265a.538.538,0,0,0-.539-.539h-.7a1.058,1.058,0,0,1-1.057-1.057v-.2l.79-.724a.539.539,0,0,0,.045-.748l-2.1-2.453a.539.539,0,0,0-.759-.059l-.528.453a1.057,1.057,0,1,1-1.376-1.606l.528-.453a.538.538,0,0,0,.059-.759l-2.1-2.453a.539.539,0,0,0-.759-.059l-.529.453a1.057,1.057,0,0,1-1.491-.115l-.7-.823a.539.539,0,0,0-.759-.059l-9.31,7.977H183.7a.539.539,0,0,0,0,1.077h19.459v.545A2.137,2.137,0,0,0,205.29,35.8h.157v2.154h-.157a2.134,2.134,0,1,0,0,4.268h.157V44.38h-.157a2.137,2.137,0,0,0-2.134,2.134v1.221h-3.723a.539.539,0,1,0,0,1.077h4.262a.538.538,0,0,0,.539-.539V46.514a1.058,1.058,0,0,1,1.057-1.057h.7a.538.538,0,0,0,.538-.539V41.687A.538.538,0,0,0,205.986,41.149Zm-19.1-9.1,7.947-6.809.355.414a3.748,3.748,0,0,0,3.129.13l1.4,1.635-.12.1a2.134,2.134,0,1,0,2.777,3.241l.119-.1,1.19,1.388Z" transform="translate(-183.159 -23.941)" fill="#195190"/>
              </g>
            </g>
            <g id="Group_40916" data-name="Group 40916" transform="translate(0 8.107)">
              <g id="Group_40915" data-name="Group 40915">
                <path id="Path_115461" data-name="Path 115461" d="M24.561,153.718H3.369v-.545a2.137,2.137,0,0,0-2.134-2.134H1.077v-2.154h.157a2.134,2.134,0,0,0,0-4.268H1.077v-2.154h.157a2.137,2.137,0,0,0,2.134-2.134v-1.221H9.514a.539.539,0,0,0,0-1.077H2.83a.538.538,0,0,0-.539.539v1.759a1.058,1.058,0,0,1-1.057,1.057h-.7a.538.538,0,0,0-.539.538v3.231a.538.538,0,0,0,.539.538h.7a1.057,1.057,0,1,1,0,2.114h-.7a.538.538,0,0,0-.539.539v3.231a.538.538,0,0,0,.539.539h.7a1.058,1.058,0,0,1,1.057,1.057v.291l-.761.6a.538.538,0,0,0-.074.772l2.1,2.453a.538.538,0,0,0,.759.059l.529-.453a1.057,1.057,0,0,1,1.491.115,1.058,1.058,0,0,1-.115,1.491l-.528.453a.538.538,0,0,0-.059.759l2.1,2.453a.538.538,0,0,0,.759.059l.529-.453a1.057,1.057,0,0,1,1.491.115l.705.823a.538.538,0,0,0,.759.059l9.294-7.963.015-.014h3.273a.539.539,0,0,0,0-1.077ZM11.688,161.6l-.355-.414a2.134,2.134,0,0,0-3.009-.232l-.12.1-1.4-1.636.12-.1a2.134,2.134,0,0,0-2.777-3.241l-.12.1L2.836,154.8h16.8Z" transform="translate(0 -138.031)" fill="#195190"/>
              </g>
            </g>
            <g id="Group_40918" data-name="Group 40918" transform="translate(5.437 10.631)">
              <g id="Group_40917" data-name="Group 40917">
                <path id="Path_115462" data-name="Path 115462" d="M101.49,173.562H86.15a.539.539,0,1,0,0,1.077h14.8V184.2H77.6v-9.561h4.434a.539.539,0,0,0,0-1.077H77.062a.538.538,0,0,0-.539.539v10.638a.538.538,0,0,0,.539.539H101.49a.538.538,0,0,0,.539-.539V174.1A.539.539,0,0,0,101.49,173.562Z" transform="translate(-76.523 -173.562)" fill="#195190"/>
              </g>
            </g>
          </g>
        </g>
      </g>
    </g>
    <circle id="Ellipse_37" data-name="Ellipse 37" cx="9.3" cy="9.3" r="9.3" transform="translate(-1496 4050)" fill="#fff"/>
    <g id="wall-clock" transform="translate(-1494 4052)">
      <g id="Group_40971" data-name="Group 40971">
        <g id="Group_40970" data-name="Group 40970">
          <path id="Path_115487" data-name="Path 115487" d="M12.461,2.138A7.3,7.3,0,0,0,2.138,12.461a7.3,7.3,0,0,0,8.938,1.086.57.57,0,0,0-.591-.975,6.213,6.213,0,1,1,1.928-1.854.57.57,0,0,0,.948.634,7.281,7.281,0,0,0-.9-9.213Z" fill="#195190"/>
        </g>
      </g>
      <g id="Group_40973" data-name="Group 40973" transform="translate(4.471 2.167)">
        <g id="Group_40972" data-name="Group 40972">
          <path id="Path_115488" data-name="Path 115488" d="M159.632,76a.57.57,0,0,0-.57.57V80.9l-2.091,2.091a.57.57,0,1,0,.806.806l2.258-2.258a.57.57,0,0,0,.167-.4V76.57A.57.57,0,0,0,159.632,76Z" transform="translate(-156.804 -76)" fill="#195190"/>
        </g>
      </g>
    </g>
  </g>
</svg>
