<svg xmlns="http://www.w3.org/2000/svg" width="66.625" height="66.624" viewBox="0 0 66.625 66.624">
  <g id="TV-empty-icon" transform="translate(0 -0.003)">
    <g id="Group_42728" data-name="Group 42728" transform="translate(1.11 5.555)">
      <path id="Path_116066" data-name="Path 116066" d="M210.813,45.437v2.221H195.267V45.437a7.776,7.776,0,0,1,6.107-7.6,8.143,8.143,0,0,1,1.666-.178,7.767,7.767,0,0,1,7.773,7.773Z" transform="translate(-170.838 -37.664)" fill="#b8c6dc"/>
      <g id="Group_42725" data-name="Group 42725" transform="translate(4.442 0.178)">
        <path id="Path_116067" data-name="Path 116067" d="M207.481,46.624v2.221H195.266V46.624a7.776,7.776,0,0,1,6.107-7.6A7.775,7.775,0,0,1,207.481,46.624Z" transform="translate(-175.279 -39.029)" fill="#e8edfc"/>
        <path id="Path_116068" data-name="Path 116068" d="M41.667,447.264h11.1v5.552a1.11,1.11,0,0,1-1.11,1.11H42.777a1.11,1.11,0,0,1-1.11-1.11Z" transform="translate(-41.667 -394.142)" fill="#e3e7f2"/>
        <path id="Path_116069" data-name="Path 116069" d="M383,447.264h11.1v5.552a1.11,1.11,0,0,1-1.11,1.11H384.11a1.11,1.11,0,0,1-1.11-1.11Z" transform="translate(-338.584 -394.142)" fill="#e3e7f2"/>
      </g>
      <path id="Path_116070" data-name="Path 116070" d="M8.644,97.4H70.827a1.11,1.11,0,0,1,1.11,1.11v46.637a1.11,1.11,0,0,1-1.11,1.11H8.644a1.11,1.11,0,0,1-1.11-1.11V98.507A1.11,1.11,0,0,1,8.644,97.4Z" transform="translate(-7.534 -89.624)" fill="#b8c6dc"/>
      <path id="Path_116071" data-name="Path 116071" d="M8.644,97.4H67.5a1.11,1.11,0,0,1,1.11,1.11v46.637a1.11,1.11,0,0,1-1.11,1.11H8.644a1.11,1.11,0,0,1-1.11-1.11V98.507A1.11,1.11,0,0,1,8.644,97.4Z" transform="translate(-7.534 -89.624)" fill="#e8edfc"/>
      <path id="Path_116072" data-name="Path 116072" d="M46.109,131.53H79.421a4.442,4.442,0,0,1,4.442,4.442v31.091a4.442,4.442,0,0,1-4.442,4.442H46.109a4.442,4.442,0,0,1-4.442-4.442V135.972A4.442,4.442,0,0,1,46.109,131.53Z" transform="translate(-37.225 -119.315)" fill="#b8c6dc"/>
      <path id="Path_116073" data-name="Path 116073" d="M46.109,131.53H76.09a4.442,4.442,0,0,1,4.442,4.442v31.091A4.442,4.442,0,0,1,76.09,171.5H46.109a4.442,4.442,0,0,1-4.442-4.442V135.972A4.442,4.442,0,0,1,46.109,131.53Z" transform="translate(-37.225 -119.315)" fill="#e8edfc"/>
      <g id="Group_42726" data-name="Group 42726" transform="translate(49.968 12.215)">
        <circle id="Ellipse_8626" data-name="Ellipse 8626" cx="5.552" cy="5.552" r="5.552" transform="translate(0 28.871)" fill="#e3e7f2"/>
      </g>
      <g id="Group_42727" data-name="Group 42727" transform="translate(0 0)">
        <path id="Path_116078" data-name="Path 116078" d="M11.976,146.256H8.644a1.114,1.114,0,0,1-1.11-1.11V98.508a1.114,1.114,0,0,1,1.11-1.11h3.331a1.114,1.114,0,0,0-1.11,1.11v46.637A1.114,1.114,0,0,0,11.976,146.256Z" transform="translate(-7.534 -89.625)" fill="#fff"/>
        <path id="Path_116079" data-name="Path 116079" d="M46.109,476.2H42.777a1.114,1.114,0,0,1-1.11-1.11v-2.221H45v2.221A1.114,1.114,0,0,0,46.109,476.2Z" transform="translate(-37.225 -416.233)" fill="#fff"/>
        <path id="Path_116080" data-name="Path 116080" d="M203.04,37.663a7.409,7.409,0,0,1,1.655.178,7.775,7.775,0,0,0-6.1,7.6h-3.331a7.776,7.776,0,0,1,6.107-7.6A8.143,8.143,0,0,1,203.04,37.663Z" transform="translate(-170.838 -37.663)" fill="#fff"/>
        <path id="Path_116081" data-name="Path 116081" d="M387.442,476.2H384.11a1.114,1.114,0,0,1-1.11-1.11v-2.221h3.331v2.221A1.114,1.114,0,0,0,387.442,476.2Z" transform="translate(-334.142 -416.233)" fill="#fff"/>
      </g>
    </g>
    <g id="Group_42730" data-name="Group 42730" transform="translate(0 0.003)">
      <path id="Path_116082" data-name="Path 116082" d="M2.221,110.93v46.637H0V110.93Z" transform="translate(0 -96.496)" fill="#666d7b"/>
      <g id="Group_42729" data-name="Group 42729" transform="translate(0 0)">
        <path id="Path_116083" data-name="Path 116083" d="M1.16,172.883a1.17,1.17,0,0,0,.788-.322,1.126,1.126,0,0,0,0-1.577l-.166-.133a.845.845,0,0,0-.2-.1.705.705,0,0,0-.2-.066,1.625,1.625,0,0,0-.222-.022,1.166,1.166,0,0,0-.788.322,1.145,1.145,0,0,0,0,1.577,1.147,1.147,0,0,0,.366.233A1.107,1.107,0,0,0,1.16,172.883Z" transform="translate(-0.05 -148.455)" fill="#666d7b"/>
        <path id="Path_116084" data-name="Path 116084" d="M2.221,63.3H4.442v1.11a2.223,2.223,0,0,0,2.221,2.221h8.883a2.223,2.223,0,0,0,2.221-2.221V63.3H48.858v1.11a2.223,2.223,0,0,0,2.221,2.221h8.883a2.223,2.223,0,0,0,2.221-2.221V63.3H64.4a2.223,2.223,0,0,0,2.221-2.221V14.438A2.223,2.223,0,0,0,64.4,12.217H42.118a8.837,8.837,0,0,0-1.882-4.441l11.339-5.67A1.111,1.111,0,0,0,50.582.12L38.523,6.149a8.818,8.818,0,0,0-10.419,0L16.042.12a1.111,1.111,0,0,0-.993,1.987L26.391,7.772a8.838,8.838,0,0,0-1.885,4.445H2.221A2.223,2.223,0,0,0,0,14.438v4.442a1.11,1.11,0,1,0,2.221,0V14.438H64.4V61.075H2.221V27.763a1.11,1.11,0,0,0-2.221,0V61.075A2.223,2.223,0,0,0,2.221,63.3ZM33.312,6.665a6.667,6.667,0,0,1,6.562,5.552H26.75A6.667,6.667,0,0,1,33.312,6.665ZM59.963,63.3v1.11H51.079V63.3Zm-44.416,0v1.11H6.662V63.3Z" transform="translate(0 -0.003)" fill="#666d7b"/>
        <path id="Path_116085" data-name="Path 116085" d="M39.685,170.193H73a5.559,5.559,0,0,0,5.552-5.552V133.549A5.559,5.559,0,0,0,73,128H39.685a5.559,5.559,0,0,0-5.552,5.552V164.64A5.559,5.559,0,0,0,39.685,170.193Zm-3.331-36.643a3.335,3.335,0,0,1,3.331-3.331H73a3.335,3.335,0,0,1,3.331,3.331V164.64A3.335,3.335,0,0,1,73,167.972H39.685a3.335,3.335,0,0,1-3.331-3.331V133.549Z" transform="translate(-29.691 -111.342)" fill="#666d7b"/>
        <path id="Path_116087" data-name="Path 116087" d="M403.2,256.7a1.281,1.281,0,0,0-.233-.366,1.114,1.114,0,0,0-1.21-.234,1,1,0,0,0-.6.6,1.109,1.109,0,0,0-.089.422,1.065,1.065,0,0,0,.689,1.021,1.109,1.109,0,0,0,.422.089,1.17,1.17,0,0,0,.788-.322l.133-.166a.865.865,0,0,0,.1-.2.688.688,0,0,0,.066-.2,1.406,1.406,0,0,0,.023-.222A1.115,1.115,0,0,0,403.2,256.7Z" transform="translate(316.754 -380.421) rotate(90)" fill="#666d7b"/>
        <path id="Path_116089" data-name="Path 116089" d="M403.262,282.5a.687.687,0,0,0-.066-.2.868.868,0,0,0-.1-.2l-.133-.166a1.109,1.109,0,0,0-1.21-.234,1.067,1.067,0,0,0-.689,1.022,1.164,1.164,0,0,0,.322.788,1.151,1.151,0,0,0,.367.233,1.112,1.112,0,0,0,.422.089,1.15,1.15,0,0,0,.788-.322c.044-.056.089-.111.133-.178a.625.625,0,0,0,.1-.189.654.654,0,0,0,.066-.211,1.273,1.273,0,0,0,.023-.211A1.4,1.4,0,0,0,403.262,282.5Z" transform="translate(339.02 -380.421) rotate(90)" fill="#666d7b"/>
        <path id="Path_116093" data-name="Path 116093" d="M401.753,307.319a1.067,1.067,0,0,0-.689,1.022,1.113,1.113,0,0,0,.089.422,1,1,0,0,0,.6.6,1.111,1.111,0,0,0,1.21-1.81A1.129,1.129,0,0,0,401.753,307.319Z" transform="translate(361.311 -380.42) rotate(90)" fill="#666d7b"/>
        <path id="Path_116096" data-name="Path 116096" d="M390.662,363.187A6.662,6.662,0,1,0,384,356.525,6.662,6.662,0,0,0,390.662,363.187Zm0-11.1a4.442,4.442,0,1,1-4.442,4.442A4.442,4.442,0,0,1,390.662,352.083Z" transform="translate(-334.032 -304.336)" fill="#666d7b"/>
        <path id="Path_116097" data-name="Path 116097" d="M444.218,386.008a.848.848,0,0,0,.2.1.715.715,0,0,0,.2.067,1.558,1.558,0,0,0,.222.022,1.1,1.1,0,0,0,1.11-1.11.937.937,0,0,0-.089-.422,1.28,1.28,0,0,0-.233-.366,1.728,1.728,0,0,0-.167-.133.841.841,0,0,0-.2-.1.671.671,0,0,0-.211-.066.942.942,0,0,0-.433,0,.7.7,0,0,0-.2.066.847.847,0,0,0-.2.1,1.708,1.708,0,0,0-.166.133,1.281,1.281,0,0,0-.233.366.923.923,0,0,0-.089.422,1.164,1.164,0,0,0,.322.788Z" transform="translate(-385.989 -334.009)" fill="#666d7b"/>
        <path id="Path_116098" data-name="Path 116098" d="M316.844,164.352h1.11a1.11,1.11,0,1,0,0-2.221h-1.11a1.11,1.11,0,0,0,0,2.221Z" transform="translate(-274.649 -141.034)" fill="#666d7b"/>
        <path id="Path_116099" data-name="Path 116099" d="M205.91,164.352H215.9a1.11,1.11,0,0,0,0-2.221H205.91a1.11,1.11,0,0,0,0,2.221Z" transform="translate(-178.15 -141.034)" fill="#666d7b"/>
      </g>
    </g>
  </g>
</svg>
