<svg xmlns="http://www.w3.org/2000/svg" width="79.87" height="63.002" viewBox="0 0 79.87 63.002">
  <g id="unisex-icon" transform="translate(5760 5485)">
    <g id="_001---Male-User" data-name="001---Male-User" transform="translate(-5760.07 -5484.999)">
      <g id="Icons" transform="translate(1 1)">
        <path id="Shape" d="M51.93,53.02c-10.81,6.764-41.5,6.484-51.86,0,3.907-1.953,6.672-4.093,9.82-4.65a9.992,9.992,0,0,0,2.99-1.16A38.5,38.5,0,0,0,18,43V36.32C20.9,39.24,21.07,42,24.3,42h3.4c3.23,0,3.4-2.76,6.3-5.68V43c7.672,7.376,6.774,3.7,13.18,7.43C48.24,51.036,50.966,52.538,51.93,53.02Z" fill="#b8c6dc"/>
        <path id="Shape-2" data-name="Shape" d="M48.93,53.02c-5.9,3.69-17.334,4.858-24.43,4.97-7.134-.113-18.557-1.3-24.43-4.97.88-.44,3.538-1.9,4.75-2.59C11.232,46.7,10.347,50.358,18,43V36.32C20.9,39.24,21.07,42,24.3,42h3.4A3.751,3.751,0,0,0,31,40.21v1.92a2,2,0,0,0,.64,1.47c7.359,6.8,6.049,3.05,12.54,6.83,1.06.606,3.786,2.108,4.75,2.59Z" fill="#e8edfc"/>
        <path id="Shape-3" data-name="Shape" d="M42,13.8a13.489,13.489,0,0,1-1.61,6.33l-.01.01a.977.977,0,0,0-.7-.15,2.07,2.07,0,0,0-2.3,1.82c-.01-.24-.02-.47-.04-.7-.58-9.13-3.82-10.91-3.82-10.91-1.962,3.254-6.429,5.107-9.79,5.4H18.51c-2.35,0-4.02.94-4.12,3.09-.03.7.01,1.75.07,2.8-.04-.3-.34-1.5-2.14-1.5A21.163,21.163,0,0,1,11,12.9C11,6.259,17.254,0,24.71,0c7.5,0,10.44,5.1,10.44,5.1h.32S42,5.4,42,13.8Z" fill="#b8c6dc"/>
        <g id="Group_42161" data-name="Group 42161">
          <path id="Shape-4" data-name="Shape" d="M39,13.8a13.489,13.489,0,0,1-1.61,6.33l-.11.14c-.72-8.4-3.76-10.07-3.76-10.07-1.962,3.254-6.429,5.107-9.79,5.4H18.51c-2.35,0-4.02.94-4.12,3.09-.03.7.01,1.75.07,2.8-.04-.3-.34-1.5-2.14-1.5A21.163,21.163,0,0,1,11,12.9C11,6.74,16.41.84,23.24.08A11.687,11.687,0,0,1,32.15,5.1h.32S39,5.4,39,13.8Z" fill="#e8edfc"/>
          <path id="Shape-5" data-name="Shape" d="M14.75,25a22.745,22.745,0,0,1,.1,4.92,5.833,5.833,0,0,1-3.71-4.87c-.349-1.749-.59-5.326,1.18-5.06,1.8,0,2.1,1.2,2.14,1.5,0,.445.29,3.41.29,3.51Z" fill="#e8edfc"/>
          <path id="Shape-6" data-name="Shape" d="M40.86,25.05a5.811,5.811,0,0,1-3.71,4.87c0-2.588-.343-2.671.28-5.88,0-1.413-.05-2.079-.05-2.25a2.077,2.077,0,0,1,2.3-1.8c1.774-.266,1.534,3.31,1.18,5.06Z" fill="#e8edfc"/>
          <path id="Shape-7" data-name="Shape" d="M18.68,57.71C13.154,57.26,4.774,55.963.07,53.02c.88-.44,3.538-1.9,4.75-2.59,4.391-2.556,4.545-1.525,7.25-2.8C12.31,49.67,13.5,56.1,18.68,57.71Z" fill="#e8edfc"/>
        </g>
        <path id="Shape-8" data-name="Shape" d="M51.93,53.02c-4.723,2.947-13.074,4.239-18.61,4.69,4.134-1.283,6.091-5.841,6.61-10.08a9.2,9.2,0,0,0,2.18.74C45.281,48.931,47.9,51.006,51.93,53.02Z" fill="#b8c6dc"/>
        <path id="Shape-9" data-name="Shape" d="M48.93,54.31a11.3,11.3,0,0,1-1.04.58,59.519,59.519,0,0,1-14.57,2.82c3.93-1.22,5.56-5.21,6.22-7.96,2.867.626,5.645,2.687,9.39,4.56Z" fill="#e8edfc"/>
        <path id="Shape-10" data-name="Shape" d="M37.43,24.04a14.378,14.378,0,0,0-.37,2.98c0,3.09.85,5.73-2.55,8.81S31.11,42,27.7,42H24.3c-3.41,0-3.41-3.08-6.81-6.17-4.08-3.7-2-6.456-2.75-10.92a60.859,60.859,0,0,1-.35-6.22c.1-2.15,1.77-3.09,4.12-3.09h5.22c3.4-.3,7.843-2.172,9.79-5.4,0,0,3.24,1.78,3.82,10.91.066.977.09,1.958.09,2.93Z" fill="#b8c6dc"/>
        <path id="Shape-11" data-name="Shape" d="M34.43,24.04a14.378,14.378,0,0,0-.37,2.98c0,3.09.85,5.73-2.55,8.81S28.11,42,24.7,42h-.4c-3.41,0-3.41-3.08-6.81-6.17-4.08-3.7-2-6.456-2.75-10.92a60.859,60.859,0,0,1-.35-6.22c.1-2.15,1.77-3.09,4.12-3.09h5.22s5.05-.44,8.34-3.61c1.93,3.249,2.36,8.259,2.36,12.05Z" fill="#e8edfc"/>
      </g>
      <path id="Shape-12" data-name="Shape" d="M27.927,57.947C17.815,57.793,7.943,56.069,3.07,53.02c1.238-.619,3.938-2.144,5.347-2.928C14.129,46.914,13.555,50.156,21,43V36.322c-.163-.164-.329-.328-.51-.492-2.468-2.236-2.64-6.037-2.64-5.91a5.833,5.833,0,0,1-3.71-4.87c-.349-1.749-.59-5.326,1.18-5.06a19.438,19.438,0,0,1-1.251-8.284C14.722,5.859,20.039.773,26.28.085A15.4,15.4,0,0,0,24.71,0C17.869,0,11.771,5.416,11.069,11.706A19.438,19.438,0,0,0,12.32,19.99c-1.77-.266-1.529,3.311-1.18,5.06a5.833,5.833,0,0,0,3.71,4.87c0-.127,0-.238.006-.356A7.094,7.094,0,0,0,17.49,35.83c.181.164.347.328.51.492V43c-7.445,7.156-6.871,3.914-12.583,7.092C4.008,50.876,1.308,52.4.07,53.02c5.355,3.351,16.744,5.1,27.857,4.927ZM14.858,29.479c.007-.335.018-.651.033-.945C14.879,28.855,14.866,29.17,14.858,29.479Z" transform="translate(1 1)" fill="#fff"/>
      <g id="Layer_10" transform="translate(0 -1)">
        <path id="Shape-13" data-name="Shape" d="M13.885,6.9l1.582,1.224A11.3,11.3,0,0,0,13,14.9H11a13.292,13.292,0,0,1,2.885-8Z" fill="#fff"/>
        <g id="Group_42162" data-name="Group 42162">
          <path id="Shape-14" data-name="Shape" d="M12.745,11.974a1,1,0,1,1,1-1A1,1,0,0,1,12.745,11.974Z" fill="#666d7b"/>
          <path id="Shape-15" data-name="Shape" d="M.54,55.868c4.882,3.055,13.38,4.378,19.143,4.841h.009c9.439.756,25.845.117,33.768-4.842a1,1,0,0,0-.084-1.743c-.89-.443-3.464-1.857-4.692-2.559-6.7-3.906-5.3-.051-12.684-7V38.752c1.912-1.812,3.017-3.384,3.14-6.159a6.845,6.845,0,0,0,3.715-5.4c.2-1,.6-3.7-.3-5.209,3.134-6.581,1.209-15-5.856-15.861C31.729-.75,19.852-.922,13.885,6.9a.964.964,0,0,0,.209,1.424,1.047,1.047,0,0,0,1.373-.2A13.153,13.153,0,0,1,25.71,3c6.789,0,9.465,4.416,9.574,4.6a1,1,0,0,0,.866.5h.269c.228.013,5.581.4,5.581,7.7A12.294,12.294,0,0,1,40.812,21a1.8,1.8,0,0,0-.194,0,3.744,3.744,0,0,0-1.438.288c-.888-7.9-3.823-9.759-4.176-9.954a1,1,0,0,0-1.337.353c-2.635,4.3-8.962,4.92-8.937,4.922H19.51c-3.088,0-5,1.512-5.118,4.037-.008.149-.013.318-.014.5a3.089,3.089,0,0,0-.3-.079A19.692,19.692,0,0,1,13,14.9a1,1,0,0,0-2,0,21.519,21.519,0,0,0,1.058,6.417c-1.663,1.176-1.138,4.706-.909,5.875a6.844,6.844,0,0,0,3.711,5.4c.122,2.765,1.215,4.337,3.14,6.161V44.57a33.46,33.46,0,0,1-4.609,3.768,8.891,8.891,0,0,1-2.675,1.047c-2.9.513-4.5,1.754-9.627,4.5-.428.228-.985.4-1.018,1.084a1,1,0,0,0,.469.9ZM47.684,53.3c1.031.589,2.077,1.164,3.129,1.733a44.908,44.908,0,0,1-12.434,3.231,14.933,14.933,0,0,0,3.344-7.237c1.73.587,2.527.273,5.961,2.273Zm-7-30.308c.037,0,.115.009.173.011.3.4.368,2.138.027,3.853a1.039,1.039,0,0,0-.017.123,5.036,5.036,0,0,1-1.767,3.3,12.271,12.271,0,0,1,.29-3.932,1.211,1.211,0,0,0,.039-.258c0-.911-.026-1.65-.051-2.2.034-.283.229-.9,1.306-.9Zm-27.546,3.99a1.11,1.11,0,0,0-.017-.129c-.365-1.817-.26-3.668.049-3.874a1.149,1.149,0,0,0,.144.011c.957,0,1.125.426,1.154.647.048.5.049.964.266,3.255a12.825,12.825,0,0,1,.166,3.381A5.026,5.026,0,0,1,13.138,26.982Zm3.708,4.9a24.035,24.035,0,0,0-.106-5.022,58.389,58.389,0,0,1-.351-6.122c.025-.528.1-2.136,3.121-2.136h5.307c.28-.024,6.45-.613,9.853-4.873,2.284,2.9,2.753,8.517,2.76,12.221a14.681,14.681,0,0,0-.37,3.076c0,3.15.793,5.339-2.223,8.07-3.474,3.152-3.4,5.9-6.137,5.9-4.743,0-4.7.418-6.6-2.375a20.415,20.415,0,0,0-2.45-3.052c-1.842-1.84-2.826-2.773-2.8-5.693ZM18,47.277V49a1,1,0,0,0,2,0V41.106C21.474,43.2,22.413,45,25.3,45c5.512,0,5.655.441,8.7-3.894V49a1,1,0,0,0,2,0V47.277a22.76,22.76,0,0,0,3.841,2.914c-.367,2.283-1.621,7.176-5.709,8.527a90.309,90.309,0,0,1-14.253,0c-4.1-1.347-5.353-6.243-5.72-8.528A22.812,22.812,0,0,0,18,47.277ZM6.323,53.294c3.416-1.99,4.233-1.683,5.954-2.269a14.929,14.929,0,0,0,3.344,7.237A44.908,44.908,0,0,1,3.187,55.031C4.239,54.462,5.287,53.886,6.323,53.294Z" fill="#666d7b"/>
        </g>
      </g>
    </g>
    <g id="_015---Female-User" data-name="015---Female-User" transform="translate(-5734.009 -5482)">
      <g id="Icons-2" data-name="Icons" transform="translate(1 1)">
        <path id="Shape-16" data-name="Shape" d="M46.88,43a43.837,43.837,0,0,1-9.72,3.58c-6.169,0-1.5,0-22.51.01A43.888,43.888,0,0,1,4.88,43c7-8,1-23,3-32,.95-4.29,3.04-5.85,4.96-6.31A7.132,7.132,0,0,1,16.88,5S19,1,25.78.21A22.664,22.664,0,0,1,28.88,0c11,0,14,7,15,11,2.24,8.94-4,24,3,32Z" fill="#b8c6dc"/>
        <path id="Shape-17" data-name="Shape" d="M43.88,43a43.837,43.837,0,0,1-9.72,3.58c-2.346,0,.769,0-19.51.01A43.888,43.888,0,0,1,4.88,43c7-8,1-23,3-32,.95-4.29,3.04-5.85,4.96-6.31A6.437,6.437,0,0,1,13.88,5s.1-.18.31-.48A7.567,7.567,0,0,1,16.88,5S19,1,25.78.21c.111,0,.645-.106,1.61-.16C37.16.66,39.93,7.19,40.88,11c2.24,8.94-4,24,3,32Z" fill="#e8edfc"/>
        <path id="Shape-18" data-name="Shape" d="M51.88,53.02A25.789,25.789,0,0,1,44.15,56C30.238,59.5,8.45,58.3.01,53.02H0S.88,49,4.88,49c7.22,0,11.32-3.14,13.03-4.88a1.891,1.891,0,0,0,.55-1.25,15.371,15.371,0,0,0-.6-4.74c2.45,3.11,6.15,6.87,9.67,5.48,2.387-.911,4.784-3.476,6.37-5.48a15.4,15.4,0,0,0-.6,4.67,1.9,1.9,0,0,0,.57,1.29C35.57,45.82,39.72,49,47,49c4,0,4.88,4.02,4.88,4.02Z" fill="#b8c6dc"/>
        <g id="Group_42163" data-name="Group 42163">
          <path id="Shape-19" data-name="Shape" d="M48.88,53.02A25.789,25.789,0,0,1,41.15,56,72.907,72.907,0,0,1,7.73,56C1.918,54.547.17,53.02,0,53.02,0,53.02.88,49,4.88,49c7.22,0,11.32-3.14,13.03-4.88a1.891,1.891,0,0,0,.55-1.25,15.371,15.371,0,0,0-.6-4.74c2.45,3.11,6.15,6.87,9.67,5.48A10.143,10.143,0,0,0,30.3,41.9a2.555,2.555,0,0,0,.57,2.19C32.57,45.82,36.72,49,44,49c4,0,4.88,4.02,4.88,4.02Z" fill="#e8edfc"/>
          <path id="Shape-20" data-name="Shape" d="M41.79,48.39c-.038.189-2.919,1.63-2.99,8.65a63.07,63.07,0,0,1-7.71.81c4.832-2.719,5.444-11.342,5.58-11.56a17.24,17.24,0,0,0,5.12,2.1Z" fill="#e8edfc"/>
          <path id="Shape-21" data-name="Shape" d="M20.67,57.85a76.4,76.4,0,0,1-7.71-.81c-.07-6.9-2.94-8.52-2.99-8.62a17.156,17.156,0,0,0,5.14-2.1l.03.05S15.89,55.16,20.67,57.85Z" fill="#e8edfc"/>
          <path id="Shape-22" data-name="Shape" d="M37.55,27.72c.65,3.18-.29,6.03-3.16,9.78-1.39,1.82-4.01,5-6.86,6.11-3.76,1.49-7.715-2.91-10.16-6.11-2.87-3.75-3.81-6.6-3.16-9.78.68-3.26.02-3.25-.27-6.5v-.01A21.633,21.633,0,0,0,16.88,13a5.252,5.252,0,0,0,.26,1.42A6.692,6.692,0,0,0,19.88,18a7.6,7.6,0,0,1,2-5,21.76,21.76,0,0,0,6.36,5.76,22.012,22.012,0,0,0,9.5,3.14C37.44,24.49,36.92,24.71,37.55,27.72Z" fill="#e8edfc"/>
        </g>
      </g>
      <path id="Shape-23" data-name="Shape" d="M27.556,53.973a80.867,80.867,0,0,1-13.082-1.168C5.906,51.291,3.182,49.02,3,49.02c0,0,.88-4.02,4.88-4.02a19.575,19.575,0,0,0,9.76-2.413A43.91,43.91,0,0,1,7.88,39c7-8,1-23,3-32,.688-3.107,2.183-5.654,4.971-6.3A8.521,8.521,0,0,0,14.19.52l-.012.017C10.523.6,8.67,3.431,7.88,7c-2,9,4,24-3,32a43.91,43.91,0,0,0,9.76,3.587A19.575,19.575,0,0,1,4.88,45C.88,45,0,49.02,0,49.02c.182,0,2.906,2.271,11.474,3.785A84.314,84.314,0,0,0,27.556,53.973Z" transform="translate(1 5)" fill="#fff"/>
      <path id="Shape-24" data-name="Shape" d="M13.062,4.872l.635,1.9a4.975,4.975,0,0,0-2.517,2.07,11.046,11.046,0,0,0-1.324,3.375L7.9,11.783A12.963,12.963,0,0,1,9.5,7.754,6.976,6.976,0,0,1,13.062,4.872Z" fill="#fff"/>
      <g id="Group_42164" data-name="Group 42164">
        <path id="Shape-25" data-name="Shape" d="M.479,54.868c5.3,3.318,14.807,4.61,21.136,4.975a91.3,91.3,0,0,0,10.466.017c.023,0,.047-.007.07-.009,6.333-.357,15.935-1.651,21.259-4.983a1,1,0,0,0,.446-1.062A6.06,6.06,0,0,0,48,49a19.784,19.784,0,0,1-6.951-1.188,41.748,41.748,0,0,0,7.315-2.937,1,1,0,0,0,.269-1.534C42,35.76,48.142,20.906,45.85,11.757,43.927,4.065,38.4,0,29.88,0,22.3,0,18.708,3.371,17.5,4.83a7.768,7.768,0,0,0-4.443.042.953.953,0,0,0-.592,1.36,1.077,1.077,0,0,0,1.227.536,5.92,5.92,0,0,1,3.789.151l.007-.016a.991.991,0,0,0,1.244-.388C18.765,6.469,21.542,2,29.88,2c7.61,0,12.33,3.446,14.03,10.243,2.119,8.456-3.695,22.828,2.423,31.411A46.652,46.652,0,0,1,38.311,46.5a13.807,13.807,0,0,1-2.725-2.111.95.95,0,0,1-.29-.623,14.584,14.584,0,0,1,.511-4.189C38.5,36.16,40.4,32.749,39.529,28.516a8.651,8.651,0,0,1,.074-4.563c.421.022.84.047,1.277.047a1,1,0,0,0,0-2,21.694,21.694,0,0,1-17.169-8.556,1,1,0,0,0-1.538-.151,7.972,7.972,0,0,0-2.02,3.744A5.2,5.2,0,0,1,18.88,14a1,1,0,0,0-.929-1,1.017,1.017,0,0,0-1.061.856,19.926,19.926,0,0,1-4.718,10.436A1,1,0,0,0,13.587,25.7c.042-.042.323-.329.732-.837a7.307,7.307,0,0,1-.089,3.65c-.864,4.229,1.028,7.636,3.718,11.057a14.4,14.4,0,0,1,.511,4.257.907.907,0,0,1-.264.588,13.814,13.814,0,0,1-2.678,2.1,46.832,46.832,0,0,1-8.089-2.865c6.142-8.589.53-22.9,2.428-31.438A1,1,0,1,0,7.9,11.783c-2.04,9.177,3.858,23.976-2.777,31.558A1,1,0,0,0,5.4,44.875a41.736,41.736,0,0,0,7.389,2.957A19.667,19.667,0,0,1,5.88,49,6.049,6.049,0,0,0,.032,53.809a1,1,0,0,0,.447,1.059Zm14.454,2.309c-.173-3.8-1.19-6.018-2.085-7.246a18.449,18.449,0,0,0,2.488-1.03c.343,2.09,1.244,5.989,3.438,8.721-1.312-.122-2.6-.267-3.841-.445Zm23.5-8.33a18.927,18.927,0,0,0,2.508,1.043c-.9,1.222-1.943,3.454-2.115,7.306-1.245.176-2.535.319-3.848.438C37.2,54.875,38.1,50.925,38.433,48.847Zm13.243,4.719A37.594,37.594,0,0,1,40.84,56.881c.271-4.166,1.7-5.886,2.246-6.4A22.97,22.97,0,0,0,48,51a3.909,3.909,0,0,1,3.676,2.566ZM16.189,28.924c.693-3.32.08-3.636-.217-6.463A22.637,22.637,0,0,0,18.1,17.622a7.9,7.9,0,0,0,2.23,2.21A1,1,0,0,0,21.88,19a7.216,7.216,0,0,1,.985-3.375A23.5,23.5,0,0,0,37.6,23.773a10.1,10.1,0,0,0-.035,5.147c.583,2.851-.278,5.45-2.974,8.973-2.368,3.1-4.531,5.046-6.438,5.788a3.481,3.481,0,0,1-2.565,0c-1.9-.74-4.061-2.686-6.429-5.786-2.69-3.524-3.552-6.124-2.97-8.971Zm3.433,16.9c.941-.957.9-2.039.812-3.4,4.626,4.612,8.18,4.7,12.89,0-.086,1.367-.129,2.393.835,3.374a15.343,15.343,0,0,0,2.409,1.97c-.228,1.756-1.274,7.941-4.807,10.108a90.458,90.458,0,0,1-9.769-.008C18.5,55.72,17.441,49.64,17.2,47.819a15.581,15.581,0,0,0,2.422-1.995ZM5.88,51a23.179,23.179,0,0,0,4.823-.491c.571.549,1.945,2.279,2.215,6.35A37.187,37.187,0,0,1,2.212,53.565,3.9,3.9,0,0,1,5.88,51Z" fill="#666d7b"/>
        <path id="Shape-26" data-name="Shape" d="M10.349,9.275a1,1,0,1,1,1-1A1,1,0,0,1,10.349,9.275Z" fill="#666d7b"/>
      </g>
    </g>
  </g>
</svg>
