<svg id="user-blue-circle" xmlns="http://www.w3.org/2000/svg" xmlns:xlink="http://www.w3.org/1999/xlink" width="44" height="44" viewBox="0 0 44 44">
  <defs>
    <clipPath id="clip-path">
      <circle id="Ellipse_26" data-name="Ellipse 26" cx="17" cy="17" r="17" transform="translate(0 -0.364)" fill="#195190"/>
    </clipPath>
  </defs>
  <g id="Group_40855" data-name="Group 40855" transform="translate(0 0.364)">
    <rect id="Rectangle_23406" data-name="Rectangle 23406" width="44" height="44" rx="22" transform="translate(0 -0.364)" fill="#ecf0f8" opacity="0.504"/>
  </g>
  <g id="Mask_Group_600" data-name="Mask Group 600" transform="translate(5 4.364)" clip-path="url(#clip-path)">
    <g id="user" transform="translate(4.435 4.446)">
      <g id="Group_40597" data-name="Group 40597" transform="translate(0)">
        <path id="Path_114272" data-name="Path 114272" d="M22.436,16.992a13.092,13.092,0,0,0-4.994-3.133,7.6,7.6,0,1,0-8.6,0A13.163,13.163,0,0,0,0,26.285H2.054a11.089,11.089,0,1,1,22.178,0h2.054A13.057,13.057,0,0,0,22.436,16.992Zm-9.293-3.849A5.545,5.545,0,1,1,18.687,7.6,5.551,5.551,0,0,1,13.143,13.143Z" transform="translate(0)" fill="#195190"/>
      </g>
    </g>
  </g>
</svg>
