<svg xmlns="http://www.w3.org/2000/svg" xmlns:xlink="http://www.w3.org/1999/xlink" width="38.388" height="37.008" viewBox="0 0 38.388 37.008">
  <defs>
    <clipPath id="clip-path">
      <circle id="Ellipse_28" data-name="Ellipse 28" cx="17" cy="17" r="17" transform="translate(0.223 0)" fill="#fff"/>
    </clipPath>
  </defs>
  <g id="user-serve" transform="translate(-0.223 0)" opacity="0.798">
    <g id="Mask_Group_602" data-name="Mask Group 602" clip-path="url(#clip-path)">
      <g id="user" transform="translate(4.435 4.809)">
        <g id="Group_40860" data-name="Group 40860" transform="translate(0)">
          <path id="Path_115457" data-name="Path 115457" d="M22.436,16.992a13.092,13.092,0,0,0-4.994-3.133,7.6,7.6,0,1,0-8.6,0A13.163,13.163,0,0,0,0,26.285H2.054a11.089,11.089,0,1,1,22.178,0h2.054A13.057,13.057,0,0,0,22.436,16.992Zm-9.293-3.849A5.545,5.545,0,1,1,18.687,7.6,5.551,5.551,0,0,1,13.143,13.143Z" transform="translate(0)" fill="#fff"/>
        </g>
      </g>
    </g>
    <path id="right-arrow" d="M11.305,4.852a.6.6,0,1,0-.846.838l4.29,4.29H.592A.589.589,0,0,0,0,10.572a.6.6,0,0,0,.592.6H14.749l-4.29,4.282a.607.607,0,0,0,0,.846.593.593,0,0,0,.846,0L16.611,11a.583.583,0,0,0,0-.838Z" transform="translate(21.822 20.529)" fill="#fff"/>
  </g>
</svg>
