<svg xmlns="http://www.w3.org/2000/svg" width="71.617" height="49.08" viewBox="0 0 71.617 49.08">
  <g id="Group_42966" data-name="Group 42966" transform="translate(-847.409 -455)">
    <g id="users" transform="translate(847.409 455)">
      <path id="Path_118663" data-name="Path 118663" d="M60.581,46.1v.836a1.049,1.049,0,0,1-1.044,1.044H23L36.061,2.256A10.93,10.93,0,0,1,40.224,1.09,12.553,12.553,0,0,1,41.79,1c9.762,0,10.419,8.017,10.439,8.363v5.175l.273.306a2.578,2.578,0,0,1,.771,1.721v3.6a2.683,2.683,0,0,1-.971,2.067l-.273.228-.094.326a14.683,14.683,0,0,1-3.588,6.1l-.294.306v3.287a3.346,3.346,0,0,0,1.766,2.883l6.993,4.384A7.206,7.206,0,0,1,60.581,46.1Zm0,0" transform="translate(1.01 0.044)" fill="#a2b2cb"/>
      <path id="Path_118664" data-name="Path 118664" d="M57.449,46.1v.836a1.049,1.049,0,0,1-1.044,1.044H23L36.061,2.252a10.93,10.93,0,0,1,4.163-1.166c8.27.791,8.853,7.952,8.873,8.278v5.175l.273.306a2.578,2.578,0,0,1,.771,1.721v3.6a2.683,2.683,0,0,1-.971,2.067l-.273.228-.094.326a14.683,14.683,0,0,1-3.588,6.1l-.294.306v3.287a3.346,3.346,0,0,0,1.766,2.883l6.993,4.384A7.206,7.206,0,0,1,57.449,46.1Zm0,0" transform="translate(1.01 0.048)" fill="#d0d7ef"/>
      <path id="Path_118665" data-name="Path 118665" d="M49.581,46.1v.836a1.049,1.049,0,0,1-1.044,1.044H12L25.061,2.256A10.93,10.93,0,0,1,29.224,1.09,12.553,12.553,0,0,1,30.79,1a12.282,12.282,0,0,1,5.754,1.252,9.162,9.162,0,0,1,4.685,7.112v5.175l.273.306a2.578,2.578,0,0,1,.771,1.721v3.6a2.683,2.683,0,0,1-.971,2.067l-.273.228-.094.326a14.683,14.683,0,0,1-3.588,6.1l-.294.306v3.287a3.346,3.346,0,0,0,1.766,2.883l6.993,4.384A7.206,7.206,0,0,1,49.581,46.1Zm0,0" transform="translate(0.527 0.044)" fill="#b8c6dc"/>
      <path id="Path_118666" data-name="Path 118666" d="M46.449,46.1v.836a1.049,1.049,0,0,1-1.044,1.044H12L25.061,2.252a10.93,10.93,0,0,1,4.163-1.166,11.048,11.048,0,0,1,4.188,1.166A9.162,9.162,0,0,1,38.1,9.364v5.175l.273.306a2.578,2.578,0,0,1,.771,1.721v3.6a2.683,2.683,0,0,1-.971,2.067l-.273.228-.094.326a14.683,14.683,0,0,1-3.588,6.1l-.294.306v3.287a3.346,3.346,0,0,0,1.766,2.883l6.993,4.384A7.206,7.206,0,0,1,46.449,46.1Zm0,0" transform="translate(0.527 0.048)" fill="#dee4f7"/>
      <path id="Path_118667" data-name="Path 118667" d="M38.581,46.1v.836a1.049,1.049,0,0,1-1.044,1.044H2.044A1.049,1.049,0,0,1,1,46.936V46.1a7.237,7.237,0,0,1,3.768-6.345l6.993-4.384a3.359,3.359,0,0,0,1.766-2.883V29.2l-.294-.306a14.683,14.683,0,0,1-3.588-6.1l-.094-.326-.261-.216a2.668,2.668,0,0,1-.983-2.08v-3.6a2.57,2.57,0,0,1,.771-1.733l.273-.294V9.355c.02-.261.575-7.462,8.873-8.266A12.553,12.553,0,0,1,19.79,1c9.762,0,10.419,8.017,10.439,8.363v5.175l.273.306a2.578,2.578,0,0,1,.771,1.721v3.6a2.668,2.668,0,0,1-.983,2.08l-.261.216-.094.326a14.683,14.683,0,0,1-3.588,6.1l-.294.306v3.287a3.346,3.346,0,0,0,1.766,2.883l6.993,4.384A7.206,7.206,0,0,1,38.581,46.1Zm0,0" transform="translate(0.044 0.044)" fill="#c2cdde"/>
      <path id="Path_118668" data-name="Path 118668" d="M35.449,46.1v.836a1.049,1.049,0,0,1-1.044,1.044H2.044A1.049,1.049,0,0,1,1,46.932V46.1a7.237,7.237,0,0,1,3.768-6.345l6.993-4.384a3.359,3.359,0,0,0,1.766-2.883V29.2l-.294-.306a14.683,14.683,0,0,1-3.588-6.1l-.094-.326-.261-.216a2.668,2.668,0,0,1-.983-2.08v-3.6a2.57,2.57,0,0,1,.771-1.733l.273-.294V9.352c.02-.261.575-7.462,8.873-8.266,8.27.791,8.853,7.952,8.873,8.278v5.175l.273.306a2.578,2.578,0,0,1,.771,1.721v3.6a2.668,2.668,0,0,1-.983,2.08l-.261.216-.094.326a14.683,14.683,0,0,1-3.588,6.1l-.294.306v3.287a3.346,3.346,0,0,0,1.766,2.883l6.993,4.384A7.206,7.206,0,0,1,35.449,46.1Zm0,0" transform="translate(0.044 0.048)" fill="#e8edfc"/>
      <path id="Path_118669" data-name="Path 118669" d="M4.132,46.936V46.1A7.237,7.237,0,0,1,7.9,39.755l6.993-4.384a3.359,3.359,0,0,0,1.766-2.883V29.2l-.294-.306a14.683,14.683,0,0,1-3.588-6.1l-.094-.326-.261-.216a2.668,2.668,0,0,1-.983-2.08v-3.6a2.57,2.57,0,0,1,.771-1.733l.273-.294V9.355c.02-.261.575-7.462,8.873-8.266l.012,0C20.867,1.037,20.349,1,19.79,1a12.553,12.553,0,0,0-1.566.086c-8.3.8-8.853,8-8.873,8.266v5.187l-.273.294a2.57,2.57,0,0,0-.771,1.733v3.6a2.668,2.668,0,0,0,.983,2.08l.261.216.094.326a14.683,14.683,0,0,0,3.588,6.1l.294.306v3.287a3.359,3.359,0,0,1-1.766,2.883L4.768,39.755A7.237,7.237,0,0,0,1,46.1v.836A1.049,1.049,0,0,0,2.044,47.98H5.176a1.049,1.049,0,0,1-1.044-1.044Zm0,0" transform="translate(0.044 0.044)" fill="#fff"/>
      <path id="Path_118670" data-name="Path 118670" d="M27.575,2.264l0-.008A10.93,10.93,0,0,1,31.742,1.09l.012,0C31.253,1.037,30.735,1,30.176,1a12.553,12.553,0,0,0-1.566.086,12.016,12.016,0,0,0-2.622.53A10.507,10.507,0,0,1,27.575,2.264Zm0,0" transform="translate(1.141 0.044)" fill="#fff"/>
      <path id="Path_118671" data-name="Path 118671" d="M38.578,2.256A10.93,10.93,0,0,1,42.742,1.09l.012,0C42.252,1.037,41.735,1,41.176,1a12.553,12.553,0,0,0-1.566.086,11.981,11.981,0,0,0-2.618.53A10.471,10.471,0,0,1,38.578,2.256Zm0,0" transform="translate(1.624 0.044)" fill="#fff"/>
      <g id="Group_42967" data-name="Group 42967" transform="translate(0 0)">
        <path id="Path_118672" data-name="Path 118672" d="M37.581,49.068a1.044,1.044,0,1,1,0-2.088v-.832a6.185,6.185,0,0,0-3.226-5.432L27.3,36.3a4.378,4.378,0,0,1-2.251-3.768V29.246a1.052,1.052,0,0,1,.294-.726l.3-.3a13.661,13.661,0,0,0,3.332-5.652l.086-.322a1.057,1.057,0,0,1,.347-.538l.265-.22a1.636,1.636,0,0,0,.6-1.268V16.609a1.645,1.645,0,0,0-.493-1.019l-.273-.3a1.032,1.032,0,0,1-.277-.705V9.407c-.02-.228-.6-7.316-9.4-7.316-8.633,0-9.346,6.626-9.4,7.381l0,5.114a1.032,1.032,0,0,1-.277.705l-.273.3A1.624,1.624,0,0,0,9.4,16.609v3.609a1.634,1.634,0,0,0,.6,1.264l.265.224a1.032,1.032,0,0,1,.347.538l.086.326a13.632,13.632,0,0,0,3.332,5.644l.3.306a1.045,1.045,0,0,1,.294.726v3.283a4.352,4.352,0,0,1-2.3,3.8L5.366,40.688a6.206,6.206,0,0,0-3.279,5.46v.832a1.044,1.044,0,0,1,0,2.088A2.087,2.087,0,0,1,0,46.98v-.832a8.279,8.279,0,0,1,4.314-7.267l6.94-4.355a2.324,2.324,0,0,0,1.272-2V29.67A15.837,15.837,0,0,1,8.677,23.1L8.669,23.1a3.7,3.7,0,0,1-1.362-2.879V16.609a3.6,3.6,0,0,1,1.044-2.426V9.4C8.38,8.946,9.126,0,19.834,0S31.289,8.955,31.313,9.338l0,4.84a3.659,3.659,0,0,1,1.044,2.43v3.609A3.712,3.712,0,0,1,31,23.1l-.008,0a15.837,15.837,0,0,1-3.849,6.565v2.859a2.3,2.3,0,0,0,1.215,1.97l7.055,4.416a8.244,8.244,0,0,1,4.257,7.234v.832A2.087,2.087,0,0,1,37.581,49.068Zm0,0" transform="translate(0 0)" fill="#666d7b"/>
        <path id="Path_118673" data-name="Path 118673" d="M48.581,49.068H12.044a1.044,1.044,0,1,1,0-2.088H48.581v-.836a6.174,6.174,0,0,0-3.226-5.428L38.309,36.3a4.373,4.373,0,0,1-2.255-3.768V29.246a1.045,1.045,0,0,1,.294-.726l.29-.3a13.558,13.558,0,0,0,3.336-5.652l.1-.347a1.026,1.026,0,0,1,.338-.51l.273-.228a1.654,1.654,0,0,0,.591-1.268v-3.6a1.569,1.569,0,0,0-.489-1.007l-.29-.322a1.046,1.046,0,0,1-.265-.7V9.411A8.077,8.077,0,0,0,36.1,3.226a11.262,11.262,0,0,0-5.264-1.134A11.159,11.159,0,0,0,25.59,3.226a1.045,1.045,0,1,1-.971-1.851A13.276,13.276,0,0,1,30.834,0a13.369,13.369,0,0,1,6.235,1.37,10.251,10.251,0,0,1,5.244,7.952l.008,4.869a3.589,3.589,0,0,1,1.04,2.418v3.6a3.736,3.736,0,0,1-1.346,2.871l-.033.041a15.69,15.69,0,0,1-3.841,6.541v2.867a2.282,2.282,0,0,0,1.215,1.961l7.055,4.42a8.246,8.246,0,0,1,4.257,7.23v.836a2.087,2.087,0,0,1-2.088,2.088Zm0,0" transform="translate(0.483 0)" fill="#666d7b"/>
        <path id="Path_118674" data-name="Path 118674" d="M30.044,20.6A1.043,1.043,0,0,1,29,19.559v-3.6a1.044,1.044,0,1,1,2.088,0v3.6A1.043,1.043,0,0,1,30.044,20.6Zm0,0" transform="translate(1.273 0.655)" fill="#666d7b"/>
        <path id="Path_118675" data-name="Path 118675" d="M59.581,49.068H23.044a1.044,1.044,0,1,1,0-2.088H59.581v-.836a6.174,6.174,0,0,0-3.226-5.428L49.309,36.3a4.373,4.373,0,0,1-2.255-3.768V29.246a1.045,1.045,0,0,1,.294-.726l.29-.3a13.557,13.557,0,0,0,3.336-5.652l.1-.347a1.026,1.026,0,0,1,.338-.51l.273-.228a1.654,1.654,0,0,0,.591-1.268v-3.6a1.569,1.569,0,0,0-.489-1.007l-.29-.322a1.046,1.046,0,0,1-.265-.7V9.411c-.016-.241-.546-7.32-9.4-7.32A11.159,11.159,0,0,0,36.59,3.226a1.045,1.045,0,0,1-.971-1.851A13.276,13.276,0,0,1,41.834,0c8.633,0,11.283,6.108,11.479,9.342l.008,4.848a3.589,3.589,0,0,1,1.04,2.418v3.6a3.736,3.736,0,0,1-1.346,2.871l-.033.041a15.665,15.665,0,0,1-3.841,6.541v2.867A2.292,2.292,0,0,0,50.361,34.5l7.05,4.416a8.251,8.251,0,0,1,4.257,7.23v.836a2.087,2.087,0,0,1-2.088,2.088Zm0,0" transform="translate(0.966 0)" fill="#666d7b"/>
      </g>
      <path id="Path_118676" data-name="Path 118676" d="M2,45H37.493v2.088H2Zm0,0" transform="translate(0.088 1.976)" fill="#fff"/>
      <path id="Path_118677" data-name="Path 118677" d="M7.22,46.048A1.051,1.051,0,0,0,6.176,45H2v2.088H6.176A1.049,1.049,0,0,0,7.22,46.048Zm0,0" transform="translate(0.088 1.976)" fill="#666d7b"/>
      <path id="Path_118678" data-name="Path 118678" d="M37.01,47.092V45H14.044a1.044,1.044,0,0,0,0,2.088Zm0,0" transform="translate(0.571 1.976)" fill="#666d7b"/>
      <path id="Path_118679" data-name="Path 118679" d="M10.044,45a1.112,1.112,0,0,0-.742.3l-.122.159a.745.745,0,0,0-.1.188.723.723,0,0,0-.061.188,1.8,1.8,0,0,0-.02.208,1.092,1.092,0,0,0,.3.742,1.032,1.032,0,0,0,1.7-.347,1.071,1.071,0,0,0,.082-.4A1.031,1.031,0,0,0,10.044,45Zm0,0" transform="translate(0.395 1.976)" fill="#666d7b"/>
    </g>
    <g id="Group_42969" data-name="Group 42969" transform="translate(896.142 481.169)">
      <path id="Shape" d="M53.262,43.632A10.631,10.631,0,1,1,49.7,35.694a10.631,10.631,0,0,1,3.562,7.938Z" transform="translate(-31.182 -32.182)" fill="#e8edfc"/>
      <ellipse id="Oval" cx="9.404" cy="10.558" rx="9.404" ry="10.558" transform="translate(0.817 0.892)" fill="#fff"/>
      <path id="Shape-2" data-name="Shape" d="M11.449,5.009V6.44a.716.716,0,0,1-.716.716H7.871a.716.716,0,0,0-.716.716v2.862a.716.716,0,0,1-.716.716H5.009a.716.716,0,0,1-.716-.716V7.871a.716.716,0,0,0-.716-.716H.716A.716.716,0,0,1,0,6.44V5.009a.716.716,0,0,1,.716-.716H3.578a.716.716,0,0,0,.716-.716V.716A.716.716,0,0,1,5.009,0H6.44a.716.716,0,0,1,.716.716V3.578a.716.716,0,0,0,.716.716h2.862A.716.716,0,0,1,11.449,5.009Z" transform="translate(3.271 11.367) rotate(-45)" fill="#e8edfc"/>
      <g id="_041---Male-User-Add-Account" data-name="041---Male-User-Add-Account" transform="translate(0)">
        <g id="Layer_10" transform="translate(0 0)">
          <g id="Group_42968" data-name="Group 42968">
            <path id="Shape-3" data-name="Shape" d="M43.452,33a11.449,11.449,0,0,0,0,22.9,11.449,11.449,0,0,0,0-22.9Zm0,21.262a9.813,9.813,0,1,1,9.813-9.813A9.813,9.813,0,0,1,43.452,54.262Z" transform="translate(-32.017 -33)" fill="#666d7b"/>
            <path id="Shape-4" data-name="Shape" d="M10.9,4.089H8.178V1.363A1.363,1.363,0,0,0,6.815,0H5.452A1.363,1.363,0,0,0,4.089,1.363V4.089H1.363A1.363,1.363,0,0,0,0,5.452V6.815A1.363,1.363,0,0,0,1.363,8.178H4.089V10.9a1.363,1.363,0,0,0,1.363,1.363H6.815A1.363,1.363,0,0,0,8.178,10.9V8.178H10.9a1.363,1.363,0,0,0,1.363-1.363V5.452A1.363,1.363,0,0,0,10.9,4.089Zm0,2.726H8.178A1.363,1.363,0,0,0,6.815,8.178V10.9H5.452V8.178A1.363,1.363,0,0,0,4.089,6.815H1.363V5.452H4.089A1.363,1.363,0,0,0,5.452,4.089V1.363H6.815V4.089A1.363,1.363,0,0,0,8.178,5.452H10.9Z" transform="translate(11.435 2.676) rotate(45)" fill="#666d7b"/>
            <path id="Shape-5" data-name="Shape" d="M10.9,4.089H8.178V1.363A1.363,1.363,0,0,0,6.815,0H5.452A1.363,1.363,0,0,0,4.089,1.363V4.089H1.363A1.363,1.363,0,0,0,0,5.452V6.815A1.363,1.363,0,0,0,1.363,8.178H4.089V10.9a1.363,1.363,0,0,0,1.363,1.363H6.815A1.363,1.363,0,0,0,8.178,10.9V8.178H10.9a1.363,1.363,0,0,0,1.363-1.363V5.452A1.363,1.363,0,0,0,10.9,4.089Zm0,2.726H8.178A1.363,1.363,0,0,0,6.815,8.178V10.9H5.452V8.178A1.363,1.363,0,0,0,4.089,6.815H1.363V5.452H4.089A1.363,1.363,0,0,0,5.452,4.089V1.363H6.815V4.089A1.363,1.363,0,0,0,8.178,5.452H10.9Z" transform="translate(11.435 2.676) rotate(45)" fill="#666d7b"/>
          </g>
        </g>
      </g>
    </g>
  </g>
</svg>
