<svg id="warning" xmlns="http://www.w3.org/2000/svg" width="49.542" height="42.079" viewBox="0 0 49.542 42.079">
  <g id="Group_42979" data-name="Group 42979" transform="translate(0.832 0.822)">
    <path id="Path_118680" data-name="Path 118680" d="M52.785,86.486H10.292A2.686,2.686,0,0,1,7.98,82.415L29.235,47.354a2.622,2.622,0,0,1,1.065-1,2.7,2.7,0,0,1,3.542,1L55.1,82.415a2.686,2.686,0,0,1-2.312,4.071Z" transform="translate(-7.596 -46.055)" fill="#e3b9d0"/>
    <path id="Path_118681" data-name="Path 118681" d="M50.308,89.285H10.292A2.686,2.686,0,0,1,7.98,85.214L29.235,50.152a2.623,2.623,0,0,1,1.065-1,2.623,2.623,0,0,1,1.065,1L52.62,85.214a2.686,2.686,0,0,1-2.312,4.071Z" transform="translate(-7.596 -48.853)" fill="#fcd0e8"/>
    <path id="Path_118682" data-name="Path 118682" d="M92.714,126.466H55.324a.823.823,0,0,1-.7-1.255L72.632,95.5l.677-1.123a.828.828,0,0,1,1.42,0l18.687,30.834a.823.823,0,0,1-.7,1.255Z" transform="translate(-49.961 -89.338)" fill="#e3b9d0"/>
    <path id="Path_118683" data-name="Path 118683" d="M89.932,140.706H55.324a.823.823,0,0,1-.7-1.255l18.01-29.711,18.01,29.711a.829.829,0,0,1-.71,1.255Z" transform="translate(-49.961 -103.577)" fill="#fce4f1"/>
    <g id="Group_42978" data-name="Group 42978" transform="translate(21.466 13.182)">
      <path id="Path_118684" data-name="Path 118684" d="M231.9,182.273h0a2.477,2.477,0,0,1,2.477,2.477v7.432a2.477,2.477,0,0,1-2.477,2.477h0a2.477,2.477,0,0,1-2.477-2.477V184.75A2.477,2.477,0,0,1,231.9,182.273Z" transform="translate(-229.423 -182.273)" fill="#fcd0e8"/>
      <ellipse id="Ellipse_8627" data-name="Ellipse 8627" cx="2.477" cy="2.477" rx="2.477" ry="2.477" transform="translate(0 15.689)" fill="#fcd0e8"/>
    </g>
    <path id="Path_118685" data-name="Path 118685" d="M32.768,46.378a2.659,2.659,0,0,0-1.057,1L10.456,82.439a2.686,2.686,0,0,0,2.312,4.071H10.291a2.686,2.686,0,0,1-2.312-4.071L29.234,47.377a2.622,2.622,0,0,1,1.065-1A2.712,2.712,0,0,1,32.768,46.378Z" transform="translate(-7.595 -46.078)" fill="#fff"/>
  </g>
  <g id="Group_42981" data-name="Group 42981" transform="translate(0 0)">
    <path id="Path_118686" data-name="Path 118686" d="M28.977,56.914l-5.564,9.18L7.726,91.975l-1.412-.856L22,65.239l5.565-9.181Z" transform="translate(-5.8 -54.365)" fill="#fff"/>
    <g id="Group_42980" data-name="Group 42980" transform="translate(0 0)">
      <path id="Path_118687" data-name="Path 118687" d="M190.809,110.811a.627.627,0,0,0-.089-.141.524.524,0,0,0-.1-.119,1.211,1.211,0,0,0-.132-.1.867.867,0,0,0-.625-.1.814.814,0,0,0-.465,1.292.826.826,0,0,0,1.467-.684Z" transform="translate(-171.012 -103.387)" fill="#ca619d"/>
      <path id="Path_118688" data-name="Path 118688" d="M28.785,40.253a3.522,3.522,0,0,0-6.02,0h0l-1.712,2.825a.826.826,0,1,0,1.412.856l1.712-2.825a1.871,1.871,0,0,1,3.2,0L48.624,76.17a1.857,1.857,0,0,1-1.6,2.817H4.525a1.857,1.857,0,0,1-1.6-2.817h0L19.041,49.583a.826.826,0,1,0-1.412-.856L1.515,75.313h0a3.509,3.509,0,0,0,3.011,5.325h42.5a3.509,3.509,0,0,0,3.01-5.325Z" transform="translate(-1 -38.56)" fill="#ca619d"/>
      <path id="Path_118689" data-name="Path 118689" d="M47.01,119.749a1.653,1.653,0,0,0,1.439.841H85.833a1.652,1.652,0,0,0,1.412-2.508L68.553,87.244a1.651,1.651,0,0,0-2.824,0L47.037,118.082A1.653,1.653,0,0,0,47.01,119.749Zm1.439-.81L67.141,88.1l18.692,30.839-37.386,0Z" transform="translate(-42.366 -81.814)" fill="#ca619d"/>
      <path id="Path_118690" data-name="Path 118690" d="M226.193,174.74a3.307,3.307,0,0,0-3.3,3.3v7.432a3.3,3.3,0,1,0,6.606,0v-7.432A3.307,3.307,0,0,0,226.193,174.74Zm1.652,10.735a1.652,1.652,0,0,1-3.3,0v-7.432a1.652,1.652,0,0,1,3.3,0Z" transform="translate(-201.418 -161.562)" fill="#ca619d"/>
      <path id="Path_118691" data-name="Path 118691" d="M226.193,336.873a3.3,3.3,0,1,0,3.3,3.3A3.3,3.3,0,0,0,226.193,336.873Zm0,4.954a1.652,1.652,0,1,1,1.652-1.651A1.651,1.651,0,0,1,226.193,341.828Z" transform="translate(-201.418 -308.006)" fill="#ca619d"/>
    </g>
  </g>
</svg>
